<?xml version="1.0" encoding="UTF-8"?>
<svg id="a" xmlns="http://www.w3.org/2000/svg" width="26.143in" height="28.454in" viewBox="0 0 1882.3 2048.7">
  <path d="M455.4,346.5c6.2-35.3,30.9-50.6,64.1-55.2,55-8,91.6-35.5,108.6-91.2,13.5-44,33-86.3,51.1-128.7,4.4-10.3,13.5-19,22-26.6,33-29.8,69.9-23.1,87.7,16.9,11.7,26.6,17.9,55.7,28.9,82.4,8.7,21.3,17.9,43.5,32.3,60.9,28.2,34.6,52.9,39.2,94.8,23.8,10.8-4.1,21.3-9.4,31.8-14,9.6-4.4,22.4-8.7,38.2-1.1,64.1,30.5,99.6,8.5,129.9-43.3,13.7-23.6,27.3-47.2,43.5-68.9,21.3-28.4,50.6-36,84.1-24,30.2,10.8,43.1,34.6,48.6,65,7.1,39.4,16,78.6,25.7,117.5,7.3,30,31.1,47.9,55,63.9,15.1,10.1,32.3,17.6,49.5,24.5,55.4,22,77.2,62.1,62.3,119.1-2.3,8.7-9.8,16-15.1,23.8-11.2,16-8.2,27.7,7.8,38.9,10.5,7.3,19.2,17.4,28.9,25.9,12.1,10.8,25.2,15.1,42.6,15.8,30.5,1.6,61.6,5.7,90.9,14.4,55.9,16.7,62.8,46.9,22.7,90.2-17.6,19-36.6,36.9-54.7,55.4-5.3,5.3-11,10.8-14.9,16.9-21.1,34.4-30.5,60.7,16.5,86.6,11.5,6.2,22.2,14,34.1,19,31.8,13.5,44.2,37.1,40.3,70.5-.5,3.4-.2,7.1-1.4,10.1-33.4,83.4-11.9,166,.9,249.4,14.2,90.7,13.5,182.1,1.4,273-8.5,64.6-23.1,128.5-28.6,193.3-2.5,28.6,6.4,60.2,17.4,87.3,16,39.2,40.3,74.7,57.7,113.4,10.3,22.7,18.1,47.6,20.4,72.4,3,35-28.9,54.7-61.6,40.5-25.2-11-50.2-22.4-74-36.2-58.6-34.1-118.9-35.5-182.5-17.2-37.8,10.8-76.5,19.7-115.4,24.7-57.3,7.3-109.9-14-161.7-35.5-37.1-15.6-73.7-31.6-111.3-46-24.3-9.4-47.2-6-69.9,8.9-8.2,5.5-23.6,6.4-33.2,2.7-37.1-14.7-74-16.9-111.3-3.2-54.7,20.2-109,41.9-164.2,61.4-76.7,27-155.3,41-236.8,28.6-16-2.5-31.6-7.8-46.9-12.6-37.8-11.5-74.7-8.2-113.1,.5-55.7,12.8-107,33.7-154.4,64.8-16.9,11.2-36,15.1-56.3,13.7-22.9-1.6-38.2-12.4-41-34.6-3.4-30.2,1.6-58.6,17.6-85.7,39.6-66.2,82.9-130.1,109-203.6,14.7-41.5,14.7-84.1,12.1-126.9-2.1-33-9.2-65.7-11-98.7-3-49.7-3.2-99.9-4.6-149.6-2.1-79.9,12.1-157.8,30-235,13.3-57.5,16.9-115.4,15.1-174.1-.2-8.7-4.8-17.2-8-25.7-2.5-7.1-6-14.2-9.6-20.8-35.5-64.8-1.4-83.1,52-91.8,21.3-3.7,44.7-8.9,62.1-20.8,34.4-23.1,27.5-85.2-10.1-115.9-19-15.3-38.7-29.8-56.8-46.3-8-7.3-15.3-15.8-21.3-25-23.8-37.1-14.9-64.4,16.5-79.7,28.4-14,57.9-19.7,90-13.5,15.3,3,29.8,2.3,43.1-.9,51.5-12.1,85.9-60.9,82.9-113.6-.9-3.8-1.1-7.4-.4-10.2h0Z" fill="none" stroke="#fff" stroke-miterlimit="10" stroke-width="2"/>
  <g>
    <path d="M716,719.7c0-1.3,1-2.2,2.5-2.2h6.2v-54l-6.2-.7c-1.6-.2-2.5-1.1-2.5-2.3,0-1.3,1-2.2,2.5-2.2h26.5c10.4,0,19.1,5.5,19.1,15.2,0,9.2-6.1,12.6-8.5,13.6l-2.4,1,2.4,.6c2.5,.6,11.5,4.4,11.5,15.3,0,10.4-8.8,17.8-18.6,17.8h-30c-1.5,.1-2.5-.8-2.5-2.1Zm29.9-33.5c3.3,0,9.7-4.2,9.7-12.6,0-8.2-6.2-10.9-9.7-10.9h-12.4v23.5h12.4Zm0,31.3c9.1,0,12.6-6.6,12.6-13.5,0-8.8-5.6-13.5-12.6-13.5h-12.4v27h12.4Z" fill="#fff"/>
    <path d="M777.8,690.1c0-20,11.7-32.2,24.5-32.2,12.9,0,24.4,12,24.4,32.2s-11.5,32.2-24.4,32.2c-13,0-24.5-12-24.5-32.2Zm39.3,0c0-15-5-27.9-14.8-27.9s-14.9,12.9-14.9,27.9c0,15.1,5,27.9,14.9,27.9,9.7,0,14.8-12.8,14.8-27.9Z" fill="#fff"/>
    <path d="M838.9,658.4h19.6c1.3,0,2.3,.9,2.3,2.2s-1,2.2-2.3,2.2h-3.3l9.7,23.5,11-23.5h-6.1c-1.3,0-2.3-.9-2.3-2.2s1-2.2,2.3-2.2h18.2c1.6,0,2.4,1,2.4,2.2,0,1.3-.9,2.2-2.4,2.2h-6l-14.8,30.2v24.6h10.4c1.4,0,2.4,.9,2.4,2.2s-1,2.2-2.4,2.2h-30.3c-1.5,0-2.4-.9-2.4-2.2s.9-2.2,2.4-2.2h10.4v-24.8l-13.2-30h-5.4c-1.3,0-2.3-.9-2.3-2.2s.8-2.2,2.1-2.2Z" fill="#fff"/>
    <path d="M988.5,677.3l6.8,22.4,7-37h-1.7c-1.3,0-2.4-1-2.4-2.2s1-2.2,2.4-2.2h8.9c1.3,0,2.4,1,2.4,2.2s-1,2.2-2.4,2.2h-2.6l-11.3,58.7c-.1,.5-.8,1-1.5,1-1,0-1.5-.5-1.6-1l-7.1-25.5-6.4,25.5c-.1,.5-.6,1-1.6,1-.7,0-1.4-.5-1.5-1l-12.9-58.7h-2.6c-1.3,0-2.4-1-2.4-2.2s1-2.2,2.4-2.2h13.1c1.3,0,2.3,1,2.3,2.2s-1,2.2-2.3,2.2h-1.7l8.2,37,5.6-22.4c.2-.5,.8-1,1.5-1,.8,0,1.3,.5,1.4,1Z" fill="#fff"/>
    <path d="M1055.7,717.5c8.4-.2,9.6-7.7,10.1-11.3l.3-4.9c.1-1.6,.7-2.6,2.3-2.6s2.4,1,2.3,2.6l-1.4,17.8c-.1,1.5-.8,2.7-2.4,2.7h-44.1c-1.6,0-2.5-.9-2.5-2.2s1-2.2,2.5-2.2h7.7v-54l-7.7-.7c-1.7-.2-2.5-1.1-2.5-2.3,0-1.3,1-2.2,2.5-2.2h44.1c1.6,0,2.3,1.2,2.4,2.7l1.4,17.8c.1,1.6-.7,2.6-2.3,2.6s-2.2-1-2.3-2.6l-.3-4.9c-.5-3.6-1.7-11.3-10.1-11.3h-16.5v24h7.2c4.6,0,5.7-1.7,6.4-5l.4-2.5c.3-1.5,.7-2.5,2.2-2.5s2.2,1,2.2,2.5v20.4c0,1.5-.7,2.5-2.2,2.5s-1.9-1-2.2-2.5l-.4-2.5c-.6-3.4-1.7-5.9-6.4-5.9h-7.2v26.5h16.5Z" fill="#fff"/>
    <path d="M1109.1,684.8c10.7,4.4,20.5,6.6,20.5,20.3,0,13.8-10.9,17.7-19.7,17.7-9.2,0-16.3-4.8-19-9.5v6.2c0,1.6-1,2.4-2.2,2.4s-2.2-.9-2.2-2.4v-20.4c0-1.4,.7-2.5,2.2-2.5s2,1.1,2.2,2.5l.6,4c1.3,8.9,10.3,15.3,18.2,15.3,5.9,0,13.5-3,13.5-11.2,0-7.7-10-11.3-18.5-14.4-10.2-3.7-17.8-7.6-17.8-18.4,0-9.3,7.5-16.1,17.8-16.1,7,0,13.9,2.9,18.7,8.8l.5-6.8c.1-1.7,1.1-2.5,2.3-2.5,1.3,0,2.2,1,2.2,2.5v17.1c0,1.6-.7,2.4-2.1,2.4-1.5,0-1.7-1.3-2.3-2.5-3.1-7.3-11.3-14.7-19.3-14.7-7,0-10.2,3.2-10.2,9.2,.1,7.5,7.5,10.1,14.6,13Z" fill="#fff"/>
    <path d="M1158.5,662.7c-8.4,0-8.4,5.1-9.2,13.9l-.3,4c-.1,1.5-.6,2.6-2.2,2.6s-2.4-1.1-2.4-2.6l.5-19.6c0-1.5,.8-2.7,2.4-2.7h41.1c1.6,0,2.4,1.2,2.4,2.7l.5,19.6c0,1.5-.8,2.6-2.4,2.6s-2.1-1.1-2.2-2.6l-.3-4c-.8-8.8-.8-13.9-9.2-13.9h-5v54.8h10.3c1.6,0,2.4,1,2.4,2.2s-.9,2.2-2.4,2.2h-29.2c-1.6,0-2.4-1-2.4-2.2s.9-2.2,2.4-2.2h10.3v-54.8h-5.1Z" fill="#fff"/>
  </g>
  <g>
    <path d="M1243.1,864.8l.3-3.3c.1-1.2,.8-1.9,1.7-1.9,1,0,1.6,.8,1.6,1.9v14.3c0,1.2-.8,1.9-1.9,1.9-1.3,0-1.6-.8-1.9-1.9-2.4-7.5-4.4-13-11.4-13-7.1,0-10.5,9.2-10.5,20.2,0,11.1,3.4,20.2,11.1,20.2,4.4,0,7.7-3.9,10.1-9.7l1.3-3.1c.4-1,1-2.2,2.3-1.9,1.1,.2,2,1,1.4,3-2.2,8-6.5,14.9-15.1,14.9-9.6,0-18.1-7.2-18.1-23.4s8.6-23.4,18.1-23.4c5,0,8.5,2.6,11,5.2Z" fill="#fff"/>
    <path d="M1257.8,883c0-14.8,8.6-23.7,18-23.7,9.5,0,18,8.9,18,23.7,0,14.9-8.5,23.7-18,23.7-9.5,.1-18-8.8-18-23.7Zm29,0c0-11-3.7-20.5-10.9-20.5s-11,9.5-11,20.5c0,11.1,3.7,20.5,11,20.5,7.2,.1,10.9-9.4,10.9-20.5Z" fill="#fff"/>
    <path d="M1323.3,873.6l5,16.5,5.2-27.3h-1.3c-1,0-1.7-.7-1.7-1.6s.8-1.6,1.7-1.6h6.5c1,0,1.7,.7,1.7,1.6s-.8,1.6-1.7,1.6h-1.9l-8.3,43.2c-.1,.4-.6,.8-1.1,.8-.7,0-1.1-.4-1.2-.8l-5.3-18.8-4.7,18.8c-.1,.4-.4,.8-1.2,.8-.5,0-1-.4-1.1-.8l-9.5-43.2h-1.9c-1,0-1.7-.7-1.7-1.6s.8-1.6,1.7-1.6h9.6c1,0,1.7,.7,1.7,1.6s-.8,1.6-1.7,1.6h-1.3l6,27.3,4.1-16.5c.1-.4,.6-.8,1.1-.8,.9,0,1.3,.4,1.3,.8Z" fill="#fff"/>
    <path d="M1347,904.8c0-1,.7-1.6,1.9-1.6h4.6v-39.8l-4.6-.5c-1.2-.1-1.9-.8-1.9-1.7,0-1,.8-1.6,1.9-1.6h19.6c7.7,0,14.1,4,14.1,11.2,0,6.8-4.5,9.3-6.3,10l-1.8,.7,1.8,.4c1.9,.4,8.5,3.3,8.5,11.3,0,7.6-6.5,13.1-13.7,13.1h-22.1c-1.3,.1-2-.5-2-1.5Zm22-24.6c2.4,0,7.1-3.1,7.1-9.3,0-6-4.6-8-7.1-8h-9.2v17.3h9.2Zm0,23c6.7,0,9.3-4.9,9.3-9.9,0-6.5-4.1-9.9-9.3-9.9h-9.2v19.9h9.2v-.1Z" fill="#fff"/>
    <path d="M1392.5,883c0-14.8,8.6-23.7,18-23.7,9.5,0,18,8.9,18,23.7,0,14.9-8.5,23.7-18,23.7-9.5,.1-18-8.8-18-23.7Zm28.9,0c0-11-3.7-20.5-10.9-20.5s-11,9.5-11,20.5c0,11.1,3.7,20.5,11,20.5,7.2,.1,10.9-9.4,10.9-20.5Z" fill="#fff"/>
    <path d="M1437.5,859.6h14.4c1,0,1.7,.6,1.7,1.6s-.7,1.6-1.7,1.6h-2.4l7.1,17.3,8.1-17.3h-4.5c-1,0-1.7-.6-1.7-1.6s.7-1.6,1.7-1.6h13.4c1.2,0,1.8,.7,1.8,1.6,0,1-.6,1.6-1.8,1.6h-4.4l-10.9,22.3v18.1h7.6c1,0,1.7,.6,1.7,1.6s-.7,1.6-1.7,1.6h-22.3c-1.1,0-1.7-.6-1.7-1.6s.6-1.6,1.7-1.6h7.6v-18.2l-9.7-22.1h-4c-1,0-1.7-.6-1.7-1.6,.1-1,.8-1.7,1.7-1.7Z" fill="#fff"/>
    <path d="M1188.7,950.6l5,16.5,5.2-27.3h-1.3c-1,0-1.7-.7-1.7-1.6s.8-1.6,1.7-1.6h6.5c1,0,1.7,.7,1.7,1.6s-.8,1.6-1.7,1.6h-1.9l-8.3,43.2c-.1,.4-.6,.8-1.1,.8-.7,0-1.1-.4-1.2-.8l-5.3-18.8-4.7,18.8c-.1,.4-.4,.8-1.2,.8-.5,0-1-.4-1.1-.8l-9.5-43.2h-1.9c-1,0-1.7-.7-1.7-1.6s.8-1.6,1.7-1.6h9.6c1,0,1.7,.7,1.7,1.6s-.8,1.6-1.7,1.6h-1.3l6,27.3,4.1-16.5c.1-.4,.6-.8,1.1-.8,.8,0,1.2,.4,1.3,.8Z" fill="#fff"/>
    <path d="M1243.2,980.2c1.2,0,1.9,.6,1.9,1.6s-.7,1.6-1.9,1.6h-24.4c-1.2,0-1.9-.6-1.9-1.6s.7-1.6,1.9-1.6h9v-40.4h-9.1c-1.2,0-1.9-.6-1.9-1.6s.7-1.6,1.9-1.6h24.4c1.2,0,1.9,.6,1.9,1.6s-.7,1.6-1.9,1.6h-8.9v40.4h9Z" fill="#fff"/>
    <path d="M1259.4,980.2h4.9v-40.4h-4.9c-1.2,0-1.9-.6-1.9-1.6s.7-1.6,1.9-1.6h16.2c1.2,0,1.9,.6,1.9,1.6s-.7,1.6-1.9,1.6h-4.9v40.4h13c6.2,0,7.1-5.7,7.4-8.3l.3-3c.1-1.1,.6-1.9,1.7-1.9s1.7,.8,1.6,1.9l-1,12.5c-.1,1.1-.6,2-2.4,2h-31.9c-1.2,0-1.9-.6-1.9-1.6,0-1,.7-1.6,1.9-1.6Z" fill="#fff"/>
    <path d="M1302.5,936.6h20.4c7.1,0,17.5,6.5,17.5,23.6,0,18.7-10.6,23.2-17.4,23.2h-20.5c-1.2,0-1.9-.6-1.9-1.6s.7-1.6,1.9-1.6h5.8v-40.4h-5.8c-1.2,0-1.9-.6-1.9-1.6,.1-1,.8-1.6,1.9-1.6Zm12.2,43.6h8.3c6.5,0,11-8.7,11-20,0-11-4.2-20.4-11.1-20.4h-8.1l-.1,40.4Z" fill="#fff"/>
    <path d="M1368.2,950.6l5,16.5,5.2-27.3h-1.3c-1,0-1.7-.7-1.7-1.6s.8-1.6,1.7-1.6h6.5c1,0,1.7,.7,1.7,1.6s-.8,1.6-1.7,1.6h-1.9l-8.3,43.2c-.1,.4-.6,.8-1.1,.8-.7,0-1.1-.4-1.2-.8l-5.3-18.8-4.7,18.8c-.1,.4-.4,.8-1.2,.8-.5,0-1-.4-1.1-.8l-9.5-43.2h-1.9c-1,0-1.7-.7-1.7-1.6s.8-1.6,1.7-1.6h9.6c1,0,1.7,.7,1.7,1.6s-.8,1.6-1.7,1.6h-1.3l6,27.3,4.1-16.5c.1-.4,.6-.8,1.1-.8,.9,0,1.2,.4,1.3,.8Z" fill="#fff"/>
    <path d="M1417.7,980.2c6.2-.1,7.1-5.7,7.4-8.3l.3-3.6c.1-1.2,.5-1.9,1.7-1.9s1.7,.8,1.7,1.9l-1,13.1c-.1,1.1-.6,2-1.7,2h-32.5c-1.2,0-1.9-.6-1.9-1.6s.7-1.6,1.9-1.6h5.6v-39.8l-5.6-.5c-1.2-.1-1.9-.8-1.9-1.7,0-1,.8-1.6,1.9-1.6h32.5c1.2,0,1.7,.9,1.7,2l1,13.1c.1,1.2-.5,1.9-1.7,1.9s-1.6-.8-1.7-1.9l-.3-3.6c-.4-2.6-1.2-8.3-7.4-8.3h-12.2v17.7h5.3c3.4,0,4.2-1.2,4.7-3.7l.3-1.9c.2-1.1,.5-1.9,1.6-1.9s1.6,.8,1.6,1.9v15c0,1.1-.5,1.9-1.6,1.9s-1.4-.8-1.6-1.9l-.3-1.9c-.4-2.5-1.3-4.4-4.7-4.4h-5.3v19.5h12.2v.1Z" fill="#fff"/>
    <path d="M1457,956.1c7.9,3.2,15.1,4.9,15.1,14.9,0,10.2-8,13-14.5,13-6.8,0-12-3.5-14-7v4.6c0,1.2-.7,1.8-1.6,1.8s-1.6-.6-1.6-1.8v-15c0-1,.5-1.9,1.6-1.9s1.5,.8,1.6,1.9l.4,3c1,6.5,7.6,11.3,13.4,11.3,4.4,0,9.9-2.2,9.9-8.3,0-5.7-7.4-8.3-13.6-10.6-7.5-2.7-13.1-5.6-13.1-13.5,0-6.9,5.5-11.9,13.1-11.9,5.1,0,10.3,2.1,13.8,6.5l.4-5c.1-1.2,.8-1.9,1.7-1.9,1,0,1.6,.7,1.6,1.9v12.6c0,1.2-.5,1.8-1.5,1.8-1.1,0-1.3-1-1.7-1.9-2.3-5.4-8.3-10.8-14.2-10.8-5.1,0-7.5,2.4-7.5,6.8,.1,5.4,5.5,7.4,10.7,9.5Z" fill="#fff"/>
    <path d="M1493.4,939.8c-6.2,0-6.2,3.8-6.8,10.3l-.3,3c-.1,1.1-.4,1.9-1.6,1.9s-1.7-.8-1.7-1.9l.4-14.4c0-1.1,.6-2,1.7-2h30.3c1.2,0,1.7,.9,1.7,2l.4,14.4c0,1.1-.6,1.9-1.7,1.9s-1.5-.8-1.6-1.9l-.3-3c-.6-6.5-.6-10.3-6.8-10.3h-3.7v40.4h7.6c1.2,0,1.8,.7,1.8,1.6s-.6,1.6-1.8,1.6h-21.5c-1.2,0-1.8-.7-1.8-1.6s.6-1.6,1.8-1.6h7.6v-40.4h-3.7Z" fill="#fff"/>
  </g>
  <g>
    <path d="M988.7,1286.5c4.4,0,8.5,2.6,11,5.2l.3-3.3c.1-1.2,.8-1.9,1.7-1.9,1,0,1.6,.8,1.6,1.9v14.3c0,1.2-.8,1.9-1.9,1.9-1.3,0-1.6-.8-1.9-1.9-2.4-7.5-5.1-13-11.4-13-7.2,0-10.5,9.2-10.5,20.2,0,11.1,3.2,20.2,10.5,20.2,6.1,0,10.9-6.7,11-15.9h-4.6c-1.2,0-1.9-.5-1.9-1.6s.7-1.6,1.9-1.6h13.1c1.2,0,1.9,.8,1.9,1.6,0,1-.7,1.6-1.9,1.6h-4l.1,17.2c0,1.1-.6,2-1.7,2s-1.7-.9-1.7-2l.1-4.9c-2.3,3.9-6.7,6.8-12.2,6.8-9.6,0-17.5-7.2-17.5-23.4-.1-16.1,7.8-23.4,18-23.4Z" fill="#fff"/>
    <path d="M1015.6,1310c0-14.8,8.6-23.7,18-23.7,9.5,0,18,8.9,18,23.7s-8.5,23.7-18,23.7c-9.6,0-18-8.9-18-23.7Zm28.9,0c0-11-3.7-20.5-10.9-20.5s-11,9.5-11,20.5c0,11.1,3.7,20.5,11,20.5,7.2,0,10.9-9.5,10.9-20.5Z" fill="#fff"/>
    <path d="M1125.7,1334l3.1,4.4c1.3,1.5,1.2,2.4,.5,3.1-1,1-2.2,.4-4.7-2-6.5-6.3-13.5-15.4-13.5-29.6,0-14.3,6.8-23,13.5-29.6,1.9-1.9,3.5-3.2,4.7-2,.6,.6,.7,1.7-.5,3.1l-3.1,4.4c-4.4,6.2-8.1,13.8-8.1,24-.1,10.4,3.8,18.1,8.1,24.2Z" fill="#fff"/>
    <path d="M1161.4,1289.8c-6.2,0-6.2,3.8-6.8,10.3l-.3,3c-.1,1.1-.4,1.9-1.6,1.9s-1.7-.8-1.7-1.9l.4-14.4c0-1.1,.6-2,1.7-2h30.3c1.2,0,1.7,.9,1.7,2l.4,14.4c0,1.1-.6,1.9-1.7,1.9s-1.5-.8-1.6-1.9l-.3-3c-.6-6.5-.6-10.3-6.8-10.3h-3.7v40.4h7.6c1.2,0,1.8,.7,1.8,1.6s-.6,1.6-1.8,1.6h-21.5c-1.2,0-1.8-.7-1.8-1.6s.6-1.6,1.8-1.6h7.6v-40.4h-3.7Z" fill="#fff"/>
    <path d="M1215.8,1288.5l13.2,41.6h3.2c1.2,0,1.9,.6,1.9,1.6s-.7,1.6-1.9,1.6h-14.4c-1.2,0-1.9-.6-1.9-1.6s.7-1.6,1.9-1.6h4.3l-2.9-9.9h-14.4l-2.8,9.9h3.7c1.2,0,1.9,.6,1.9,1.6s-.7,1.6-1.9,1.6h-11.7c-1.2,0-1.9-.6-1.9-1.6s.7-1.6,1.9-1.6h3.8l12.7-41.6c.4-1.2,1.2-2,2.6-2,1.6,0,2.3,.8,2.7,2Zm2.5,28.5l-6.2-20.8-6.3,20.8h12.5Z" fill="#fff"/>
    <path d="M1239.7,1333.4c-1.1,0-1.8-.6-1.8-1.6s.7-1.6,1.8-1.6h4v-40.4h-3.9c-1.2,0-1.9-.6-1.9-1.6s.7-1.6,1.9-1.6h13.7c1.2,0,1.9,.6,1.9,1.6s-.7,1.6-1.9,1.6h-3.3v20l15.7-20h-4.8c-1.1,0-1.8-.6-1.8-1.6s.7-1.6,1.8-1.6h13.8c1.1,0,1.8,.6,1.8,1.6s-.7,1.6-1.8,1.6h-3.8l-13.4,17,14.9,23.4h3.6c1.2,0,1.9,.6,1.9,1.6s-.7,1.6-1.9,1.6h-14.4c-1.1,0-1.8-.6-1.8-1.6s.7-1.6,1.8-1.6h3.2l-11.6-18.1-3.2,4.1v14h3.4c1.1,0,1.8,.6,1.8,1.6s-.7,1.6-1.8,1.6h-13.9Z" fill="#fff"/>
    <path d="M1310.1,1330.2c6.2-.1,7.1-5.7,7.4-8.3l.3-3.6c.1-1.2,.5-1.9,1.7-1.9s1.7,.8,1.7,1.9l-1,13.1c-.1,1.1-.6,2-1.7,2h-32.5c-1.2,0-1.9-.6-1.9-1.6s.7-1.6,1.9-1.6h5.6v-39.8l-5.6-.5c-1.2-.1-1.9-.8-1.9-1.7,0-1,.8-1.6,1.9-1.6h32.5c1.2,0,1.7,.9,1.7,2l1,13.1c.1,1.2-.5,1.9-1.7,1.9s-1.6-.8-1.7-1.9l-.3-3.6c-.4-2.6-1.2-8.3-7.4-8.3h-12.2v17.7h5.3c3.4,0,4.2-1.2,4.7-3.7l.3-1.9c.2-1.1,.5-1.9,1.6-1.9s1.6,.8,1.6,1.9v15c0,1.1-.5,1.9-1.6,1.9s-1.4-.8-1.6-1.9l-.3-1.9c-.4-2.5-1.3-4.4-4.7-4.4h-5.3v19.5h12.2v.1Z" fill="#fff"/>
    <path d="M1395.3,1288.5l13.2,41.6h3.2c1.2,0,1.9,.6,1.9,1.6s-.7,1.6-1.9,1.6h-14.4c-1.2,0-1.9-.6-1.9-1.6s.7-1.6,1.9-1.6h4.3l-2.9-9.9h-14.4l-2.8,9.9h3.7c1.2,0,1.9,.6,1.9,1.6s-.7,1.6-1.9,1.6h-11.7c-1.2,0-1.9-.6-1.9-1.6s.7-1.6,1.9-1.6h3.8l12.7-41.6c.4-1.2,1.2-2,2.6-2,1.6,0,2.3,.8,2.7,2Zm2.5,28.5l-6.2-20.8-6.3,20.8h12.5Z" fill="#fff"/>
    <path d="M1435.1,1285.9l-3.1-4.4c-1.2-1.4-1.2-2.4-.5-3.1,1.2-1.2,2.8,.1,4.7,2,6.7,6.5,13.5,15.3,13.5,29.6,0,14.2-7,23.2-13.5,29.6-2.6,2.4-3.7,3-4.7,2-.6-.6-.8-1.6,.5-3.1l3.1-4.4c4.3-6.1,8.2-13.8,8.1-24,0-10.4-3.7-18-8.1-24.2Z" fill="#fff"/>
    <path d="M1148.4,1377.5l5,16.5,5.2-27.3h-1.3c-1,0-1.7-.7-1.7-1.6s.8-1.6,1.7-1.6h6.5c1,0,1.7,.7,1.7,1.6s-.8,1.6-1.7,1.6h-1.9l-8.3,43.2c-.1,.4-.6,.8-1.1,.8-.7,0-1.1-.4-1.2-.8l-5.3-18.8-4.7,18.8c-.1,.4-.4,.8-1.2,.8-.5,0-1-.4-1.1-.8l-9.5-43.2h-1.9c-1,0-1.7-.7-1.7-1.6s.8-1.6,1.7-1.6h9.6c1,0,1.7,.7,1.7,1.6s-.8,1.6-1.7,1.6h-1.3l6,27.3,4.1-16.5c.1-.4,.6-.8,1.1-.8,.8,0,1.2,.4,1.3,.8Z" fill="#fff"/>
    <path d="M1193.3,1365.5l13.2,41.6h3.2c1.2,0,1.9,.6,1.9,1.6s-.7,1.6-1.9,1.6h-14.4c-1.2,0-1.9-.6-1.9-1.6s.7-1.6,1.9-1.6h4.3l-2.9-9.9h-14.4l-2.8,9.9h3.7c1.2,0,1.9,.6,1.9,1.6s-.7,1.6-1.9,1.6h-11.7c-1.2,0-1.9-.6-1.9-1.6s.7-1.6,1.9-1.6h3.8l12.7-41.6c.4-1.2,1.2-2,2.6-2,1.6,0,2.4,.7,2.7,2Zm2.5,28.5l-6.2-20.8-6.3,20.8h12.5Z" fill="#fff"/>
    <path d="M1219.1,1407.1h4.9v-40.4h-4.9c-1.2,0-1.9-.6-1.9-1.6s.7-1.6,1.9-1.6h16.2c1.2,0,1.9,.6,1.9,1.6s-.7,1.6-1.9,1.6h-4.9v40.4h13c6.2,0,7.1-5.7,7.4-8.3l.3-3c.1-1.1,.6-1.9,1.7-1.9s1.7,.8,1.6,1.9l-1,12.5c-.1,1.1-.6,2-2.4,2h-31.9c-1.2,0-1.9-.6-1.9-1.6s.8-1.6,1.9-1.6Z" fill="#fff"/>
    <path d="M1262.1,1410.3c-1.1,0-1.8-.6-1.8-1.6s.7-1.6,1.8-1.6h4v-40.4h-3.9c-1.2,0-1.9-.6-1.9-1.6s.7-1.6,1.9-1.6h13.7c1.2,0,1.9,.6,1.9,1.6s-.7,1.6-1.9,1.6h-3.3v20l15.7-20h-4.8c-1.1,0-1.8-.6-1.8-1.6s.7-1.6,1.8-1.6h13.8c1.1,0,1.8,.6,1.8,1.6s-.7,1.6-1.8,1.6h-3.8l-13.4,17,14.9,23.4h3.6c1.2,0,1.9,.6,1.9,1.6s-.7,1.6-1.9,1.6h-14.4c-1.1,0-1.8-.6-1.8-1.6s.7-1.6,1.8-1.6h3.2l-11.6-18.1-3.2,4.1v14h3.4c1.1,0,1.8,.6,1.8,1.6s-.7,1.6-1.8,1.6h-13.9Z" fill="#fff"/>
  </g>
  <g>
    <path d="M400.7,1060.3c4.4,0,8.5,2.6,11,5.2l.3-3.3c.1-1.2,.8-1.9,1.7-1.9,1,0,1.6,.8,1.6,1.9v14.3c0,1.2-.8,1.9-1.9,1.9-1.3,0-1.6-.8-1.9-1.9-2.4-7.5-5.1-13-11.4-13-7.2,0-10.5,9.2-10.5,20.2,0,11.1,3.2,20.2,10.5,20.2,6.1,0,10.9-6.7,11-15.9h-4.6c-1.2,0-1.9-.5-1.9-1.6s.7-1.6,1.9-1.6h13.1c1.2,0,1.9,.8,1.9,1.6,0,1-.7,1.6-1.9,1.6h-4l.1,17.2c0,1.1-.6,2-1.7,2s-1.7-.9-1.7-2l.1-4.9c-2.3,3.9-6.7,6.8-12.2,6.8-9.6,0-17.5-7.2-17.5-23.4-.2-16.1,7.8-23.4,18-23.4Z" fill="#fff"/>
    <path d="M427.5,1083.7c0-14.8,8.6-23.7,18-23.7,9.5,0,18,8.9,18,23.7,0,14.9-8.5,23.7-18,23.7-9.5,.1-18-8.8-18-23.7Zm28.9,0c0-11-3.7-20.5-10.9-20.5s-11,9.5-11,20.5c0,11.1,3.7,20.5,11,20.5,7.2,.1,10.9-9.4,10.9-20.5Z" fill="#fff"/>
    <path d="M489.5,1060.3c6.6,0,12.8,3.4,12.8,9.7,0,6.6-4.4,8.3-8.9,12.4-2.3,2.1-2.4,3.8-2.4,9v1.2c0,1.2-.7,1.8-1.6,1.8s-1.6-.6-1.6-1.7v-5.1c0-3.5,1.3-4.7,4-7.6,3.3-3.6,4-6.2,4-9.9,0-4-2.6-6.5-7-6.5-4.7,0-6.3,2.4-6.3,2.4-.1-.4,.9,3.5,1.2,4.7,.3,1.2-.3,3.8-2.8,4.4-2.3,.5-4.7-.1-5.6-3.3-1-4.6,4.3-11.5,14.2-11.5Zm-.1,39.3c-2.2,0-4,1.6-4,3.8s1.8,3.8,4,3.8,4-1.6,4-3.8-1.8-3.8-4-3.8Z" fill="#fff"/>
    <path d="M537.9,1074.3l5,16.5,5.2-27.3h-1.3c-1,0-1.7-.7-1.7-1.6s.8-1.6,1.7-1.6h6.5c1,0,1.7,.7,1.7,1.6s-.8,1.6-1.7,1.6h-1.9l-8.3,43.2c-.1,.4-.6,.8-1.1,.8-.7,0-1.1-.4-1.2-.8l-5.3-18.8-4.7,18.8c-.1,.4-.4,.8-1.2,.8-.5,0-1-.4-1.1-.8l-9.5-43.2h-1.9c-1,0-1.7-.7-1.7-1.6s.8-1.6,1.7-1.6h9.6c1,0,1.7,.7,1.7,1.6s-.8,1.6-1.7,1.6h-1.3l6,27.3,4.1-16.5c.1-.4,.6-.8,1.1-.8,.8,0,1.2,.4,1.3,.8Z" fill="#fff"/>
    <path d="M587.4,1103.9c6.2-.1,7.1-5.7,7.4-8.3l.3-3.6c.1-1.2,.5-1.9,1.7-1.9s1.7,.8,1.7,1.9l-1,13.1c-.1,1.1-.6,2-1.7,2h-32.5c-1.2,0-1.9-.6-1.9-1.6s.7-1.6,1.9-1.6h5.6v-39.8l-5.6-.5c-1.2-.1-1.9-.8-1.9-1.7,0-1,.8-1.6,1.9-1.6h32.5c1.2,0,1.7,.9,1.7,2l1,13.1c.1,1.2-.5,1.9-1.7,1.9s-1.6-.8-1.7-1.9l-.3-3.6c-.4-2.6-1.2-8.3-7.4-8.3h-12.2v17.7h5.3c3.4,0,4.2-1.2,4.7-3.7l.3-1.9c.2-1.1,.5-1.9,1.6-1.9s1.6,.8,1.6,1.9v15c0,1.1-.5,1.9-1.6,1.9s-1.4-.8-1.6-1.9l-.3-1.9c-.4-2.5-1.3-4.4-4.7-4.4h-5.3v19.5h12.2v.1Z" fill="#fff"/>
    <path d="M626.7,1079.8c7.9,3.2,15.1,4.9,15.1,14.9,0,10.2-8,13-14.5,13-6.8,0-12-3.5-14-7v4.6c0,1.2-.7,1.8-1.6,1.8s-1.6-.6-1.6-1.8v-15c0-1,.5-1.9,1.6-1.9s1.5,.8,1.6,1.9l.4,3c1,6.5,7.6,11.3,13.4,11.3,4.4,0,9.9-2.2,9.9-8.3,0-5.7-7.4-8.3-13.6-10.6-7.5-2.7-13.1-5.6-13.1-13.5,0-6.9,5.5-11.9,13.1-11.9,5.1,0,10.3,2.1,13.8,6.5l.4-5c.1-1.2,.8-1.9,1.7-1.9,1,0,1.6,.7,1.6,1.9v12.6c0,1.2-.5,1.8-1.5,1.8-1.1,0-1.3-1-1.7-1.9-2.3-5.4-8.3-10.8-14.2-10.8-5.1,0-7.5,2.4-7.5,6.8,.1,5.5,5.5,7.4,10.7,9.5Z" fill="#fff"/>
    <path d="M663.1,1063.5c-6.2,0-6.2,3.8-6.8,10.3l-.3,3c-.1,1.1-.4,1.9-1.6,1.9s-1.7-.8-1.7-1.9l.4-14.4c0-1.1,.6-2,1.7-2h30.3c1.2,0,1.7,.9,1.7,2l.4,14.4c0,1.1-.6,1.9-1.7,1.9s-1.5-.8-1.6-1.9l-.3-3c-.6-6.5-.6-10.3-6.8-10.3h-3.7v40.4h7.6c1.2,0,1.8,.7,1.8,1.6s-.6,1.6-1.8,1.6h-21.5c-1.2,0-1.8-.7-1.8-1.6s.6-1.6,1.8-1.6h7.6v-40.4h-3.7Z" fill="#fff"/>
  </g>
  <g>
    <path d="M492.6,1540.8l5,16.5,5.2-27.3h-1.3c-1,0-1.7-.7-1.7-1.6s.8-1.6,1.7-1.6h6.5c1,0,1.7,.7,1.7,1.6s-.8,1.6-1.7,1.6h-1.9l-8.3,43.2c-.1,.4-.6,.8-1.1,.8-.7,0-1.1-.4-1.2-.8l-5.3-18.8-4.7,18.8c-.1,.4-.4,.8-1.2,.8-.5,0-1-.4-1.1-.8l-9.5-43.2h-1.9c-1,0-1.7-.7-1.7-1.6s.8-1.6,1.7-1.6h9.6c1,0,1.7,.7,1.7,1.6s-.8,1.6-1.7,1.6h-1.3l6,27.3,4.1-16.5c.1-.4,.6-.8,1.1-.8,.8,0,1.2,.4,1.3,.8Z" fill="#fff"/>
    <path d="M537.5,1528.8l13.2,41.6h3.2c1.2,0,1.9,.6,1.9,1.6s-.7,1.6-1.9,1.6h-14.4c-1.2,0-1.9-.6-1.9-1.6s.7-1.6,1.9-1.6h4.3l-2.9-9.9h-14.4l-2.8,9.9h3.7c1.2,0,1.9,.6,1.9,1.6s-.7,1.6-1.9,1.6h-11.7c-1.2,0-1.9-.6-1.9-1.6s.7-1.6,1.9-1.6h3.8l12.7-41.6c.4-1.2,1.2-2,2.6-2,1.6,0,2.3,.7,2.7,2Zm2.5,28.5l-6.2-20.8-6.3,20.8h12.5Z" fill="#fff"/>
    <path d="M563.3,1570.4h4.9v-40.4h-4.9c-1.2,0-1.9-.6-1.9-1.6s.7-1.6,1.9-1.6h16.2c1.2,0,1.9,.6,1.9,1.6s-.7,1.6-1.9,1.6h-4.9v40.4h13c6.2,0,7.1-5.7,7.4-8.3l.3-3c.1-1.1,.6-1.9,1.7-1.9s1.7,.8,1.6,1.9l-1,12.5c-.1,1.1-.6,2-2.4,2h-31.9c-1.2,0-1.9-.6-1.9-1.6s.7-1.6,1.9-1.6Z" fill="#fff"/>
    <path d="M606.3,1573.7c-1.1,0-1.8-.6-1.8-1.6s.7-1.6,1.8-1.6h4v-40.5h-3.9c-1.2,0-1.9-.6-1.9-1.6s.7-1.6,1.9-1.6h13.7c1.2,0,1.9,.6,1.9,1.6s-.7,1.6-1.9,1.6h-3.3v20l15.7-20h-4.8c-1.1,0-1.8-.6-1.8-1.6s.7-1.6,1.8-1.6h13.8c1.1,0,1.8,.6,1.8,1.6s-.7,1.6-1.8,1.6h-3.8l-13.4,17,14.9,23.4h3.6c1.2,0,1.9,.6,1.9,1.6s-.7,1.6-1.9,1.6h-14.4c-1.1,0-1.8-.6-1.8-1.6s.7-1.6,1.8-1.6h3.2l-11.6-18.1-3.2,4.1v14h3.4c1.1,0,1.8,.6,1.8,1.6s-.7,1.6-1.8,1.6h-13.9v.1Z" fill="#fff"/>
    <path d="M717.1,1528.8l13.2,41.6h3.2c1.2,0,1.9,.6,1.9,1.6s-.7,1.6-1.9,1.6h-14.4c-1.2,0-1.9-.6-1.9-1.6s.7-1.6,1.9-1.6h4.3l-2.9-9.9h-14.4l-2.8,9.9h3.7c1.2,0,1.9,.6,1.9,1.6s-.7,1.6-1.9,1.6h-11.7c-1.2,0-1.9-.6-1.9-1.6s.7-1.6,1.9-1.6h3.8l12.7-41.6c.4-1.2,1.2-2,2.6-2,1.6,0,2.3,.7,2.7,2Zm2.5,28.5l-6.2-20.8-6.3,20.8h12.5Z" fill="#fff"/>
    <path d="M761.9,1540.8l5,16.5,5.2-27.3h-1.3c-1,0-1.7-.7-1.7-1.6s.8-1.6,1.7-1.6h6.5c1,0,1.7,.7,1.7,1.6s-.8,1.6-1.7,1.6h-1.9l-8.3,43.2c-.1,.4-.6,.8-1.1,.8-.7,0-1.1-.4-1.2-.8l-5.3-18.8-4.7,18.8c-.1,.4-.4,.8-1.2,.8-.5,0-1-.4-1.1-.8l-9.5-43.2h-1.9c-1,0-1.7-.7-1.7-1.6s.8-1.6,1.7-1.6h9.6c1,0,1.7,.7,1.7,1.6s-.8,1.6-1.7,1.6h-1.3l6,27.3,4.1-16.5c.1-.4,.6-.8,1.1-.8,.9,0,1.2,.4,1.3,.8Z" fill="#fff"/>
    <path d="M806.9,1528.8l13.2,41.6h3.2c1.2,0,1.9,.6,1.9,1.6s-.7,1.6-1.9,1.6h-14.4c-1.2,0-1.9-.6-1.9-1.6s.7-1.6,1.9-1.6h4.3l-2.9-9.9h-14.4l-2.8,9.9h3.7c1.2,0,1.9,.6,1.9,1.6s-.7,1.6-1.9,1.6h-11.8c-1.2,0-1.9-.6-1.9-1.6s.7-1.6,1.9-1.6h3.8l12.7-41.6c.4-1.2,1.2-2,2.6-2,1.7,0,2.4,.7,2.8,2Zm2.5,28.5l-6.2-20.8-6.3,20.8h12.5Z" fill="#fff"/>
    <path d="M831.2,1526.8h14.4c1,0,1.7,.6,1.7,1.6s-.7,1.6-1.7,1.6h-2.4l7.1,17.3,8.1-17.3h-4.5c-1,0-1.7-.6-1.7-1.6s.7-1.6,1.7-1.6h13.4c1.2,0,1.8,.7,1.8,1.6,0,1-.6,1.6-1.8,1.6h-4.4l-10.9,22.3v18.1h7.6c1,0,1.7,.6,1.7,1.6s-.7,1.6-1.7,1.6h-22.3c-1.1,0-1.7-.6-1.7-1.6s.6-1.6,1.7-1.6h7.6v-18.3l-9.7-22.1h-4c-1,0-1.7-.6-1.7-1.6s.8-1.6,1.7-1.6Z" fill="#fff"/>
    <path d="M895.6,1546.3c7.9,3.2,15.1,4.9,15.1,14.9,0,10.2-8,13-14.5,13-6.8,0-12-3.5-14-7v4.6c0,1.2-.7,1.8-1.6,1.8s-1.6-.6-1.6-1.8v-15c0-1,.5-1.9,1.6-1.9s1.5,.8,1.6,1.9l.4,3c1,6.5,7.6,11.3,13.4,11.3,4.4,0,9.9-2.2,9.9-8.3,0-5.7-7.4-8.3-13.6-10.6-7.5-2.7-13.1-5.6-13.1-13.5,0-6.9,5.5-11.9,13.1-11.9,5.1,0,10.3,2.1,13.8,6.5l.4-5c.1-1.2,.8-1.9,1.7-1.9,1,0,1.6,.7,1.6,1.9v12.6c0,1.2-.5,1.8-1.5,1.8-1.1,0-1.3-1-1.7-1.9-2.3-5.4-8.3-10.8-14.2-10.8-5.1,0-7.5,2.4-7.5,6.8,.1,5.5,5.5,7.4,10.7,9.5Z" fill="#fff"/>
    <path d="M447.7,1617.8l5,16.5,5.2-27.3h-1.3c-1,0-1.7-.7-1.7-1.6s.8-1.6,1.7-1.6h6.5c1,0,1.7,.7,1.7,1.6s-.8,1.6-1.7,1.6h-1.9l-8.3,43.2c-.1,.4-.6,.8-1.1,.8-.7,0-1.1-.4-1.2-.8l-5.3-18.8-4.7,18.8c-.1,.4-.4,.8-1.2,.8-.5,0-1-.4-1.1-.8l-9.5-43.2h-1.8c-1,0-1.7-.7-1.7-1.6s.8-1.6,1.7-1.6h9.6c1,0,1.7,.7,1.7,1.6s-.8,1.6-1.7,1.6h-1.3l6,27.3,4.1-16.5c.1-.4,.6-.8,1.1-.8,.7,0,1.1,.4,1.2,.8Z" fill="#fff"/>
    <path d="M506.7,1595.4c1.4,.6,1,1.9,.4,3.1l-27.8,59.2c-.6,1.4-1.5,2.2-2.6,1.8-1.4-.6-1-1.9-.4-3.1l27.8-59.2c.6-1.4,1.4-2.3,2.6-1.8Z" fill="#fff"/>
    <path d="M528,1607c-6.2,0-6.2,3.8-6.8,10.3l-.3,3c-.1,1.1-.4,1.9-1.6,1.9s-1.7-.8-1.7-1.9l.4-14.4c0-1.1,.6-2,1.7-2h30.3c1.2,0,1.7,.9,1.7,2l.4,14.4c0,1.1-.6,1.9-1.7,1.9s-1.5-.8-1.6-1.9l-.3-3c-.6-6.5-.6-10.3-6.8-10.3h-3.7v40.4h7.6c1.2,0,1.8,.7,1.8,1.6s-.6,1.6-1.8,1.6h-21.5c-1.2,0-1.8-.7-1.8-1.6s.6-1.6,1.8-1.6h7.6v-40.4h-3.7Z" fill="#fff"/>
    <path d="M582.4,1605.8l13.2,41.6h3.2c1.2,0,1.9,.6,1.9,1.6s-.7,1.6-1.9,1.6h-14.4c-1.2,0-1.9-.6-1.9-1.6s.7-1.6,1.9-1.6h4.3l-2.9-9.9h-14.4l-2.8,9.9h3.7c1.2,0,1.9,.6,1.9,1.6s-.7,1.6-1.9,1.6h-11.7c-1.2,0-1.9-.6-1.9-1.6s.7-1.6,1.9-1.6h3.8l12.7-41.6c.4-1.2,1.2-2,2.6-2,1.6,0,2.3,.7,2.7,2Zm2.5,28.4l-6.2-20.8-6.3,20.8h12.5Z" fill="#fff"/>
    <path d="M606.3,1650.6c-1.1,0-1.8-.6-1.8-1.6s.7-1.6,1.8-1.6h4v-40.4h-3.9c-1.2,0-1.9-.6-1.9-1.6s.7-1.6,1.9-1.6h13.7c1.2,0,1.9,.6,1.9,1.6s-.7,1.6-1.9,1.6h-3.3v20l15.7-20h-4.8c-1.1,0-1.8-.6-1.8-1.6s.7-1.6,1.8-1.6h13.8c1.1,0,1.8,.6,1.8,1.6s-.7,1.6-1.8,1.6h-3.8l-13.4,17,14.9,23.4h3.6c1.2,0,1.9,.6,1.9,1.6s-.7,1.6-1.9,1.6h-14.4c-1.1,0-1.8-.6-1.8-1.6s.7-1.6,1.8-1.6h3.2l-11.6-18.1-3.2,4.1v14h3.4c1.1,0,1.8,.6,1.8,1.6s-.7,1.6-1.8,1.6h-13.9Z" fill="#fff"/>
    <path d="M676.7,1647.4c6.2-.1,7.1-5.7,7.4-8.3l.3-3.6c.1-1.2,.5-1.9,1.7-1.9s1.7,.8,1.7,1.9l-1,13.1c-.1,1.1-.6,2-1.7,2h-32.5c-1.2,0-1.9-.6-1.9-1.6s.7-1.6,1.9-1.6h5.6v-39.8l-5.6-.5c-1.2-.1-1.9-.8-1.9-1.7,0-1,.8-1.6,1.9-1.6h32.4c1.2,0,1.7,.9,1.7,2l1,13.1c.1,1.2-.5,1.9-1.7,1.9s-1.6-.8-1.7-1.9l-.3-3.6c-.4-2.6-1.2-8.3-7.4-8.3h-12.2v17.7h5.3c3.4,0,4.2-1.2,4.7-3.7l.3-1.9c.2-1.1,.5-1.9,1.6-1.9s1.6,.8,1.6,1.9v15c0,1.1-.5,1.9-1.6,1.9s-1.4-.8-1.6-1.9l-.3-1.9c-.4-2.5-1.3-4.4-4.7-4.4h-5.3v19.5h12.3v.1Z" fill="#fff"/>
    <path d="M762,1605.8l13.2,41.6h3.2c1.2,0,1.9,.6,1.9,1.6s-.7,1.6-1.9,1.6h-14.4c-1.2,0-1.9-.6-1.9-1.6s.7-1.6,1.9-1.6h4.3l-2.9-9.9h-14.4l-2.8,9.9h3.7c1.2,0,1.9,.6,1.9,1.6s-.7,1.6-1.9,1.6h-11.7c-1.2,0-1.9-.6-1.9-1.6s.7-1.6,1.9-1.6h3.8l12.7-41.6c.4-1.2,1.2-2,2.6-2,1.6,0,2.3,.7,2.7,2Zm2.5,28.4l-6.2-20.8-6.3,20.8h12.5Z" fill="#fff"/>
    <path d="M806.8,1617.8l5,16.5,5.2-27.3h-1.3c-1,0-1.7-.7-1.7-1.6s.8-1.6,1.7-1.6h6.5c1,0,1.7,.7,1.7,1.6s-.8,1.6-1.7,1.6h-1.9l-8.3,43.2c-.1,.4-.6,.8-1.1,.8-.7,0-1.1-.4-1.2-.8l-5.3-18.8-4.7,18.8c-.1,.4-.4,.8-1.2,.8-.5,0-1-.4-1.1-.8l-9.4-43.2h-1.9c-1,0-1.7-.7-1.7-1.6s.8-1.6,1.7-1.6h9.6c1,0,1.7,.7,1.7,1.6s-.8,1.6-1.7,1.6h-1.3l6,27.3,4.1-16.5c.1-.4,.6-.8,1.1-.8,.7,0,1.1,.4,1.2,.8Z" fill="#fff"/>
    <path d="M851.7,1605.8l13.2,41.6h3.2c1.2,0,1.9,.6,1.9,1.6s-.7,1.6-1.9,1.6h-14.4c-1.2,0-1.9-.6-1.9-1.6s.7-1.6,1.9-1.6h4.3l-2.9-9.9h-14.4l-2.8,9.9h3.7c1.2,0,1.9,.6,1.9,1.6s-.7,1.6-1.9,1.6h-11.7c-1.2,0-1.9-.6-1.9-1.6s.7-1.6,1.9-1.6h3.8l12.7-41.6c.4-1.2,1.2-2,2.6-2,1.7,0,2.4,.7,2.7,2Zm2.5,28.4l-6.2-20.8-6.3,20.8h12.5Z" fill="#fff"/>
    <path d="M876.1,1603.8h14.4c1,0,1.7,.6,1.7,1.6s-.7,1.6-1.7,1.6h-2.4l7.1,17.3,8.1-17.3h-4.5c-1,0-1.7-.6-1.7-1.6s.7-1.6,1.7-1.6h13.4c1.2,0,1.8,.7,1.8,1.6,0,1-.6,1.6-1.8,1.6h-4.4l-10.9,22.3v18.1h7.6c1,0,1.7,.6,1.7,1.6s-.7,1.6-1.7,1.6h-22.3c-1.1,0-1.7-.6-1.7-1.6s.6-1.6,1.7-1.6h7.6v-18.3l-9.7-22.1h-4c-1,0-1.7-.6-1.7-1.6s.7-1.6,1.7-1.6Z" fill="#fff"/>
    <path d="M940.5,1623.3c7.9,3.2,15.1,4.9,15.1,14.9,0,10.2-8,13-14.5,13-6.8,0-12-3.5-14-7v4.6c0,1.2-.7,1.8-1.6,1.8s-1.6-.6-1.6-1.8v-15c0-1,.5-1.9,1.6-1.9s1.5,.8,1.6,1.9l.4,3c1,6.5,7.6,11.3,13.4,11.3,4.4,0,9.9-2.2,9.9-8.3,0-5.7-7.4-8.3-13.6-10.6-7.5-2.7-13.1-5.6-13.1-13.5,0-6.9,5.5-11.9,13.1-11.9,5.1,0,10.3,2.1,13.8,6.5l.4-5c.1-1.2,.8-1.9,1.7-1.9,1,0,1.6,.7,1.6,1.9v12.6c0,1.2-.5,1.8-1.5,1.8-1.1,0-1.3-1-1.7-1.9-2.3-5.4-8.3-10.8-14.2-10.8-5.1,0-7.5,2.4-7.5,6.8,0,5.4,5.5,7.4,10.7,9.5Z" fill="#fff"/>
  </g>
</svg>