<?xml version="1.0" encoding="utf-8"?>
<!-- Generator: Adobe Illustrator 26.5.0, SVG Export Plug-In . SVG Version: 6.00 Build 0)  -->
<svg version="1.1" id="a" xmlns="http://www.w3.org/2000/svg" xmlns:xlink="http://www.w3.org/1999/xlink" x="0px" y="0px"
	 width="2.1px" height="2.1px" viewBox="0 0 2.1 2.1" style="enable-background:new 0 0 2.1 2.1;" xml:space="preserve">
<style type="text/css">
	.st0{fill:none;stroke:#FFFFFF;stroke-width:1.9999;stroke-miterlimit:9.9997;}
	.st1{fill:#FFFFFF;}
</style>
<path class="st0" d="M-836.7-354.4c2.7-15.4,13.5-22.1,28-24.1c24-3.5,40-15.5,47.4-39.8c5.9-19.2,14.4-37.7,22.3-56.2
	c1.9-4.5,5.9-8.3,9.6-11.6c14.4-13,30.5-10.1,38.3,7.4c5.1,11.6,7.8,24.3,12.6,36c3.8,9.3,7.8,19,14.1,26.6
	c12.3,15.1,23.1,17.1,41.4,10.4c4.7-1.8,9.3-4.1,13.9-6.1c4.2-1.9,9.8-3.8,16.7-0.5c28,13.3,43.5,3.7,56.7-18.9
	c6-10.3,11.9-20.6,19-30.1c9.3-12.4,22.1-15.7,36.7-10.5c13.2,4.7,18.8,15.1,21.2,28.4c3.1,17.2,7,34.3,11.2,51.3
	c3.2,13.1,13.6,20.9,24,27.9c6.6,4.4,14.1,7.7,21.6,10.7c24.2,9.6,33.7,27.1,27.2,52c-1,3.8-4.3,7-6.6,10.4c-4.9,7-3.6,12.1,3.4,17
	c4.6,3.2,8.4,7.6,12.6,11.3c5.3,4.7,11,6.6,18.6,6.9c13.3,0.7,26.9,2.5,39.7,6.3c24.4,7.3,27.4,20.5,9.9,39.4
	c-7.7,8.3-16,16.1-23.9,24.2c-2.3,2.3-4.8,4.7-6.5,7.4c-9.2,15-13.3,26.5,7.2,37.8c5,2.7,9.7,6.1,14.9,8.3
	c13.9,5.9,19.3,16.2,17.6,30.8c-0.2,1.5-0.1,3.1-0.6,4.4c-14.6,36.4-5.2,72.5,0.4,108.9c6.2,39.6,5.9,79.5,0.6,119.2
	c-3.7,28.2-10.1,56.1-12.5,84.4c-1.1,12.5,2.8,26.3,7.6,38.1c7,17.1,17.6,32.6,25.2,49.5c4.5,9.9,7.9,20.8,8.9,31.6
	c1.3,15.3-12.6,23.9-26.9,17.7c-11-4.8-21.9-9.8-32.3-15.8c-25.6-14.9-51.9-15.5-79.7-7.5c-16.5,4.7-33.4,8.6-50.4,10.8
	c-25,3.2-48-6.1-70.6-15.5c-16.2-6.8-32.2-13.8-48.6-20.1c-10.6-4.1-20.6-2.6-30.5,3.9c-3.6,2.4-10.3,2.8-14.5,1.2
	c-16.2-6.4-32.3-7.4-48.6-1.4c-23.9,8.8-47.6,18.3-71.7,26.8c-33.5,11.8-67.8,17.9-103.4,12.5c-7-1.1-13.8-3.4-20.5-5.5
	c-16.5-5-32.6-3.6-49.4,0.2c-24.3,5.6-46.7,14.7-67.4,28.3c-7.4,4.9-15.7,6.6-24.6,6c-10-0.7-16.7-5.4-17.9-15.1
	c-1.5-13.2,0.7-25.6,7.7-37.4c17.3-28.9,36.2-56.8,47.6-88.9c6.4-18.1,6.4-36.7,5.3-55.4c-0.9-14.4-4-28.7-4.8-43.1
	c-1.3-21.7-1.4-43.6-2-65.3c-0.9-34.9,5.3-68.9,13.1-102.6c5.8-25.1,7.4-50.4,6.6-76c-0.1-3.8-2.1-7.5-3.5-11.2
	c-1.1-3.1-2.6-6.2-4.2-9.1c-15.5-28.3-0.6-36.3,22.7-40.1c9.3-1.6,19.5-3.9,27.1-9.1c15-10.1,12-37.2-4.4-50.6
	c-8.3-6.7-16.9-13-24.8-20.2c-3.5-3.2-6.7-6.9-9.3-10.9c-10.4-16.2-6.5-28.1,7.2-34.8c12.4-6.1,25.3-8.6,39.3-5.9
	c6.7,1.3,13,1,18.8-0.4c22.5-5.3,37.5-26.6,36.2-49.6C-836.9-351.6-837-353.2-836.7-354.4L-836.7-354.4z"/>
<g>
	<path class="st1" d="M-459.7,361.6c-6.3,0.8-11.9,0.7-17.4-0.1c-3.9-0.6-7.7-1.6-11.3-3.3c-4-2-7.4-4.7-9.9-8.4
		c-4.3-6.4-10-11.3-16.4-15.5c-3.6-2.3-7.3-4.4-10.8-6.8c-2-1.4-4.2-2.8-5.1-5.2c-1-2.6,0-4.5,1.7-6.3c2.8-3,6.3-3.8,10.3-3.7
		c7.8,0.1,14.7,3.3,21.4,6.9c6.2,3.4,11.8,7.7,16.7,12.7c2.7,2.8,5.2,5.7,7.9,8.4c4.5,4.4,9.2,8.3,14.7,11.3c1.9,1,4.1,1.1,6.2,1.7
		c1.5,0.4,3.1,0.9,4.7,1.1c0.8,0,6.1,0.9,6.8,1.2c0.8,0.3,0.9,1.1,0.8,1.9c0,0.7-0.6,0.8-1.1,0.9c-4.2,0.9-8.3,2-12.5,2.8
		C-455.4,361.5-457.9,361.5-459.7,361.6L-459.7,361.6z M-447.5,357.1c-0.3-0.1-0.3-0.2-0.4-0.2c-0.4-0.1-0.8-0.1-1.2-0.2
		c-4.8-0.7-9.4-2-13.5-4.8c-5.9-4-11.1-8.7-15.8-13.9c-4.2-4.7-8.5-9-13.6-12.6c-5.2-3.6-10.7-6.6-16.7-8.7
		c-4.1-1.4-8.2-2.3-12.6-1.7c-2,0.3-3.7,0.9-5.2,2.2c-1.9,1.6-2.4,3.4-1.2,5c0.5,0.7,1.2,1.3,1.9,1.8c1.8,1.4,3.8,2.6,5.7,3.9
		c3.8,2.3,7.6,4.7,11.2,7.4c4.9,3.7,9.1,7.9,12.6,12.9c2.6,3.8,6.1,6.6,10.4,8.4c6.8,2.9,14,3.3,21.2,3.1c3.2-0.1,6.4-0.4,9.5-1
		C-452.6,358-450.1,357.8-447.5,357.1L-447.5,357.1z"/>
	<path class="st1" d="M-294.6,443.7c-2.8,0.3-5.7-0.5-8.6-1.2c-4.5-1.1-129.7-32.9-134.1-34.7c-4.4-1.7-6.9-5-8.3-9.6
		c-0.9-2.7-10.7-35.9-11.5-41.4c-0.7-4.6,1.2-8.4,4.5-11.6c4.4-4.3,27.3-27.3,28.4-28.4c3.1-3,6.8-4,11.1-3.6
		c3.9,0.4,133,33.8,137.9,35.1c4.1,1,7.4,3.2,9.6,6.8c1.6,2.7,1.8,7.3,0.9,10.6c-2.3,8.4-15.9,66.4-17.1,69
		C-284.2,440.2-288.2,443-294.6,443.7L-294.6,443.7z M-442.4,358.3c0.1,3.1,2,5.8,6.3,5.5c4.4-0.3,5.8-3,5.6-6.6
		c-0.2-2.9-2.7-5.8-6.7-5.3C-441.1,352.5-442.5,355.1-442.4,358.3L-442.4,358.3z"/>
	<path d="M-402.6,342.3c-0.2,0.3-0.7,1.5-1,3c-0.1,0.2-0.2,1-0.9,4c-0.1,0.2,0,0.4,0.1,0.4c0.1,0,0.1,0,0.4-0.3
		c3.5-2.3,7.4-3.9,10.5-6.2c0.3-0.2,0.3-0.2,0.5-0.2c0.8,0.2,0.9,0.5,1.2,0.6c0.1,0,0.6,0.7,0.4,1.4c0,0.1-0.1,0.1-0.2,0.3
		c-4.4,4-7.3,8.6-10.2,16.8c-0.2,0.6-0.2,0.6-0.4,0.6c-0.2-0.1-0.4-0.3-0.6-0.4c-0.2-0.1-0.2,0.1-0.4,0c-0.4-0.1-0.8-0.6-1.1-0.9
		c-0.2-0.2-0.2-0.3-0.1-0.4c0.1-0.2,2.6-6,3-6.8c0.4-0.9,1.8-3.2,2.8-4.7c0-0.1,0-0.1-0.1-0.1c-0.1,0-0.1,0-0.2,0.1
		c-1.8,1.1-4.8,3-5.3,3.4c-0.3,0.2-0.4,0.2-0.5,0.2c-0.1,0-0.4-0.3-1-0.5c-0.5-0.2-1-0.4-1.2-1c-0.1-0.4-0.2-1.6,0.1-2.9l0.7-2.9
		c0-0.1,0-0.1-0.1-0.2c-0.1,0-0.1,0-0.5,0.4c-1.3,1.5-2.3,2.9-3.6,4.7c-2.1,3.1-3.3,5.3-3.6,6.5c-0.1,0.2-0.5,0.4-0.7,0.3
		c-0.4-0.1-0.5,0.2-0.8,0.1s-0.8-0.7-1-0.8c-0.2-0.1-0.5-0.7-0.3-1.3c0.3-1.1,1.4-1.8,1.7-2.5c3-5.5,7.9-10.3,11.1-14.7
		c0.3-0.4,0.4-0.5,0.5-0.5c0.3,0.1,0.3,0.2,0.8,0.3c0.5,0.2,1,0.4,1.2,0.8c0.1,0.1,0.1,0.3,0.1,0.4
		C-401.2,339.9-402.2,341.4-402.6,342.3L-402.6,342.3z"/>
	<path d="M-383.1,343.9c0,0.1-0.3,0.5-0.4,0.7c-2.5,4.3-5.5,7.9-6.8,12.2c-0.1,0.4-0.3,0.9-0.4,1.6c0,0.4,0,0.5,0.1,0.5
		c0.3,0.1,0.7,0,1.3-0.4c6.4-4.7,10.4-8.8,12.3-11.1c0.4-0.5,0.3-0.5,0.9-1.3c0.2-0.3,0.9-0.8,1-0.7c0.1,0,0.4,0.2,1,0.3
		c0.1,0,0.2,0.2,0.3,0.3l0.3,0.7c0.1,0.2,0.1,0.3,0.1,0.5c0,0.1-0.1,0.3-0.3,0.6c-0.7,1.2-1.8,2.2-2.4,3.4c-2.1,3.7-3.4,7.5-4,11.6
		c-0.1,0.7-0.1,0.8-0.1,0.9c0,0.2-0.2,0.3-0.5,0.2c-0.4-0.1-0.3-0.2-0.6-0.3c-0.3-0.1-0.6-0.4-1-0.7c-0.2-0.2-0.5-0.3-0.5-0.7
		c0-0.2,0.1-0.4,0.2-0.6c0.1-0.1,0.2-0.2,0.2-0.5c0.6-2.1,0.9-4.1,1.6-5.8c0.1-0.2,0.2-0.3,0.1-0.5c0-0.1,0-0.1-0.1-0.2
		c-0.1,0-0.1,0-0.2,0.1c-2.5,2.1-5.5,4.7-8.2,6.4c-0.3,0.2-1,0.4-1.5,0.3c-0.4,0-0.9-0.3-1.2-0.6c-0.5-0.7-1.2-0.4-1.5-1.2
		c-0.1-0.2,0-1.1,0.1-1.9c0.3-1.9,1-3.6,1.5-4.7c1.6-3.3,3.7-6.5,5.5-9.8c0.2-0.3,0.3-0.5,0.4-0.6c0.3-0.3,0.6-0.7,1-0.7
		c0.1,0,0.2,0.2,0.8,0.5c0.2,0.1,0.5,0.3,0.6,0.6C-383,343.2-383,343.7-383.1,343.9L-383.1,343.9z"/>
	<path d="M-361.4,354.7c0,0.4,0,0.8-0.1,1c-0.1,0.2-0.4,0.3-0.7,0.2c-0.1,0-0.3-0.1-0.5-0.2c-0.5-0.3-0.9-1-1.1-1.3
		c-0.2-0.5,0.2-1.8-0.6-2.5c-0.2-0.2-0.3-0.3-0.6-0.4c-0.2-0.1-0.9,0.7-1.3,2.1c-0.1,0.3-0.3,1.3-0.3,3c0,2,0.2,6.4,0,8.8
		c-0.1,1.1-0.1,1.5-0.3,2c-0.3,1.2-1.3,2-2.5,2.2c-0.3,0-0.5,0-1.2-0.2c-2.6-0.7-4.9-2.8-6.1-5.7c-0.3-0.7-1.1-1.6-0.9-3.3
		c0-0.3,0.1-0.6,0.2-0.9c0.1-0.3,0.6-0.8,0.9-0.7c0.5,0.1,1.1,0.5,1.4,0.8c0.5,0.5,0.8,1.1,0.8,1.3c-0.1,0.4-0.3,0.5-0.5,1.1
		c0,0.1,0,0.3,0,0.5c0.4,1.6,1.8,3.4,3.3,4.4c0.2,0.2,0.5,0.3,0.8,0.3c0.5,0.1,1.1-0.2,1.3-0.8c0.2-0.8,0.4-1.7,0.4-2.3
		c0.3-3.4-0.2-6.4,0.1-9.9c0-0.3,0.2-1.8,0.3-2.4c0.1-0.3,0.1-0.5,0.2-0.6c0.4-0.9,1-2.6,2.5-2.2c1.6,0.4,3,1.1,4,2.8
		C-361.4,352.8-361.3,353.9-361.4,354.7L-361.4,354.7z"/>
	<path d="M-344.2,362.4c0.1,0.1,0.2,0.1,0.3,0.2c0.4,0.1,0.6,0.6,0.7,0.9c0.1,0.4,0.2,0.3,0.1,0.8c-0.1,0.3-0.2,0.4-0.3,0.4
		c-1.9-0.5-3.7-0.4-5.5-0.5c-0.3,0-0.4,0.1-0.5,0.2c-0.8,0.8-1.2,1.9-1.9,2.9c-1.2,1.8-1.9,3.8-2.6,5.8c-0.1,0.2-0.5,0.3-0.8,0.2
		c-0.4-0.1-0.8-0.3-1.1-0.5c-0.3-0.2-0.4-0.8-0.3-1.2c0-0.1,0-0.3,0-0.4c0.1-0.2,0.1-0.4,0.3-0.8c0.9-1.5,1.8-3.6,2.8-5.1
		c0.1-0.2,0.3-0.5,0.3-0.6c0.1-0.2,0-0.4-0.3-0.4l-4.4-0.2c-0.3,0-0.4,0-0.5,0.1c-0.9,0.9-1.7,3.1-2.1,3.6c-0.1,0.1-0.2,0.3-0.3,0.7
		c-0.1,0.5-0.1,1-0.2,1.3c-0.1,0.5-0.3,0.8-0.8,0.7c-0.3-0.1-0.7-0.2-0.8-0.4c-0.3-0.4-0.5-0.3-0.7-0.7c-0.2-0.2-0.2-0.4-0.3-0.4
		s-0.2-0.1-0.1-0.4c0-0.1,0.2-0.7,0.4-1.1l0.2-0.5c0.3-0.7,1.2-2.5,1.3-2.9c0-0.1,0-0.1-0.1-0.2c-0.2-0.1-1-0.1-1.6-0.2
		c-0.7-0.2-1.3-0.4-1.7-1.2c-0.1-0.2,0-1.2,0-1.4c0.1-0.2,0.3-0.3,0.6-0.3c0.3,0.1,0.8,0.5,1.2,0.6c0.3,0.1,1.9,0.2,2.7,0.2
		c0.2,0,0.3-0.1,0.4-0.2c0.8-0.9,1.3-2.2,2.1-3.2c1.8-2.4,3.8-5,5.9-7.2c0.2-0.2,0.5-0.3,1-0.1c0.3,0.1,0.4,0.3,1,0.8
		c0.2,0.2,0.4,0.4,0.3,0.6c0,0.1-0.1,0.3-0.2,0.4c-2.7,2.3-3.9,4.9-6.5,8c-0.3,0.3-0.3,0.5-0.4,0.6s0,0.3,0.1,0.4
		c1.6,0.1,3.2,0.2,4.8,0.2c0.2,0,0.3-0.1,0.5-0.3c1.6-1.9,2.9-4.1,4.3-6.2c0.1-0.2,0.2-0.2,0.3-0.2c0.2-0.1,0.5-0.3,0.9-0.2
		c0.3,0.1,0.5,0.2,1,0.3c0.4,0.1,0.8,0.5,0.7,0.9c-0.1,0.4-0.2,0.7-0.6,1.3c-1,1.5-2.1,2.7-3.1,4.3c0,0.1,0,0.3,0.1,0.3
		c0.4,0.1,2-0.1,2.5,0C-344.7,362.1-344.5,362.2-344.2,362.4L-344.2,362.4z"/>
	<path d="M-329.7,362.9c-0.4,1.5-1.5,3.2-3.6,4.5c-1.5,1-3.1,1-5.4,1.1c-0.2,0-0.3,0-0.3,0.2c0.2,1.1,0.8,2.6,1.2,3.9
		c0.1,0.2,0.1,0.3,0.2,0.5c0.5,1,0.9,1.7,1.2,2.2c0.7,1.2,1.2,1.4,1.9,1.7c0.4,0.2,0.6,1.3,0.5,1.9c-0.1,0.3-0.6,0.3-1,0.2
		c-0.7-0.2-1.5-0.8-2.3-1.6c-2.6-2.7-3.1-5.7-4-9.1c-0.1-0.3-0.1-0.2-0.2-0.3c-0.1,0-0.2,0.1-0.3,0.2c-1.4,2.3-2.7,5.2-2.9,6.3
		c-0.1,0.3-0.6,0.4-1.3,0.2c-0.4-0.1-0.3-0.1-0.7-0.5c-0.2-0.1-0.6-0.4-0.5-0.8c1.5-3.8,3.7-7.4,6-10.9c0.3-0.5,0.4-0.5,0.6-0.7
		c0.3-0.3,0.8-1.2,1.2-1.6c0-0.1,0-0.1-0.1-0.1c-0.3-0.1-0.8-1.3-0.7-1.6c0.1-0.2,0.2-0.3,0.3-0.3c1.5-0.6,4.1-1.2,6.7-0.5
		c0.9,0.2,1.8,0.6,2.3,0.9c0.7,0.4,0.6,0.5,0.7,0.6c0.6,0.8,0.7,0.9,0.8,1.4C-329.4,361.1-329.4,361.9-329.7,362.9L-329.7,362.9z
		 M-333.1,359.7c-0.6-0.2-1.3-0.2-1.9-0.1c-0.2,0-0.3,0-0.5,0.2c-1.7,1.7-3,3.3-4.6,5.9c0,0.1,0,0.1,0.1,0.2
		c0.2,0.2,0.5,0.3,0.7,0.4c0.4,0.1,0.6,0.1,1.1,0c0.5,0,0.6,0.1,1.5-0.2c2.1-0.7,4.2-2.3,4.9-4.9c0.1-0.5,0.1-0.7,0-0.9
		C-332.1,360.1-332.6,359.8-333.1,359.7L-333.1,359.7z"/>
	<path d="M-316.6,366.9c-0.2,0.6-0.3,0.9-0.8,2c-1.8,3.3-3.7,6.4-6.3,8.4c-1.2,0.9-2.9,1.2-4.6,0.8c-0.6-0.2-1.1-0.3-1.7-0.7
		c-0.4-0.3-1-1.1-1.3-1.8c-0.4-1.2-0.5-2.1-0.1-3.6c1-4.1,3.2-6.8,6.2-9.5c1.5-1.3,2.8-2.3,4.4-2.7c0.4-0.1,0.6-0.2,0.9-0.1
		c0.2,0.1,0.4,0.2,0.6,0.4c0.3,0.2,1.1,0.8,1.4,0.9c0.2,0.1,0.4,0.2,0.6,0.4C-316.6,362.5-316,364.4-316.6,366.9L-316.6,366.9z
		 M-319.9,362c-0.1,0-0.4-0.1-1.5,0.6c-2.4,1.5-4.7,3.7-6.2,6.2c-0.2,0.3-0.6,0.9-0.8,1.7c-0.1,0.2-0.5,1.4-0.7,2
		c-0.3,1.3-0.2,2.3,0.3,3.1c0.1,0.1,0.5,0.4,0.9,0.5c0.7,0.2,1.8-0.1,2.3-0.6c4.3-3.9,6.2-8.9,6.4-9.7c0.1-0.6,0.2-0.7,0.2-1
		c0.1-1-0.1-1.8-0.8-2.2c-0.1-0.1-0.2-0.1-0.1-0.3C-319.8,362.2-319.8,362-319.9,362L-319.9,362z"/>
	<path d="M-304,373.2c-0.2,0.6-0.3,0.9-0.8,1.9c-1.8,3-3.8,5.9-6.4,7.7c-1.3,0.9-3,1.1-4.6,0.7c-0.6-0.1-1.1-0.3-1.7-0.6
		c-0.4-0.3-1-1-1.3-1.7c-0.4-1.1-0.5-1.9-0.1-3.3c1.1-3.7,3.3-6.2,6.3-8.7c1.5-1.2,2.8-2.1,4.4-2.5c0.4-0.1,0.6-0.2,0.9-0.1
		c0.2,0,0.4,0.2,0.6,0.3c0.3,0.2,1.1,0.7,1.4,0.8c0.2,0.1,0.4,0.1,0.6,0.4C-303.9,369.2-303.3,370.9-304,373.2L-304,373.2z
		 M-307.3,368.7c-0.1,0-0.4,0-1.5,0.5c-2.4,1.4-4.7,3.4-6.2,5.7c-0.2,0.3-0.6,0.8-0.8,1.6c-0.1,0.2-0.5,1.2-0.7,1.8
		c-0.3,1.2-0.2,2.1,0.3,2.8c0.1,0.1,0.5,0.4,0.9,0.4c0.7,0.2,1.8-0.1,2.3-0.5c4.3-3.6,6.3-8.2,6.5-8.9c0.1-0.5,0.2-0.7,0.2-0.9
		c0.1-0.9-0.1-1.6-0.7-2c-0.1,0-0.2-0.1-0.1-0.2C-307.1,368.9-307.2,368.7-307.3,368.7L-307.3,368.7z"/>
	<path d="M-295.2,371c-0.1,0.3-0.5,1.4-0.8,2.8c-0.1,0.2-0.1,0.9-0.7,3.6c-0.1,0.2,0,0.3,0.1,0.4c0,0,0.1,0,0.3-0.2
		c2.8-2.1,6-3.5,8.5-5.7c0.2-0.2,0.3-0.2,0.4-0.2c0.6,0.2,0.8,0.5,1,0.5c0.1,0,0.5,0.7,0.4,1.3c0,0.1-0.1,0.1-0.2,0.2
		c-3.5,3.6-5.9,7.9-8.2,15.3c-0.2,0.6-0.2,0.6-0.3,0.6c-0.2-0.1-0.3-0.3-0.5-0.4c-0.1,0-0.1,0.1-0.3,0c-0.3-0.1-0.7-0.6-0.9-0.8
		c-0.1-0.2-0.2-0.2-0.1-0.4c0.1-0.2,2.1-5.5,2.4-6.3c0.3-0.8,1.5-2.9,2.3-4.3c0-0.1,0-0.1-0.1-0.1c0,0-0.1,0-0.1,0
		c-1.5,1-3.9,2.7-4.3,3.1c-0.3,0.2-0.3,0.2-0.4,0.2c-0.1,0-0.3-0.2-0.8-0.5c-0.4-0.2-0.8-0.4-1-0.9c-0.1-0.4-0.2-1.4,0-2.6l0.6-2.6
		c0-0.1,0-0.1,0-0.1c-0.1,0-0.1,0-0.4,0.4c-1.1,1.4-1.9,2.6-2.9,4.3c-1.7,2.8-2.6,4.8-2.9,6c-0.1,0.2-0.4,0.4-0.6,0.3
		c-0.4-0.1-0.4,0.2-0.6,0.1c-0.2-0.1-0.7-0.6-0.8-0.7c-0.2-0.1-0.4-0.7-0.3-1.1c0.2-1,1.1-1.7,1.4-2.3c2.4-5,6.3-9.3,9-13.5
		c0.2-0.3,0.3-0.5,0.4-0.4c0.2,0.1,0.2,0.2,0.6,0.3s0.8,0.4,1,0.8c0.1,0.1,0.1,0.2,0.1,0.3C-294.1,368.8-294.9,370.2-295.2,371
		L-295.2,371z"/>
	<path d="M-409.5,371.9c0,0.1-0.1,0.2-0.2,0.2c-0.7,0.3-1.4,1.1-2.1,2.1c-0.4,0.5-0.7,0.8-1.2,1.4c-2.3,2.8-4.5,5.9-6.6,9.1
		c-0.1,0.1-0.2,0.3-0.3,0.6s0,0.6,0.3,0.7c0.1,0,0.4,0.1,1.3,0.1c2.2,0,4.4-0.3,6.5-0.5c0.1,0,0.3,0,0.6,0.1
		c0.3,0.1,1.1,0.6,1.4,1.2c0.1,0.1,0.2,0.2,0.1,0.4c0,0.1,0.1,0.2,0,0.5c0,0.1-0.1,0.3-0.2,0.4c-0.2,0.2-0.4,0.2-1.3,0
		c-0.3-0.1-0.3-0.1-0.6-0.1c-3.2,0-6,0.9-9.3,0c-1.2-0.3-1.7-1.6-2-2.3c0-0.1-0.1-0.3,0-0.4c0.1-0.4,0.4-0.8,0.9-1.5
		c0.3-0.4,0.1-0.4,0.8-1.5c3-4.7,6.9-8.9,10.3-13.2c0.2-0.3,0.8-0.1,1-0.1c0.3,0.1,0.2,0.3,0.7,0.6c0.3,0.2,0.8,0.6,0.7,0.8
		C-408.9,371.3-409.4,371.5-409.5,371.9L-409.5,371.9z"/>
	<path d="M-385.9,377.3c-0.3-0.1-0.5,0.1-0.8,0c-0.3-0.1-0.5-0.4-1.1-0.5c-3-0.7-5.9-0.6-8.4-0.4c-0.2,0-0.3,0.1-0.5,0.3
		c-1,1.3-1.9,2.4-2.9,3.7c0,0.1,0,0.1,0.1,0.1c1.6-0.2,3.4-0.4,5-0.1c0.7,0.2,1.5,0.5,2.2,1.1c0.3,0.2,0.2,0.7,0.2,1
		c-0.1,0.3-1.4,0.3-1.7,0.2c-0.4-0.1-0.7-0.2-1-0.3c-2-0.4-4.1,0.1-5.8,0.1c-0.3,0-0.9,0-1.1,0.3c-2.2,2.4-3.8,4.3-4.2,5.8
		c-0.1,0.5,0.2,1.1,0.5,1.1c0.6,0.1,1.7,0.2,2.7,0c1-0.2,1.8-0.2,2.4-0.3c1.9-0.3,3.8-1.4,5.7-0.9c0.1,0,0.3,0.1,0.3,0.2
		c0.1,0.2,0.8,0.7,0.7,1.1c-0.1,0.2-0.2,0.3-0.3,0.3c-0.3,0-0.5,0.1-0.8,0.2c-0.4,0.2-0.8,0.4-1,0.4c-3.3,0.8-6.8,1.6-11.1,0.6
		c-0.2-0.1-1.7-0.8-2.1-1.7c-0.1-0.3,0.1-1.1,0.2-1.5c0.7-2.4,2.4-4.1,3.9-6c-0.1-0.1-0.3-0.5-0.1-1c0-0.1,0.1-0.3,0.2-0.3
		c0.1-0.1,0.3-0.1,1-0.2c0.3,0,0.3,0,0.6-0.3c1.4-1.6,2.1-2.4,2.6-3.3c0-0.1,0-0.1-0.1-0.2c-0.2-0.1-0.8,0.1-1.2,0
		c-0.2-0.1-0.4-0.1-0.6-0.2c-0.4-0.3-0.5-1.3-0.4-1.6c0-0.1,0.1-0.2,0.2-0.2c2.2,0,4.2-0.3,6.3-0.5c1.4-0.1,5.8-0.3,9,0.4
		c0.3,0.1,0.9,0.3,1,0.4c0.7,0.5,1.3,1.3,1.1,1.8C-385.4,377.3-385.5,377.4-385.9,377.3L-385.9,377.3z"/>
	<path d="M-383.8,399.3c-0.2,0.1-0.3,0.1-0.4,0c-0.5-0.1-1.1-0.4-1.4-0.9c-0.3-0.5,0-2.5,0.4-3.9c0.3-1.3,0.8-2.6,1.1-3.9
		c0-0.1,0-0.1-0.2-0.2c-1.9,0.2-5.3,0.4-6.5,0.3c-0.2,0-0.3,0-0.6,0.3c-0.6,0.7-0.8,1.4-1,1.9c-0.3,1.3-0.3,1.4-0.3,1.7
		c0,0.1-0.1,0.1-0.2,0.1c-0.5,0.2-0.9,0.5-1.3,0.4c-0.1,0-0.3-0.2-0.5-0.4c-0.6-0.6-0.6-1-0.3-2.2c0.3-1.2,1-2.4,1-2.5
		c0-0.1,0-0.1-0.1-0.2c-0.6-0.6-0.8-0.8-0.7-1.2c0.2-0.6,0.8-1.5,0.9-1.5c0.1,0,0.3-0.1,0.4,0c0.5,0.1,0.7,0.7,1.2,0.8
		c0.1,0,0.1,0,0.5-0.3c3.4-3.7,6.9-7.3,11.4-11.3c0.6-0.6,0.7-0.6,0.8-0.6c0.3,0.1,1.3-0.1,2,0.1c0.4,0.1,0.9,0.4,1,0.5
		c0,0.3,0.2,0.3,0.1,0.5s-1.1,2.5-1.1,2.7c-0.1,0.3-0.2,0.6-0.3,0.9c-0.9,2.2-2.5,7-2.5,7.1c0,0.1-0.1,0.2,0.1,0.2
		c0.2,0.1,0.7,0.1,1.6,0.3c0.8,0.2,1.5,0.6,1.6,1c0.1,0.2,0.1,0.3,0.1,0.4c0,0.1-0.1,0.2-0.2,0.3c-0.5,0.5-1.2,0.5-2.3,0.2
		c-0.5-0.1-1-0.1-1.4,0c-0.3,0.1-0.4,0.1-0.5,0.5l-0.9,2.9c-0.1,0.4-0.4,1.4-0.5,1.9c-0.6,2.4-0.2,3.2-0.2,3.4
		C-383.1,399.1-383.5,399.2-383.8,399.3L-383.8,399.3z M-380.6,380.2c0.1-0.4,0.1-0.5,0-0.5c-0.1,0-0.1,0-0.3,0.2
		c-3.2,3.1-5.4,5.4-7.6,7.8c-0.4,0.5-0.5,0.6-0.5,0.7c0,0.1,0,0.1,0.2,0.2c0.3,0.1,2.1,0,3.2-0.1c1.2-0.1,2-0.2,2.2-0.2
		c0.1,0,0.2-0.1,0.3-0.3C-381.7,384-380.9,381.6-380.6,380.2L-380.6,380.2z"/>
	<path d="M-358.9,384.3c-0.2,0-0.5,0.2-1,0.1c-0.2-0.1-0.1-0.2-0.5-0.5c-0.5-0.3-0.5-0.5-0.8-0.6c-1.6-0.4-3.2-0.6-4.5-0.7
		c0.1,0.2,0.1,0.3,0.1,0.4c0,0.1-0.1,0.1-0.1,0.2c-3.6,3.6-6.4,7.4-8.6,12.2c-0.2,0.5-0.3,0.6-0.4,1c-0.1,0.2-0.1,0.5-0.2,0.7
		c-0.1,0.5-0.4,0.9-1,0.7c-0.4-0.1-1-0.5-1.4-1c-0.1-0.1-0.3-0.6-0.2-0.8c0.1-0.2,0.3-0.9,0.5-1.2c2.4-4.5,4.9-8.6,8.1-12.4
		c0-0.1,0-0.1-0.2-0.2c-0.4-0.1-1.4-0.2-2.2-0.4c-0.6-0.2-1.3-0.5-1.5-0.9c0-0.1,0-0.1,0.2-0.9c0.2-0.7,0.7-0.9,0.9-0.9
		c0.3,0.1,0.3,0.3,2.2,0.8c2.8,0.7,5.9,0.5,8.9,1.2c1.1,0.3,2.4,1.8,2.4,2.2C-358.4,384.2-358.6,384.3-358.9,384.3L-358.9,384.3z"/>
	<path d="M-348.3,394.7c0.1,0.1,0.2,0.2,0.3,0.2c0.3,0.1,0.6,0.6,0.6,1c0.1,0.4,0.2,0.3,0,0.8c-0.1,0.3-0.3,0.3-0.4,0.3
		c-2-0.7-3.8-0.8-5.5-1.1c-0.3,0-0.4,0-0.6,0.1c-0.9,0.7-1.5,1.8-2.2,2.7c-1.4,1.7-2.4,3.6-3.3,5.4c-0.1,0.2-0.5,0.2-0.8,0.1
		c-0.4-0.2-0.8-0.4-1.1-0.6c-0.3-0.3-0.3-0.8-0.2-1.2c0-0.1,0.1-0.3,0.1-0.4c0.1-0.2,0.2-0.4,0.4-0.8c1.1-1.4,2.3-3.4,3.4-4.8
		c0.1-0.2,0.3-0.5,0.4-0.6c0.1-0.2,0-0.4-0.2-0.4l-4.4-0.6c-0.3,0-0.4,0-0.5,0.1c-1,0.8-2.1,2.9-2.5,3.3c-0.1,0.1-0.2,0.3-0.4,0.7
		c-0.2,0.5-0.2,1-0.3,1.3c-0.2,0.5-0.4,0.8-0.9,0.6c-0.3-0.1-0.6-0.3-0.8-0.5c-0.3-0.4-0.4-0.4-0.6-0.8c-0.1-0.2-0.1-0.4-0.3-0.5
		c-0.2-0.1-0.2-0.1-0.1-0.4c0.1-0.2,0.3-0.7,0.5-1l0.3-0.4c0.4-0.7,1.5-2.3,1.7-2.7c0-0.1,0-0.1-0.1-0.2c-0.2-0.1-1-0.1-1.6-0.4
		c-0.7-0.2-1.3-0.6-1.6-1.3c-0.1-0.2,0.1-1.2,0.2-1.4c0.1-0.2,0.3-0.4,0.6-0.2c0.3,0.1,0.8,0.6,1.2,0.7c0.3,0.1,1.9,0.4,2.7,0.5
		c0.2,0,0.3,0,0.4-0.1c0.9-0.9,1.5-2,2.4-3c2.1-2.2,4.4-4.6,6.8-6.6c0.2-0.2,0.5-0.2,1,0c0.3,0.1,0.4,0.4,1,0.9
		c0.2,0.2,0.3,0.5,0.3,0.6c0,0.1-0.1,0.3-0.3,0.4c-3,2.1-4.5,4.5-7.5,7.3c-0.3,0.3-0.4,0.5-0.4,0.6c-0.1,0.2-0.1,0.3,0.1,0.4
		c1.6,0.3,3.3,0.6,4.9,0.7c0.2,0,0.3,0,0.6-0.2c1.8-1.7,3.4-3.8,5-5.8c0.1-0.2,0.2-0.2,0.3-0.2c0.3-0.1,0.5-0.3,0.9-0.1
		c0.3,0.1,0.5,0.3,1,0.4c0.4,0.1,0.8,0.6,0.6,1c-0.1,0.3-0.3,0.7-0.8,1.2c-1.2,1.4-2.5,2.5-3.7,3.9c-0.1,0.2-0.1,0.2,0.1,0.3
		c0.5,0.1,2,0.1,2.5,0.3C-348.8,394.2-348.6,394.4-348.3,394.7L-348.3,394.7z"/>
	<path d="M-329.5,393.1c-0.3-0.1-0.5,0-0.8,0c-0.2-0.1-0.4-0.4-1-0.5c-2.8-0.6-5.6-0.6-8-0.4c-0.2,0-0.3,0.1-0.5,0.3
		c-0.9,1.2-1.8,2.2-2.8,3.4c0,0.1,0,0.1,0.1,0.1c1.5-0.1,3.2-0.4,4.7-0.1c0.7,0.2,1.4,0.5,2.1,1c0.3,0.2,0.2,0.7,0.1,0.9
		c-0.1,0.3-1.4,0.3-1.6,0.2c-0.4-0.1-0.7-0.2-1-0.3c-1.9-0.4-3.9,0.1-5.5,0.1c-0.3,0-0.8,0-1,0.2c-2.1,2.3-3.6,4-4.1,5.4
		c-0.1,0.4,0.1,1,0.5,1.1c0.6,0.1,1.7,0.2,2.6,0c1-0.2,1.7-0.2,2.3-0.3c1.8-0.3,3.6-1.3,5.5-0.9c0.1,0,0.2,0.1,0.3,0.2
		c0.1,0.2,0.8,0.7,0.7,1c-0.1,0.2-0.2,0.3-0.3,0.3c-0.2,0-0.5,0.1-0.8,0.2c-0.4,0.2-0.8,0.3-1,0.4c-3.1,0.7-6.5,1.5-10.6,0.6
		c-0.2-0.1-1.6-0.7-2-1.6c-0.1-0.3,0.1-1.1,0.1-1.4c0.6-2.2,2.3-3.8,3.7-5.6c-0.1-0.1-0.3-0.5-0.1-0.9c0-0.1,0.1-0.2,0.2-0.3
		c0.1-0.1,0.2-0.1,1-0.1c0.3,0,0.3,0,0.6-0.3c1.4-1.5,2-2.2,2.5-3c0-0.1,0-0.1-0.1-0.1c-0.2,0-0.8,0.1-1.2,0c-0.2,0-0.4-0.1-0.5-0.2
		c-0.3-0.3-0.5-1.2-0.4-1.5c0-0.1,0.1-0.2,0.2-0.2c2,0,4-0.3,6-0.5c1.3-0.1,5.5-0.3,8.5,0.4c0.3,0.1,0.8,0.3,1,0.4
		c0.6,0.5,1.2,1.2,1.1,1.6C-329,393-329.1,393.1-329.5,393.1L-329.5,393.1z"/>
	<path d="M-317.6,397.2c-0.4,1.5-1.5,3.2-3.6,4.5c-1.5,1-3.1,1-5.4,1.1c-0.2,0-0.3,0-0.3,0.2c0.2,1.1,0.8,2.6,1.2,3.9
		c0.1,0.2,0.1,0.3,0.2,0.5c0.5,1,0.9,1.7,1.2,2.2c0.7,1.2,1.2,1.4,1.9,1.7c0.4,0.2,0.6,1.3,0.5,1.9c-0.1,0.3-0.6,0.3-1,0.2
		c-0.7-0.2-1.5-0.8-2.3-1.6c-2.6-2.7-3.1-5.7-4-9.1c-0.1-0.3-0.1-0.2-0.2-0.3c-0.1,0-0.2,0.1-0.3,0.2c-1.4,2.3-2.7,5.2-2.9,6.3
		c-0.1,0.3-0.6,0.4-1.3,0.2c-0.4-0.1-0.3-0.1-0.7-0.5c-0.2-0.1-0.6-0.4-0.5-0.8c1.5-3.8,3.7-7.4,6-10.9c0.3-0.5,0.4-0.5,0.6-0.7
		c0.3-0.3,0.8-1.2,1.2-1.6c0-0.1,0-0.1-0.1-0.1c-0.3-0.1-0.8-1.3-0.7-1.6c0.1-0.2,0.2-0.3,0.3-0.3c1.5-0.6,4.1-1.2,6.7-0.5
		c0.9,0.2,1.8,0.6,2.3,0.9c0.7,0.4,0.6,0.5,0.7,0.6c0.6,0.8,0.7,0.9,0.8,1.4C-317.4,395.4-317.3,396.2-317.6,397.2z M-321,394
		c-0.6-0.2-1.3-0.2-1.9-0.1c-0.2,0-0.3,0.1-0.5,0.2c-1.7,1.7-3,3.3-4.6,5.9c0,0.1,0,0.1,0.1,0.2c0.2,0.2,0.5,0.3,0.7,0.4
		c0.4,0.1,0.6,0.1,1.1,0c0.5,0,0.6,0.1,1.5-0.2c2.1-0.7,4.2-2.3,4.9-4.9c0.1-0.5,0.1-0.7,0-0.9C-320,394.4-320.5,394.1-321,394
		L-321,394z"/>
</g>
</svg>
