<?xml version="1.0" encoding="UTF-8"?>
<svg id="a" xmlns="http://www.w3.org/2000/svg" width="10.983in" height="13.6in" viewBox="0 0 790.807 979.202">
  <path d="M191.5,146c2.7-15.4,13.5-22.1,28-24.1,24-3.5,40-15.5,47.4-39.8,5.9-19.2,14.4-37.7,22.3-56.2,1.9-4.5,5.9-8.3,9.6-11.6,14.4-13,30.5-10.1,38.3,7.4,5.1,11.6,7.8,24.3,12.6,36,3.8,9.3,7.8,19,14.1,26.6,12.3,15.1,23.1,17.1,41.4,10.4,4.7-1.8,9.3-4.1,13.9-6.1,4.2-1.9,9.8-3.8,16.7-.5,28,13.3,43.5,3.7,56.7-18.9,6-10.3,11.9-20.6,19-30.1,9.3-12.4,22.1-15.7,36.7-10.5,13.2,4.7,18.8,15.1,21.2,28.4,3.1,17.2,7,34.3,11.2,51.3,3.2,13.1,13.6,20.9,24,27.9,6.6,4.4,14.1,7.7,21.6,10.7,24.2,9.6,33.7,27.1,27.2,52-1,3.8-4.3,7-6.6,10.4-4.9,7-3.6,12.1,3.4,17,4.6,3.2,8.4,7.6,12.6,11.3,5.3,4.7,11,6.6,18.6,6.9,13.3,.7,26.9,2.5,39.7,6.3,24.4,7.3,27.4,20.5,9.9,39.4-7.7,8.3-16,16.1-23.9,24.2-2.3,2.3-4.8,4.7-6.5,7.4-9.2,15-13.3,26.5,7.2,37.8,5,2.7,9.7,6.1,14.9,8.3,13.9,5.9,19.3,16.2,17.6,30.8-.2,1.5-.1,3.1-.6,4.4-14.6,36.4-5.2,72.5,.4,108.9,6.2,39.6,5.9,79.5,.6,119.2-3.7,28.2-10.1,56.1-12.5,84.4-1.1,12.5,2.8,26.3,7.6,38.1,7,17.1,17.6,32.6,25.2,49.5,4.5,9.9,7.9,20.8,8.9,31.6,1.3,15.3-12.6,23.9-26.9,17.7-11-4.8-21.9-9.8-32.3-15.8-25.6-14.9-51.9-15.5-79.7-7.5-16.5,4.7-33.4,8.6-50.4,10.8-25,3.2-48-6.1-70.6-15.5-16.2-6.8-32.2-13.8-48.6-20.1-10.6-4.1-20.6-2.6-30.5,3.9-3.6,2.4-10.3,2.8-14.5,1.2-16.2-6.4-32.3-7.4-48.6-1.4-23.9,8.8-47.6,18.3-71.7,26.8-33.5,11.8-67.8,17.9-103.4,12.5-7-1.1-13.8-3.4-20.5-5.5-16.5-5-32.6-3.6-49.4,.2-24.3,5.6-46.7,14.7-67.4,28.3-7.4,4.9-15.7,6.6-24.6,6-10-.7-16.7-5.4-17.9-15.1-1.5-13.2,.7-25.6,7.7-37.4,17.3-28.9,36.2-56.8,47.6-88.9,6.4-18.1,6.4-36.7,5.3-55.4-.9-14.4-4-28.7-4.8-43.1-1.3-21.7-1.4-43.6-2-65.3-.9-34.9,5.3-68.9,13.1-102.6,5.8-25.1,7.4-50.4,6.6-76-.1-3.8-2.1-7.5-3.5-11.2-1.1-3.1-2.6-6.2-4.2-9.1-15.5-28.3-.6-36.3,22.7-40.1,9.3-1.6,19.5-3.9,27.1-9.1,15-10.1,12-37.2-4.4-50.6-8.3-6.7-16.9-13-24.8-20.2-3.5-3.2-6.7-6.9-9.3-10.9-10.4-16.2-6.5-28.1,7.2-34.8,12.4-6.1,25.3-8.6,39.3-5.9,6.7,1.3,13,1,18.8-.4,22.5-5.3,37.5-26.6,36.2-49.6-.2-1.9-.3-3.5,0-4.7h0Z" fill="none" stroke="#fff" stroke-miterlimit="10" stroke-width="2"/>
  <g>
    <path d="M568.491,862.027c-6.304,.772-11.867,.72-17.378-.104-3.92-.579-7.726-1.57-11.262-3.349-3.992-2-7.415-4.702-9.893-8.426-4.29-6.402-10.005-11.343-16.392-15.501-3.578-2.324-7.284-4.419-10.831-6.819-2.007-1.383-4.159-2.755-5.116-5.242-.963-2.56,.021-4.536,1.678-6.308,2.774-2.954,6.329-3.809,10.283-3.744,7.836,.135,14.696,3.307,21.371,6.931,6.217,3.367,11.809,7.659,16.73,12.733,2.696,2.757,5.152,5.715,7.879,8.396,4.465,4.378,9.191,8.333,14.72,11.313,1.906,1.025,4.144,1.111,6.199,1.686,1.532,.432,3.106,.934,4.725,1.067,.808,.048,6.141,.922,6.784,1.203,.794,.342,.891,1.139,.84,1.911-.02,.696-.599,.777-1.136,.928-4.171,.939-8.296,1.984-12.478,2.778-2.417,.44-4.978,.415-6.723,.548h0Zm12.161-4.546c-.266-.126-.344-.193-.419-.224-.408-.079-.814-.121-1.222-.2-4.773-.734-9.37-2.03-13.456-4.791-5.861-3.979-11.081-8.665-15.798-13.937-4.157-4.657-8.547-9.004-13.648-12.602-5.176-3.629-10.705-6.609-16.677-8.678-4.057-1.41-8.184-2.303-12.566-1.75-1.991,.261-3.659,.937-5.173,2.185-1.925,1.609-2.372,3.435-1.159,4.952,.525,.655,1.193,1.262,1.855,1.797,1.828,1.433,3.784,2.638,5.744,3.878,3.799,2.344,7.6,4.724,11.203,7.376,4.885,3.651,9.122,7.9,12.577,12.939,2.631,3.822,6.133,6.591,10.366,8.39,6.802,2.883,13.963,3.289,21.187,3.069,3.174-.095,6.371-.375,9.506-.979,2.559-.487,5.065-.714,7.681-1.425h0Z" fill="#fff"/>
    <path d="M733.556,944.144c-2.791,.322-5.705-.48-8.649-1.207-4.51-1.12-129.69-32.918-134.138-34.664-4.412-1.749-6.892-5.034-8.337-9.605-.867-2.75-10.667-35.903-11.485-41.363-.676-4.556,1.229-8.358,4.459-11.566,4.389-4.32,27.323-27.311,28.448-28.384,3.101-2.979,6.824-4.03,11.061-3.621,3.943,.395,133.012,33.799,137.899,35.073,4.065,1.044,7.411,3.203,9.55,6.807,1.592,2.658,1.798,7.287,.883,10.647-2.253,8.363-15.94,66.378-17.058,68.986-2.191,5.323-6.184,8.113-12.634,8.897h0Zm-147.768-85.481c.129,3.135,2.017,5.844,6.307,5.517,4.399-.335,5.766-3.035,5.568-6.604-.185-2.911-2.672-5.794-6.727-5.266-3.871,.55-5.277,3.217-5.148,6.352h0Z" fill="#fff"/>
    <path d="M625.527,842.658c-.16,.305-.656,1.476-1.048,3.042-.056,.224-.177,1.037-.94,3.984-.056,.224-.009,.366,.103,.394,.075,.031,.109-.008,.42-.251,3.481-2.313,7.42-3.892,10.495-6.247,.277-.204,.347-.246,.498-.184,.783,.196,.914,.479,1.25,.563,.075,.031,.567,.725,.399,1.396-.031,.075-.064,.115-.235,.274-4.38,3.954-7.315,8.638-10.171,16.754-.207,.637-.244,.64-.392,.615-.224-.056-.355-.339-.615-.392-.187-.059-.176,.087-.364,.028-.372-.081-.85-.594-1.054-.871-.165-.243-.168-.28-.142-.428,.056-.224,2.578-6.011,2.99-6.846,.406-.909,1.804-3.209,2.82-4.749,.028-.112-.008-.109-.084-.14-.075-.031-.109,.008-.179,.05-1.819,1.089-4.779,3.033-5.3,3.402-.347,.246-.386,.212-.462,.181-.075-.031-.386-.263-.992-.546-.492-.219-.984-.437-1.176-1.044-.142-.428-.192-1.558,.075-2.858l.732-2.871c.031-.075,.025-.148-.05-.179s-.143,.047-.481,.402c-1.349,1.492-2.34,2.884-3.589,4.734-2.103,3.122-3.29,5.297-3.599,6.527-.056,.224-.518,.405-.705,.346-.447-.112-.534,.187-.758,.131s-.785-.708-.973-.767c-.224-.056-.458-.733-.315-1.256,.283-1.082,1.361-1.822,1.677-2.468,2.986-5.456,7.85-10.251,11.129-14.743,.3-.388,.364-.503,.476-.475,.299,.087,.268,.162,.758,.345,.453,.185,.981,.401,1.233,.82,.084,.14,.131,.283,.1,.358-.135,.632-1.045,2.127-1.529,2.969h0Z"/>
    <path d="M645.105,844.277c-.028,.112-.252,.531-.384,.724-2.523,4.324-5.505,7.915-6.823,12.221-.115,.411-.258,.934-.387,1.638-.045,.369,0,.475,.072,.47,.26,.053,.73-.019,1.284-.427,6.408-4.693,10.372-8.834,12.284-11.101,.4-.506,.255-.495,.927-1.277,.235-.274,.856-.76,1.005-.735,.112,.028,.417,.188,.973,.292,.112,.028,.232,.165,.279,.308l.313,.744c.05,.179,.134,.319,.109,.467-.028,.112-.123,.302-.317,.646-.678,1.185-1.769,2.219-2.444,3.441-2.092,3.743-3.379,7.498-4.014,11.642-.096,.666-.085,.811-.113,.923-.02,.221-.235,.274-.459,.218-.445-.076-.344-.193-.646-.317-.302-.123-.579-.395-.97-.731-.235-.202-.531-.252-.452-.66,.023-.185,.079-.408,.247-.604,.101-.117,.165-.232,.221-.456,.575-2.055,.896-4.091,1.644-5.793,.092-.226,.157-.341,.149-.45,.031-.075-.047-.143-.123-.173-.073,.006-.143,.047-.246,.128-2.471,2.126-5.53,4.699-8.18,6.4-.313,.207-.96,.366-1.48,.259-.369-.045-.939-.331-1.182-.641-.489-.658-1.239-.418-1.518-1.201-.05-.179,.029-1.063,.147-1.913,.295-1.887,1.01-3.551,1.548-4.652,1.647-3.343,3.745-6.538,5.543-9.82,.16-.305,.33-.464,.428-.618,.266-.349,.566-.738,1.046-.665,.148,.025,.232,.165,.805,.487,.229,.129,.534,.288,.629,.574,.112,.028,.106,.431,.086,.652h0Z"/>
    <path d="M666.806,855.059c-.045,.369-.012,.805-.071,.993-.056,.224-.378,.321-.713,.237-.112-.028-.299-.087-.492-.219-.534-.288-.883-1.03-1.053-1.346-.223-.532,.194-1.77-.557-2.517-.159-.171-.349-.266-.612-.356-.224-.056-.935,.693-1.299,2.147-.084,.336-.3,1.339-.319,3.023-.03,2.014,.196,6.421,.015,8.848-.096,1.141-.144,1.474-.287,1.997-.309,1.23-1.308,2.038-2.505,2.165-.255,.019-.478-.037-1.186-.202-2.648-.676-4.861-2.848-6.137-5.677-.307-.671-1.07-1.564-.912-3.332,.011-.33,.101-.593,.152-.889,.053-.26,.563-.774,.862-.687,.486,.146,1.096,.465,1.414,.807,.478,.512,.818,1.144,.757,1.295-.112,.447-.33,.464-.499,1.135-.028,.112,.025,.327,.039,.509,.413,1.578,1.798,3.447,3.335,4.427,.232,.165,.495,.255,.755,.308,.484,.109,1.116-.231,1.29-.83,.196-.783,.382-1.711,.447-2.301,.324-3.426-.154-6.351,.053-9.878,.011-.33,.158-1.767,.296-2.363,.087-.299,.146-.486,.207-.637,.443-.911,1.009-2.6,2.538-2.204,1.566,.393,3.045,1.085,4.019,2.839,.469,.879,.513,1.936,.462,2.707h0Z"/>
    <path d="M683.962,862.823c.117,.101,.193,.132,.268,.162,.372,.081,.629,.574,.693,.935,.1,.358,.207,.313,.097,.797-.084,.336-.227,.383-.339,.355-1.94-.511-3.725-.411-5.453-.536-.33-.011-.434,.07-.534,.187-.781,.791-1.246,1.887-1.904,2.851-1.176,1.845-1.902,3.838-2.634,5.759-.092,.226-.49,.293-.789,.206-.372-.081-.83-.339-1.101-.538-.31-.232-.352-.778-.312-1.22,.025-.148,.014-.294,.04-.442,.056-.224,.112-.447,.342-.794,.907-1.532,1.846-3.614,2.756-5.11,.098-.154,.258-.458,.28-.643,.056-.224-.028-.364-.251-.42l-4.368-.216c-.294-.014-.4,.03-.501,.148-.918,.911-1.737,3.131-2.106,3.561-.101,.117-.196,.307-.311,.718-.143,.523-.104,1.032-.191,1.331-.143,.523-.266,.825-.823,.721-.26-.053-.677-.241-.797-.378-.285-.381-.464-.33-.71-.677-.165-.243-.176-.389-.324-.414-.148-.025-.156-.134-.1-.358,.025-.148,.236-.749,.395-1.054l.221-.456c.311-.718,1.235-2.508,1.317-2.879,.028-.112,.025-.148-.087-.176-.224-.056-.956-.074-1.552-.211-.671-.168-1.314-.449-1.663-1.19-.128-.246-.021-1.242,.004-1.39,.056-.224,.266-.349,.562-.299,.336,.084,.805,.487,1.216,.602,.26,.053,1.918,.22,2.724,.232,.218-.017,.252-.056,.353-.173,.77-.936,1.26-2.18,2.058-3.228,1.825-2.443,3.827-4.972,5.887-7.213,.202-.235,.456-.254,.976-.147,.299,.087,.391,.336,1.045,.762,.232,.165,.363,.448,.302,.599-.028,.112-.087,.299-.188,.417-2.712,2.327-3.905,4.905-6.526,7.956-.269,.313-.328,.5-.353,.649s-.014,.294,.1,.358c1.583,.136,3.235,.229,4.768,.186,.218-.017,.324-.061,.526-.296,1.573-1.912,2.904-4.134,4.278-6.25,.098-.154,.168-.196,.274-.24,.249-.092,.453-.29,.864-.175,.299,.087,.528,.216,.976,.328,.372,.081,.805,.487,.69,.898-.081,.372-.238,.713-.63,1.328-1.019,1.504-2.133,2.722-3.15,4.262-.025,.148-.017,.257,.131,.283,.447,.112,1.966-.113,2.489,.03,.523,.143,.788,.269,1.062,.504h0Z"/>
    <path d="M698.518,863.324c-.365,1.454-1.513,3.187-3.606,4.516-1.463,.952-3.066,1.038-5.365,1.103-.218,.017-.291,.022-.35,.209,.156,1.085,.781,2.574,1.171,3.86,.05,.179,.095,.285,.184,.498,.517,1.021,.894,1.651,1.226,2.174,.746,1.15,1.241,1.405,1.886,1.721,.38,.19,.645,1.267,.471,1.866-.087,.299-.596,.338-1.043,.226-.707-.166-1.484-.765-2.281-1.618-2.582-2.692-3.069-5.727-4.017-9.056-.056-.252-.128-.246-.204-.277-.148-.025-.215,.053-.347,.246-1.431,2.34-2.672,5.25-2.925,6.256-.087,.299-.551,.444-1.337,.211-.372-.081-.266-.126-.66-.498-.156-.134-.581-.431-.5-.803,1.536-3.847,3.681-7.374,5.974-10.877,.294-.461,.364-.503,.568-.701,.344-.282,.79-1.157,1.162-1.551,.028-.112-.047-.143-.084-.14-.26-.053-.827-1.254-.74-1.553,.056-.224,.196-.307,.305-.316,1.455-.586,4.078-1.188,6.723-.548,.895,.224,1.84,.628,2.301,.922,.654,.426,.623,.501,.707,.641,.643,.756,.693,.935,.765,1.405,.243,.311,.268,1.113,.012,2.083h0Zm-3.429-3.25c-.635-.171-1.292-.158-1.946-.108-.182,.014-.327,.025-.462,.181-1.733,1.741-2.967,3.298-4.633,5.911-.031,.075-.025,.148,.053,.215,.162,.207,.464,.33,.724,.384,.372,.081,.593,.101,1.063,.029,.545-.041,.596,.138,1.524-.153,2.07-.669,4.216-2.259,4.895-4.87,.109-.484,.09-.738,.006-.878-.204-.277-.701-.568-1.224-.711h0Z"/>
    <path d="M711.549,867.343c-.171,.635-.258,.934-.832,2.038-1.759,3.315-3.716,6.426-6.311,8.379-1.245,.936-2.946,1.175-4.587,.751-.635-.171-1.085-.32-1.7-.712-.422-.26-1.034-1.092-1.31-1.838-.419-1.175-.49-2.12-.092-3.613,1.041-4.102,3.211-6.827,6.191-9.467,1.475-1.282,2.79-2.26,4.362-2.745,.428-.142,.643-.195,.867-.139,.187,.059,.377,.154,.612,.356,.274,.235,1.084,.795,1.42,.879,.224,.056,.414,.151,.579,.395,.869,1.324,1.452,3.217,.801,5.717h0Zm-3.301-4.942c-.075-.031-.408-.079-1.455,.586-2.409,1.5-4.657,3.682-6.183,6.212-.23,.347-.591,.886-.818,1.744-.056,.224-.482,1.353-.653,1.988-.306,1.267-.189,2.318,.271,3.088,.084,.14,.545,.434,.917,.515,.747,.199,1.751-.06,2.333-.58,4.31-3.912,6.199-8.882,6.39-9.738,.138-.596,.199-.747,.219-.967,.074-.956-.099-1.784-.753-2.21-.078-.067-.157-.134-.131-.283,.023-.185-.061-.324-.137-.355h0Z"/>
    <path d="M724.204,873.62c-.177,.562-.264,.861-.843,1.893-1.781,3.024-3.794,5.884-6.363,7.688-1.251,.863-2.951,1.102-4.59,.715-.632-.135-1.082-.283-1.694-.639-.422-.26-1.026-.982-1.299-1.693-.41-1.066-.474-1.902-.067-3.286,1.069-3.738,3.255-6.245,6.252-8.667,1.48-1.21,2.804-2.078,4.379-2.527,.428-.142,.646-.159,.867-.139,.185,.023,.377,.154,.609,.319,.271,.199,1.076,.686,1.412,.77,.224,.056,.411,.115,.576,.358,.858,1.178,1.39,2.893,.762,5.208h0Zm-3.302-4.466c-.075-.031-.405-.042-1.457,.55-2.417,1.391-4.679,3.391-6.222,5.703-.232,.31-.596,.813-.829,1.599-.059,.187-.49,1.244-.664,1.842-.314,1.158-.206,2.1,.252,2.833,.084,.14,.542,.398,.911,.443,.744,.163,1.751-.06,2.336-.543,4.335-3.584,6.254-8.155,6.451-8.938,.143-.523,.205-.674,.224-.895,.079-.884-.088-1.639-.737-1.992-.075-.031-.157-.134-.128-.246,.056-.224-.028-.364-.137-.355h0Z"/>
    <path d="M732.923,871.421c-.126,.266-.519,1.356-.85,2.771-.056,.224-.149,.926-.747,3.641-.056,.224-.011,.33,.064,.361,.036-.003,.073-.006,.35-.209,2.804-2.078,6.024-3.494,8.492-5.656,.204-.198,.277-.204,.389-.176,.635,.171,.766,.454,1.029,.543,.075,.031,.489,.658,.354,1.29-.031,.075-.064,.115-.165,.232-3.53,3.596-5.91,7.873-8.159,15.321-.174,.598-.21,.601-.322,.573-.187-.059-.279-.308-.503-.364-.148-.025-.14,.084-.291,.022-.299-.087-.701-.568-.866-.812-.126-.21-.165-.243-.139-.392,.059-.187,2.068-5.496,2.374-6.288,.339-.83,1.459-2.927,2.266-4.341,.028-.112-.008-.109-.084-.14-.036,.003-.073,.006-.143,.047-1.461,.989-3.85,2.743-4.298,3.106-.277,.204-.313,.207-.389,.176-.075-.031-.31-.232-.805-.487-.38-.19-.799-.415-.986-.949-.139-.392-.183-1.449,.019-2.634l.567-2.64c.031-.075-.011-.145-.047-.143-.075-.031-.109,.008-.375,.358-1.103,1.364-1.884,2.63-2.89,4.316-1.686,2.834-2.633,4.808-2.874,5.96-.059,.187-.411,.36-.56,.335-.375-.118-.425,.179-.613,.12s-.671-.644-.785-.708c-.187-.059-.38-.666-.27-1.15,.216-1.004,1.078-1.691,1.364-2.261,2.401-4.973,6.311-9.33,8.958-13.481,.23-.347,.294-.461,.37-.43,.224,.056,.232,.165,.609,.319s.833,.375,1.009,.764c.084,.14,.092,.249,.098,.322-.034,.515-.771,1.887-1.149,2.684h0Z"/>
    <path d="M618.676,872.288c-.031,.075-.062,.151-.238,.238-.741,.349-1.413,1.131-2.141,2.138-.398,.542-.672,.782-1.207,1.445-2.307,2.845-4.488,5.9-6.585,9.095-.101,.117-.23,.347-.283,.607-.053,.26,.047,.618,.307,.671,.148,.025,.408,.079,1.286,.085,2.193-.021,4.441-.265,6.469-.529,.145-.011,.294,.014,.554,.068,.336,.084,1.068,.577,1.406,1.173,.081,.104,.165,.243,.103,.394-.028,.112,.128,.246,.041,.545-.028,.112-.053,.26-.19,.38-.171,.159-.422,.215-1.317-.009-.26-.053-.336-.084-.59-.065-3.219-.011-6.041,.862-9.285,.048-1.155-.278-1.691-1.554-2.006-2.334-.047-.143-.056-.252,.003-.439,.081-.372,.378-.797,.907-1.532,.3-.388,.112-.447,.765-1.484,3.044-4.693,6.856-8.896,10.294-13.217,.235-.274,.831-.136,1.018-.077,.26,.053,.168,.28,.741,.602,.344,.193,.777,.599,.684,.826-.126,.741-.622,.962-.737,1.373h0Z"/>
    <path d="M642.272,877.697c-.296-.051-.543,.078-.842-.009-.26-.053-.469-.403-1.065-.541-2.975-.651-5.898-.612-8.37-.424-.218,.017-.324,.061-.492,.257-.963,1.28-1.904,2.376-2.903,3.658-.031,.075,.008,.109,.084,.14,1.561-.155,3.404-.442,4.967-.085,.744,.163,1.501,.507,2.206,1.112,.31,.232,.237,.713,.15,1.012-.084,.336-1.44,.292-1.664,.236-.372-.081-.749-.236-1.012-.325-1.971-.435-4.052,.089-5.769,.11-.257-.017-.875,.03-1.077,.265-2.155,2.431-3.804,4.312-4.239,5.808-.149,.45,.156,1.085,.525,1.13,.559,.14,1.731,.161,2.707,.013,1.049-.153,1.81-.247,2.389-.328,1.88-.289,3.81-1.35,5.706-.946,.112,.028,.26,.053,.305,.16,.089,.213,.824,.742,.743,1.114-.059,.187-.157,.341-.305,.316-.255,.019-.506,.075-.789,.206-.422,.215-.814,.354-1.032,.371-3.27,.761-6.791,1.577-11.069,.623-.224-.056-1.742-.782-2.104-1.705-.134-.319,.06-1.138,.177-1.513,.662-2.354,2.428-4.134,3.856-6.035-.081-.104-.293-.49-.147-.976,.028-.112,.09-.263,.157-.341,.137-.12,.283-.131,1.012-.15,.257,.017,.327-.025,.599-.302,1.38-1.568,2.119-2.428,2.604-3.27,.028-.112,.025-.148-.087-.176-.187-.059-.8,.061-1.244-.015-.187-.059-.411-.115-.568-.249-.388-.3-.5-1.278-.415-1.614,.025-.148,.098-.154,.243-.165,2.156-.018,4.184-.282,6.251-.512,1.379-.141,5.831-.261,8.993,.449,.299,.087,.861,.264,1.018,.398,.66,.498,1.266,1.257,1.123,1.78-.107,.52-.247,.604-.619,.522h0Z"/>
    <path d="M644.351,899.735c-.176,.087-.252,.056-.364,.028-.484-.109-1.093-.429-1.386-.918s.033-2.453,.398-3.907c.337-1.342,.791-2.583,1.128-3.925,.031-.075-.011-.145-.159-.171-1.852,.177-5.272,.401-6.452,.271-.221-.02-.327,.025-.562,.299-.568,.701-.846,1.381-.986,1.94-.339,1.306-.256,1.446-.348,1.672-.031,.075-.101,.117-.21,.126-.462,.181-.879,.469-1.29,.354-.075-.031-.347-.23-.506-.4-.556-.579-.623-.977-.314-2.207,.278-1.155,1.026-2.382,1.017-2.491,.031-.075-.011-.145-.128-.246-.629-.574-.827-.778-.709-1.153,.171-.635,.765-1.484,.871-1.529,.143-.047,.252-.056,.364-.028,.484,.109,.749,.711,1.16,.826,.075,.031,.148,.025,.451-.327,3.412-3.697,6.944-7.257,11.425-11.328,.649-.598,.722-.603,.834-.575,.336,.084,1.312-.063,1.985,.141,.372,.081,.906,.37,.953,.513,.025,.327,.168,.28,.114,.54-.053,.26-1.124,2.536-1.149,2.684-.087,.299-.174,.598-.331,.939-.933,2.155-2.47,6.953-2.495,7.101-.031,.075-.059,.187,.126,.21,.224,.056,.699,.057,1.557,.284,.783,.196,1.471,.583,1.649,1.008,.089,.213,.131,.283,.1,.358-.031,.075-.092,.226-.23,.347-.509,.514-1.203,.53-2.324,.213-.484-.109-.998-.143-1.393-.04-.322,.098-.355,.137-.473,.511l-.911,2.922c-.118,.375-.404,1.42-.516,1.868-.623,2.388-.193,3.233-.218,3.381,0,.475-.392,.615-.677,.71h0Zm3.226-19.115c.112-.447,.073-.481,.034-.515-.075-.031-.112-.028-.316,.17-3.168,3.057-5.444,5.351-7.636,7.785-.439,.472-.537,.626-.535,.662-.031,.075,.047,.143,.159,.171,.336,.084,2.123,.021,3.174-.095,1.197-.128,2.033-.191,2.179-.202s.215-.053,.271-.277c1.527-3.956,2.332-6.358,2.669-7.7h0Z"/>
    <path d="M669.284,884.747c-.182,.014-.495,.221-.979,.111-.224-.056-.128-.246-.517-.546-.464-.33-.548-.47-.847-.557-1.641-.424-3.227-.596-4.513-.681,.123,.173,.134,.319,.103,.394-.031,.075-.064,.115-.098,.154-3.599,3.638-6.385,7.397-8.582,12.172-.221,.456-.319,.609-.401,.981-.056,.224-.073,.481-.166,.707-.143,.523-.37,.906-1.041,.737-.447-.112-.956-.549-1.353-.958-.12-.137-.265-.601-.209-.825,.059-.187,.331-.939,.457-1.205,2.367-4.459,4.907-8.565,8.129-12.357,.031-.075-.008-.109-.159-.171-.408-.079-1.443-.219-2.187-.382-.635-.171-1.32-.521-1.532-.907-.042-.07-.011-.145,.152-.889,.166-.707,.697-.931,.921-.875,.26,.053,.277,.272,2.217,.782,2.835,.735,5.85,.469,8.87,1.227,1.082,.283,2.443,1.825,2.359,2.161-.163,.744-.37,.906-.624,.925h0Z"/>
    <path d="M679.832,895.061c.081,.104,.159,.171,.271,.199,.338,.121,.559,.616,.626,1.013,.064,.361,.17,.316-.012,.805-.123,.302-.266,.349-.378,.321-1.954-.692-3.752-.775-5.531-1.079-.333-.048-.439-.003-.576,.117-.862,.687-1.475,1.758-2.212,2.655-1.369,1.713-2.358,3.617-3.316,5.445-.129,.229-.532,.223-.831,.136-.377-.154-.799-.415-1.073-.65-.313-.269-.282-.82-.203-1.228,.025-.148,.051-.296,.112-.447,.092-.226,.151-.414,.417-.763,1.097-1.437,2.263-3.427,3.366-4.791,.134-.156,.294-.461,.356-.612,.059-.187,.009-.366-.215-.422l-4.438-.65c-.333-.048-.403-.006-.54,.114-1.033,.847-2.117,2.94-2.525,3.337-.104,.081-.235,.274-.387,.688-.179,.526-.213,1.04-.339,1.306-.179,.526-.378,.797-.904,.617-.263-.09-.646-.317-.766-.454-.251-.42-.43-.37-.643-.756-.128-.246-.142-.428-.29-.453-.151-.062-.156-.134-.064-.361,.062-.151,.311-.718,.507-1.026l.26-.422c.387-.688,1.504-2.345,1.658-2.723,.028-.112,.025-.148-.05-.179-.187-.059-.962-.146-1.563-.356-.677-.241-1.289-.597-1.565-1.344-.092-.249,.088-1.25,.152-1.365,.059-.187,.339-.355,.641-.232,.338,.121,.774,.563,1.188,.714,.263,.09,1.935,.438,2.743,.486,.221,.02,.291-.022,.392-.139,.884-.872,1.529-2.018,2.441-3.002,2.133-2.247,4.406-4.577,6.776-6.586,.241-.201,.495-.221,1.021-.041,.299,.087,.358,.375,1.017,.873,.232,.165,.33,.487,.268,.638-.028,.112-.123,.302-.263,.386-3.025,2.059-4.523,4.476-7.529,7.265-.308,.279-.367,.467-.431,.581-.062,.151-.051,.296,.064,.361,1.633,.315,3.297,.554,4.877,.653,.221,.02,.327-.025,.568-.226,1.842-1.749,3.404-3.806,5.008-5.793,.134-.156,.204-.198,.313-.207,.252-.056,.492-.257,.906-.106,.299,.087,.534,.288,.984,.437,.375,.118,.774,.563,.623,.977-.121,.338-.314,.682-.784,1.23-1.173,1.406-2.48,2.492-3.686,3.937-.062,.151-.056,.224,.134,.319,.45,.149,2.019,.102,2.545,.282,.372,.081,.604,.247,.881,.518h0Z"/>
    <path d="M698.691,893.48c-.26-.053-.545,.041-.805-.012-.224-.056-.43-.37-.99-.51-2.824-.59-5.637-.558-7.964-.381-.182,.014-.288,.058-.456,.254-.935,1.168-1.808,2.185-2.777,3.393-.031,.075,.008,.109,.084,.14,1.488-.15,3.222-.428,4.746-.105,.707,.166,1.426,.477,2.088,1.011,.274,.235,.234,.677,.145,.94-.087,.299-1.368,.287-1.591,.231-.372-.081-.713-.238-.973-.292-1.859-.407-3.871,.075-5.515,.09-.255,.019-.839,.027-1.043,.226-2.057,2.278-3.647,3.971-4.051,5.391-.115,.411,.147,.976,.483,1.06,.556,.104,1.658,.166,2.598,.022,1.012-.15,1.737-.242,2.279-.32,1.77-.281,3.634-1.264,5.457-.854,.112,.028,.224,.056,.268,.162,.087,.176,.785,.708,.698,1.007-.059,.187-.16,.305-.269,.313-.218,.017-.47,.072-.752,.204-.425,.179-.781,.315-.96,.366-3.127,.713-6.47,1.48-10.558,.62-.224-.056-1.627-.717-1.984-1.568-.134-.319,.065-1.065,.149-1.401,.639-2.17,2.344-3.799,3.671-5.582-.081-.104-.29-.453-.142-.903,.028-.112,.056-.224,.16-.305,.137-.12,.246-.128,.976-.147,.255-.019,.327-.025,.565-.262,1.352-1.456,2.024-2.238,2.514-3.007,.028-.112,.025-.148-.084-.14-.185-.023-.764,.058-1.172-.021-.185-.023-.375-.118-.528-.216-.349-.266-.491-1.169-.404-1.469,.025-.148,.098-.154,.243-.165,2.047-.009,4.002-.268,5.96-.49,1.306-.136,5.538-.275,8.549,.373,.296,.051,.825,.266,.978,.364,.62,.465,1.221,1.15,1.075,1.637-.16,.305-.336,.391-.669,.343h0Z"/>
    <path d="M710.599,897.621c-.365,1.454-1.513,3.187-3.606,4.516-1.463,.952-3.066,1.038-5.365,1.103-.218,.017-.291,.022-.35,.209,.156,1.085,.781,2.574,1.171,3.86,.05,.179,.095,.285,.184,.498,.517,1.021,.894,1.651,1.226,2.174,.746,1.15,1.241,1.405,1.886,1.721,.38,.19,.609,1.27,.471,1.866-.087,.299-.596,.338-1.043,.226-.707-.166-1.484-.765-2.281-1.618-2.582-2.692-3.069-5.727-4.017-9.056-.056-.252-.128-.246-.168-.28-.148-.025-.215,.053-.347,.246-1.431,2.34-2.672,5.25-2.925,6.256-.087,.299-.551,.444-1.337,.211-.372-.081-.266-.126-.66-.498-.157-.134-.581-.431-.5-.803,1.536-3.847,3.681-7.374,5.974-10.877,.294-.461,.364-.503,.605-.704,.344-.282,.79-1.157,1.162-1.551,.028-.112-.047-.143-.084-.14-.26-.053-.827-1.254-.74-1.553,.056-.224,.196-.307,.305-.316,1.455-.586,4.078-1.188,6.723-.548,.895,.224,1.84,.628,2.301,.922,.654,.426,.623,.501,.743,.638,.643,.756,.693,.935,.765,1.405,.098,.322,.158,1.122-.097,2.092Zm-3.429-3.25c-.635-.171-1.292-.158-1.946-.108-.182,.014-.324,.061-.462,.181-1.733,1.741-2.967,3.298-4.597,5.908-.031,.075-.025,.148,.053,.215,.162,.207,.464,.33,.724,.384,.372,.081,.593,.101,1.063,.029,.545-.041,.596,.138,1.524-.153,2.07-.669,4.216-2.259,4.895-4.87,.109-.484,.09-.738,.006-.878-.277-.272-.738-.566-1.261-.709h0Z"/>
  </g>
</svg>