<?xml version="1.0" encoding="utf-8"?>
<!-- Generator: Adobe Illustrator 26.5.0, SVG Export Plug-In . SVG Version: 6.00 Build 0)  -->
<svg version="1.1" id="a" xmlns="http://www.w3.org/2000/svg" xmlns:xlink="http://www.w3.org/1999/xlink" x="0px" y="0px"
	 width="1882.3px" height="2048.7px" viewBox="0 0 1882.3 2048.7" style="enable-background:new 0 0 1882.3 2048.7;"
	 xml:space="preserve">
<style type="text/css">
	.st0{display:none;stroke:#FFFFFF;stroke-miterlimit:10;}
	.st1{fill:none;stroke:#FFFFFF;stroke-width:2;stroke-miterlimit:9.9999;}
	.st2{fill:#FFFFFF;}
</style>
<rect x="-1" y="-2.8" class="st0" width="1878.2" height="2046.8"/>
<path class="st1" d="M455.4,346.5c6.2-35.3,30.9-50.6,64.1-55.2c55-8,91.6-35.5,108.6-91.2c13.5-44,33-86.3,51.1-128.7
	c4.4-10.3,13.5-19,22-26.6c33-29.8,69.9-23.1,87.7,16.9c11.7,26.6,17.9,55.7,28.9,82.4c8.7,21.3,17.9,43.5,32.3,60.9
	c28.2,34.6,52.9,39.2,94.8,23.8c10.8-4.1,21.3-9.4,31.8-14c9.6-4.4,22.4-8.7,38.2-1.1c64.1,30.5,99.6,8.5,129.9-43.3
	c13.7-23.6,27.3-47.2,43.5-68.9c21.3-28.4,50.6-36,84.1-24c30.2,10.8,43.1,34.6,48.6,65c7.1,39.4,16,78.6,25.7,117.5
	c7.3,30,31.1,47.9,55,63.9c15.1,10.1,32.3,17.6,49.5,24.5c55.4,22,77.2,62.1,62.3,119.1c-2.3,8.7-9.8,16-15.1,23.8
	c-11.2,16-8.2,27.7,7.8,38.9c10.5,7.3,19.2,17.4,28.9,25.9c12.1,10.8,25.2,15.1,42.6,15.8c30.5,1.6,61.6,5.7,90.9,14.4
	c55.9,16.7,62.8,46.9,22.7,90.2c-17.6,19-36.6,36.9-54.7,55.4c-5.3,5.3-11,10.8-14.9,16.9c-21.1,34.4-30.5,60.7,16.5,86.6
	c11.5,6.2,22.2,14,34.1,19c31.8,13.5,44.2,37.1,40.3,70.5c-0.5,3.4-0.2,7.1-1.4,10.1c-33.4,83.4-11.9,166,0.9,249.4
	c14.2,90.7,13.5,182.1,1.4,273c-8.5,64.6-23.1,128.5-28.6,193.3c-2.5,28.6,6.4,60.2,17.4,87.3c16,39.2,40.3,74.7,57.7,113.4
	c10.3,22.7,18.1,47.6,20.4,72.4c3,35-28.9,54.7-61.6,40.5c-25.2-11-50.2-22.4-74-36.2c-58.6-34.1-118.9-35.5-182.5-17.2
	c-37.8,10.8-76.5,19.7-115.4,24.7c-57.3,7.3-109.9-14-161.7-35.5c-37.1-15.6-73.7-31.6-111.3-46c-24.3-9.4-47.2-6-69.9,8.9
	c-8.2,5.5-23.6,6.4-33.2,2.7c-37.1-14.7-74-16.9-111.3-3.2c-54.7,20.2-109,41.9-164.2,61.4c-76.7,27-155.3,41-236.8,28.6
	c-16-2.5-31.6-7.8-46.9-12.6c-37.8-11.5-74.7-8.2-113.1,0.5c-55.7,12.8-107,33.7-154.4,64.8c-16.9,11.2-36,15.1-56.3,13.7
	c-22.9-1.6-38.2-12.4-41-34.6c-3.4-30.2,1.6-58.6,17.6-85.7c39.6-66.2,82.9-130.1,109-203.6c14.7-41.5,14.7-84.1,12.1-126.9
	c-2.1-33-9.2-65.7-11-98.7c-3-49.7-3.2-99.9-4.6-149.6c-2.1-79.9,12.1-157.8,30-235c13.3-57.5,16.9-115.4,15.1-174.1
	c-0.2-8.7-4.8-17.2-8-25.7c-2.5-7.1-6-14.2-9.6-20.8c-35.5-64.8-1.4-83.1,52-91.8c21.3-3.7,44.7-8.9,62.1-20.8
	c34.4-23.1,27.5-85.2-10.1-115.9c-19-15.3-38.7-29.8-56.8-46.3c-8-7.3-15.3-15.8-21.3-25c-23.8-37.1-14.9-64.4,16.5-79.7
	c28.4-14,57.9-19.7,90-13.5c15.3,3,29.8,2.3,43.1-0.9c51.5-12.1,85.9-60.9,82.9-113.6C454.9,352.9,454.7,349.3,455.4,346.5
	L455.4,346.5L455.4,346.5z"/>
<g>
	<path class="st2" d="M716,719.7c0-1.3,1-2.2,2.5-2.2h6.2v-54l-6.2-0.7c-1.6-0.2-2.5-1.1-2.5-2.3c0-1.3,1-2.2,2.5-2.2H745
		c10.4,0,19.1,5.5,19.1,15.2c0,9.2-6.1,12.6-8.5,13.6l-2.4,1l2.4,0.6c2.5,0.6,11.5,4.4,11.5,15.3c0,10.4-8.8,17.8-18.6,17.8h-30
		C717,721.9,716,721,716,719.7L716,719.7z M745.9,686.2c3.3,0,9.7-4.2,9.7-12.6c0-8.2-6.2-10.9-9.7-10.9h-12.4v23.5H745.9z
		 M745.9,717.5c9.1,0,12.6-6.6,12.6-13.5c0-8.8-5.6-13.5-12.6-13.5h-12.4v27H745.9z"/>
	<path class="st2" d="M777.8,690.1c0-20,11.7-32.2,24.5-32.2c12.9,0,24.4,12,24.4,32.2s-11.5,32.2-24.4,32.2
		C789.3,722.3,777.8,710.3,777.8,690.1z M817.1,690.1c0-15-5-27.9-14.8-27.9s-14.9,12.9-14.9,27.9c0,15.1,5,27.9,14.9,27.9
		C812,718,817.1,705.2,817.1,690.1z"/>
	<path class="st2" d="M838.9,658.4h19.6c1.3,0,2.3,0.9,2.3,2.2s-1,2.2-2.3,2.2h-3.3l9.7,23.5l11-23.5h-6.1c-1.3,0-2.3-0.9-2.3-2.2
		s1-2.2,2.3-2.2H888c1.6,0,2.4,1,2.4,2.2c0,1.3-0.9,2.2-2.4,2.2h-6L867.2,693v24.6h10.4c1.4,0,2.4,0.9,2.4,2.2s-1,2.2-2.4,2.2h-30.3
		c-1.5,0-2.4-0.9-2.4-2.2s0.9-2.2,2.4-2.2h10.4v-24.8l-13.2-30h-5.4c-1.3,0-2.3-0.9-2.3-2.2S837.6,658.4,838.9,658.4L838.9,658.4z"
		/>
	<path class="st2" d="M988.5,677.3l6.8,22.4l7-37h-1.7c-1.3,0-2.4-1-2.4-2.2s1-2.2,2.4-2.2h8.9c1.3,0,2.4,1,2.4,2.2s-1,2.2-2.4,2.2
		h-2.6l-11.3,58.7c-0.1,0.5-0.8,1-1.5,1c-1,0-1.5-0.5-1.6-1l-7.1-25.5l-6.4,25.5c-0.1,0.5-0.6,1-1.6,1c-0.7,0-1.4-0.5-1.5-1
		L963,662.7h-2.6c-1.3,0-2.4-1-2.4-2.2s1-2.2,2.4-2.2h13.1c1.3,0,2.3,1,2.3,2.2s-1,2.2-2.3,2.2h-1.7l8.2,37l5.6-22.4
		c0.2-0.5,0.8-1,1.5-1C987.9,676.3,988.4,676.8,988.5,677.3L988.5,677.3z"/>
	<path class="st2" d="M1055.7,717.5c8.4-0.2,9.6-7.7,10.1-11.3l0.3-4.9c0.1-1.6,0.7-2.6,2.3-2.6s2.4,1,2.3,2.6l-1.4,17.8
		c-0.1,1.5-0.8,2.7-2.4,2.7h-44.1c-1.6,0-2.5-0.9-2.5-2.2s1-2.2,2.5-2.2h7.7v-54l-7.7-0.7c-1.7-0.2-2.5-1.1-2.5-2.3
		c0-1.3,1-2.2,2.5-2.2h44.1c1.6,0,2.3,1.2,2.4,2.7l1.4,17.8c0.1,1.6-0.7,2.6-2.3,2.6s-2.2-1-2.3-2.6l-0.3-4.9
		c-0.5-3.6-1.7-11.3-10.1-11.3h-16.5v24h7.2c4.6,0,5.7-1.7,6.4-5l0.4-2.5c0.3-1.5,0.7-2.5,2.2-2.5s2.2,1,2.2,2.5v20.4
		c0,1.5-0.7,2.5-2.2,2.5s-1.9-1-2.2-2.5l-0.4-2.5c-0.6-3.4-1.7-5.9-6.4-5.9h-7.2v26.5L1055.7,717.5L1055.7,717.5z"/>
	<path class="st2" d="M1109.1,684.8c10.7,4.4,20.5,6.6,20.5,20.3c0,13.8-10.9,17.7-19.7,17.7c-9.2,0-16.3-4.8-19-9.5v6.2
		c0,1.6-1,2.4-2.2,2.4s-2.2-0.9-2.2-2.4v-20.4c0-1.4,0.7-2.5,2.2-2.5s2,1.1,2.2,2.5l0.6,4c1.3,8.9,10.3,15.3,18.2,15.3
		c5.9,0,13.5-3,13.5-11.2c0-7.7-10-11.3-18.5-14.4c-10.2-3.7-17.8-7.6-17.8-18.4c0-9.3,7.5-16.1,17.8-16.1c7,0,13.9,2.9,18.7,8.8
		l0.5-6.8c0.1-1.7,1.1-2.5,2.3-2.5c1.3,0,2.2,1,2.2,2.5v17.1c0,1.6-0.7,2.4-2.1,2.4c-1.5,0-1.7-1.3-2.3-2.5
		c-3.1-7.3-11.3-14.7-19.3-14.7c-7,0-10.2,3.2-10.2,9.2C1094.6,679.3,1102,681.9,1109.1,684.8L1109.1,684.8z"/>
	<path class="st2" d="M1158.5,662.7c-8.4,0-8.4,5.1-9.2,13.9l-0.3,4c-0.1,1.5-0.6,2.6-2.2,2.6s-2.4-1.1-2.4-2.6l0.5-19.6
		c0-1.5,0.8-2.7,2.4-2.7h41.1c1.6,0,2.4,1.2,2.4,2.7l0.5,19.6c0,1.5-0.8,2.6-2.4,2.6s-2.1-1.1-2.2-2.6l-0.3-4
		c-0.8-8.8-0.8-13.9-9.2-13.9h-5v54.8h10.3c1.6,0,2.4,1,2.4,2.2s-0.9,2.2-2.4,2.2h-29.2c-1.6,0-2.4-1-2.4-2.2s0.9-2.2,2.4-2.2h10.3
		v-54.8H1158.5L1158.5,662.7z"/>
</g>
<path class="st2" d="M458.3,864.8l0.3-3.3c0.1-1.2,0.8-1.9,1.7-1.9c1,0,1.6,0.8,1.6,1.9v14.3c0,1.2-0.8,1.9-1.9,1.9
	c-1.3,0-1.6-0.8-1.9-1.9c-2.4-7.5-4.4-13-11.4-13c-7.1,0-10.5,9.2-10.5,20.2c0,11.1,3.4,20.2,11.1,20.2c4.4,0,7.7-3.9,10.1-9.7
	l1.3-3.1c0.4-1,1-2.2,2.3-1.9c1.1,0.2,2,1,1.4,3c-2.2,8-6.5,14.9-15.1,14.9c-9.6,0-18.1-7.2-18.1-23.4s8.6-23.4,18.1-23.4
	C452.3,859.6,455.8,862.2,458.3,864.8z"/>
<path class="st2" d="M473,883c0-14.8,8.6-23.7,18-23.7c9.5,0,18,8.9,18,23.7c0,14.9-8.5,23.7-18,23.7C481.5,906.8,473,897.9,473,883
	z M502,883c0-11-3.7-20.5-10.9-20.5c-7.2,0-11,9.5-11,20.5c0,11.1,3.7,20.5,11,20.5C498.3,903.6,502,894.1,502,883z"/>
<path class="st2" d="M538.5,873.6l5,16.5l5.2-27.3h-1.3c-1,0-1.7-0.7-1.7-1.6c0-0.9,0.8-1.6,1.7-1.6h6.5c1,0,1.7,0.7,1.7,1.6
	c0,0.9-0.8,1.6-1.7,1.6H552l-8.3,43.2c-0.1,0.4-0.6,0.8-1.1,0.8c-0.7,0-1.1-0.4-1.2-0.8l-5.3-18.8l-4.7,18.8
	c-0.1,0.4-0.4,0.8-1.2,0.8c-0.5,0-1-0.4-1.1-0.8l-9.5-43.2h-1.9c-1,0-1.7-0.7-1.7-1.6c0-0.9,0.8-1.6,1.7-1.6h9.6
	c1,0,1.7,0.7,1.7,1.6c0,0.9-0.8,1.6-1.7,1.6H526l6,27.3l4.1-16.5c0.1-0.4,0.6-0.8,1.1-0.8C538.1,872.8,538.5,873.2,538.5,873.6
	L538.5,873.6z"/>
<path class="st2" d="M562.2,904.8c0-1,0.7-1.6,1.9-1.6h4.6v-39.8l-4.6-0.5c-1.2-0.1-1.9-0.8-1.9-1.7c0-1,0.8-1.6,1.9-1.6h19.6
	c7.7,0,14.1,4,14.1,11.2c0,6.8-4.5,9.3-6.3,10l-1.8,0.7l1.8,0.4c1.9,0.4,8.5,3.3,8.5,11.3c0,7.6-6.5,13.1-13.7,13.1h-22.1
	C562.9,906.4,562.2,905.8,562.2,904.8L562.2,904.8z M584.2,880.2c2.4,0,7.1-3.1,7.1-9.3c0-6-4.6-8-7.1-8H575v17.3H584.2z
	 M584.2,903.2c6.7,0,9.3-4.9,9.3-9.9c0-6.5-4.1-9.9-9.3-9.9H575v19.9L584.2,903.2L584.2,903.2z"/>
<path class="st2" d="M607.7,883c0-14.8,8.6-23.7,18-23.7c9.5,0,18,8.9,18,23.7c0,14.9-8.5,23.7-18,23.7
	C616.2,906.8,607.7,897.9,607.7,883z M636.6,883c0-11-3.7-20.5-10.9-20.5s-11,9.5-11,20.5c0,11.1,3.7,20.5,11,20.5
	C632.9,903.6,636.6,894.1,636.6,883z"/>
<path class="st2" d="M652.7,859.6h14.4c1,0,1.7,0.6,1.7,1.6s-0.7,1.6-1.7,1.6h-2.4l7.1,17.3l8.1-17.3h-4.5c-1,0-1.7-0.6-1.7-1.6
	s0.7-1.6,1.7-1.6h13.4c1.2,0,1.8,0.7,1.8,1.6c0,1-0.6,1.6-1.8,1.6h-4.4l-10.9,22.3v18.1h7.6c1,0,1.7,0.6,1.7,1.6s-0.7,1.6-1.7,1.6
	h-22.3c-1.1,0-1.7-0.6-1.7-1.6s0.6-1.6,1.7-1.6h7.6V885l-9.7-22.1h-4c-1,0-1.7-0.6-1.7-1.6C651.1,860.3,651.8,859.6,652.7,859.6
	L652.7,859.6z"/>
<path class="st2" d="M1188.7,995.4l5,16.5l5.2-27.3h-1.3c-1,0-1.7-0.7-1.7-1.6s0.8-1.6,1.7-1.6h6.5c1,0,1.7,0.7,1.7,1.6
	s-0.8,1.6-1.7,1.6h-1.9l-8.3,43.2c-0.1,0.4-0.6,0.8-1.1,0.8c-0.7,0-1.1-0.4-1.2-0.8l-5.3-18.8l-4.7,18.8c-0.1,0.4-0.4,0.8-1.2,0.8
	c-0.5,0-1-0.4-1.1-0.8l-9.5-43.2h-1.9c-1,0-1.7-0.7-1.7-1.6s0.8-1.6,1.7-1.6h9.6c1,0,1.7,0.7,1.7,1.6s-0.8,1.6-1.7,1.6h-1.3l6,27.3
	l4.1-16.5c0.1-0.4,0.6-0.8,1.1-0.8C1188.2,994.6,1188.6,995,1188.7,995.4L1188.7,995.4z"/>
<path class="st2" d="M1243.2,1025c1.2,0,1.9,0.6,1.9,1.6s-0.7,1.6-1.9,1.6h-24.4c-1.2,0-1.9-0.6-1.9-1.6s0.7-1.6,1.9-1.6h9v-40.4
	h-9.1c-1.2,0-1.9-0.6-1.9-1.6s0.7-1.6,1.9-1.6h24.4c1.2,0,1.9,0.6,1.9,1.6s-0.7,1.6-1.9,1.6h-8.9v40.4H1243.2z"/>
<path class="st2" d="M1259.4,1025h4.9v-40.4h-4.9c-1.2,0-1.9-0.6-1.9-1.6s0.7-1.6,1.9-1.6h16.2c1.2,0,1.9,0.6,1.9,1.6
	s-0.7,1.6-1.9,1.6h-4.9v40.4h13c6.2,0,7.1-5.7,7.4-8.3l0.3-3c0.1-1.1,0.6-1.9,1.7-1.9s1.7,0.8,1.6,1.9l-1,12.5c-0.1,1.1-0.6,2-2.4,2
	h-31.9c-1.2,0-1.9-0.6-1.9-1.6S1258.2,1025,1259.4,1025L1259.4,1025z"/>
<path class="st2" d="M1302.5,981.4h20.4c7.1,0,17.5,6.5,17.5,23.6c0,18.7-10.6,23.2-17.4,23.2h-20.5c-1.2,0-1.9-0.6-1.9-1.6
	s0.7-1.6,1.9-1.6h5.8v-40.4h-5.8c-1.2,0-1.9-0.6-1.9-1.6C1300.7,982,1301.4,981.4,1302.5,981.4L1302.5,981.4z M1314.7,1025h8.3
	c6.5,0,11-8.7,11-20c0-11-4.2-20.4-11.1-20.4h-8.1L1314.7,1025L1314.7,1025z"/>
<path class="st2" d="M1368.2,995.4l5,16.5l5.2-27.3h-1.3c-1,0-1.7-0.7-1.7-1.6s0.8-1.6,1.7-1.6h6.5c1,0,1.7,0.7,1.7,1.6
	s-0.8,1.6-1.7,1.6h-1.9l-8.3,43.2c-0.1,0.4-0.6,0.8-1.1,0.8c-0.7,0-1.1-0.4-1.2-0.8l-5.3-18.8l-4.7,18.8c-0.1,0.4-0.4,0.8-1.2,0.8
	c-0.5,0-1-0.4-1.1-0.8l-9.5-43.2h-1.9c-1,0-1.7-0.7-1.7-1.6s0.8-1.6,1.7-1.6h9.6c1,0,1.7,0.7,1.7,1.6s-0.8,1.6-1.7,1.6h-1.3l6,27.3
	l4.1-16.5c0.1-0.4,0.6-0.8,1.1-0.8C1367.8,994.6,1368.1,995,1368.2,995.4L1368.2,995.4z"/>
<path class="st2" d="M1417.7,1025c6.2-0.1,7.1-5.7,7.4-8.3l0.3-3.6c0.1-1.2,0.5-1.9,1.7-1.9s1.7,0.8,1.7,1.9l-1,13.1
	c-0.1,1.1-0.6,2-1.7,2h-32.5c-1.2,0-1.9-0.6-1.9-1.6s0.7-1.6,1.9-1.6h5.6v-39.8l-5.6-0.5c-1.2-0.1-1.9-0.8-1.9-1.7
	c0-1,0.8-1.6,1.9-1.6h32.5c1.2,0,1.7,0.9,1.7,2l1,13.1c0.1,1.2-0.5,1.9-1.7,1.9s-1.6-0.8-1.7-1.9l-0.3-3.6c-0.4-2.6-1.2-8.3-7.4-8.3
	h-12.2v17.7h5.3c3.4,0,4.2-1.2,4.7-3.7l0.3-1.9c0.2-1.1,0.5-1.9,1.6-1.9s1.6,0.8,1.6,1.9v15c0,1.1-0.5,1.9-1.6,1.9s-1.4-0.8-1.6-1.9
	l-0.3-1.9c-0.4-2.5-1.3-4.4-4.7-4.4h-5.3v19.5L1417.7,1025L1417.7,1025z"/>
<path class="st2" d="M1457,1000.9c7.9,3.2,15.1,4.9,15.1,14.9c0,10.2-8,13-14.5,13c-6.8,0-12-3.5-14-7v4.6c0,1.2-0.7,1.8-1.6,1.8
	s-1.6-0.6-1.6-1.8v-15c0-1,0.5-1.9,1.6-1.9s1.5,0.8,1.6,1.9l0.4,3c1,6.5,7.6,11.3,13.4,11.3c4.4,0,9.9-2.2,9.9-8.3
	c0-5.7-7.4-8.3-13.6-10.6c-7.5-2.7-13.1-5.6-13.1-13.5c0-6.9,5.5-11.9,13.1-11.9c5.1,0,10.3,2.1,13.8,6.5l0.4-5
	c0.1-1.2,0.8-1.9,1.7-1.9c1,0,1.6,0.7,1.6,1.9v12.6c0,1.2-0.5,1.8-1.5,1.8c-1.1,0-1.3-1-1.7-1.9c-2.3-5.4-8.3-10.8-14.2-10.8
	c-5.1,0-7.5,2.4-7.5,6.8C1446.4,996.8,1451.8,998.8,1457,1000.9L1457,1000.9z"/>
<path class="st2" d="M1493.4,984.6c-6.2,0-6.2,3.8-6.8,10.3l-0.3,3c-0.1,1.1-0.4,1.9-1.6,1.9s-1.7-0.8-1.7-1.9l0.4-14.4
	c0-1.1,0.6-2,1.7-2h30.3c1.2,0,1.7,0.9,1.7,2l0.4,14.4c0,1.1-0.6,1.9-1.7,1.9s-1.5-0.8-1.6-1.9l-0.3-3c-0.6-6.5-0.6-10.3-6.8-10.3
	h-3.7v40.4h7.6c1.2,0,1.8,0.7,1.8,1.6s-0.6,1.6-1.8,1.6h-21.5c-1.2,0-1.8-0.7-1.8-1.6s0.6-1.6,1.8-1.6h7.6v-40.4H1493.4z"/>
<g>
	<path class="st2" d="M988.7,1331.7c4.4,0,8.5,2.6,11,5.2l0.3-3.3c0.1-1.2,0.8-1.9,1.7-1.9c1,0,1.6,0.8,1.6,1.9v14.3
		c0,1.2-0.8,1.9-1.9,1.9c-1.3,0-1.6-0.8-1.9-1.9c-2.4-7.5-5.1-13-11.4-13c-7.2,0-10.5,9.2-10.5,20.2c0,11.1,3.2,20.2,10.5,20.2
		c6.1,0,10.9-6.7,11-15.9h-4.6c-1.2,0-1.9-0.5-1.9-1.6s0.7-1.6,1.9-1.6h13.1c1.2,0,1.9,0.8,1.9,1.6c0,1-0.7,1.6-1.9,1.6h-4l0.1,17.2
		c0,1.1-0.6,2-1.7,2s-1.7-0.9-1.7-2l0.1-4.9c-2.3,3.9-6.7,6.8-12.2,6.8c-9.6,0-17.5-7.2-17.5-23.4
		C970.6,1339,978.5,1331.7,988.7,1331.7L988.7,1331.7z"/>
	<path class="st2" d="M1015.6,1355.2c0-14.8,8.6-23.7,18-23.7c9.5,0,18,8.9,18,23.7s-8.5,23.7-18,23.7
		C1024,1378.9,1015.6,1370,1015.6,1355.2z M1044.5,1355.2c0-11-3.7-20.5-10.9-20.5s-11,9.5-11,20.5c0,11.1,3.7,20.5,11,20.5
		C1040.8,1375.7,1044.5,1366.2,1044.5,1355.2z"/>
	<path class="st2" d="M1125.7,1379.2l3.1,4.4c1.3,1.5,1.2,2.4,0.5,3.1c-1,1-2.2,0.4-4.7-2c-6.5-6.3-13.5-15.4-13.5-29.6
		c0-14.3,6.8-23,13.5-29.6c1.9-1.9,3.5-3.2,4.7-2c0.6,0.6,0.7,1.7-0.5,3.1l-3.1,4.4c-4.4,6.2-8.1,13.8-8.1,24
		C1117.5,1365.4,1121.4,1373.1,1125.7,1379.2z"/>
	<path class="st2" d="M1161.4,1335c-6.2,0-6.2,3.8-6.8,10.3l-0.3,3c-0.1,1.1-0.4,1.9-1.6,1.9s-1.7-0.8-1.7-1.9l0.4-14.4
		c0-1.1,0.6-2,1.7-2h30.3c1.2,0,1.7,0.9,1.7,2l0.4,14.4c0,1.1-0.6,1.9-1.7,1.9s-1.5-0.8-1.6-1.9l-0.3-3c-0.6-6.5-0.6-10.3-6.8-10.3
		h-3.7v40.4h7.6c1.2,0,1.8,0.7,1.8,1.6s-0.6,1.6-1.8,1.6h-21.5c-1.2,0-1.8-0.7-1.8-1.6s0.6-1.6,1.8-1.6h7.6V1335H1161.4z"/>
	<path class="st2" d="M1215.8,1333.7l13.2,41.6h3.2c1.2,0,1.9,0.6,1.9,1.6s-0.7,1.6-1.9,1.6h-14.4c-1.2,0-1.9-0.6-1.9-1.6
		s0.7-1.6,1.9-1.6h4.3l-2.9-9.9h-14.4l-2.8,9.9h3.7c1.2,0,1.9,0.6,1.9,1.6s-0.7,1.6-1.9,1.6H1194c-1.2,0-1.9-0.6-1.9-1.6
		s0.7-1.6,1.9-1.6h3.8l12.7-41.6c0.4-1.2,1.2-2,2.6-2C1214.7,1331.7,1215.4,1332.5,1215.8,1333.7L1215.8,1333.7z M1218.3,1362.2
		l-6.2-20.8l-6.3,20.8H1218.3z"/>
	<path class="st2" d="M1239.7,1378.6c-1.1,0-1.8-0.6-1.8-1.6s0.7-1.6,1.8-1.6h4V1335h-3.9c-1.2,0-1.9-0.6-1.9-1.6s0.7-1.6,1.9-1.6
		h13.7c1.2,0,1.9,0.6,1.9,1.6s-0.7,1.6-1.9,1.6h-3.3v20l15.7-20h-4.8c-1.1,0-1.8-0.6-1.8-1.6s0.7-1.6,1.8-1.6h13.8
		c1.1,0,1.8,0.6,1.8,1.6s-0.7,1.6-1.8,1.6h-3.8l-13.4,17l14.9,23.4h3.6c1.2,0,1.9,0.6,1.9,1.6s-0.7,1.6-1.9,1.6h-14.4
		c-1.1,0-1.8-0.6-1.8-1.6s0.7-1.6,1.8-1.6h3.2l-11.6-18.1l-3.2,4.1v14h3.4c1.1,0,1.8,0.6,1.8,1.6s-0.7,1.6-1.8,1.6H1239.7
		L1239.7,1378.6z"/>
	<path class="st2" d="M1310.1,1375.4c6.2-0.1,7.1-5.7,7.4-8.3l0.3-3.6c0.1-1.2,0.5-1.9,1.7-1.9s1.7,0.8,1.7,1.9l-1,13.1
		c-0.1,1.1-0.6,2-1.7,2H1286c-1.2,0-1.9-0.6-1.9-1.6s0.7-1.6,1.9-1.6h5.6v-39.8l-5.6-0.5c-1.2-0.1-1.9-0.8-1.9-1.7
		c0-1,0.8-1.6,1.9-1.6h32.5c1.2,0,1.7,0.9,1.7,2l1,13.1c0.1,1.2-0.5,1.9-1.7,1.9s-1.6-0.8-1.7-1.9l-0.3-3.6
		c-0.4-2.6-1.2-8.3-7.4-8.3h-12.2v17.7h5.3c3.4,0,4.2-1.2,4.7-3.7l0.3-1.9c0.2-1.1,0.5-1.9,1.6-1.9s1.6,0.8,1.6,1.9v15
		c0,1.1-0.5,1.9-1.6,1.9s-1.4-0.8-1.6-1.9l-0.3-1.9c-0.4-2.5-1.3-4.4-4.7-4.4h-5.3v19.5h12.2V1375.4L1310.1,1375.4z"/>
	<path class="st2" d="M1395.3,1333.7l13.2,41.6h3.2c1.2,0,1.9,0.6,1.9,1.6s-0.7,1.6-1.9,1.6h-14.4c-1.2,0-1.9-0.6-1.9-1.6
		s0.7-1.6,1.9-1.6h4.3l-2.9-9.9h-14.4l-2.8,9.9h3.7c1.2,0,1.9,0.6,1.9,1.6s-0.7,1.6-1.9,1.6h-11.7c-1.2,0-1.9-0.6-1.9-1.6
		s0.7-1.6,1.9-1.6h3.8l12.7-41.6c0.4-1.2,1.2-2,2.6-2C1394.2,1331.7,1394.9,1332.5,1395.3,1333.7L1395.3,1333.7z M1397.8,1362.2
		l-6.2-20.8l-6.3,20.8H1397.8z"/>
	<path class="st2" d="M1435.1,1331.1l-3.1-4.4c-1.2-1.4-1.2-2.4-0.5-3.1c1.2-1.2,2.8,0.1,4.7,2c6.7,6.5,13.5,15.3,13.5,29.6
		c0,14.2-7,23.2-13.5,29.6c-2.6,2.4-3.7,3-4.7,2c-0.6-0.6-0.8-1.6,0.5-3.1l3.1-4.4c4.3-6.1,8.2-13.8,8.1-24
		C1443.2,1344.9,1439.5,1337.3,1435.1,1331.1z"/>
	<path class="st2" d="M1148.4,1422.7l5,16.5l5.2-27.3h-1.3c-1,0-1.7-0.7-1.7-1.6s0.8-1.6,1.7-1.6h6.5c1,0,1.7,0.7,1.7,1.6
		s-0.8,1.6-1.7,1.6h-1.9l-8.3,43.2c-0.1,0.4-0.6,0.8-1.1,0.8c-0.7,0-1.1-0.4-1.2-0.8l-5.3-18.8l-4.7,18.8c-0.1,0.4-0.4,0.8-1.2,0.8
		c-0.5,0-1-0.4-1.1-0.8l-9.5-43.2h-1.9c-1,0-1.7-0.7-1.7-1.6s0.8-1.6,1.7-1.6h9.6c1,0,1.7,0.7,1.7,1.6s-0.8,1.6-1.7,1.6h-1.3l6,27.3
		l4.1-16.5c0.1-0.4,0.6-0.8,1.1-0.8C1147.9,1421.9,1148.3,1422.3,1148.4,1422.7L1148.4,1422.7z"/>
	<path class="st2" d="M1193.3,1410.7l13.2,41.6h3.2c1.2,0,1.9,0.6,1.9,1.6s-0.7,1.6-1.9,1.6h-14.4c-1.2,0-1.9-0.6-1.9-1.6
		s0.7-1.6,1.9-1.6h4.3l-2.9-9.9h-14.4l-2.8,9.9h3.7c1.2,0,1.9,0.6,1.9,1.6s-0.7,1.6-1.9,1.6h-11.7c-1.2,0-1.9-0.6-1.9-1.6
		s0.7-1.6,1.9-1.6h3.8l12.7-41.6c0.4-1.2,1.2-2,2.6-2C1192.2,1408.7,1193,1409.4,1193.3,1410.7L1193.3,1410.7z M1195.8,1439.2
		l-6.2-20.8l-6.3,20.8H1195.8z"/>
	<path class="st2" d="M1219.1,1452.3h4.9v-40.4h-4.9c-1.2,0-1.9-0.6-1.9-1.6s0.7-1.6,1.9-1.6h16.2c1.2,0,1.9,0.6,1.9,1.6
		s-0.7,1.6-1.9,1.6h-4.9v40.4h13c6.2,0,7.1-5.7,7.4-8.3l0.3-3c0.1-1.1,0.6-1.9,1.7-1.9s1.7,0.8,1.6,1.9l-1,12.5
		c-0.1,1.1-0.6,2-2.4,2h-31.9c-1.2,0-1.9-0.6-1.9-1.6S1218,1452.3,1219.1,1452.3L1219.1,1452.3z"/>
	<path class="st2" d="M1262.1,1455.5c-1.1,0-1.8-0.6-1.8-1.6s0.7-1.6,1.8-1.6h4v-40.4h-3.9c-1.2,0-1.9-0.6-1.9-1.6s0.7-1.6,1.9-1.6
		h13.7c1.2,0,1.9,0.6,1.9,1.6s-0.7,1.6-1.9,1.6h-3.3v20l15.7-20h-4.8c-1.1,0-1.8-0.6-1.8-1.6s0.7-1.6,1.8-1.6h13.8
		c1.1,0,1.8,0.6,1.8,1.6s-0.7,1.6-1.8,1.6h-3.8l-13.4,17l14.9,23.4h3.6c1.2,0,1.9,0.6,1.9,1.6s-0.7,1.6-1.9,1.6h-14.4
		c-1.1,0-1.8-0.6-1.8-1.6s0.7-1.6,1.8-1.6h3.2l-11.6-18.1l-3.2,4.1v14h3.4c1.1,0,1.8,0.6,1.8,1.6s-0.7,1.6-1.8,1.6H1262.1
		L1262.1,1455.5z"/>
</g>
<g>
	<path class="st2" d="M565.4,1105.1c4.4,0,8.5,2.6,11,5.2l0.3-3.3c0.1-1.2,0.8-1.9,1.7-1.9c1,0,1.6,0.8,1.6,1.9v14.3
		c0,1.2-0.8,1.9-1.9,1.9c-1.3,0-1.6-0.8-1.9-1.9c-2.4-7.5-5.1-13-11.4-13c-7.2,0-10.5,9.2-10.5,20.2c0,11.1,3.2,20.2,10.5,20.2
		c6.1,0,10.9-6.7,11-15.9h-4.6c-1.2,0-1.9-0.5-1.9-1.6s0.7-1.6,1.9-1.6h13.1c1.2,0,1.9,0.8,1.9,1.6c0,1-0.7,1.6-1.9,1.6h-4l0.1,17.2
		c0,1.1-0.6,2-1.7,2s-1.7-0.9-1.7-2l0.1-4.9c-2.3,3.9-6.7,6.8-12.2,6.8c-9.6,0-17.5-7.2-17.5-23.4
		C547.2,1112.4,555.2,1105.1,565.4,1105.1L565.4,1105.1z"/>
	<path class="st2" d="M592.2,1128.5c0-14.8,8.6-23.7,18-23.7c9.5,0,18,8.9,18,23.7c0,14.9-8.5,23.7-18,23.7
		C600.7,1152.3,592.2,1143.4,592.2,1128.5z M621.1,1128.5c0-11-3.7-20.5-10.9-20.5s-11,9.5-11,20.5c0,11.1,3.7,20.5,11,20.5
		C617.4,1149.1,621.1,1139.6,621.1,1128.5z"/>
	<path class="st2" d="M654.2,1105.1c6.6,0,12.8,3.4,12.8,9.7c0,6.6-4.4,8.3-8.9,12.4c-2.3,2.1-2.4,3.8-2.4,9v1.2
		c0,1.2-0.7,1.8-1.6,1.8c-0.9,0-1.6-0.6-1.6-1.7v-5.1c0-3.5,1.3-4.7,4-7.6c3.3-3.6,4-6.2,4-9.9c0-4-2.6-6.5-7-6.5
		c-4.7,0-6.3,2.4-6.3,2.4c-0.1-0.4,0.9,3.5,1.2,4.7s-0.3,3.8-2.8,4.4c-2.3,0.5-4.7-0.1-5.6-3.3C639,1112,644.3,1105.1,654.2,1105.1
		L654.2,1105.1z M654.1,1144.4c-2.2,0-4,1.6-4,3.8s1.8,3.8,4,3.8s4-1.6,4-3.8S656.3,1144.4,654.1,1144.4z"/>
	<path class="st2" d="M702.6,1119.1l5,16.5l5.2-27.3h-1.3c-1,0-1.7-0.7-1.7-1.6s0.8-1.6,1.7-1.6h6.5c1,0,1.7,0.7,1.7,1.6
		s-0.8,1.6-1.7,1.6h-1.9l-8.3,43.2c-0.1,0.4-0.6,0.8-1.1,0.8c-0.7,0-1.1-0.4-1.2-0.8l-5.3-18.8l-4.7,18.8c-0.1,0.4-0.4,0.8-1.2,0.8
		c-0.5,0-1-0.4-1.1-0.8l-9.5-43.2h-1.9c-1,0-1.7-0.7-1.7-1.6s0.8-1.6,1.7-1.6h9.6c1,0,1.7,0.7,1.7,1.6s-0.8,1.6-1.7,1.6h-1.3l6,27.3
		l4.1-16.5c0.1-0.4,0.6-0.8,1.1-0.8C702.1,1118.3,702.5,1118.7,702.6,1119.1L702.6,1119.1z"/>
	<path class="st2" d="M752.1,1148.7c6.2-0.1,7.1-5.7,7.4-8.3l0.3-3.6c0.1-1.2,0.5-1.9,1.7-1.9s1.7,0.8,1.7,1.9l-1,13.1
		c-0.1,1.1-0.6,2-1.7,2H728c-1.2,0-1.9-0.6-1.9-1.6s0.7-1.6,1.9-1.6h5.6v-39.8l-5.6-0.5c-1.2-0.1-1.9-0.8-1.9-1.7
		c0-1,0.8-1.6,1.9-1.6h32.5c1.2,0,1.7,0.9,1.7,2l1,13.1c0.1,1.2-0.5,1.9-1.7,1.9s-1.6-0.8-1.7-1.9l-0.3-3.6
		c-0.4-2.6-1.2-8.3-7.4-8.3h-12.2v17.7h5.3c3.4,0,4.2-1.2,4.7-3.7l0.3-1.9c0.2-1.1,0.5-1.9,1.6-1.9s1.6,0.8,1.6,1.9v15
		c0,1.1-0.5,1.9-1.6,1.9s-1.4-0.8-1.6-1.9l-0.3-1.9c-0.4-2.5-1.3-4.4-4.7-4.4h-5.3v19.5h12.2V1148.7L752.1,1148.7z"/>
	<path class="st2" d="M791.4,1124.6c7.9,3.2,15.1,4.9,15.1,14.9c0,10.2-8,13-14.5,13c-6.8,0-12-3.5-14-7v4.6c0,1.2-0.7,1.8-1.6,1.8
		c-0.9,0-1.6-0.6-1.6-1.8v-15c0-1,0.5-1.9,1.6-1.9s1.5,0.8,1.6,1.9l0.4,3c1,6.5,7.6,11.3,13.4,11.3c4.4,0,9.9-2.2,9.9-8.3
		c0-5.7-7.4-8.3-13.6-10.6c-7.5-2.7-13.1-5.6-13.1-13.5c0-6.9,5.5-11.9,13.1-11.9c5.1,0,10.3,2.1,13.8,6.5l0.4-5
		c0.1-1.2,0.8-1.9,1.7-1.9c1,0,1.6,0.7,1.6,1.9v12.6c0,1.2-0.5,1.8-1.5,1.8c-1.1,0-1.3-1-1.7-1.9c-2.3-5.4-8.3-10.8-14.2-10.8
		c-5.1,0-7.5,2.4-7.5,6.8C780.8,1120.6,786.2,1122.5,791.4,1124.6L791.4,1124.6z"/>
	<path class="st2" d="M827.8,1108.3c-6.2,0-6.2,3.8-6.8,10.3l-0.3,3c-0.1,1.1-0.4,1.9-1.6,1.9c-1.2,0-1.7-0.8-1.7-1.9l0.4-14.4
		c0-1.1,0.6-2,1.7-2h30.3c1.2,0,1.7,0.9,1.7,2l0.4,14.4c0,1.1-0.6,1.9-1.7,1.9c-1.1,0-1.5-0.8-1.6-1.9l-0.3-3
		c-0.6-6.5-0.6-10.3-6.8-10.3h-3.7v40.4h7.6c1.2,0,1.8,0.7,1.8,1.6s-0.6,1.6-1.8,1.6h-21.5c-1.2,0-1.8-0.7-1.8-1.6s0.6-1.6,1.8-1.6
		h7.6v-40.4H827.8L827.8,1108.3z"/>
</g>
<g>
	<path class="st2" d="M492.6,1557.8l5,16.5l5.2-27.3h-1.3c-1,0-1.7-0.7-1.7-1.6s0.8-1.6,1.7-1.6h6.5c1,0,1.7,0.7,1.7,1.6
		s-0.8,1.6-1.7,1.6h-1.9l-8.3,43.2c-0.1,0.4-0.6,0.8-1.1,0.8c-0.7,0-1.1-0.4-1.2-0.8l-5.3-18.8l-4.7,18.8c-0.1,0.4-0.4,0.8-1.2,0.8
		c-0.5,0-1-0.4-1.1-0.8l-9.5-43.2h-1.9c-1,0-1.7-0.7-1.7-1.6s0.8-1.6,1.7-1.6h9.6c1,0,1.7,0.7,1.7,1.6s-0.8,1.6-1.7,1.6h-1.3l6,27.3
		l4.1-16.5c0.1-0.4,0.6-0.8,1.1-0.8C492.1,1557,492.5,1557.4,492.6,1557.8L492.6,1557.8z"/>
	<path class="st2" d="M537.5,1545.8l13.2,41.6h3.2c1.2,0,1.9,0.6,1.9,1.6s-0.7,1.6-1.9,1.6h-14.4c-1.2,0-1.9-0.6-1.9-1.6
		s0.7-1.6,1.9-1.6h4.3l-2.9-9.9h-14.4l-2.8,9.9h3.7c1.2,0,1.9,0.6,1.9,1.6s-0.7,1.6-1.9,1.6h-11.7c-1.2,0-1.9-0.6-1.9-1.6
		s0.7-1.6,1.9-1.6h3.8l12.7-41.6c0.4-1.2,1.2-2,2.6-2C536.4,1543.8,537.1,1544.5,537.5,1545.8L537.5,1545.8z M540,1574.3l-6.2-20.8
		l-6.3,20.8H540z"/>
	<path class="st2" d="M563.3,1587.4h4.9V1547h-4.9c-1.2,0-1.9-0.6-1.9-1.6s0.7-1.6,1.9-1.6h16.2c1.2,0,1.9,0.6,1.9,1.6
		s-0.7,1.6-1.9,1.6h-4.9v40.4h13c6.2,0,7.1-5.7,7.4-8.3l0.3-3c0.1-1.1,0.6-1.9,1.7-1.9s1.7,0.8,1.6,1.9l-1,12.5
		c-0.1,1.1-0.6,2-2.4,2h-31.9c-1.2,0-1.9-0.6-1.9-1.6S562.1,1587.4,563.3,1587.4L563.3,1587.4z"/>
	<path class="st2" d="M606.3,1590.7c-1.1,0-1.8-0.6-1.8-1.6s0.7-1.6,1.8-1.6h4V1547h-3.9c-1.2,0-1.9-0.6-1.9-1.6s0.7-1.6,1.9-1.6
		h13.7c1.2,0,1.9,0.6,1.9,1.6s-0.7,1.6-1.9,1.6h-3.3v20l15.7-20h-4.8c-1.1,0-1.8-0.6-1.8-1.6s0.7-1.6,1.8-1.6h13.8
		c1.1,0,1.8,0.6,1.8,1.6s-0.7,1.6-1.8,1.6h-3.8l-13.4,17l14.9,23.4h3.6c1.2,0,1.9,0.6,1.9,1.6s-0.7,1.6-1.9,1.6h-14.4
		c-1.1,0-1.8-0.6-1.8-1.6s0.7-1.6,1.8-1.6h3.2l-11.6-18.1l-3.2,4.1v14h3.4c1.1,0,1.8,0.6,1.8,1.6s-0.7,1.6-1.8,1.6L606.3,1590.7
		L606.3,1590.7z"/>
	<path class="st2" d="M717.1,1545.8l13.2,41.6h3.2c1.2,0,1.9,0.6,1.9,1.6s-0.7,1.6-1.9,1.6h-14.4c-1.2,0-1.9-0.6-1.9-1.6
		s0.7-1.6,1.9-1.6h4.3l-2.9-9.9h-14.4l-2.8,9.9h3.7c1.2,0,1.9,0.6,1.9,1.6s-0.7,1.6-1.9,1.6h-11.7c-1.2,0-1.9-0.6-1.9-1.6
		s0.7-1.6,1.9-1.6h3.8l12.7-41.6c0.4-1.2,1.2-2,2.6-2C716,1543.8,716.7,1544.5,717.1,1545.8L717.1,1545.8z M719.6,1574.3l-6.2-20.8
		l-6.3,20.8H719.6z"/>
	<path class="st2" d="M761.9,1557.8l5,16.5l5.2-27.3h-1.3c-1,0-1.7-0.7-1.7-1.6s0.8-1.6,1.7-1.6h6.5c1,0,1.7,0.7,1.7,1.6
		s-0.8,1.6-1.7,1.6h-1.9l-8.3,43.2c-0.1,0.4-0.6,0.8-1.1,0.8c-0.7,0-1.1-0.4-1.2-0.8l-5.3-18.8l-4.7,18.8c-0.1,0.4-0.4,0.8-1.2,0.8
		c-0.5,0-1-0.4-1.1-0.8L743,1547h-1.9c-1,0-1.7-0.7-1.7-1.6s0.8-1.6,1.7-1.6h9.6c1,0,1.7,0.7,1.7,1.6s-0.8,1.6-1.7,1.6h-1.3l6,27.3
		l4.1-16.5c0.1-0.4,0.6-0.8,1.1-0.8C761.5,1557,761.8,1557.4,761.9,1557.8L761.9,1557.8z"/>
	<path class="st2" d="M806.9,1545.8l13.2,41.6h3.2c1.2,0,1.9,0.6,1.9,1.6s-0.7,1.6-1.9,1.6h-14.4c-1.2,0-1.9-0.6-1.9-1.6
		s0.7-1.6,1.9-1.6h4.3l-2.9-9.9h-14.4l-2.8,9.9h3.7c1.2,0,1.9,0.6,1.9,1.6s-0.7,1.6-1.9,1.6H785c-1.2,0-1.9-0.6-1.9-1.6
		s0.7-1.6,1.9-1.6h3.8l12.7-41.6c0.4-1.2,1.2-2,2.6-2C805.8,1543.8,806.5,1544.5,806.9,1545.8L806.9,1545.8z M809.4,1574.3
		l-6.2-20.8l-6.3,20.8H809.4z"/>
	<path class="st2" d="M831.2,1543.8h14.4c1,0,1.7,0.6,1.7,1.6s-0.7,1.6-1.7,1.6h-2.4l7.1,17.3l8.1-17.3h-4.5c-1,0-1.7-0.6-1.7-1.6
		s0.7-1.6,1.7-1.6h13.4c1.2,0,1.8,0.7,1.8,1.6c0,1-0.6,1.6-1.8,1.6h-4.4l-10.9,22.3v18.1h7.6c1,0,1.7,0.6,1.7,1.6s-0.7,1.6-1.7,1.6
		h-22.3c-1.1,0-1.7-0.6-1.7-1.6s0.6-1.6,1.7-1.6h7.6v-18.3l-9.7-22.1h-4c-1,0-1.7-0.6-1.7-1.6S830.3,1543.8,831.2,1543.8
		L831.2,1543.8z"/>
	<path class="st2" d="M895.6,1563.3c7.9,3.2,15.1,4.9,15.1,14.9c0,10.2-8,13-14.5,13c-6.8,0-12-3.5-14-7v4.6c0,1.2-0.7,1.8-1.6,1.8
		s-1.6-0.6-1.6-1.8v-15c0-1,0.5-1.9,1.6-1.9s1.5,0.8,1.6,1.9l0.4,3c1,6.5,7.6,11.3,13.4,11.3c4.4,0,9.9-2.2,9.9-8.3
		c0-5.7-7.4-8.3-13.6-10.6c-7.5-2.7-13.1-5.6-13.1-13.5c0-6.9,5.5-11.9,13.1-11.9c5.1,0,10.3,2.1,13.8,6.5l0.4-5
		c0.1-1.2,0.8-1.9,1.7-1.9c1,0,1.6,0.7,1.6,1.9v12.6c0,1.2-0.5,1.8-1.5,1.8c-1.1,0-1.3-1-1.7-1.9c-2.3-5.4-8.3-10.8-14.2-10.8
		c-5.1,0-7.5,2.4-7.5,6.8C885,1559.3,890.4,1561.2,895.6,1563.3L895.6,1563.3z"/>
	<path class="st2" d="M447.7,1634.8l5,16.5l5.2-27.3h-1.3c-1,0-1.7-0.7-1.7-1.6s0.8-1.6,1.7-1.6h6.5c1,0,1.7,0.7,1.7,1.6
		s-0.8,1.6-1.7,1.6h-1.9l-8.3,43.2c-0.1,0.4-0.6,0.8-1.1,0.8c-0.7,0-1.1-0.4-1.2-0.8l-5.3-18.8l-4.7,18.8c-0.1,0.4-0.4,0.8-1.2,0.8
		c-0.5,0-1-0.4-1.1-0.8l-9.5-43.2H427c-1,0-1.7-0.7-1.7-1.6s0.8-1.6,1.7-1.6h9.6c1,0,1.7,0.7,1.7,1.6s-0.8,1.6-1.7,1.6h-1.3l6,27.3
		l4.1-16.5c0.1-0.4,0.6-0.8,1.1-0.8C447.2,1634,447.6,1634.4,447.7,1634.8L447.7,1634.8z"/>
	<path class="st2" d="M506.7,1612.4c1.4,0.6,1,1.9,0.4,3.1l-27.8,59.2c-0.6,1.4-1.5,2.2-2.6,1.8c-1.4-0.6-1-1.9-0.4-3.1l27.8-59.2
		C504.7,1612.8,505.5,1611.9,506.7,1612.4z"/>
	<path class="st2" d="M528,1624c-6.2,0-6.2,3.8-6.8,10.3l-0.3,3c-0.1,1.1-0.4,1.9-1.6,1.9s-1.7-0.8-1.7-1.9l0.4-14.4
		c0-1.1,0.6-2,1.7-2H550c1.2,0,1.7,0.9,1.7,2l0.4,14.4c0,1.1-0.6,1.9-1.7,1.9s-1.5-0.8-1.6-1.9l-0.3-3c-0.6-6.5-0.6-10.3-6.8-10.3
		H538v40.4h7.6c1.2,0,1.8,0.7,1.8,1.6s-0.6,1.6-1.8,1.6h-21.5c-1.2,0-1.8-0.7-1.8-1.6s0.6-1.6,1.8-1.6h7.6V1624H528L528,1624z"/>
	<path class="st2" d="M582.4,1622.8l13.2,41.6h3.2c1.2,0,1.9,0.6,1.9,1.6s-0.7,1.6-1.9,1.6h-14.4c-1.2,0-1.9-0.6-1.9-1.6
		s0.7-1.6,1.9-1.6h4.3l-2.9-9.9h-14.4l-2.8,9.9h3.7c1.2,0,1.9,0.6,1.9,1.6s-0.7,1.6-1.9,1.6h-11.7c-1.2,0-1.9-0.6-1.9-1.6
		s0.7-1.6,1.9-1.6h3.8l12.7-41.6c0.4-1.2,1.2-2,2.6-2C581.3,1620.8,582,1621.5,582.4,1622.8L582.4,1622.8z M584.9,1651.2l-6.2-20.8
		l-6.3,20.8H584.9z"/>
	<path class="st2" d="M606.3,1667.6c-1.1,0-1.8-0.6-1.8-1.6s0.7-1.6,1.8-1.6h4V1624h-3.9c-1.2,0-1.9-0.6-1.9-1.6s0.7-1.6,1.9-1.6
		h13.7c1.2,0,1.9,0.6,1.9,1.6s-0.7,1.6-1.9,1.6h-3.3v20l15.7-20h-4.8c-1.1,0-1.8-0.6-1.8-1.6s0.7-1.6,1.8-1.6h13.8
		c1.1,0,1.8,0.6,1.8,1.6s-0.7,1.6-1.8,1.6h-3.8l-13.4,17l14.9,23.4h3.6c1.2,0,1.9,0.6,1.9,1.6s-0.7,1.6-1.9,1.6h-14.4
		c-1.1,0-1.8-0.6-1.8-1.6s0.7-1.6,1.8-1.6h3.2l-11.6-18.1l-3.2,4.1v14h3.4c1.1,0,1.8,0.6,1.8,1.6s-0.7,1.6-1.8,1.6H606.3z"/>
	<path class="st2" d="M676.7,1664.4c6.2-0.1,7.1-5.7,7.4-8.3l0.3-3.6c0.1-1.2,0.5-1.9,1.7-1.9s1.7,0.8,1.7,1.9l-1,13.1
		c-0.1,1.1-0.6,2-1.7,2h-32.5c-1.2,0-1.9-0.6-1.9-1.6s0.7-1.6,1.9-1.6h5.6v-39.8l-5.6-0.5c-1.2-0.1-1.9-0.8-1.9-1.7
		c0-1,0.8-1.6,1.9-1.6H685c1.2,0,1.7,0.9,1.7,2l1,13.1c0.1,1.2-0.5,1.9-1.7,1.9s-1.6-0.8-1.7-1.9l-0.3-3.6c-0.4-2.6-1.2-8.3-7.4-8.3
		h-12.2v17.7h5.3c3.4,0,4.2-1.2,4.7-3.7l0.3-1.9c0.2-1.1,0.5-1.9,1.6-1.9s1.6,0.8,1.6,1.9v15c0,1.1-0.5,1.9-1.6,1.9
		s-1.4-0.8-1.6-1.9l-0.3-1.9c-0.4-2.5-1.3-4.4-4.7-4.4h-5.3v19.5h12.3L676.7,1664.4L676.7,1664.4z"/>
	<path class="st2" d="M762,1622.8l13.2,41.6h3.2c1.2,0,1.9,0.6,1.9,1.6s-0.7,1.6-1.9,1.6H764c-1.2,0-1.9-0.6-1.9-1.6
		s0.7-1.6,1.9-1.6h4.3l-2.9-9.9H751l-2.8,9.9h3.7c1.2,0,1.9,0.6,1.9,1.6s-0.7,1.6-1.9,1.6h-11.7c-1.2,0-1.9-0.6-1.9-1.6
		s0.7-1.6,1.9-1.6h3.8l12.7-41.6c0.4-1.2,1.2-2,2.6-2C760.9,1620.8,761.6,1621.5,762,1622.8L762,1622.8z M764.5,1651.2l-6.2-20.8
		l-6.3,20.8H764.5z"/>
	<path class="st2" d="M806.8,1634.8l5,16.5l5.2-27.3h-1.3c-1,0-1.7-0.7-1.7-1.6s0.8-1.6,1.7-1.6h6.5c1,0,1.7,0.7,1.7,1.6
		s-0.8,1.6-1.7,1.6h-1.9l-8.3,43.2c-0.1,0.4-0.6,0.8-1.1,0.8c-0.7,0-1.1-0.4-1.2-0.8l-5.3-18.8l-4.7,18.8c-0.1,0.4-0.4,0.8-1.2,0.8
		c-0.5,0-1-0.4-1.1-0.8L788,1624h-1.9c-1,0-1.7-0.7-1.7-1.6s0.8-1.6,1.7-1.6h9.6c1,0,1.7,0.7,1.7,1.6s-0.8,1.6-1.7,1.6h-1.3l6,27.3
		l4.1-16.5c0.1-0.4,0.6-0.8,1.1-0.8C806.3,1634,806.7,1634.4,806.8,1634.8L806.8,1634.8z"/>
	<path class="st2" d="M851.7,1622.8l13.2,41.6h3.2c1.2,0,1.9,0.6,1.9,1.6s-0.7,1.6-1.9,1.6h-14.4c-1.2,0-1.9-0.6-1.9-1.6
		s0.7-1.6,1.9-1.6h4.3l-2.9-9.9h-14.4l-2.8,9.9h3.7c1.2,0,1.9,0.6,1.9,1.6s-0.7,1.6-1.9,1.6h-11.7c-1.2,0-1.9-0.6-1.9-1.6
		s0.7-1.6,1.9-1.6h3.8l12.7-41.6c0.4-1.2,1.2-2,2.6-2C850.7,1620.8,851.4,1621.5,851.7,1622.8L851.7,1622.8z M854.2,1651.2
		l-6.2-20.8l-6.3,20.8H854.2z"/>
	<path class="st2" d="M876.1,1620.8h14.4c1,0,1.7,0.6,1.7,1.6s-0.7,1.6-1.7,1.6h-2.4l7.1,17.3l8.1-17.3h-4.5c-1,0-1.7-0.6-1.7-1.6
		s0.7-1.6,1.7-1.6h13.4c1.2,0,1.8,0.7,1.8,1.6c0,1-0.6,1.6-1.8,1.6h-4.4l-10.9,22.3v18.1h7.6c1,0,1.7,0.6,1.7,1.6s-0.7,1.6-1.7,1.6
		h-22.3c-1.1,0-1.7-0.6-1.7-1.6s0.6-1.6,1.7-1.6h7.6v-18.3l-9.7-22.1h-4c-1,0-1.7-0.6-1.7-1.6S875.1,1620.8,876.1,1620.8
		L876.1,1620.8z"/>
	<path class="st2" d="M940.5,1640.3c7.9,3.2,15.1,4.9,15.1,14.9c0,10.2-8,13-14.5,13c-6.8,0-12-3.5-14-7v4.6c0,1.2-0.7,1.8-1.6,1.8
		c-0.9,0-1.6-0.6-1.6-1.8v-15c0-1,0.5-1.9,1.6-1.9s1.5,0.8,1.6,1.9l0.4,3c1,6.5,7.6,11.3,13.4,11.3c4.4,0,9.9-2.2,9.9-8.3
		c0-5.7-7.4-8.3-13.6-10.6c-7.5-2.7-13.1-5.6-13.1-13.5c0-6.9,5.5-11.9,13.1-11.9c5.1,0,10.3,2.1,13.8,6.5l0.4-5
		c0.1-1.2,0.8-1.9,1.7-1.9c1,0,1.6,0.7,1.6,1.9v12.6c0,1.2-0.5,1.8-1.5,1.8c-1.1,0-1.3-1-1.7-1.9c-2.3-5.4-8.3-10.8-14.2-10.8
		c-5.1,0-7.5,2.4-7.5,6.8C929.8,1636.2,935.3,1638.2,940.5,1640.3L940.5,1640.3z"/>
</g>
<image style="overflow:visible;" width="1699" height="2314" xlink:href="collapse.PNG"  transform="matrix(1.3778 0 0 1.3778 -267.8027 -567.0455)">
</image>
</svg>
