<?xml version="1.0" encoding="utf-8"?>
<!-- Generator: Adobe Illustrator 26.5.0, SVG Export Plug-In . SVG Version: 6.00 Build 0)  -->
<svg version="1.1" xmlns="http://www.w3.org/2000/svg" xmlns:xlink="http://www.w3.org/1999/xlink" x="0px" y="0px"
	 width="2168.8px" height="2218.2px" viewBox="0 0 2168.8 2218.2" style="enable-background:new 0 0 2168.8 2218.2;"
	 xml:space="preserve">
<style type="text/css">
	.st0{fill:none;stroke:#FFFFFF;stroke-width:2;stroke-miterlimit:9.9999;}
	.st1{fill:#FFFFFF;}
</style>
<g id="black">
</g>
<g id="a">
	<path class="st0" d="M598.6,431.3c6.2-35.3,30.9-50.6,64.1-55.2c55-8,91.6-35.5,108.6-91.2c13.5-44,33-86.3,51.1-128.7
		c4.4-10.3,13.5-19,22-26.6c33-29.8,69.9-23.1,87.7,16.9c11.7,26.6,17.9,55.7,28.9,82.4c8.7,21.3,17.9,43.5,32.3,60.9
		c28.2,34.6,52.9,39.2,94.8,23.8c10.8-4.1,21.3-9.4,31.8-14c9.6-4.4,22.4-8.7,38.2-1.1c64.1,30.5,99.6,8.5,129.9-43.3
		c13.7-23.6,27.3-47.2,43.5-68.9c21.3-28.4,50.6-36,84.1-24c30.2,10.8,43.1,34.6,48.6,65c7.1,39.4,16,78.6,25.7,117.5
		c7.3,30,31.1,47.9,55,63.9c15.1,10.1,32.3,17.6,49.5,24.5c55.4,22,77.2,62.1,62.3,119.1c-2.3,8.7-9.8,16-15.1,23.8
		c-11.2,16-8.2,27.7,7.8,38.9c10.5,7.3,19.2,17.4,28.9,25.9c12.1,10.8,25.2,15.1,42.6,15.8c30.5,1.6,61.6,5.7,90.9,14.4
		c55.9,16.7,62.8,46.9,22.7,90.2c-17.6,19-36.6,36.9-54.7,55.4c-5.3,5.3-11,10.8-14.9,16.9c-21.1,34.4-30.5,60.7,16.5,86.6
		c11.5,6.2,22.2,14,34.1,19c31.8,13.5,44.2,37.1,40.3,70.5c-0.5,3.4-0.2,7.1-1.4,10.1c-33.4,83.4-11.9,166,0.9,249.4
		c14.2,90.7,13.5,182.1,1.4,273c-8.5,64.6-23.1,128.5-28.6,193.3c-2.5,28.6,6.4,60.2,17.4,87.3c16,39.2,40.3,74.7,57.7,113.4
		c10.3,22.7,18.1,47.6,20.4,72.4c3,35-28.9,54.7-61.6,40.5c-25.2-11-50.2-22.4-74-36.2c-58.6-34.1-118.9-35.5-182.5-17.2
		c-37.8,10.8-76.5,19.7-115.4,24.7c-57.3,7.3-109.9-14-161.7-35.5c-37.1-15.6-73.7-31.6-111.3-46c-24.3-9.4-47.2-6-69.9,8.9
		c-8.2,5.5-23.6,6.4-33.2,2.7c-37.1-14.7-74-16.9-111.3-3.2c-54.7,20.2-109,41.9-164.2,61.4c-76.7,27-155.3,41-236.8,28.6
		c-16-2.5-31.6-7.8-46.9-12.6c-37.8-11.5-74.7-8.2-113.1,0.5c-55.7,12.8-107,33.7-154.4,64.8c-16.9,11.2-36,15.1-56.3,13.7
		c-22.9-1.6-38.2-12.4-41-34.6c-3.4-30.2,1.6-58.6,17.6-85.7c39.6-66.2,82.9-130.1,109-203.6c14.7-41.5,14.7-84.1,12.1-126.9
		c-2.1-33-9.2-65.7-11-98.7c-3-49.7-3.2-99.9-4.6-149.6c-2.1-79.9,12.1-157.8,30-235c13.3-57.5,16.9-115.4,15.1-174.1
		c-0.2-8.7-4.8-17.2-8-25.7c-2.5-7.1-6-14.2-9.6-20.8c-35.5-64.8-1.4-83.1,52-91.8c21.3-3.7,44.7-8.9,62.1-20.8
		c34.4-23.1,27.5-85.2-10.1-115.9c-19-15.3-38.7-29.8-56.8-46.3c-8-7.3-15.3-15.8-21.3-25c-23.8-37.1-14.9-64.4,16.5-79.7
		c28.4-14,57.9-19.7,90-13.5c15.3,3,29.8,2.3,43.1-0.9C567.6,543,602,494.2,599,441.5C598.1,437.7,597.9,434.1,598.6,431.3
		L598.6,431.3L598.6,431.3z"/>
	<g>
		<path class="st1" d="M859.2,804.5c0-1.3,1-2.2,2.5-2.2h6.2v-54l-6.2-0.7c-1.6-0.2-2.5-1.1-2.5-2.3c0-1.3,1-2.2,2.5-2.2h26.5
			c10.4,0,19.1,5.5,19.1,15.2c0,9.2-6.1,12.6-8.5,13.6l-2.4,1l2.4,0.6c2.5,0.6,11.5,4.4,11.5,15.3c0,10.4-8.8,17.8-18.6,17.8h-30
			C860.2,806.7,859.2,805.8,859.2,804.5L859.2,804.5z M889.1,771c3.3,0,9.7-4.2,9.7-12.6c0-8.2-6.2-10.9-9.7-10.9h-12.4V771H889.1z
			 M889.1,802.3c9.1,0,12.6-6.6,12.6-13.5c0-8.8-5.6-13.5-12.6-13.5h-12.4v27H889.1z"/>
		<path class="st1" d="M921,774.9c0-20,11.7-32.2,24.5-32.2c12.9,0,24.4,12,24.4,32.2s-11.5,32.2-24.4,32.2
			C932.5,807.1,921,795.1,921,774.9z M960.3,774.9c0-15-5-27.9-14.8-27.9s-14.9,12.9-14.9,27.9c0,15.1,5,27.9,14.9,27.9
			C955.2,802.8,960.3,790,960.3,774.9z"/>
		<path class="st1" d="M982.1,743.2h19.6c1.3,0,2.3,0.9,2.3,2.2s-1,2.2-2.3,2.2h-3.3l9.7,23.5l11-23.5h-6.1c-1.3,0-2.3-0.9-2.3-2.2
			s1-2.2,2.3-2.2h18.2c1.6,0,2.4,1,2.4,2.2c0,1.3-0.9,2.2-2.4,2.2h-6l-14.8,30.2v24.6h10.4c1.4,0,2.4,0.9,2.4,2.2s-1,2.2-2.4,2.2
			h-30.3c-1.5,0-2.4-0.9-2.4-2.2s0.9-2.2,2.4-2.2h10.4v-24.8l-13.2-30h-5.4c-1.3,0-2.3-0.9-2.3-2.2S980.8,743.2,982.1,743.2
			L982.1,743.2z"/>
		<path class="st1" d="M1131.7,762.1l6.8,22.4l7-37h-1.7c-1.3,0-2.4-1-2.4-2.2s1-2.2,2.4-2.2h8.9c1.3,0,2.4,1,2.4,2.2
			s-1,2.2-2.4,2.2h-2.6l-11.3,58.7c-0.1,0.5-0.8,1-1.5,1c-1,0-1.5-0.5-1.6-1l-7.1-25.5l-6.4,25.5c-0.1,0.5-0.6,1-1.6,1
			c-0.7,0-1.4-0.5-1.5-1l-12.9-58.7h-2.6c-1.3,0-2.4-1-2.4-2.2s1-2.2,2.4-2.2h13.1c1.3,0,2.3,1,2.3,2.2s-1,2.2-2.3,2.2h-1.7l8.2,37
			l5.6-22.4c0.2-0.5,0.8-1,1.5-1C1131.1,761.1,1131.6,761.6,1131.7,762.1L1131.7,762.1z"/>
		<path class="st1" d="M1198.9,802.3c8.4-0.2,9.6-7.7,10.1-11.3l0.3-4.9c0.1-1.6,0.7-2.6,2.3-2.6s2.4,1,2.3,2.6l-1.4,17.8
			c-0.1,1.5-0.8,2.7-2.4,2.7H1166c-1.6,0-2.5-0.9-2.5-2.2s1-2.2,2.5-2.2h7.7v-54l-7.7-0.7c-1.7-0.2-2.5-1.1-2.5-2.3
			c0-1.3,1-2.2,2.5-2.2h44.1c1.6,0,2.3,1.2,2.4,2.7l1.4,17.8c0.1,1.6-0.7,2.6-2.3,2.6s-2.2-1-2.3-2.6l-0.3-4.9
			c-0.5-3.6-1.7-11.3-10.1-11.3h-16.5v24h7.2c4.6,0,5.7-1.7,6.4-5l0.4-2.5c0.3-1.5,0.7-2.5,2.2-2.5s2.2,1,2.2,2.5v20.4
			c0,1.5-0.7,2.5-2.2,2.5s-1.9-1-2.2-2.5l-0.4-2.5c-0.6-3.4-1.7-5.9-6.4-5.9h-7.2v26.5L1198.9,802.3L1198.9,802.3z"/>
		<path class="st1" d="M1252.3,769.6c10.7,4.4,20.5,6.6,20.5,20.3c0,13.8-10.9,17.7-19.7,17.7c-9.2,0-16.3-4.8-19-9.5v6.2
			c0,1.6-1,2.4-2.2,2.4s-2.2-0.9-2.2-2.4v-20.4c0-1.4,0.7-2.5,2.2-2.5s2,1.1,2.2,2.5l0.6,4c1.3,8.9,10.3,15.3,18.2,15.3
			c5.9,0,13.5-3,13.5-11.2c0-7.7-10-11.3-18.5-14.4c-10.2-3.7-17.8-7.6-17.8-18.4c0-9.3,7.5-16.1,17.8-16.1c7,0,13.9,2.9,18.7,8.8
			l0.5-6.8c0.1-1.7,1.1-2.5,2.3-2.5c1.3,0,2.2,1,2.2,2.5v17.1c0,1.6-0.7,2.4-2.1,2.4c-1.5,0-1.7-1.3-2.3-2.5
			c-3.1-7.3-11.3-14.7-19.3-14.7c-7,0-10.2,3.2-10.2,9.2C1237.8,764.1,1245.2,766.7,1252.3,769.6L1252.3,769.6z"/>
		<path class="st1" d="M1301.7,747.5c-8.4,0-8.4,5.1-9.2,13.9l-0.3,4c-0.1,1.5-0.6,2.6-2.2,2.6s-2.4-1.1-2.4-2.6l0.5-19.6
			c0-1.5,0.8-2.7,2.4-2.7h41.1c1.6,0,2.4,1.2,2.4,2.7l0.5,19.6c0,1.5-0.8,2.6-2.4,2.6s-2.1-1.1-2.2-2.6l-0.3-4
			c-0.8-8.8-0.8-13.9-9.2-13.9h-5v54.8h10.3c1.6,0,2.4,1,2.4,2.2s-0.9,2.2-2.4,2.2h-29.2c-1.6,0-2.4-1-2.4-2.2s0.9-2.2,2.4-2.2h10.3
			v-54.8H1301.7L1301.7,747.5z"/>
	</g>
	<path class="st1" d="M601.5,949.6l0.3-3.3c0.1-1.2,0.8-1.9,1.7-1.9c1,0,1.6,0.8,1.6,1.9v14.3c0,1.2-0.8,1.9-1.9,1.9
		c-1.3,0-1.6-0.8-1.9-1.9c-2.4-7.5-4.4-13-11.4-13c-7.1,0-10.5,9.2-10.5,20.2c0,11.1,3.4,20.2,11.1,20.2c4.4,0,7.7-3.9,10.1-9.7
		l1.3-3.1c0.4-1,1-2.2,2.3-1.9c1.1,0.2,2,1,1.4,3c-2.2,8-6.5,14.9-15.1,14.9c-9.6,0-18.1-7.2-18.1-23.4s8.6-23.4,18.1-23.4
		C595.5,944.4,599,947,601.5,949.6z"/>
	<path class="st1" d="M616.2,967.8c0-14.8,8.6-23.7,18-23.7c9.5,0,18,8.9,18,23.7c0,14.9-8.5,23.7-18,23.7
		C624.7,991.6,616.2,982.7,616.2,967.8z M645.2,967.8c0-11-3.7-20.5-10.9-20.5s-11,9.5-11,20.5c0,11.1,3.7,20.5,11,20.5
		C641.5,988.4,645.2,978.9,645.2,967.8z"/>
	<path class="st1" d="M681.7,958.4l5,16.5l5.2-27.3h-1.3c-1,0-1.7-0.7-1.7-1.6c0-0.9,0.8-1.6,1.7-1.6h6.5c1,0,1.7,0.7,1.7,1.6
		c0,0.9-0.8,1.6-1.7,1.6h-1.9l-8.3,43.2c-0.1,0.4-0.6,0.8-1.1,0.8c-0.7,0-1.1-0.4-1.2-0.8l-5.3-18.8l-4.7,18.8
		c-0.1,0.4-0.4,0.8-1.2,0.8c-0.5,0-1-0.4-1.1-0.8l-9.5-43.2h-1.9c-1,0-1.7-0.7-1.7-1.6c0-0.9,0.8-1.6,1.7-1.6h9.6
		c1,0,1.7,0.7,1.7,1.6c0,0.9-0.8,1.6-1.7,1.6h-1.3l6,27.3l4.1-16.5c0.1-0.4,0.6-0.8,1.1-0.8C681.3,957.6,681.7,958,681.7,958.4
		L681.7,958.4z"/>
	<path class="st1" d="M705.4,989.6c0-1,0.7-1.6,1.9-1.6h4.6v-39.8l-4.6-0.5c-1.2-0.1-1.9-0.8-1.9-1.7c0-1,0.8-1.6,1.9-1.6h19.6
		c7.7,0,14.1,4,14.1,11.2c0,6.8-4.5,9.3-6.3,10l-1.8,0.7l1.8,0.4c1.9,0.4,8.5,3.3,8.5,11.3c0,7.6-6.5,13.1-13.7,13.1h-22.1
		C706.1,991.2,705.4,990.6,705.4,989.6L705.4,989.6z M727.4,965c2.4,0,7.1-3.1,7.1-9.3c0-6-4.6-8-7.1-8h-9.2V965H727.4z M727.4,988
		c6.7,0,9.3-4.9,9.3-9.9c0-6.5-4.1-9.9-9.3-9.9h-9.2v19.9L727.4,988L727.4,988z"/>
	<path class="st1" d="M750.9,967.8c0-14.8,8.6-23.7,18-23.7c9.5,0,18,8.9,18,23.7c0,14.9-8.5,23.7-18,23.7
		C759.4,991.6,750.9,982.7,750.9,967.8z M779.8,967.8c0-11-3.7-20.5-10.9-20.5s-11,9.5-11,20.5c0,11.1,3.7,20.5,11,20.5
		C776.1,988.4,779.8,978.9,779.8,967.8z"/>
	<path class="st1" d="M795.9,944.4h14.4c1,0,1.7,0.6,1.7,1.6s-0.7,1.6-1.7,1.6h-2.4l7.1,17.3l8.1-17.3h-4.5c-1,0-1.7-0.6-1.7-1.6
		s0.7-1.6,1.7-1.6H832c1.2,0,1.8,0.7,1.8,1.6c0,1-0.6,1.6-1.8,1.6h-4.4l-10.9,22.3V988h7.6c1,0,1.7,0.6,1.7,1.6s-0.7,1.6-1.7,1.6
		H802c-1.1,0-1.7-0.6-1.7-1.6s0.6-1.6,1.7-1.6h7.6v-18.2l-9.7-22.1h-4c-1,0-1.7-0.6-1.7-1.6C794.3,945.1,795,944.4,795.9,944.4
		L795.9,944.4z"/>
	<path class="st1" d="M1331.9,1080.2l5,16.5l5.2-27.3h-1.3c-1,0-1.7-0.7-1.7-1.6c0-0.9,0.8-1.6,1.7-1.6h6.5c1,0,1.7,0.7,1.7,1.6
		c0,0.9-0.8,1.6-1.7,1.6h-1.9l-8.3,43.2c-0.1,0.4-0.6,0.8-1.1,0.8c-0.7,0-1.1-0.4-1.2-0.8l-5.3-18.8l-4.7,18.8
		c-0.1,0.4-0.4,0.8-1.2,0.8c-0.5,0-1-0.4-1.1-0.8l-9.5-43.2h-1.9c-1,0-1.7-0.7-1.7-1.6c0-0.9,0.8-1.6,1.7-1.6h9.6
		c1,0,1.7,0.7,1.7,1.6c0,0.9-0.8,1.6-1.7,1.6h-1.3l6,27.3l4.1-16.5c0.1-0.4,0.6-0.8,1.1-0.8
		C1331.4,1079.4,1331.8,1079.8,1331.9,1080.2L1331.9,1080.2z"/>
	<path class="st1" d="M1386.4,1109.8c1.2,0,1.9,0.6,1.9,1.6s-0.7,1.6-1.9,1.6H1362c-1.2,0-1.9-0.6-1.9-1.6s0.7-1.6,1.9-1.6h9v-40.4
		h-9.1c-1.2,0-1.9-0.6-1.9-1.6s0.7-1.6,1.9-1.6h24.4c1.2,0,1.9,0.6,1.9,1.6s-0.7,1.6-1.9,1.6h-8.9v40.4H1386.4z"/>
	<path class="st1" d="M1402.6,1109.8h4.9v-40.4h-4.9c-1.2,0-1.9-0.6-1.9-1.6s0.7-1.6,1.9-1.6h16.2c1.2,0,1.9,0.6,1.9,1.6
		s-0.7,1.6-1.9,1.6h-4.9v40.4h13c6.2,0,7.1-5.7,7.4-8.3l0.3-3c0.1-1.1,0.6-1.9,1.7-1.9s1.7,0.8,1.6,1.9l-1,12.5
		c-0.1,1.1-0.6,2-2.4,2h-31.9c-1.2,0-1.9-0.6-1.9-1.6S1401.4,1109.8,1402.6,1109.8L1402.6,1109.8z"/>
	<path class="st1" d="M1445.7,1066.2h20.4c7.1,0,17.5,6.5,17.5,23.6c0,18.7-10.6,23.2-17.4,23.2h-20.5c-1.2,0-1.9-0.6-1.9-1.6
		s0.7-1.6,1.9-1.6h5.8v-40.4h-5.8c-1.2,0-1.9-0.6-1.9-1.6C1443.9,1066.8,1444.6,1066.2,1445.7,1066.2L1445.7,1066.2z M1457.9,1109.8
		h8.3c6.5,0,11-8.7,11-20c0-11-4.2-20.4-11.1-20.4h-8.1L1457.9,1109.8L1457.9,1109.8z"/>
	<path class="st1" d="M1511.4,1080.2l5,16.5l5.2-27.3h-1.3c-1,0-1.7-0.7-1.7-1.6c0-0.9,0.8-1.6,1.7-1.6h6.5c1,0,1.7,0.7,1.7,1.6
		c0,0.9-0.8,1.6-1.7,1.6h-1.9l-8.3,43.2c-0.1,0.4-0.6,0.8-1.1,0.8c-0.7,0-1.1-0.4-1.2-0.8l-5.3-18.8l-4.7,18.8
		c-0.1,0.4-0.4,0.8-1.2,0.8c-0.5,0-1-0.4-1.1-0.8l-9.5-43.2h-1.9c-1,0-1.7-0.7-1.7-1.6c0-0.9,0.8-1.6,1.7-1.6h9.6
		c1,0,1.7,0.7,1.7,1.6c0,0.9-0.8,1.6-1.7,1.6h-1.3l6,27.3l4.1-16.5c0.1-0.4,0.6-0.8,1.1-0.8
		C1511,1079.4,1511.3,1079.8,1511.4,1080.2L1511.4,1080.2z"/>
	<path class="st1" d="M1560.9,1109.8c6.2-0.1,7.1-5.7,7.4-8.3l0.3-3.6c0.1-1.2,0.5-1.9,1.7-1.9s1.7,0.8,1.7,1.9l-1,13.1
		c-0.1,1.1-0.6,2-1.7,2h-32.5c-1.2,0-1.9-0.6-1.9-1.6s0.7-1.6,1.9-1.6h5.6V1070l-5.6-0.5c-1.2-0.1-1.9-0.8-1.9-1.7
		c0-1,0.8-1.6,1.9-1.6h32.5c1.2,0,1.7,0.9,1.7,2l1,13.1c0.1,1.2-0.5,1.9-1.7,1.9s-1.6-0.8-1.7-1.9l-0.3-3.6
		c-0.4-2.6-1.2-8.3-7.4-8.3h-12.2v17.7h5.3c3.4,0,4.2-1.2,4.7-3.7l0.3-1.9c0.2-1.1,0.5-1.9,1.6-1.9s1.6,0.8,1.6,1.9v15
		c0,1.1-0.5,1.9-1.6,1.9s-1.4-0.8-1.6-1.9l-0.3-1.9c-0.4-2.5-1.3-4.4-4.7-4.4h-5.3v19.5L1560.9,1109.8L1560.9,1109.8z"/>
	<path class="st1" d="M1600.2,1085.7c7.9,3.2,15.1,4.9,15.1,14.9c0,10.2-8,13-14.5,13c-6.8,0-12-3.5-14-7v4.6c0,1.2-0.7,1.8-1.6,1.8
		s-1.6-0.6-1.6-1.8v-15c0-1,0.5-1.9,1.6-1.9s1.5,0.8,1.6,1.9l0.4,3c1,6.5,7.6,11.3,13.4,11.3c4.4,0,9.9-2.2,9.9-8.3
		c0-5.7-7.4-8.3-13.6-10.6c-7.5-2.7-13.1-5.6-13.1-13.5c0-6.9,5.5-11.9,13.1-11.9c5.1,0,10.3,2.1,13.8,6.5l0.4-5
		c0.1-1.2,0.8-1.9,1.7-1.9c1,0,1.6,0.7,1.6,1.9v12.6c0,1.2-0.5,1.8-1.5,1.8c-1.1,0-1.3-1-1.7-1.9c-2.3-5.4-8.3-10.8-14.2-10.8
		c-5.1,0-7.5,2.4-7.5,6.8C1589.6,1081.6,1595,1083.6,1600.2,1085.7L1600.2,1085.7z"/>
	<path class="st1" d="M1636.6,1069.4c-6.2,0-6.2,3.8-6.8,10.3l-0.3,3c-0.1,1.1-0.4,1.9-1.6,1.9s-1.7-0.8-1.7-1.9l0.4-14.4
		c0-1.1,0.6-2,1.7-2h30.3c1.2,0,1.7,0.9,1.7,2l0.4,14.4c0,1.1-0.6,1.9-1.7,1.9s-1.5-0.8-1.6-1.9l-0.3-3c-0.6-6.5-0.6-10.3-6.8-10.3
		h-3.7v40.4h7.6c1.2,0,1.8,0.7,1.8,1.6s-0.6,1.6-1.8,1.6h-21.5c-1.2,0-1.8-0.7-1.8-1.6s0.6-1.6,1.8-1.6h7.6v-40.4H1636.6z"/>
	<g>
		<path class="st1" d="M1131.9,1416.5c4.4,0,8.5,2.6,11,5.2l0.3-3.3c0.1-1.2,0.8-1.9,1.7-1.9c1,0,1.6,0.8,1.6,1.9v14.3
			c0,1.2-0.8,1.9-1.9,1.9c-1.3,0-1.6-0.8-1.9-1.9c-2.4-7.5-5.1-13-11.4-13c-7.2,0-10.5,9.2-10.5,20.2c0,11.1,3.2,20.2,10.5,20.2
			c6.1,0,10.9-6.7,11-15.9h-4.6c-1.2,0-1.9-0.5-1.9-1.6s0.7-1.6,1.9-1.6h13.1c1.2,0,1.9,0.8,1.9,1.6c0,1-0.7,1.6-1.9,1.6h-4
			l0.1,17.2c0,1.1-0.6,2-1.7,2c-1.1,0-1.7-0.9-1.7-2l0.1-4.9c-2.3,3.9-6.7,6.8-12.2,6.8c-9.6,0-17.5-7.2-17.5-23.4
			C1113.8,1423.8,1121.7,1416.5,1131.9,1416.5L1131.9,1416.5z"/>
		<path class="st1" d="M1158.8,1440c0-14.8,8.6-23.7,18-23.7c9.5,0,18,8.9,18,23.7s-8.5,23.7-18,23.7
			C1167.2,1463.7,1158.8,1454.8,1158.8,1440z M1187.7,1440c0-11-3.7-20.5-10.9-20.5s-11,9.5-11,20.5c0,11.1,3.7,20.5,11,20.5
			C1184,1460.5,1187.7,1451,1187.7,1440z"/>
		<path class="st1" d="M1268.9,1464l3.1,4.4c1.3,1.5,1.2,2.4,0.5,3.1c-1,1-2.2,0.4-4.7-2c-6.5-6.3-13.5-15.4-13.5-29.6
			c0-14.3,6.8-23,13.5-29.6c1.9-1.9,3.5-3.2,4.7-2c0.6,0.6,0.7,1.7-0.5,3.1l-3.1,4.4c-4.4,6.2-8.1,13.8-8.1,24
			C1260.7,1450.2,1264.6,1457.9,1268.9,1464z"/>
		<path class="st1" d="M1304.6,1419.8c-6.2,0-6.2,3.8-6.8,10.3l-0.3,3c-0.1,1.1-0.4,1.9-1.6,1.9s-1.7-0.8-1.7-1.9l0.4-14.4
			c0-1.1,0.6-2,1.7-2h30.3c1.2,0,1.7,0.9,1.7,2l0.4,14.4c0,1.1-0.6,1.9-1.7,1.9s-1.5-0.8-1.6-1.9l-0.3-3c-0.6-6.5-0.6-10.3-6.8-10.3
			h-3.7v40.4h7.6c1.2,0,1.8,0.7,1.8,1.6s-0.6,1.6-1.8,1.6h-21.5c-1.2,0-1.8-0.7-1.8-1.6s0.6-1.6,1.8-1.6h7.6v-40.4H1304.6z"/>
		<path class="st1" d="M1359,1418.5l13.2,41.6h3.2c1.2,0,1.9,0.6,1.9,1.6s-0.7,1.6-1.9,1.6H1361c-1.2,0-1.9-0.6-1.9-1.6
			s0.7-1.6,1.9-1.6h4.3l-2.9-9.9H1348l-2.8,9.9h3.7c1.2,0,1.9,0.6,1.9,1.6s-0.7,1.6-1.9,1.6h-11.7c-1.2,0-1.9-0.6-1.9-1.6
			s0.7-1.6,1.9-1.6h3.8l12.7-41.6c0.4-1.2,1.2-2,2.6-2C1357.9,1416.5,1358.6,1417.3,1359,1418.5L1359,1418.5z M1361.5,1447
			l-6.2-20.8l-6.3,20.8H1361.5z"/>
		<path class="st1" d="M1382.9,1463.4c-1.1,0-1.8-0.6-1.8-1.6s0.7-1.6,1.8-1.6h4v-40.4h-3.9c-1.2,0-1.9-0.6-1.9-1.6s0.7-1.6,1.9-1.6
			h13.7c1.2,0,1.9,0.6,1.9,1.6s-0.7,1.6-1.9,1.6h-3.3v20l15.7-20h-4.8c-1.1,0-1.8-0.6-1.8-1.6s0.7-1.6,1.8-1.6h13.8
			c1.1,0,1.8,0.6,1.8,1.6s-0.7,1.6-1.8,1.6h-3.8l-13.4,17l14.9,23.4h3.6c1.2,0,1.9,0.6,1.9,1.6s-0.7,1.6-1.9,1.6H1405
			c-1.1,0-1.8-0.6-1.8-1.6s0.7-1.6,1.8-1.6h3.2l-11.6-18.1l-3.2,4.1v14h3.4c1.1,0,1.8,0.6,1.8,1.6s-0.7,1.6-1.8,1.6H1382.9
			L1382.9,1463.4z"/>
		<path class="st1" d="M1453.3,1460.2c6.2-0.1,7.1-5.7,7.4-8.3l0.3-3.6c0.1-1.2,0.5-1.9,1.7-1.9s1.7,0.8,1.7,1.9l-1,13.1
			c-0.1,1.1-0.6,2-1.7,2h-32.5c-1.2,0-1.9-0.6-1.9-1.6s0.7-1.6,1.9-1.6h5.6v-39.8l-5.6-0.5c-1.2-0.1-1.9-0.8-1.9-1.7
			c0-1,0.8-1.6,1.9-1.6h32.5c1.2,0,1.7,0.9,1.7,2l1,13.1c0.1,1.2-0.5,1.9-1.7,1.9s-1.6-0.8-1.7-1.9l-0.3-3.6
			c-0.4-2.6-1.2-8.3-7.4-8.3h-12.2v17.7h5.3c3.4,0,4.2-1.2,4.7-3.7l0.3-1.9c0.2-1.1,0.5-1.9,1.6-1.9s1.6,0.8,1.6,1.9v15
			c0,1.1-0.5,1.9-1.6,1.9s-1.4-0.8-1.6-1.9l-0.3-1.9c-0.4-2.5-1.3-4.4-4.7-4.4h-5.3v19.5h12.2V1460.2L1453.3,1460.2z"/>
		<path class="st1" d="M1538.5,1418.5l13.2,41.6h3.2c1.2,0,1.9,0.6,1.9,1.6s-0.7,1.6-1.9,1.6h-14.4c-1.2,0-1.9-0.6-1.9-1.6
			s0.7-1.6,1.9-1.6h4.3l-2.9-9.9h-14.4l-2.8,9.9h3.7c1.2,0,1.9,0.6,1.9,1.6s-0.7,1.6-1.9,1.6h-11.7c-1.2,0-1.9-0.6-1.9-1.6
			s0.7-1.6,1.9-1.6h3.8l12.7-41.6c0.4-1.2,1.2-2,2.6-2C1537.4,1416.5,1538.1,1417.3,1538.5,1418.5L1538.5,1418.5z M1541,1447
			l-6.2-20.8l-6.3,20.8H1541z"/>
		<path class="st1" d="M1578.3,1415.9l-3.1-4.4c-1.2-1.4-1.2-2.4-0.5-3.1c1.2-1.2,2.8,0.1,4.7,2c6.7,6.5,13.5,15.3,13.5,29.6
			c0,14.2-7,23.2-13.5,29.6c-2.6,2.4-3.7,3-4.7,2c-0.6-0.6-0.8-1.6,0.5-3.1l3.1-4.4c4.3-6.1,8.2-13.8,8.1-24
			C1586.4,1429.7,1582.7,1422.1,1578.3,1415.9z"/>
		<path class="st1" d="M1291.6,1507.5l5,16.5l5.2-27.3h-1.3c-1,0-1.7-0.7-1.7-1.6s0.8-1.6,1.7-1.6h6.5c1,0,1.7,0.7,1.7,1.6
			s-0.8,1.6-1.7,1.6h-1.9l-8.3,43.2c-0.1,0.4-0.6,0.8-1.1,0.8c-0.7,0-1.1-0.4-1.2-0.8l-5.3-18.8l-4.7,18.8c-0.1,0.4-0.4,0.8-1.2,0.8
			c-0.5,0-1-0.4-1.1-0.8l-9.5-43.2h-1.9c-1,0-1.7-0.7-1.7-1.6s0.8-1.6,1.7-1.6h9.6c1,0,1.7,0.7,1.7,1.6s-0.8,1.6-1.7,1.6h-1.3
			l6,27.3l4.1-16.5c0.1-0.4,0.6-0.8,1.1-0.8C1291.1,1506.7,1291.5,1507.1,1291.6,1507.5L1291.6,1507.5z"/>
		<path class="st1" d="M1336.5,1495.5l13.2,41.6h3.2c1.2,0,1.9,0.6,1.9,1.6s-0.7,1.6-1.9,1.6h-14.4c-1.2,0-1.9-0.6-1.9-1.6
			s0.7-1.6,1.9-1.6h4.3l-2.9-9.9h-14.4l-2.8,9.9h3.7c1.2,0,1.9,0.6,1.9,1.6s-0.7,1.6-1.9,1.6h-11.7c-1.2,0-1.9-0.6-1.9-1.6
			s0.7-1.6,1.9-1.6h3.8l12.7-41.6c0.4-1.2,1.2-2,2.6-2C1335.4,1493.5,1336.2,1494.2,1336.5,1495.5L1336.5,1495.5z M1339,1524
			l-6.2-20.8l-6.3,20.8H1339z"/>
		<path class="st1" d="M1362.3,1537.1h4.9v-40.4h-4.9c-1.2,0-1.9-0.6-1.9-1.6s0.7-1.6,1.9-1.6h16.2c1.2,0,1.9,0.6,1.9,1.6
			s-0.7,1.6-1.9,1.6h-4.9v40.4h13c6.2,0,7.1-5.7,7.4-8.3l0.3-3c0.1-1.1,0.6-1.9,1.7-1.9s1.7,0.8,1.6,1.9l-1,12.5
			c-0.1,1.1-0.6,2-2.4,2h-31.9c-1.2,0-1.9-0.6-1.9-1.6S1361.2,1537.1,1362.3,1537.1L1362.3,1537.1z"/>
		<path class="st1" d="M1405.3,1540.3c-1.1,0-1.8-0.6-1.8-1.6s0.7-1.6,1.8-1.6h4v-40.4h-3.9c-1.2,0-1.9-0.6-1.9-1.6s0.7-1.6,1.9-1.6
			h13.7c1.2,0,1.9,0.6,1.9,1.6s-0.7,1.6-1.9,1.6h-3.3v20l15.7-20h-4.8c-1.1,0-1.8-0.6-1.8-1.6s0.7-1.6,1.8-1.6h13.8
			c1.1,0,1.8,0.6,1.8,1.6s-0.7,1.6-1.8,1.6h-3.8l-13.4,17l14.9,23.4h3.6c1.2,0,1.9,0.6,1.9,1.6s-0.7,1.6-1.9,1.6h-14.4
			c-1.1,0-1.8-0.6-1.8-1.6s0.7-1.6,1.8-1.6h3.2L1419,1519l-3.2,4.1v14h3.4c1.1,0,1.8,0.6,1.8,1.6s-0.7,1.6-1.8,1.6H1405.3
			L1405.3,1540.3z"/>
	</g>
	<g>
		<path class="st1" d="M708.6,1189.9c4.4,0,8.5,2.6,11,5.2l0.3-3.3c0.1-1.2,0.8-1.9,1.7-1.9c1,0,1.6,0.8,1.6,1.9v14.3
			c0,1.2-0.8,1.9-1.9,1.9c-1.3,0-1.6-0.8-1.9-1.9c-2.4-7.5-5.1-13-11.4-13c-7.2,0-10.5,9.2-10.5,20.2c0,11.1,3.2,20.2,10.5,20.2
			c6.1,0,10.9-6.7,11-15.9h-4.6c-1.2,0-1.9-0.5-1.9-1.6s0.7-1.6,1.9-1.6h13.1c1.2,0,1.9,0.8,1.9,1.6c0,1-0.7,1.6-1.9,1.6h-4
			l0.1,17.2c0,1.1-0.6,2-1.7,2s-1.7-0.9-1.7-2l0.1-4.9c-2.3,3.9-6.7,6.8-12.2,6.8c-9.6,0-17.5-7.2-17.5-23.4
			C690.4,1197.2,698.4,1189.9,708.6,1189.9L708.6,1189.9z"/>
		<path class="st1" d="M735.4,1213.3c0-14.8,8.6-23.7,18-23.7c9.5,0,18,8.9,18,23.7c0,14.9-8.5,23.7-18,23.7
			C743.9,1237.1,735.4,1228.2,735.4,1213.3z M764.3,1213.3c0-11-3.7-20.5-10.9-20.5s-11,9.5-11,20.5c0,11.1,3.7,20.5,11,20.5
			C760.6,1233.9,764.3,1224.4,764.3,1213.3z"/>
		<path class="st1" d="M797.4,1189.9c6.6,0,12.8,3.4,12.8,9.7c0,6.6-4.4,8.3-8.9,12.4c-2.3,2.1-2.4,3.8-2.4,9v1.2
			c0,1.2-0.7,1.8-1.6,1.8c-0.9,0-1.6-0.6-1.6-1.7v-5.1c0-3.5,1.3-4.7,4-7.6c3.3-3.6,4-6.2,4-9.9c0-4-2.6-6.5-7-6.5
			c-4.7,0-6.3,2.4-6.3,2.4c-0.1-0.4,0.9,3.5,1.2,4.7s-0.3,3.8-2.8,4.4c-2.3,0.5-4.7-0.1-5.6-3.3
			C782.2,1196.8,787.5,1189.9,797.4,1189.9L797.4,1189.9z M797.3,1229.2c-2.2,0-4,1.6-4,3.8s1.8,3.8,4,3.8s4-1.6,4-3.8
			S799.5,1229.2,797.3,1229.2z"/>
		<path class="st1" d="M845.8,1203.9l5,16.5l5.2-27.3h-1.3c-1,0-1.7-0.7-1.7-1.6s0.8-1.6,1.7-1.6h6.5c1,0,1.7,0.7,1.7,1.6
			s-0.8,1.6-1.7,1.6h-1.9l-8.3,43.2c-0.1,0.4-0.6,0.8-1.1,0.8c-0.7,0-1.1-0.4-1.2-0.8l-5.3-18.8l-4.7,18.8c-0.1,0.4-0.4,0.8-1.2,0.8
			c-0.5,0-1-0.4-1.1-0.8l-9.5-43.2H825c-1,0-1.7-0.7-1.7-1.6s0.8-1.6,1.7-1.6h9.6c1,0,1.7,0.7,1.7,1.6s-0.8,1.6-1.7,1.6h-1.3l6,27.3
			l4.1-16.5c0.1-0.4,0.6-0.8,1.1-0.8C845.3,1203.1,845.7,1203.5,845.8,1203.9L845.8,1203.9z"/>
		<path class="st1" d="M895.3,1233.5c6.2-0.1,7.1-5.7,7.4-8.3l0.3-3.6c0.1-1.2,0.5-1.9,1.7-1.9s1.7,0.8,1.7,1.9l-1,13.1
			c-0.1,1.1-0.6,2-1.7,2h-32.5c-1.2,0-1.9-0.6-1.9-1.6s0.7-1.6,1.9-1.6h5.6v-39.8l-5.6-0.5c-1.2-0.1-1.9-0.8-1.9-1.7
			c0-1,0.8-1.6,1.9-1.6h32.5c1.2,0,1.7,0.9,1.7,2l1,13.1c0.1,1.2-0.5,1.9-1.7,1.9s-1.6-0.8-1.7-1.9l-0.3-3.6
			c-0.4-2.6-1.2-8.3-7.4-8.3h-12.2v17.7h5.3c3.4,0,4.2-1.2,4.7-3.7l0.3-1.9c0.2-1.1,0.5-1.9,1.6-1.9s1.6,0.8,1.6,1.9v15
			c0,1.1-0.5,1.9-1.6,1.9s-1.4-0.8-1.6-1.9l-0.3-1.9c-0.4-2.5-1.3-4.4-4.7-4.4h-5.3v19.5h12.2V1233.5L895.3,1233.5z"/>
		<path class="st1" d="M934.6,1209.4c7.9,3.2,15.1,4.9,15.1,14.9c0,10.2-8,13-14.5,13c-6.8,0-12-3.5-14-7v4.6c0,1.2-0.7,1.8-1.6,1.8
			c-0.9,0-1.6-0.6-1.6-1.8v-15c0-1,0.5-1.9,1.6-1.9s1.5,0.8,1.6,1.9l0.4,3c1,6.5,7.6,11.3,13.4,11.3c4.4,0,9.9-2.2,9.9-8.3
			c0-5.7-7.4-8.3-13.6-10.6c-7.5-2.7-13.1-5.6-13.1-13.5c0-6.9,5.5-11.9,13.1-11.9c5.1,0,10.3,2.1,13.8,6.5l0.4-5
			c0.1-1.2,0.8-1.9,1.7-1.9c1,0,1.6,0.7,1.6,1.9v12.6c0,1.2-0.5,1.8-1.5,1.8c-1.1,0-1.3-1-1.7-1.9c-2.3-5.4-8.3-10.8-14.2-10.8
			c-5.1,0-7.5,2.4-7.5,6.8C924,1205.4,929.4,1207.3,934.6,1209.4L934.6,1209.4z"/>
		<path class="st1" d="M971,1193.1c-6.2,0-6.2,3.8-6.8,10.3l-0.3,3c-0.1,1.1-0.4,1.9-1.6,1.9c-1.2,0-1.7-0.8-1.7-1.9l0.4-14.4
			c0-1.1,0.6-2,1.7-2H993c1.2,0,1.7,0.9,1.7,2l0.4,14.4c0,1.1-0.6,1.9-1.7,1.9c-1.1,0-1.5-0.8-1.6-1.9l-0.3-3
			c-0.6-6.5-0.6-10.3-6.8-10.3H981v40.4h7.6c1.2,0,1.8,0.7,1.8,1.6s-0.6,1.6-1.8,1.6h-21.5c-1.2,0-1.8-0.7-1.8-1.6s0.6-1.6,1.8-1.6
			h7.6v-40.4H971L971,1193.1z"/>
	</g>
	<g>
		<path class="st1" d="M635.8,1642.6l5,16.5l5.2-27.3h-1.3c-1,0-1.7-0.7-1.7-1.6s0.8-1.6,1.7-1.6h6.5c1,0,1.7,0.7,1.7,1.6
			s-0.8,1.6-1.7,1.6h-1.9L641,1675c-0.1,0.4-0.6,0.8-1.1,0.8c-0.7,0-1.1-0.4-1.2-0.8l-5.3-18.8l-4.7,18.8c-0.1,0.4-0.4,0.8-1.2,0.8
			c-0.5,0-1-0.4-1.1-0.8l-9.5-43.2H615c-1,0-1.7-0.7-1.7-1.6s0.8-1.6,1.7-1.6h9.6c1,0,1.7,0.7,1.7,1.6s-0.8,1.6-1.7,1.6h-1.3l6,27.3
			l4.1-16.5c0.1-0.4,0.6-0.8,1.1-0.8C635.3,1641.8,635.7,1642.2,635.8,1642.6L635.8,1642.6z"/>
		<path class="st1" d="M680.7,1630.6l13.2,41.6h3.2c1.2,0,1.9,0.6,1.9,1.6s-0.7,1.6-1.9,1.6h-14.4c-1.2,0-1.9-0.6-1.9-1.6
			s0.7-1.6,1.9-1.6h4.3l-2.9-9.9h-14.4l-2.8,9.9h3.7c1.2,0,1.9,0.6,1.9,1.6s-0.7,1.6-1.9,1.6h-11.7c-1.2,0-1.9-0.6-1.9-1.6
			s0.7-1.6,1.9-1.6h3.8l12.7-41.6c0.4-1.2,1.2-2,2.6-2C679.6,1628.6,680.3,1629.3,680.7,1630.6L680.7,1630.6z M683.2,1659.1
			l-6.2-20.8l-6.3,20.8H683.2z"/>
		<path class="st1" d="M706.5,1672.2h4.9v-40.4h-4.9c-1.2,0-1.9-0.6-1.9-1.6s0.7-1.6,1.9-1.6h16.2c1.2,0,1.9,0.6,1.9,1.6
			s-0.7,1.6-1.9,1.6h-4.9v40.4h13c6.2,0,7.1-5.7,7.4-8.3l0.3-3c0.1-1.1,0.6-1.9,1.7-1.9s1.7,0.8,1.6,1.9l-1,12.5
			c-0.1,1.1-0.6,2-2.4,2h-31.9c-1.2,0-1.9-0.6-1.9-1.6S705.3,1672.2,706.5,1672.2L706.5,1672.2z"/>
		<path class="st1" d="M749.5,1675.5c-1.1,0-1.8-0.6-1.8-1.6s0.7-1.6,1.8-1.6h4v-40.5h-3.9c-1.2,0-1.9-0.6-1.9-1.6s0.7-1.6,1.9-1.6
			h13.7c1.2,0,1.9,0.6,1.9,1.6s-0.7,1.6-1.9,1.6H760v20l15.7-20h-4.8c-1.1,0-1.8-0.6-1.8-1.6s0.7-1.6,1.8-1.6h13.8
			c1.1,0,1.8,0.6,1.8,1.6s-0.7,1.6-1.8,1.6h-3.8l-13.4,17l14.9,23.4h3.6c1.2,0,1.9,0.6,1.9,1.6s-0.7,1.6-1.9,1.6h-14.4
			c-1.1,0-1.8-0.6-1.8-1.6s0.7-1.6,1.8-1.6h3.2l-11.6-18.1l-3.2,4.1v14h3.4c1.1,0,1.8,0.6,1.8,1.6s-0.7,1.6-1.8,1.6L749.5,1675.5
			L749.5,1675.5z"/>
		<path class="st1" d="M860.3,1630.6l13.2,41.6h3.2c1.2,0,1.9,0.6,1.9,1.6s-0.7,1.6-1.9,1.6h-14.4c-1.2,0-1.9-0.6-1.9-1.6
			s0.7-1.6,1.9-1.6h4.3l-2.9-9.9h-14.4l-2.8,9.9h3.7c1.2,0,1.9,0.6,1.9,1.6s-0.7,1.6-1.9,1.6h-11.7c-1.2,0-1.9-0.6-1.9-1.6
			s0.7-1.6,1.9-1.6h3.8l12.7-41.6c0.4-1.2,1.2-2,2.6-2C859.2,1628.6,859.9,1629.3,860.3,1630.6L860.3,1630.6z M862.8,1659.1
			l-6.2-20.8l-6.3,20.8H862.8z"/>
		<path class="st1" d="M905.1,1642.6l5,16.5l5.2-27.3H914c-1,0-1.7-0.7-1.7-1.6s0.8-1.6,1.7-1.6h6.5c1,0,1.7,0.7,1.7,1.6
			s-0.8,1.6-1.7,1.6h-1.9l-8.3,43.2c-0.1,0.4-0.6,0.8-1.1,0.8c-0.7,0-1.1-0.4-1.2-0.8l-5.3-18.8L898,1675c-0.1,0.4-0.4,0.8-1.2,0.8
			c-0.5,0-1-0.4-1.1-0.8l-9.5-43.2h-1.9c-1,0-1.7-0.7-1.7-1.6s0.8-1.6,1.7-1.6h9.6c1,0,1.7,0.7,1.7,1.6s-0.8,1.6-1.7,1.6h-1.3
			l6,27.3l4.1-16.5c0.1-0.4,0.6-0.8,1.1-0.8C904.7,1641.8,905,1642.2,905.1,1642.6L905.1,1642.6z"/>
		<path class="st1" d="M950.1,1630.6l13.2,41.6h3.2c1.2,0,1.9,0.6,1.9,1.6s-0.7,1.6-1.9,1.6h-14.4c-1.2,0-1.9-0.6-1.9-1.6
			s0.7-1.6,1.9-1.6h4.3l-2.9-9.9h-14.4l-2.8,9.9h3.7c1.2,0,1.9,0.6,1.9,1.6s-0.7,1.6-1.9,1.6h-11.8c-1.2,0-1.9-0.6-1.9-1.6
			s0.7-1.6,1.9-1.6h3.8l12.7-41.6c0.4-1.2,1.2-2,2.6-2C949,1628.6,949.7,1629.3,950.1,1630.6L950.1,1630.6z M952.6,1659.1l-6.2-20.8
			l-6.3,20.8H952.6z"/>
		<path class="st1" d="M974.4,1628.6h14.4c1,0,1.7,0.6,1.7,1.6s-0.7,1.6-1.7,1.6h-2.4l7.1,17.3l8.1-17.3h-4.5c-1,0-1.7-0.6-1.7-1.6
			s0.7-1.6,1.7-1.6h13.4c1.2,0,1.8,0.7,1.8,1.6c0,1-0.6,1.6-1.8,1.6h-4.4l-10.9,22.3v18.1h7.6c1,0,1.7,0.6,1.7,1.6s-0.7,1.6-1.7,1.6
			h-22.3c-1.1,0-1.7-0.6-1.7-1.6s0.6-1.6,1.7-1.6h7.6v-18.3l-9.7-22.1h-4c-1,0-1.7-0.6-1.7-1.6S973.5,1628.6,974.4,1628.6
			L974.4,1628.6z"/>
		<path class="st1" d="M1038.8,1648.1c7.9,3.2,15.1,4.9,15.1,14.9c0,10.2-8,13-14.5,13c-6.8,0-12-3.5-14-7v4.6
			c0,1.2-0.7,1.8-1.6,1.8c-0.9,0-1.6-0.6-1.6-1.8v-15c0-1,0.5-1.9,1.6-1.9s1.5,0.8,1.6,1.9l0.4,3c1,6.5,7.6,11.3,13.4,11.3
			c4.4,0,9.9-2.2,9.9-8.3c0-5.7-7.4-8.3-13.6-10.6c-7.5-2.7-13.1-5.6-13.1-13.5c0-6.9,5.5-11.9,13.1-11.9c5.1,0,10.3,2.1,13.8,6.5
			l0.4-5c0.1-1.2,0.8-1.9,1.7-1.9c1,0,1.6,0.7,1.6,1.9v12.6c0,1.2-0.5,1.8-1.5,1.8c-1.1,0-1.3-1-1.7-1.9
			c-2.3-5.4-8.3-10.8-14.2-10.8c-5.1,0-7.5,2.4-7.5,6.8C1028.2,1644.1,1033.6,1646,1038.8,1648.1L1038.8,1648.1z"/>
		<path class="st1" d="M590.9,1719.6l5,16.5l5.2-27.3h-1.3c-1,0-1.7-0.7-1.7-1.6s0.8-1.6,1.7-1.6h6.5c1,0,1.7,0.7,1.7,1.6
			s-0.8,1.6-1.7,1.6h-1.9l-8.3,43.2c-0.1,0.4-0.6,0.8-1.1,0.8c-0.7,0-1.1-0.4-1.2-0.8l-5.3-18.8l-4.7,18.8c-0.1,0.4-0.4,0.8-1.2,0.8
			c-0.5,0-1-0.4-1.1-0.8l-9.5-43.2h-1.8c-1,0-1.7-0.7-1.7-1.6s0.8-1.6,1.7-1.6h9.6c1,0,1.7,0.7,1.7,1.6s-0.8,1.6-1.7,1.6h-1.3
			l6,27.3l4.1-16.5c0.1-0.4,0.6-0.8,1.1-0.8C590.4,1718.8,590.8,1719.2,590.9,1719.6L590.9,1719.6z"/>
		<path class="st1" d="M649.9,1697.2c1.4,0.6,1,1.9,0.4,3.1l-27.8,59.2c-0.6,1.4-1.5,2.2-2.6,1.8c-1.4-0.6-1-1.9-0.4-3.1l27.8-59.2
			C647.9,1697.6,648.7,1696.7,649.9,1697.2z"/>
		<path class="st1" d="M671.2,1708.8c-6.2,0-6.2,3.8-6.8,10.3l-0.3,3c-0.1,1.1-0.4,1.9-1.6,1.9s-1.7-0.8-1.7-1.9l0.4-14.4
			c0-1.1,0.6-2,1.7-2h30.3c1.2,0,1.7,0.9,1.7,2l0.4,14.4c0,1.1-0.6,1.9-1.7,1.9s-1.5-0.8-1.6-1.9l-0.3-3c-0.6-6.5-0.6-10.3-6.8-10.3
			h-3.7v40.4h7.6c1.2,0,1.8,0.7,1.8,1.6s-0.6,1.6-1.8,1.6h-21.5c-1.2,0-1.8-0.7-1.8-1.6s0.6-1.6,1.8-1.6h7.6v-40.4H671.2
			L671.2,1708.8z"/>
		<path class="st1" d="M725.6,1707.6l13.2,41.6h3.2c1.2,0,1.9,0.6,1.9,1.6s-0.7,1.6-1.9,1.6h-14.4c-1.2,0-1.9-0.6-1.9-1.6
			s0.7-1.6,1.9-1.6h4.3l-2.9-9.9h-14.4l-2.8,9.9h3.7c1.2,0,1.9,0.6,1.9,1.6s-0.7,1.6-1.9,1.6h-11.7c-1.2,0-1.9-0.6-1.9-1.6
			s0.7-1.6,1.9-1.6h3.8l12.7-41.6c0.4-1.2,1.2-2,2.6-2C724.5,1705.6,725.2,1706.3,725.6,1707.6L725.6,1707.6z M728.1,1736l-6.2-20.8
			l-6.3,20.8H728.1z"/>
		<path class="st1" d="M749.5,1752.4c-1.1,0-1.8-0.6-1.8-1.6s0.7-1.6,1.8-1.6h4v-40.4h-3.9c-1.2,0-1.9-0.6-1.9-1.6s0.7-1.6,1.9-1.6
			h13.7c1.2,0,1.9,0.6,1.9,1.6s-0.7,1.6-1.9,1.6H760v20l15.7-20h-4.8c-1.1,0-1.8-0.6-1.8-1.6s0.7-1.6,1.8-1.6h13.8
			c1.1,0,1.8,0.6,1.8,1.6s-0.7,1.6-1.8,1.6h-3.8l-13.4,17l14.9,23.4h3.6c1.2,0,1.9,0.6,1.9,1.6s-0.7,1.6-1.9,1.6h-14.4
			c-1.1,0-1.8-0.6-1.8-1.6s0.7-1.6,1.8-1.6h3.2l-11.6-18.1l-3.2,4.1v14h3.4c1.1,0,1.8,0.6,1.8,1.6s-0.7,1.6-1.8,1.6H749.5z"/>
		<path class="st1" d="M819.9,1749.2c6.2-0.1,7.1-5.7,7.4-8.3l0.3-3.6c0.1-1.2,0.5-1.9,1.7-1.9s1.7,0.8,1.7,1.9l-1,13.1
			c-0.1,1.1-0.6,2-1.7,2h-32.5c-1.2,0-1.9-0.6-1.9-1.6s0.7-1.6,1.9-1.6h5.6v-39.8l-5.6-0.5c-1.2-0.1-1.9-0.8-1.9-1.7
			c0-1,0.8-1.6,1.9-1.6h32.4c1.2,0,1.7,0.9,1.7,2l1,13.1c0.1,1.2-0.5,1.9-1.7,1.9s-1.6-0.8-1.7-1.9l-0.3-3.6
			c-0.4-2.6-1.2-8.3-7.4-8.3h-12.2v17.7h5.3c3.4,0,4.2-1.2,4.7-3.7l0.3-1.9c0.2-1.1,0.5-1.9,1.6-1.9s1.6,0.8,1.6,1.9v15
			c0,1.1-0.5,1.9-1.6,1.9s-1.4-0.8-1.6-1.9l-0.3-1.9c-0.4-2.5-1.3-4.4-4.7-4.4h-5.3v19.5h12.3L819.9,1749.2L819.9,1749.2z"/>
		<path class="st1" d="M905.2,1707.6l13.2,41.6h3.2c1.2,0,1.9,0.6,1.9,1.6s-0.7,1.6-1.9,1.6h-14.4c-1.2,0-1.9-0.6-1.9-1.6
			s0.7-1.6,1.9-1.6h4.3l-2.9-9.9h-14.4l-2.8,9.9h3.7c1.2,0,1.9,0.6,1.9,1.6s-0.7,1.6-1.9,1.6h-11.7c-1.2,0-1.9-0.6-1.9-1.6
			s0.7-1.6,1.9-1.6h3.8l12.7-41.6c0.4-1.2,1.2-2,2.6-2C904.1,1705.6,904.8,1706.3,905.2,1707.6L905.2,1707.6z M907.7,1736l-6.2-20.8
			l-6.3,20.8H907.7z"/>
		<path class="st1" d="M950,1719.6l5,16.5l5.2-27.3h-1.3c-1,0-1.7-0.7-1.7-1.6s0.8-1.6,1.7-1.6h6.5c1,0,1.7,0.7,1.7,1.6
			s-0.8,1.6-1.7,1.6h-1.9l-8.3,43.2c-0.1,0.4-0.6,0.8-1.1,0.8c-0.7,0-1.1-0.4-1.2-0.8l-5.3-18.8l-4.7,18.8c-0.1,0.4-0.4,0.8-1.2,0.8
			c-0.5,0-1-0.4-1.1-0.8l-9.4-43.2h-1.9c-1,0-1.7-0.7-1.7-1.6s0.8-1.6,1.7-1.6h9.6c1,0,1.7,0.7,1.7,1.6s-0.8,1.6-1.7,1.6h-1.3
			l6,27.3l4.1-16.5c0.1-0.4,0.6-0.8,1.1-0.8C949.5,1718.8,949.9,1719.2,950,1719.6L950,1719.6z"/>
		<path class="st1" d="M994.9,1707.6l13.2,41.6h3.2c1.2,0,1.9,0.6,1.9,1.6s-0.7,1.6-1.9,1.6h-14.4c-1.2,0-1.9-0.6-1.9-1.6
			s0.7-1.6,1.9-1.6h4.3l-2.9-9.9h-14.4l-2.8,9.9h3.7c1.2,0,1.9,0.6,1.9,1.6s-0.7,1.6-1.9,1.6h-11.7c-1.2,0-1.9-0.6-1.9-1.6
			s0.7-1.6,1.9-1.6h3.8l12.7-41.6c0.4-1.2,1.2-2,2.6-2C993.9,1705.6,994.6,1706.3,994.9,1707.6L994.9,1707.6z M997.4,1736l-6.2-20.8
			l-6.3,20.8H997.4z"/>
		<path class="st1" d="M1019.3,1705.6h14.4c1,0,1.7,0.6,1.7,1.6s-0.7,1.6-1.7,1.6h-2.4l7.1,17.3l8.1-17.3h-4.5c-1,0-1.7-0.6-1.7-1.6
			s0.7-1.6,1.7-1.6h13.4c1.2,0,1.8,0.7,1.8,1.6c0,1-0.6,1.6-1.8,1.6h-4.4l-10.9,22.3v18.1h7.6c1,0,1.7,0.6,1.7,1.6s-0.7,1.6-1.7,1.6
			h-22.3c-1.1,0-1.7-0.6-1.7-1.6s0.6-1.6,1.7-1.6h7.6v-18.3l-9.7-22.1h-4c-1,0-1.7-0.6-1.7-1.6S1018.3,1705.6,1019.3,1705.6
			L1019.3,1705.6z"/>
		<path class="st1" d="M1083.7,1725.1c7.9,3.2,15.1,4.9,15.1,14.9c0,10.2-8,13-14.5,13c-6.8,0-12-3.5-14-7v4.6
			c0,1.2-0.7,1.8-1.6,1.8c-0.9,0-1.6-0.6-1.6-1.8v-15c0-1,0.5-1.9,1.6-1.9s1.5,0.8,1.6,1.9l0.4,3c1,6.5,7.6,11.3,13.4,11.3
			c4.4,0,9.9-2.2,9.9-8.3c0-5.7-7.4-8.3-13.6-10.6c-7.5-2.7-13.1-5.6-13.1-13.5c0-6.9,5.5-11.9,13.1-11.9c5.1,0,10.3,2.1,13.8,6.5
			l0.4-5c0.1-1.2,0.8-1.9,1.7-1.9c1,0,1.6,0.7,1.6,1.9v12.6c0,1.2-0.5,1.8-1.5,1.8c-1.1,0-1.3-1-1.7-1.9
			c-2.3-5.4-8.3-10.8-14.2-10.8c-5.1,0-7.5,2.4-7.5,6.8C1073,1721,1078.5,1723,1083.7,1725.1L1083.7,1725.1z"/>
	</g>
	
		<image style="overflow:visible;" width="1699" height="2314" xlink:href="collapse.PNG"  transform="matrix(1.3462 0 0 1.3462 -85.8088 -332.6417)">
	</image>
</g>
</svg>
