<?xml version="1.0" encoding="UTF-8"?>
<svg id="a" data-name="Layer 1" xmlns="http://www.w3.org/2000/svg" width="11.047in" height="12.277in" viewBox="0 0 795.385 883.973">
  <path d="M191.438,145.968c2.678-15.445,13.538-22.056,27.973-24.136,24.049-3.466,40.015-15.515,47.422-39.783,5.865-19.217,14.366-37.663,22.319-56.184,1.912-4.453,5.888-8.292,9.606-11.648,14.386-12.987,30.539-10.139,38.291,7.422,5.125,11.61,7.821,24.274,12.623,36.051,3.787,9.286,7.827,18.996,14.055,26.646,12.289,15.097,23.144,17.136,41.381,10.389,4.733-1.751,9.296-4.122,13.854-6.126,4.22-1.855,9.766-3.825,16.707-.526,27.964,13.29,43.525,3.697,56.733-18.941,5.983-10.254,11.948-20.621,19.032-30.106,9.26-12.398,22.123-15.692,36.687-10.548,13.25,4.68,18.783,15.083,21.178,28.437,3.089,17.22,7.043,34.307,11.229,51.302,3.232,13.121,13.622,20.873,24.033,27.886,6.606,4.45,14.126,7.743,21.572,10.713,24.189,9.647,33.689,27.104,27.229,52.018-.98,3.777-4.256,7.001-6.636,10.364-4.942,6.982-3.624,12.119,3.374,16.954,4.614,3.187,8.395,7.57,12.609,11.35,5.274,4.732,11.028,6.582,18.551,6.95,13.315,.652,26.918,2.467,39.659,6.277,24.402,7.297,27.374,20.467,9.929,39.402-7.691,8.348-15.993,16.13-23.949,24.237-2.302,2.346-4.765,4.681-6.471,7.443-9.248,14.977-13.292,26.549,7.192,37.779,4.994,2.738,9.706,6.109,14.92,8.303,13.904,5.851,19.347,16.2,17.615,30.819-.176,1.488-.051,3.099-.59,4.443-14.594,36.367-5.24,72.521,.448,108.856,6.202,39.623,5.852,79.483,.607,119.175-3.726,28.196-10.065,56.109-12.517,84.384-1.081,12.468,2.78,26.258,7.621,38.133,6.959,17.072,17.578,32.618,25.237,49.452,4.491,9.871,7.945,20.831,8.87,31.56,1.321,15.309-12.583,23.947-26.888,17.73-10.981-4.772-21.937-9.812-32.273-15.818-25.569-14.856-51.946-15.451-79.736-7.457-16.487,4.742-33.415,8.619-50.413,10.761-25.038,3.156-47.964-6.068-70.563-15.523-16.17-6.765-32.238-13.803-48.594-20.089-10.57-4.062-20.646-2.622-30.536,3.857-3.629,2.378-10.343,2.815-14.472,1.174-16.216-6.445-32.275-7.362-48.57-1.369-23.94,8.805-47.632,18.302-71.682,26.791-33.459,11.811-67.801,17.9-103.363,12.515-6.964-1.055-13.757-3.416-20.537-5.478-16.53-5.027-32.645-3.646-49.407,.247-24.252,5.632-46.67,14.687-67.398,28.323-7.414,4.877-15.656,6.634-24.638,6.039-9.969-.66-16.749-5.393-17.888-15.111-1.543-13.159,.673-25.614,7.727-37.382,17.296-28.854,36.216-56.837,47.601-88.925,6.433-18.131,6.437-36.734,5.305-55.372-.875-14.403-4.017-28.67-4.847-43.072-1.254-21.747-1.401-43.559-1.967-65.345-.905-34.859,5.257-68.899,13.078-102.584,5.834-25.127,7.44-50.409,6.569-75.977-.128-3.765-2.13-7.518-3.463-11.166-1.149-3.143-2.637-6.157-4.245-9.091-15.519-28.309-.567-36.254,22.663-40.141,9.346-1.564,19.474-3.913,27.114-9.066,15.024-10.134,12.009-37.188-4.417-50.567-8.254-6.723-16.945-12.999-24.761-20.168-3.532-3.24-6.694-6.887-9.286-10.918-10.43-16.221-6.474-28.143,7.151-34.779,12.45-6.064,25.342-8.578,39.255-5.886,6.712,1.299,12.959,1.011,18.84-.373,22.477-5.289,37.528-26.592,36.209-49.645-.116-2.032-.174-3.669,.036-4.881Z" fill="none" stroke="#fff" stroke-miterlimit="10" stroke-width="2"/>
</svg>