<?xml version="1.0" encoding="utf-8"?>
<!-- Generator: Adobe Illustrator 26.5.0, SVG Export Plug-In . SVG Version: 6.00 Build 0)  -->
<svg version="1.1" id="a" xmlns="http://www.w3.org/2000/svg" xmlns:xlink="http://www.w3.org/1999/xlink" x="0px" y="0px"
	 width="1882.3px" height="2048.7px" viewBox="0 0 1882.3 2048.7" style="enable-background:new 0 0 1882.3 2048.7;"
	 xml:space="preserve">
<style type="text/css">
	.st0{fill:none;stroke:#FFFFFF;stroke-width:1.9999;stroke-miterlimit:9.9997;}
	.st1{fill:#FFFFFF;}
</style>
<path class="st0" d="M3023.2,346.5c6.2-35.3,30.9-50.6,64.1-55.2c55-8,91.6-35.5,108.6-91.2c13.5-44,33-86.3,51.1-128.7
	c4.4-10.3,13.5-19,22-26.6c33-29.8,69.9-23.1,87.7,16.9c11.7,26.6,17.9,55.7,28.9,82.4c8.7,21.3,17.9,43.5,32.3,60.9
	c28.2,34.6,52.9,39.2,94.8,23.8c10.8-4.1,21.3-9.4,31.8-14c9.6-4.4,22.4-8.7,38.2-1.1c64.1,30.5,99.6,8.5,129.9-43.3
	c13.7-23.6,27.3-47.2,43.5-68.9c21.3-28.4,50.6-36,84.1-24c30.2,10.8,43.1,34.6,48.6,65c7.1,39.4,16,78.6,25.7,117.5
	c7.3,30,31.1,47.9,55,63.9c15.1,10.1,32.3,17.6,49.5,24.5c55.4,22,77.2,62.1,62.3,119.1c-2.3,8.7-9.8,16-15.1,23.8
	c-11.2,16-8.2,27.7,7.8,38.9c10.5,7.3,19.2,17.4,28.9,25.9c12.1,10.8,25.2,15.1,42.6,15.8c30.5,1.6,61.6,5.7,90.9,14.4
	c55.9,16.7,62.8,46.9,22.7,90.2c-17.6,19-36.6,36.9-54.7,55.4c-5.3,5.3-11,10.8-14.9,16.9c-21.1,34.4-30.5,60.7,16.5,86.6
	c11.5,6.2,22.2,14,34.1,19c31.8,13.5,44.2,37.1,40.3,70.5c-0.5,3.4-0.2,7.1-1.4,10.1c-33.4,83.4-11.9,166,0.9,249.4
	c14.2,90.7,13.5,182.1,1.4,273c-8.5,64.6-23.1,128.5-28.6,193.3c-2.5,28.6,6.4,60.2,17.4,87.3c16,39.2,40.3,74.7,57.7,113.4
	c10.3,22.7,18.1,47.6,20.4,72.4c3,35-28.9,54.7-61.6,40.5c-25.2-11-50.2-22.4-74-36.2c-58.6-34.1-118.9-35.5-182.5-17.2
	c-37.8,10.8-76.5,19.7-115.4,24.7c-57.3,7.3-109.9-14-161.7-35.5c-37.1-15.6-73.7-31.6-111.3-46c-24.3-9.4-47.2-6-69.9,8.9
	c-8.2,5.5-23.6,6.4-33.2,2.7c-37.1-14.7-74-16.9-111.3-3.2c-54.7,20.2-109,41.9-164.2,61.4c-76.7,27-155.3,41-236.8,28.6
	c-16-2.5-31.6-7.8-46.9-12.6c-37.8-11.5-74.7-8.2-113.1,0.5c-55.7,12.8-107,33.7-154.4,64.8c-16.9,11.2-36,15.1-56.3,13.7
	c-22.9-1.6-38.2-12.4-41-34.6c-3.4-30.2,1.6-58.6,17.6-85.7c39.6-66.2,82.9-130.1,109-203.6c14.7-41.5,14.7-84.1,12.1-126.9
	c-2.1-33-9.2-65.7-11-98.7c-3-49.7-3.2-99.9-4.6-149.6c-2.1-79.9,12.1-157.8,30-235c13.3-57.5,16.9-115.4,15.1-174.1
	c-0.2-8.7-4.8-17.2-8-25.7c-2.5-7.1-6-14.2-9.6-20.8c-35.5-64.8-1.4-83.1,52-91.8c21.3-3.7,44.7-8.9,62.1-20.8
	c34.4-23.1,27.5-85.2-10.1-115.9c-19-15.3-38.7-29.8-56.8-46.3c-8-7.3-15.3-15.8-21.3-25c-23.8-37.1-14.9-64.4,16.5-79.7
	c28.4-14,57.9-19.7,90-13.5c15.3,3,29.8,2.3,43.1-0.9c51.5-12.1,85.9-60.9,82.9-113.6C3022.7,352.9,3022.5,349.3,3023.2,346.5
	L3023.2,346.5z"/>
<g>
	<g>
		<path class="st1" d="M3283.1,719.7c0-1.3,1-2.2,2.5-2.2h6.2v-54l-6.2-0.7c-1.6-0.2-2.5-1.1-2.5-2.3c0-1.3,1-2.2,2.5-2.2h26.5
			c10.4,0,19.1,5.5,19.1,15.2c0,9.2-6.1,12.6-8.5,13.6l-2.4,1l2.4,0.6c2.5,0.6,11.5,4.4,11.5,15.3c0,10.4-8.8,17.8-18.6,17.8h-30
			C3284.1,721.9,3283.1,721,3283.1,719.7z M3313,686.2c3.3,0,9.7-4.2,9.7-12.6c0-8.2-6.2-10.9-9.7-10.9h-12.4v23.5H3313z
			 M3313,717.6c9.1,0,12.6-6.6,12.6-13.5c0-8.8-5.6-13.5-12.6-13.5h-12.4v27H3313z"/>
		<path class="st1" d="M3344.9,690.1c0-20,11.7-32.2,24.5-32.2c12.9,0,24.4,12,24.4,32.2s-11.5,32.2-24.4,32.2
			C3356.4,722.3,3344.9,710.3,3344.9,690.1z M3384.2,690.1c0-15-5-27.8-14.8-27.8c-9.8,0-14.9,12.9-14.9,27.8
			c0,15.1,5,27.8,14.9,27.8C3379.1,718,3384.2,705.2,3384.2,690.1z"/>
		<path class="st1" d="M3406,658.4h19.6c1.3,0,2.3,0.9,2.3,2.2c0,1.3-1,2.2-2.3,2.2h-3.3l9.7,23.5l11-23.5h-6.1
			c-1.3,0-2.3-0.9-2.3-2.2c0-1.3,1-2.2,2.3-2.2h18.2c1.6,0,2.4,1,2.4,2.2c0,1.3-0.9,2.2-2.4,2.2h-6l-14.8,30.2v24.6h10.4
			c1.4,0,2.3,0.9,2.3,2.2c0,1.3-1,2.2-2.3,2.2h-30.3c-1.5,0-2.3-0.9-2.3-2.2c0-1.3,0.9-2.2,2.3-2.2h10.4v-24.8l-13.2-30h-5.4
			c-1.3,0-2.3-0.9-2.3-2.2C3403.8,659.2,3404.7,658.4,3406,658.4z"/>
		<path class="st1" d="M3555.6,677.3l6.8,22.4l7-37h-1.7c-1.3,0-2.3-1-2.3-2.2s1-2.2,2.3-2.2h8.9c1.3,0,2.3,1,2.3,2.2
			s-1,2.2-2.3,2.2h-2.6l-11.3,58.7c-0.1,0.5-0.8,1-1.5,1c-1,0-1.5-0.5-1.6-1l-7.1-25.5l-6.4,25.5c-0.1,0.5-0.6,1-1.6,1
			c-0.7,0-1.4-0.5-1.5-1l-12.9-58.7h-2.6c-1.3,0-2.3-1-2.3-2.2s1-2.2,2.3-2.2h13.1c1.3,0,2.3,1,2.3,2.2s-1,2.2-2.3,2.2h-1.7l8.2,37
			l5.6-22.4c0.2-0.5,0.8-1,1.5-1C3555,676.3,3555.5,676.8,3555.6,677.3z"/>
		<path class="st1" d="M3622.8,717.6c8.4-0.2,9.6-7.7,10.1-11.3l0.3-4.9c0.1-1.6,0.7-2.6,2.3-2.6s2.3,1,2.3,2.6l-1.4,17.8
			c-0.1,1.5-0.8,2.7-2.3,2.7h-44.1c-1.6,0-2.5-0.9-2.5-2.2c0-1.3,1-2.2,2.5-2.2h7.7v-54l-7.7-0.7c-1.7-0.2-2.5-1.1-2.5-2.3
			c0-1.3,1-2.2,2.5-2.2h44.1c1.6,0,2.3,1.2,2.3,2.7l1.4,17.8c0.1,1.6-0.7,2.6-2.3,2.6s-2.2-1-2.3-2.6l-0.3-4.9
			c-0.5-3.6-1.7-11.3-10.1-11.3h-16.5v24h7.2c4.6,0,5.7-1.7,6.4-5l0.4-2.5c0.3-1.5,0.7-2.5,2.2-2.5s2.2,1,2.2,2.5v20.4
			c0,1.5-0.7,2.5-2.2,2.5s-1.9-1-2.2-2.5l-0.4-2.5c-0.6-3.4-1.7-5.9-6.4-5.9h-7.2v26.5H3622.8z"/>
		<path class="st1" d="M3676.1,684.8c10.7,4.4,20.5,6.6,20.5,20.3c0,13.8-10.9,17.7-19.7,17.7c-9.2,0-16.3-4.8-19-9.5v6.2
			c0,1.6-1,2.4-2.2,2.4c-1.2,0-2.2-0.9-2.2-2.4v-20.4c0-1.4,0.7-2.5,2.2-2.5s2,1.1,2.2,2.5l0.6,4c1.3,8.9,10.3,15.3,18.2,15.3
			c5.9,0,13.5-3,13.5-11.2c0-7.7-10-11.3-18.4-14.4c-10.2-3.7-17.8-7.6-17.8-18.4c0-9.3,7.5-16.1,17.8-16.1c7,0,13.9,2.9,18.7,8.8
			l0.5-6.8c0.1-1.7,1.1-2.5,2.3-2.5c1.3,0,2.2,1,2.2,2.5v17.1c0,1.6-0.7,2.4-2.1,2.4c-1.5,0-1.7-1.3-2.3-2.5
			c-3.1-7.3-11.3-14.7-19.3-14.7c-7,0-10.2,3.2-10.2,9.2C3661.7,679.3,3669.1,682,3676.1,684.8z"/>
		<path class="st1" d="M3725.6,662.7c-8.4,0-8.4,5.1-9.2,13.9l-0.3,4c-0.1,1.5-0.6,2.6-2.2,2.6s-2.3-1.1-2.3-2.6l0.5-19.6
			c0-1.5,0.8-2.7,2.3-2.7h41.1c1.6,0,2.3,1.2,2.3,2.7l0.5,19.6c0,1.5-0.8,2.6-2.3,2.6s-2.1-1.1-2.2-2.6l-0.3-4
			c-0.8-8.8-0.8-13.9-9.2-13.9h-5v54.8h10.3c1.6,0,2.4,1,2.4,2.2c0,1.2-0.9,2.2-2.4,2.2h-29.2c-1.6,0-2.4-1-2.4-2.2
			c0-1.2,0.9-2.2,2.4-2.2h10.3v-54.8H3725.6z"/>
	</g>
</g>
<g>
	<g>
		<path class="st1" d="M3219.9,981.8l0.3-3.3c0.1-1.2,0.8-1.9,1.7-1.9c1,0,1.6,0.8,1.6,1.9v14.3c0,1.2-0.8,1.9-1.9,1.9
			c-1.3,0-1.6-0.8-1.9-1.9c-2.4-7.5-4.4-13-11.4-13c-7.1,0-10.5,9.2-10.5,20.2c0,11.1,3.4,20.2,11.1,20.2c4.4,0,7.7-3.9,10.1-9.7
			l1.3-3.1c0.4-1,1-2.2,2.3-1.9c1.1,0.2,2,1,1.4,3c-2.2,8-6.5,14.9-15.1,14.9c-9.6,0-18.1-7.2-18.1-23.4c0-16.2,8.6-23.4,18.1-23.4
			C3214,976.6,3217.4,979.2,3219.9,981.8z"/>
		<path class="st1" d="M3234.7,1000c0-14.8,8.6-23.7,18-23.7c9.5,0,18,8.9,18,23.7c0,14.9-8.5,23.7-18,23.7
			C3243.2,1023.7,3234.7,1014.9,3234.7,1000z M3263.6,1000c0-11-3.7-20.5-10.9-20.5c-7.2,0-11,9.5-11,20.5c0,11.1,3.7,20.5,11,20.5
			C3259.9,1020.5,3263.6,1011.1,3263.6,1000z"/>
		<path class="st1" d="M3300.2,990.6l5,16.5l5.2-27.3h-1.3c-1,0-1.7-0.7-1.7-1.6c0-0.9,0.8-1.6,1.7-1.6h6.5c1,0,1.7,0.7,1.7,1.6
			c0,0.9-0.8,1.6-1.7,1.6h-1.9l-8.3,43.2c-0.1,0.4-0.6,0.8-1.1,0.8c-0.7,0-1.1-0.4-1.2-0.8l-5.3-18.8l-4.7,18.8
			c-0.1,0.4-0.4,0.8-1.2,0.8c-0.5,0-1-0.4-1.1-0.8l-9.5-43.2h-1.9c-1,0-1.7-0.7-1.7-1.6c0-0.9,0.8-1.6,1.7-1.6h9.6
			c1,0,1.7,0.7,1.7,1.6c0,0.9-0.8,1.6-1.7,1.6h-1.3l6,27.3l4.1-16.5c0.1-0.4,0.6-0.8,1.1-0.8
			C3299.7,989.8,3300.1,990.2,3300.2,990.6z"/>
		<path class="st1" d="M3323.8,1021.8c0-1,0.7-1.6,1.9-1.6h4.6v-39.8l-4.6-0.5c-1.2-0.1-1.9-0.8-1.9-1.7c0-1,0.8-1.6,1.9-1.6h19.6
			c7.7,0,14.1,4,14.1,11.2c0,6.8-4.5,9.3-6.3,10l-1.8,0.7l1.8,0.4c1.9,0.4,8.5,3.3,8.5,11.3c0,7.6-6.5,13.1-13.7,13.1h-22.1
			C3324.5,1023.4,3323.8,1022.8,3323.8,1021.8z M3345.8,997.1c2.4,0,7.1-3.1,7.1-9.3c0-6-4.6-8-7.1-8h-9.2v17.3H3345.8z
			 M3345.8,1020.2c6.7,0,9.3-4.9,9.3-9.9c0-6.5-4.1-9.9-9.3-9.9h-9.2v19.9H3345.8z"/>
		<path class="st1" d="M3369.4,1000c0-14.8,8.6-23.7,18-23.7c9.5,0,18,8.9,18,23.7c0,14.9-8.5,23.7-18,23.7
			C3377.8,1023.7,3369.4,1014.9,3369.4,1000z M3398.3,1000c0-11-3.7-20.5-10.9-20.5c-7.2,0-11,9.5-11,20.5c0,11.1,3.7,20.5,11,20.5
			C3394.6,1020.5,3398.3,1011.1,3398.3,1000z"/>
		<path class="st1" d="M3414.4,976.6h14.4c1,0,1.7,0.6,1.7,1.6c0,1-0.7,1.6-1.7,1.6h-2.4l7.1,17.3l8.1-17.3h-4.5
			c-1,0-1.7-0.6-1.7-1.6c0-1,0.7-1.6,1.7-1.6h13.4c1.2,0,1.8,0.7,1.8,1.6c0,1-0.6,1.6-1.8,1.6h-4.4l-10.9,22.3v18.1h7.6
			c1,0,1.7,0.6,1.7,1.6c0,1-0.7,1.6-1.7,1.6h-22.3c-1.1,0-1.7-0.6-1.7-1.6c0-1,0.6-1.6,1.7-1.6h7.6v-18.3l-9.7-22.1h-4
			c-1,0-1.7-0.6-1.7-1.6C3412.7,977.2,3413.4,976.6,3414.4,976.6z"/>
		<path class="st1" d="M3524.6,990.6l5,16.5l5.2-27.3h-1.3c-1,0-1.7-0.7-1.7-1.6c0-0.9,0.8-1.6,1.7-1.6h6.5c1,0,1.7,0.7,1.7,1.6
			c0,0.9-0.8,1.6-1.7,1.6h-1.9l-8.3,43.2c-0.1,0.4-0.6,0.8-1.1,0.8c-0.7,0-1.1-0.4-1.2-0.8l-5.3-18.8l-4.7,18.8
			c-0.1,0.4-0.4,0.8-1.2,0.8c-0.5,0-1-0.4-1.1-0.8l-9.5-43.2h-1.9c-1,0-1.7-0.7-1.7-1.6c0-0.9,0.8-1.6,1.7-1.6h9.6
			c1,0,1.7,0.7,1.7,1.6c0,0.9-0.8,1.6-1.7,1.6h-1.3l6,27.3l4.1-16.5c0.1-0.4,0.6-0.8,1.1-0.8
			C3524.2,989.8,3524.5,990.2,3524.6,990.6z"/>
		<path class="st1" d="M3579.1,1020.2c1.2,0,1.9,0.6,1.9,1.6c0,1-0.7,1.6-1.9,1.6h-24.4c-1.2,0-1.9-0.6-1.9-1.6c0-1,0.7-1.6,1.9-1.6
			h9v-40.4h-9.1c-1.2,0-1.9-0.6-1.9-1.6c0-1,0.7-1.6,1.9-1.6h24.4c1.2,0,1.9,0.6,1.9,1.6c0,1-0.7,1.6-1.9,1.6h-8.9v40.4H3579.1z"/>
		<path class="st1" d="M3595.3,1020.2h4.9v-40.4h-4.9c-1.2,0-1.9-0.6-1.9-1.6c0-1,0.7-1.6,1.9-1.6h16.2c1.2,0,1.9,0.6,1.9,1.6
			c0,1-0.7,1.6-1.9,1.6h-4.9v40.4h13c6.2,0,7.1-5.7,7.4-8.3l0.3-3c0.1-1.1,0.6-1.9,1.7-1.9c1.1,0,1.7,0.8,1.6,1.9l-1,12.5
			c-0.1,1.1-0.6,2-2.4,2h-31.9c-1.2,0-1.9-0.6-1.9-1.6C3593.5,1020.8,3594.2,1020.2,3595.3,1020.2z"/>
		<path class="st1" d="M3638.5,976.6h20.4c7.1,0,17.5,6.5,17.5,23.6c0,18.7-10.6,23.2-17.4,23.2h-20.5c-1.2,0-1.9-0.6-1.9-1.6
			c0-1,0.7-1.6,1.9-1.6h5.8v-40.4h-5.8c-1.2,0-1.9-0.6-1.9-1.6C3636.6,977.2,3637.3,976.6,3638.5,976.6z M3650.7,1020.2h8.3
			c6.5,0,11-8.7,11-20c0-11-4.2-20.4-11.1-20.4h-8.1L3650.7,1020.2z"/>
		<path class="st1" d="M3704.2,990.6l5,16.5l5.2-27.3h-1.3c-1,0-1.7-0.7-1.7-1.6c0-0.9,0.8-1.6,1.7-1.6h6.5c1,0,1.7,0.7,1.7,1.6
			c0,0.9-0.8,1.6-1.7,1.6h-1.9l-8.3,43.2c-0.1,0.4-0.6,0.8-1.1,0.8c-0.7,0-1.1-0.4-1.2-0.8l-5.3-18.8l-4.7,18.8
			c-0.1,0.4-0.4,0.8-1.2,0.8c-0.5,0-1-0.4-1.1-0.8l-9.5-43.2h-1.9c-1,0-1.7-0.7-1.7-1.6c0-0.9,0.8-1.6,1.7-1.6h9.6
			c1,0,1.7,0.7,1.7,1.6c0,0.9-0.8,1.6-1.7,1.6h-1.3l6,27.3l4.1-16.5c0.1-0.4,0.6-0.8,1.1-0.8
			C3703.7,989.8,3704.1,990.2,3704.2,990.6z"/>
		<path class="st1" d="M3753.7,1020.2c6.2-0.1,7.1-5.7,7.4-8.3l0.3-3.6c0.1-1.2,0.5-1.9,1.7-1.9s1.7,0.8,1.7,1.9l-1,13.1
			c-0.1,1.1-0.6,2-1.7,2h-32.5c-1.2,0-1.9-0.6-1.9-1.6c0-1,0.7-1.6,1.9-1.6h5.6v-39.8l-5.6-0.5c-1.2-0.1-1.9-0.8-1.9-1.7
			c0-1,0.8-1.6,1.9-1.6h32.5c1.2,0,1.7,0.9,1.7,2l1,13.1c0.1,1.2-0.5,1.9-1.7,1.9s-1.6-0.8-1.7-1.9l-0.3-3.6
			c-0.4-2.6-1.2-8.3-7.4-8.3h-12.2v17.7h5.3c3.4,0,4.2-1.2,4.7-3.7l0.3-1.9c0.2-1.1,0.5-1.9,1.6-1.9c1.1,0,1.6,0.8,1.6,1.9v15
			c0,1.1-0.5,1.9-1.6,1.9c-1.1,0-1.4-0.8-1.6-1.9l-0.3-1.9c-0.4-2.5-1.3-4.4-4.7-4.4h-5.3v19.5H3753.7z"/>
		<path class="st1" d="M3793,996.1c7.9,3.2,15.1,4.9,15.1,14.9c0,10.2-8,13-14.5,13c-6.8,0-12-3.5-14-7v4.6c0,1.2-0.7,1.8-1.6,1.8
			s-1.6-0.6-1.6-1.8v-15c0-1,0.5-1.9,1.6-1.9s1.5,0.8,1.6,1.9l0.4,3c1,6.5,7.6,11.3,13.4,11.3c4.4,0,9.9-2.2,9.9-8.3
			c0-5.7-7.4-8.3-13.6-10.6c-7.5-2.7-13.1-5.6-13.1-13.5c0-6.9,5.5-11.9,13.1-11.9c5.1,0,10.3,2.1,13.8,6.5l0.4-5
			c0.1-1.2,0.8-1.9,1.7-1.9c1,0,1.6,0.7,1.6,1.9v12.6c0,1.2-0.5,1.8-1.5,1.8c-1.1,0-1.3-1-1.7-1.9c-2.3-5.4-8.3-10.8-14.2-10.8
			c-5.1,0-7.5,2.4-7.5,6.8C3782.3,992,3787.8,994,3793,996.1z"/>
		<path class="st1" d="M3829.4,979.8c-6.2,0-6.2,3.8-6.8,10.3l-0.3,3c-0.1,1.1-0.4,1.9-1.6,1.9s-1.7-0.8-1.7-1.9l0.4-14.4
			c0-1.1,0.6-2,1.7-2h30.3c1.2,0,1.7,0.9,1.7,2l0.4,14.4c0,1.1-0.6,1.9-1.7,1.9c-1.2,0-1.5-0.8-1.6-1.9l-0.3-3
			c-0.6-6.5-0.6-10.3-6.8-10.3h-3.7v40.4h7.6c1.2,0,1.8,0.7,1.8,1.6c0,0.9-0.6,1.6-1.8,1.6h-21.5c-1.2,0-1.8-0.7-1.8-1.6
			c0-0.9,0.6-1.6,1.8-1.6h7.6v-40.4H3829.4z"/>
		<path class="st1" d="M3387.4,1159.8c4.4,0,8.5,2.6,11,5.2l0.3-3.3c0.1-1.2,0.8-1.9,1.7-1.9c1,0,1.6,0.8,1.6,1.9v14.3
			c0,1.2-0.8,1.9-1.9,1.9c-1.3,0-1.6-0.8-1.9-1.9c-2.4-7.5-5.1-13-11.4-13c-7.2,0-10.5,9.2-10.5,20.2c0,11.1,3.2,20.2,10.5,20.2
			c6.1,0,10.9-6.7,11-15.9h-4.6c-1.2,0-1.9-0.5-1.9-1.6s0.7-1.6,1.9-1.6h13.1c1.2,0,1.9,0.8,1.9,1.6c0,1-0.7,1.6-1.9,1.6h-4
			l0.1,17.2c0,1.1-0.6,2-1.7,2s-1.7-0.9-1.7-2l0.1-4.9c-2.3,3.9-6.7,6.8-12.2,6.8c-9.6,0-17.5-7.2-17.5-23.4
			C3369.2,1167.1,3377.2,1159.8,3387.4,1159.8z"/>
		<path class="st1" d="M3414.2,1183.2c0-14.8,8.6-23.7,18-23.7c9.5,0,18,8.9,18,23.7s-8.5,23.7-18,23.7
			C3422.7,1206.9,3414.2,1198.1,3414.2,1183.2z M3443.2,1183.2c0-11-3.7-20.5-10.9-20.5c-7.2,0-11,9.5-11,20.5
			c0,11.1,3.7,20.5,11,20.5C3439.4,1203.7,3443.2,1194.3,3443.2,1183.2z"/>
		<path class="st1" d="M3476.2,1159.8c6.6,0,12.8,3.4,12.8,9.7c0,6.6-4.4,8.3-8.9,12.4c-2.3,2.1-2.4,3.8-2.4,9v1.2
			c0,1.2-0.7,1.8-1.6,1.8s-1.6-0.6-1.6-1.7v-5.1c0-3.5,1.3-4.7,4-7.6c3.3-3.6,4-6.2,4-9.9c0-4-2.6-6.5-7-6.5c-4.7,0-6.3,2.4-6.3,2.4
			c-0.1-0.4,0.9,3.5,1.2,4.7s-0.3,3.8-2.8,4.4c-2.3,0.5-4.7-0.1-5.6-3.3C3461,1166.7,3466.3,1159.8,3476.2,1159.8z M3476.1,1199.1
			c-2.2,0-4,1.6-4,3.8c0,2.2,1.8,3.8,4,3.8s4-1.6,4-3.8C3480.1,1200.7,3478.3,1199.1,3476.1,1199.1z"/>
		<path class="st1" d="M3524.6,1173.8l5,16.5l5.2-27.3h-1.3c-1,0-1.7-0.7-1.7-1.6c0-0.9,0.8-1.6,1.7-1.6h6.5c1,0,1.7,0.7,1.7,1.6
			c0,0.9-0.8,1.6-1.7,1.6h-1.9l-8.3,43.2c-0.1,0.4-0.6,0.8-1.1,0.8c-0.7,0-1.1-0.4-1.2-0.8l-5.3-18.8l-4.7,18.8
			c-0.1,0.4-0.4,0.8-1.2,0.8c-0.5,0-1-0.4-1.1-0.8l-9.5-43.2h-1.9c-1,0-1.7-0.7-1.7-1.6c0-0.9,0.8-1.6,1.7-1.6h9.6
			c1,0,1.7,0.7,1.7,1.6c0,0.9-0.8,1.6-1.7,1.6h-1.3l6,27.3l4.1-16.5c0.1-0.4,0.6-0.8,1.1-0.8
			C3524.2,1173,3524.5,1173.4,3524.6,1173.8z"/>
		<path class="st1" d="M3574.1,1203.4c6.2-0.1,7.1-5.7,7.4-8.3l0.3-3.6c0.1-1.2,0.5-1.9,1.7-1.9s1.7,0.8,1.7,1.9l-1,13.1
			c-0.1,1.1-0.6,2-1.7,2h-32.5c-1.2,0-1.9-0.6-1.9-1.6s0.7-1.6,1.9-1.6h5.6v-39.8l-5.6-0.5c-1.2-0.1-1.9-0.8-1.9-1.7
			c0-1,0.8-1.6,1.9-1.6h32.5c1.2,0,1.7,0.9,1.7,2l1,13.1c0.1,1.2-0.5,1.9-1.7,1.9s-1.6-0.8-1.7-1.9l-0.3-3.6
			c-0.4-2.6-1.2-8.3-7.4-8.3h-12.2v17.7h5.3c3.4,0,4.2-1.2,4.7-3.7l0.3-1.9c0.2-1.1,0.5-1.9,1.6-1.9c1.1,0,1.6,0.8,1.6,1.9v15
			c0,1.1-0.5,1.9-1.6,1.9c-1.1,0-1.4-0.8-1.6-1.9l-0.3-1.9c-0.4-2.5-1.3-4.4-4.7-4.4h-5.3v19.5H3574.1z"/>
		<path class="st1" d="M3613.4,1179.3c7.9,3.2,15.1,4.9,15.1,14.9c0,10.2-8,13-14.5,13c-6.8,0-12-3.5-14-7v4.6
			c0,1.2-0.7,1.8-1.6,1.8s-1.6-0.6-1.6-1.8v-15c0-1,0.5-1.9,1.6-1.9s1.5,0.8,1.6,1.9l0.4,3c1,6.5,7.6,11.3,13.4,11.3
			c4.4,0,9.9-2.2,9.9-8.3c0-5.7-7.4-8.3-13.6-10.6c-7.5-2.7-13.1-5.6-13.1-13.5c0-6.9,5.5-11.9,13.1-11.9c5.1,0,10.3,2.1,13.8,6.5
			l0.4-5c0.1-1.2,0.8-1.9,1.7-1.9c1,0,1.6,0.7,1.6,1.9v12.6c0,1.2-0.5,1.8-1.5,1.8c-1.1,0-1.3-1-1.7-1.9
			c-2.3-5.4-8.3-10.8-14.2-10.8c-5.1,0-7.5,2.4-7.5,6.8C3602.8,1175.3,3608.2,1177.2,3613.4,1179.3z"/>
		<path class="st1" d="M3649.8,1163c-6.2,0-6.2,3.8-6.8,10.3l-0.3,3c-0.1,1.1-0.4,1.9-1.6,1.9s-1.7-0.8-1.7-1.9l0.4-14.4
			c0-1.1,0.6-2,1.7-2h30.3c1.2,0,1.7,0.9,1.7,2l0.4,14.4c0,1.1-0.6,1.9-1.7,1.9c-1.2,0-1.5-0.8-1.6-1.9l-0.3-3
			c-0.6-6.5-0.6-10.3-6.8-10.3h-3.7v40.4h7.6c1.2,0,1.8,0.7,1.8,1.6c0,0.9-0.6,1.6-1.8,1.6h-21.5c-1.2,0-1.8-0.7-1.8-1.6
			c0-0.9,0.6-1.6,1.8-1.6h7.6V1163H3649.8z"/>
		<path class="st1" d="M3185.4,1343c4.4,0,8.5,2.6,11,5.2l0.3-3.3c0.1-1.2,0.8-1.9,1.7-1.9c1,0,1.6,0.8,1.6,1.9v14.3
			c0,1.2-0.8,1.9-1.9,1.9c-1.3,0-1.6-0.8-1.9-1.9c-2.4-7.5-5.1-13-11.4-13c-7.2,0-10.5,9.2-10.5,20.2c0,11.1,3.2,20.2,10.5,20.2
			c6.1,0,10.9-6.7,11-15.9h-4.6c-1.2,0-1.9-0.5-1.9-1.6s0.7-1.6,1.9-1.6h13.1c1.2,0,1.9,0.8,1.9,1.6c0,1-0.7,1.6-1.9,1.6h-4
			l0.1,17.2c0,1.1-0.6,2-1.7,2s-1.7-0.9-1.7-2l0.1-4.9c-2.3,3.9-6.7,6.8-12.2,6.8c-9.6,0-17.5-7.2-17.5-23.4
			C3167.2,1350.3,3175.2,1343,3185.4,1343z"/>
		<path class="st1" d="M3212.2,1366.4c0-14.8,8.6-23.7,18-23.7c9.5,0,18,8.9,18,23.7s-8.5,23.7-18,23.7
			C3220.7,1390.2,3212.2,1381.3,3212.2,1366.4z M3241.2,1366.4c0-11-3.7-20.5-10.9-20.5c-7.2,0-11,9.5-11,20.5
			c0,11.1,3.7,20.5,11,20.5C3237.4,1387,3241.2,1377.5,3241.2,1366.4z"/>
		<path class="st1" d="M3322.4,1390.5l3.1,4.4c1.3,1.5,1.2,2.4,0.5,3.1c-1,1-2.2,0.4-4.7-2c-6.5-6.3-13.5-15.4-13.5-29.6
			c0-14.3,6.8-23,13.5-29.6c1.9-1.9,3.5-3.2,4.7-2c0.6,0.6,0.7,1.7-0.5,3.1l-3.1,4.4c-4.4,6.2-8.1,13.8-8.1,24
			C3314.2,1376.7,3318.1,1384.4,3322.4,1390.5z"/>
		<path class="st1" d="M3358.1,1346.2c-6.2,0-6.2,3.8-6.8,10.3l-0.3,3c-0.1,1.1-0.4,1.9-1.6,1.9s-1.7-0.8-1.7-1.9l0.4-14.4
			c0-1.1,0.6-2,1.7-2h30.3c1.2,0,1.7,0.9,1.7,2l0.4,14.4c0,1.1-0.6,1.9-1.7,1.9c-1.2,0-1.5-0.8-1.6-1.9l-0.3-3
			c-0.6-6.5-0.6-10.3-6.8-10.3h-3.7v40.4h7.6c1.2,0,1.8,0.7,1.8,1.6c0,0.9-0.6,1.6-1.8,1.6h-21.5c-1.2,0-1.8-0.7-1.8-1.6
			c0-0.9,0.6-1.6,1.8-1.6h7.6v-40.4H3358.1z"/>
		<path class="st1" d="M3412.4,1345l13.2,41.6h3.2c1.2,0,1.9,0.6,1.9,1.6s-0.7,1.6-1.9,1.6h-14.4c-1.2,0-1.9-0.6-1.9-1.6
			s0.7-1.6,1.9-1.6h4.3l-2.9-9.9h-14.4l-2.8,9.9h3.7c1.2,0,1.9,0.6,1.9,1.6s-0.7,1.6-1.9,1.6h-11.7c-1.2,0-1.9-0.6-1.9-1.6
			s0.7-1.6,1.9-1.6h3.8l12.7-41.6c0.4-1.2,1.2-2,2.6-2C3411.4,1343,3412.1,1343.7,3412.4,1345z M3414.9,1373.5l-6.2-20.8l-6.3,20.8
			H3414.9z"/>
		<path class="st1" d="M3436.4,1389.8c-1.1,0-1.8-0.6-1.8-1.6s0.7-1.6,1.8-1.6h4v-40.4h-3.9c-1.2,0-1.9-0.6-1.9-1.6s0.7-1.6,1.9-1.6
			h13.7c1.2,0,1.9,0.6,1.9,1.6s-0.7,1.6-1.9,1.6h-3.3v20l15.7-20h-4.8c-1.1,0-1.8-0.6-1.8-1.6s0.7-1.6,1.8-1.6h13.8
			c1.1,0,1.8,0.6,1.8,1.6s-0.7,1.6-1.8,1.6h-3.8l-13.4,17l14.9,23.4h3.6c1.2,0,1.9,0.6,1.9,1.6s-0.7,1.6-1.9,1.6h-14.4
			c-1.1,0-1.8-0.6-1.8-1.6s0.7-1.6,1.8-1.6h3.2l-11.6-18.1l-3.2,4.1v14h3.4c1.1,0,1.8,0.6,1.8,1.6s-0.7,1.6-1.8,1.6H3436.4z"/>
		<path class="st1" d="M3506.8,1386.6c6.2-0.1,7.1-5.7,7.4-8.3l0.3-3.6c0.1-1.2,0.5-1.9,1.7-1.9s1.7,0.8,1.7,1.9l-1,13.1
			c-0.1,1.1-0.6,2-1.7,2h-32.5c-1.2,0-1.9-0.6-1.9-1.6s0.7-1.6,1.9-1.6h5.6v-39.8l-5.6-0.5c-1.2-0.1-1.9-0.8-1.9-1.7
			c0-1,0.8-1.6,1.9-1.6h32.5c1.2,0,1.7,0.9,1.7,2l1,13.1c0.1,1.2-0.5,1.9-1.7,1.9s-1.6-0.8-1.7-1.9l-0.3-3.6
			c-0.4-2.6-1.2-8.3-7.4-8.3h-12.2v17.7h5.3c3.4,0,4.2-1.2,4.7-3.7l0.3-1.9c0.2-1.1,0.5-1.9,1.6-1.9c1.1,0,1.6,0.8,1.6,1.9v15
			c0,1.1-0.5,1.9-1.6,1.9c-1.1,0-1.4-0.8-1.6-1.9l-0.3-1.9c-0.4-2.5-1.3-4.4-4.7-4.4h-5.3v19.5H3506.8z"/>
		<path class="st1" d="M3592,1345l13.2,41.6h3.2c1.2,0,1.9,0.6,1.9,1.6s-0.7,1.6-1.9,1.6H3594c-1.2,0-1.9-0.6-1.9-1.6
			s0.7-1.6,1.9-1.6h4.3l-2.9-9.9H3581l-2.8,9.9h3.7c1.2,0,1.9,0.6,1.9,1.6s-0.7,1.6-1.9,1.6h-11.7c-1.2,0-1.9-0.6-1.9-1.6
			s0.7-1.6,1.9-1.6h3.8l12.7-41.6c0.4-1.2,1.2-2,2.6-2C3590.9,1343,3591.6,1343.7,3592,1345z M3594.5,1373.5l-6.2-20.8l-6.3,20.8
			H3594.5z"/>
		<path class="st1" d="M3631.8,1342.4l-3.1-4.4c-1.2-1.4-1.2-2.4-0.5-3.1c1.2-1.2,2.8,0.1,4.7,2c6.7,6.5,13.5,15.3,13.5,29.6
			c0,14.2-7,23.2-13.5,29.6c-2.6,2.4-3.7,3-4.7,2c-0.6-0.6-0.8-1.6,0.5-3.1l3.1-4.4c4.3-6.1,8.2-13.8,8.1-24
			C3639.8,1356.2,3636.1,1348.5,3631.8,1342.4z"/>
		<path class="st1" d="M3726.6,1357l5,16.5l5.2-27.3h-1.3c-1,0-1.7-0.7-1.7-1.6c0-0.9,0.8-1.6,1.7-1.6h6.5c1,0,1.7,0.7,1.7,1.6
			c0,0.9-0.8,1.6-1.7,1.6h-1.9l-8.3,43.2c-0.1,0.4-0.6,0.8-1.1,0.8c-0.7,0-1.1-0.4-1.2-0.8l-5.3-18.8l-4.7,18.8
			c-0.1,0.4-0.4,0.8-1.2,0.8c-0.5,0-1-0.4-1.1-0.8l-9.5-43.2h-1.9c-1,0-1.7-0.7-1.7-1.6c0-0.9,0.8-1.6,1.7-1.6h9.6
			c1,0,1.7,0.7,1.7,1.6c0,0.9-0.8,1.6-1.7,1.6h-1.3l6,27.3l4.1-16.5c0.1-0.4,0.6-0.8,1.1-0.8
			C3726.1,1356.2,3726.5,1356.6,3726.6,1357z"/>
		<path class="st1" d="M3771.5,1345l13.2,41.6h3.2c1.2,0,1.9,0.6,1.9,1.6s-0.7,1.6-1.9,1.6h-14.4c-1.2,0-1.9-0.6-1.9-1.6
			s0.7-1.6,1.9-1.6h4.3l-2.9-9.9h-14.4l-2.8,9.9h3.7c1.2,0,1.9,0.6,1.9,1.6s-0.7,1.6-1.9,1.6h-11.7c-1.2,0-1.9-0.6-1.9-1.6
			s0.7-1.6,1.9-1.6h3.8l12.7-41.6c0.4-1.2,1.2-2,2.6-2C3770.5,1343,3771.2,1343.7,3771.5,1345z M3774,1373.5l-6.2-20.8l-6.3,20.8
			H3774z"/>
		<path class="st1" d="M3797.3,1386.6h4.9v-40.4h-4.9c-1.2,0-1.9-0.6-1.9-1.6s0.7-1.6,1.9-1.6h16.2c1.2,0,1.9,0.6,1.9,1.6
			s-0.7,1.6-1.9,1.6h-4.9v40.4h13c6.2,0,7.1-5.7,7.4-8.3l0.3-3c0.1-1.1,0.6-1.9,1.7-1.9c1.1,0,1.7,0.8,1.6,1.9l-1,12.5
			c-0.1,1.1-0.6,2-2.4,2h-31.9c-1.2,0-1.9-0.6-1.9-1.6S3796.2,1386.6,3797.3,1386.6z"/>
		<path class="st1" d="M3840.4,1389.8c-1.1,0-1.8-0.6-1.8-1.6s0.7-1.6,1.8-1.6h4v-40.4h-3.9c-1.2,0-1.9-0.6-1.9-1.6s0.7-1.6,1.9-1.6
			h13.7c1.2,0,1.9,0.6,1.9,1.6s-0.7,1.6-1.9,1.6h-3.3v20l15.7-20h-4.8c-1.1,0-1.8-0.6-1.8-1.6s0.7-1.6,1.8-1.6h13.8
			c1.1,0,1.8,0.6,1.8,1.6s-0.7,1.6-1.8,1.6h-3.8l-13.4,17l14.9,23.4h3.6c1.2,0,1.9,0.6,1.9,1.6s-0.7,1.6-1.9,1.6h-14.4
			c-1.1,0-1.8-0.6-1.8-1.6s0.7-1.6,1.8-1.6h3.2l-11.6-18.1l-3.2,4.1v14h3.4c1.1,0,1.8,0.6,1.8,1.6s-0.7,1.6-1.8,1.6H3840.4z"/>
		<path class="st1" d="M3030.8,1540.2l5,16.5l5.2-27.3h-1.3c-1,0-1.7-0.7-1.7-1.6c0-0.9,0.8-1.6,1.7-1.6h6.5c1,0,1.7,0.7,1.7,1.6
			c0,0.9-0.8,1.6-1.7,1.6h-1.9l-8.3,43.2c-0.1,0.4-0.6,0.8-1.1,0.8c-0.7,0-1.1-0.4-1.2-0.8l-5.3-18.8l-4.7,18.8
			c-0.1,0.4-0.4,0.8-1.2,0.8c-0.5,0-1-0.4-1.1-0.8l-9.5-43.2h-1.9c-1,0-1.7-0.7-1.7-1.6c0-0.9,0.8-1.6,1.7-1.6h9.6
			c1,0,1.7,0.7,1.7,1.6c0,0.9-0.8,1.6-1.7,1.6h-1.3l6,27.3l4.1-16.5c0.1-0.4,0.6-0.8,1.1-0.8
			C3030.4,1539.4,3030.8,1539.8,3030.8,1540.2z"/>
		<path class="st1" d="M3075.8,1528.2l13.2,41.6h3.2c1.2,0,1.9,0.6,1.9,1.6s-0.7,1.6-1.9,1.6h-14.4c-1.2,0-1.9-0.6-1.9-1.6
			s0.7-1.6,1.9-1.6h4.3l-2.9-9.9h-14.4l-2.8,9.9h3.7c1.2,0,1.9,0.6,1.9,1.6s-0.7,1.6-1.9,1.6H3054c-1.2,0-1.9-0.6-1.9-1.6
			s0.7-1.6,1.9-1.6h3.8l12.7-41.6c0.4-1.2,1.2-2,2.6-2C3074.7,1526.2,3075.4,1526.9,3075.8,1528.2z M3078.3,1556.7l-6.2-20.8
			l-6.3,20.8H3078.3z"/>
		<path class="st1" d="M3101.6,1569.8h4.9v-40.4h-4.9c-1.2,0-1.9-0.6-1.9-1.6s0.7-1.6,1.9-1.6h16.2c1.2,0,1.9,0.6,1.9,1.6
			s-0.7,1.6-1.9,1.6h-4.9v40.4h13c6.2,0,7.1-5.7,7.4-8.3l0.3-3c0.1-1.1,0.6-1.9,1.7-1.9c1.1,0,1.7,0.8,1.6,1.9l-1,12.5
			c-0.1,1.1-0.6,2-2.4,2h-31.9c-1.2,0-1.9-0.6-1.9-1.6S3100.4,1569.8,3101.6,1569.8z"/>
		<path class="st1" d="M3144.6,1573.1c-1.1,0-1.8-0.6-1.8-1.6s0.7-1.6,1.8-1.6h4v-40.4h-3.9c-1.2,0-1.9-0.6-1.9-1.6s0.7-1.6,1.9-1.6
			h13.7c1.2,0,1.9,0.6,1.9,1.6s-0.7,1.6-1.9,1.6h-3.3v20l15.7-20h-4.8c-1.1,0-1.8-0.6-1.8-1.6s0.7-1.6,1.8-1.6h13.8
			c1.1,0,1.8,0.6,1.8,1.6s-0.7,1.6-1.8,1.6h-3.8l-13.4,17l14.9,23.4h3.6c1.2,0,1.9,0.6,1.9,1.6s-0.7,1.6-1.9,1.6h-14.4
			c-1.1,0-1.8-0.6-1.8-1.6s0.7-1.6,1.8-1.6h3.2l-11.6-18.1l-3.2,4.1v14h3.4c1.1,0,1.8,0.6,1.8,1.6s-0.7,1.6-1.8,1.6H3144.6z"/>
		<path class="st1" d="M3255.3,1528.2l13.2,41.6h3.2c1.2,0,1.9,0.6,1.9,1.6s-0.7,1.6-1.9,1.6h-14.4c-1.2,0-1.9-0.6-1.9-1.6
			s0.7-1.6,1.9-1.6h4.3l-2.9-9.9h-14.4l-2.8,9.9h3.7c1.2,0,1.9,0.6,1.9,1.6s-0.7,1.6-1.9,1.6h-11.7c-1.2,0-1.9-0.6-1.9-1.6
			s0.7-1.6,1.9-1.6h3.8l12.7-41.6c0.4-1.2,1.2-2,2.6-2C3254.2,1526.2,3255,1526.9,3255.3,1528.2z M3257.8,1556.7l-6.2-20.8
			l-6.3,20.8H3257.8z"/>
		<path class="st1" d="M3300.2,1540.2l5,16.5l5.2-27.3h-1.3c-1,0-1.7-0.7-1.7-1.6c0-0.9,0.8-1.6,1.7-1.6h6.5c1,0,1.7,0.7,1.7,1.6
			c0,0.9-0.8,1.6-1.7,1.6h-1.9l-8.3,43.2c-0.1,0.4-0.6,0.8-1.1,0.8c-0.7,0-1.1-0.4-1.2-0.8l-5.3-18.8l-4.7,18.8
			c-0.1,0.4-0.4,0.8-1.2,0.8c-0.5,0-1-0.4-1.1-0.8l-9.5-43.2h-1.9c-1,0-1.7-0.7-1.7-1.6c0-0.9,0.8-1.6,1.7-1.6h9.6
			c1,0,1.7,0.7,1.7,1.6c0,0.9-0.8,1.6-1.7,1.6h-1.3l6,27.3l4.1-16.5c0.1-0.4,0.6-0.8,1.1-0.8
			C3299.7,1539.4,3300.1,1539.8,3300.2,1540.2z"/>
		<path class="st1" d="M3345.1,1528.2l13.2,41.6h3.2c1.2,0,1.9,0.6,1.9,1.6s-0.7,1.6-1.9,1.6h-14.4c-1.2,0-1.9-0.6-1.9-1.6
			s0.7-1.6,1.9-1.6h4.3l-2.9-9.9h-14.4l-2.8,9.9h3.7c1.2,0,1.9,0.6,1.9,1.6s-0.7,1.6-1.9,1.6h-11.7c-1.2,0-1.9-0.6-1.9-1.6
			s0.7-1.6,1.9-1.6h3.8l12.7-41.6c0.4-1.2,1.2-2,2.6-2C3344,1526.2,3344.7,1526.9,3345.1,1528.2z M3347.6,1556.7l-6.2-20.8
			l-6.3,20.8H3347.6z"/>
		<path class="st1" d="M3369.5,1526.2h14.4c1,0,1.7,0.6,1.7,1.6s-0.7,1.6-1.7,1.6h-2.4l7.1,17.3l8.1-17.3h-4.5c-1,0-1.7-0.6-1.7-1.6
			s0.7-1.6,1.7-1.6h13.4c1.2,0,1.8,0.7,1.8,1.6c0,1-0.6,1.6-1.8,1.6h-4.4l-10.9,22.3v18.1h7.6c1,0,1.7,0.6,1.7,1.6s-0.7,1.6-1.7,1.6
			h-22.3c-1.1,0-1.7-0.6-1.7-1.6s0.6-1.6,1.7-1.6h7.6v-18.3l-9.7-22.1h-4c-1,0-1.7-0.6-1.7-1.6S3368.5,1526.2,3369.5,1526.2z"/>
		<path class="st1" d="M3433.9,1545.7c7.9,3.2,15.1,4.9,15.1,14.9c0,10.2-8,13-14.5,13c-6.8,0-12-3.5-14-7v4.6
			c0,1.2-0.7,1.8-1.6,1.8s-1.6-0.6-1.6-1.8v-15c0-1,0.5-1.9,1.6-1.9c1.1,0,1.5,0.8,1.6,1.9l0.4,3c1,6.5,7.6,11.3,13.4,11.3
			c4.4,0,9.9-2.2,9.9-8.3c0-5.7-7.4-8.3-13.6-10.6c-7.5-2.7-13.1-5.6-13.1-13.5c0-6.9,5.5-11.9,13.1-11.9c5.1,0,10.3,2.1,13.8,6.5
			l0.4-5c0.1-1.2,0.8-1.9,1.7-1.9c1,0,1.6,0.7,1.6,1.9v12.6c0,1.2-0.5,1.8-1.5,1.8c-1.1,0-1.3-1-1.7-1.9
			c-2.3-5.4-8.3-10.8-14.2-10.8c-5.1,0-7.5,2.4-7.5,6.8C3423.2,1541.7,3428.7,1543.6,3433.9,1545.7z"/>
		<path class="st1" d="M3524.6,1540.2l5,16.5l5.2-27.3h-1.3c-1,0-1.7-0.7-1.7-1.6c0-0.9,0.8-1.6,1.7-1.6h6.5c1,0,1.7,0.7,1.7,1.6
			c0,0.9-0.8,1.6-1.7,1.6h-1.9l-8.3,43.2c-0.1,0.4-0.6,0.8-1.1,0.8c-0.7,0-1.1-0.4-1.2-0.8l-5.3-18.8l-4.7,18.8
			c-0.1,0.4-0.4,0.8-1.2,0.8c-0.5,0-1-0.4-1.1-0.8l-9.5-43.2h-1.9c-1,0-1.7-0.7-1.7-1.6c0-0.9,0.8-1.6,1.7-1.6h9.6
			c1,0,1.7,0.7,1.7,1.6c0,0.9-0.8,1.6-1.7,1.6h-1.3l6,27.3l4.1-16.5c0.1-0.4,0.6-0.8,1.1-0.8
			C3524.2,1539.4,3524.5,1539.8,3524.6,1540.2z"/>
		<path class="st1" d="M3583.6,1517.8c1.4,0.6,1,1.9,0.4,3.1l-27.8,59.2c-0.6,1.4-1.5,2.2-2.6,1.8c-1.4-0.6-1-1.9-0.4-3.1l27.8-59.2
			C3581.6,1518.2,3582.4,1517.4,3583.6,1517.8z"/>
		<path class="st1" d="M3604.9,1529.4c-6.2,0-6.2,3.8-6.8,10.3l-0.3,3c-0.1,1.1-0.4,1.9-1.6,1.9s-1.7-0.8-1.7-1.9l0.4-14.4
			c0-1.1,0.6-2,1.7-2h30.3c1.2,0,1.7,0.9,1.7,2l0.4,14.4c0,1.1-0.6,1.9-1.7,1.9c-1.2,0-1.5-0.8-1.6-1.9l-0.3-3
			c-0.6-6.5-0.6-10.3-6.8-10.3h-3.7v40.4h7.6c1.2,0,1.8,0.7,1.8,1.6c0,0.9-0.6,1.6-1.8,1.6H3601c-1.2,0-1.8-0.7-1.8-1.6
			c0-0.9,0.6-1.6,1.8-1.6h7.6v-40.4H3604.9z"/>
		<path class="st1" d="M3659.3,1528.2l13.2,41.6h3.2c1.2,0,1.9,0.6,1.9,1.6s-0.7,1.6-1.9,1.6h-14.4c-1.2,0-1.9-0.6-1.9-1.6
			s0.7-1.6,1.9-1.6h4.3l-2.9-9.9h-14.4l-2.8,9.9h3.7c1.2,0,1.9,0.6,1.9,1.6s-0.7,1.6-1.9,1.6h-11.7c-1.2,0-1.9-0.6-1.9-1.6
			s0.7-1.6,1.9-1.6h3.8l12.7-41.6c0.4-1.2,1.2-2,2.6-2C3658.2,1526.2,3658.9,1526.9,3659.3,1528.2z M3661.8,1556.7l-6.2-20.8
			l-6.3,20.8H3661.8z"/>
		<path class="st1" d="M3683.2,1573.1c-1.1,0-1.8-0.6-1.8-1.6s0.7-1.6,1.8-1.6h4v-40.4h-3.9c-1.2,0-1.9-0.6-1.9-1.6s0.7-1.6,1.9-1.6
			h13.7c1.2,0,1.9,0.6,1.9,1.6s-0.7,1.6-1.9,1.6h-3.3v20l15.7-20h-4.8c-1.1,0-1.8-0.6-1.8-1.6s0.7-1.6,1.8-1.6h13.8
			c1.1,0,1.8,0.6,1.8,1.6s-0.7,1.6-1.8,1.6h-3.8l-13.4,17l14.9,23.4h3.6c1.2,0,1.9,0.6,1.9,1.6s-0.7,1.6-1.9,1.6h-14.4
			c-1.1,0-1.8-0.6-1.8-1.6s0.7-1.6,1.8-1.6h3.2l-11.6-18.1l-3.2,4.1v14h3.4c1.1,0,1.8,0.6,1.8,1.6s-0.7,1.6-1.8,1.6H3683.2z"/>
		<path class="st1" d="M3753.7,1569.8c6.2-0.1,7.1-5.7,7.4-8.3l0.3-3.6c0.1-1.2,0.5-1.9,1.7-1.9s1.7,0.8,1.7,1.9l-1,13.1
			c-0.1,1.1-0.6,2-1.7,2h-32.5c-1.2,0-1.9-0.6-1.9-1.6s0.7-1.6,1.9-1.6h5.6V1530l-5.6-0.5c-1.2-0.1-1.9-0.8-1.9-1.7
			c0-1,0.8-1.6,1.9-1.6h32.5c1.2,0,1.7,0.9,1.7,2l1,13.1c0.1,1.2-0.5,1.9-1.7,1.9s-1.6-0.8-1.7-1.9l-0.3-3.6
			c-0.4-2.6-1.2-8.3-7.4-8.3h-12.2v17.7h5.3c3.4,0,4.2-1.2,4.7-3.7l0.3-1.9c0.2-1.1,0.5-1.9,1.6-1.9c1.1,0,1.6,0.8,1.6,1.9v15
			c0,1.1-0.5,1.9-1.6,1.9c-1.1,0-1.4-0.8-1.6-1.9l-0.3-1.9c-0.4-2.5-1.3-4.4-4.7-4.4h-5.3v19.5H3753.7z"/>
		<path class="st1" d="M3838.9,1528.2l13.2,41.6h3.2c1.2,0,1.9,0.6,1.9,1.6s-0.7,1.6-1.9,1.6h-14.4c-1.2,0-1.9-0.6-1.9-1.6
			s0.7-1.6,1.9-1.6h4.3l-2.9-9.9h-14.4l-2.8,9.9h3.7c1.2,0,1.9,0.6,1.9,1.6s-0.7,1.6-1.9,1.6h-11.7c-1.2,0-1.9-0.6-1.9-1.6
			s0.7-1.6,1.9-1.6h3.8l12.7-41.6c0.4-1.2,1.2-2,2.6-2C3837.8,1526.2,3838.5,1526.9,3838.9,1528.2z M3841.4,1556.7l-6.2-20.8
			l-6.3,20.8H3841.4z"/>
		<path class="st1" d="M3883.7,1540.2l5,16.5l5.2-27.3h-1.3c-1,0-1.7-0.7-1.7-1.6c0-0.9,0.8-1.6,1.7-1.6h6.5c1,0,1.7,0.7,1.7,1.6
			c0,0.9-0.8,1.6-1.7,1.6h-1.9l-8.3,43.2c-0.1,0.4-0.6,0.8-1.1,0.8c-0.7,0-1.1-0.4-1.2-0.8l-5.3-18.8l-4.7,18.8
			c-0.1,0.4-0.4,0.8-1.2,0.8c-0.5,0-1-0.4-1.1-0.8l-9.5-43.2h-1.9c-1,0-1.7-0.7-1.7-1.6c0-0.9,0.8-1.6,1.7-1.6h9.6
			c1,0,1.7,0.7,1.7,1.6c0,0.9-0.8,1.6-1.7,1.6h-1.3l6,27.3l4.1-16.5c0.1-0.4,0.6-0.8,1.1-0.8
			C3883.3,1539.4,3883.6,1539.8,3883.7,1540.2z"/>
		<path class="st1" d="M3928.7,1528.2l13.2,41.6h3.2c1.2,0,1.9,0.6,1.9,1.6s-0.7,1.6-1.9,1.6h-14.4c-1.2,0-1.9-0.6-1.9-1.6
			s0.7-1.6,1.9-1.6h4.3l-2.9-9.9h-14.4l-2.8,9.9h3.7c1.2,0,1.9,0.6,1.9,1.6s-0.7,1.6-1.9,1.6h-11.7c-1.2,0-1.9-0.6-1.9-1.6
			s0.7-1.6,1.9-1.6h3.8l12.7-41.6c0.4-1.2,1.2-2,2.6-2C3927.6,1526.2,3928.3,1526.9,3928.7,1528.2z M3931.2,1556.7l-6.2-20.8
			l-6.3,20.8H3931.2z"/>
		<path class="st1" d="M3953,1526.2h14.4c1,0,1.7,0.6,1.7,1.6s-0.7,1.6-1.7,1.6h-2.4l7.1,17.3l8.1-17.3h-4.5c-1,0-1.7-0.6-1.7-1.6
			s0.7-1.6,1.7-1.6h13.4c1.2,0,1.8,0.7,1.8,1.6c0,1-0.6,1.6-1.8,1.6h-4.4l-10.9,22.3v18.1h7.6c1,0,1.7,0.6,1.7,1.6s-0.7,1.6-1.7,1.6
			h-22.3c-1.1,0-1.7-0.6-1.7-1.6s0.6-1.6,1.7-1.6h7.6v-18.3l-9.7-22.1h-4c-1,0-1.7-0.6-1.7-1.6S3952.1,1526.2,3953,1526.2z"/>
		<path class="st1" d="M4017.4,1545.7c7.9,3.2,15.1,4.9,15.1,14.9c0,10.2-8,13-14.5,13c-6.8,0-12-3.5-14-7v4.6
			c0,1.2-0.7,1.8-1.6,1.8s-1.6-0.6-1.6-1.8v-15c0-1,0.5-1.9,1.6-1.9s1.5,0.8,1.6,1.9l0.4,3c1,6.5,7.6,11.3,13.4,11.3
			c4.4,0,9.9-2.2,9.9-8.3c0-5.7-7.4-8.3-13.6-10.6c-7.5-2.7-13.1-5.6-13.1-13.5c0-6.9,5.5-11.9,13.1-11.9c5.1,0,10.3,2.1,13.8,6.5
			l0.4-5c0.1-1.2,0.8-1.9,1.7-1.9c1,0,1.6,0.7,1.6,1.9v12.6c0,1.2-0.5,1.8-1.5,1.8c-1.1,0-1.3-1-1.7-1.9
			c-2.3-5.4-8.3-10.8-14.2-10.8c-5.1,0-7.5,2.4-7.5,6.8C4006.8,1541.7,4012.2,1543.6,4017.4,1545.7z"/>
	</g>
</g>
<path class="st0" d="M455.4,346.5c6.2-35.3,30.9-50.6,64.1-55.2c55-8,91.6-35.5,108.6-91.2c13.5-44,33-86.3,51.1-128.7
	c4.4-10.3,13.5-19,22-26.6c33-29.8,69.9-23.1,87.7,16.9c11.7,26.6,17.9,55.7,28.9,82.4c8.7,21.3,17.9,43.5,32.3,60.9
	c28.2,34.6,52.9,39.2,94.8,23.8c10.8-4.1,21.3-9.4,31.8-14c9.6-4.4,22.4-8.7,38.2-1.1c64.1,30.5,99.6,8.5,129.9-43.3
	c13.7-23.6,27.3-47.2,43.5-68.9c21.3-28.4,50.6-36,84.1-24c30.2,10.8,43.1,34.6,48.6,65c7.1,39.4,16,78.6,25.7,117.5
	c7.3,30,31.1,47.9,55,63.9c15.1,10.1,32.3,17.6,49.5,24.5c55.4,22,77.2,62.1,62.3,119.1c-2.3,8.7-9.8,16-15.1,23.8
	c-11.2,16-8.2,27.7,7.8,38.9c10.5,7.3,19.2,17.4,28.9,25.9c12.1,10.8,25.2,15.1,42.6,15.8c30.5,1.6,61.6,5.7,90.9,14.4
	c55.9,16.7,62.8,46.9,22.7,90.2c-17.6,19-36.6,36.9-54.7,55.4c-5.3,5.3-11,10.8-14.9,16.9c-21.1,34.4-30.5,60.7,16.5,86.6
	c11.5,6.2,22.2,14,34.1,19c31.8,13.5,44.2,37.1,40.3,70.5c-0.5,3.4-0.2,7.1-1.4,10.1c-33.4,83.4-11.9,166,0.9,249.4
	c14.2,90.7,13.5,182.1,1.4,273c-8.5,64.6-23.1,128.5-28.6,193.3c-2.5,28.6,6.4,60.2,17.4,87.3c16,39.2,40.3,74.7,57.7,113.4
	c10.3,22.7,18.1,47.6,20.4,72.4c3,35-28.9,54.7-61.6,40.5c-25.2-11-50.2-22.4-74-36.2c-58.6-34.1-118.9-35.5-182.5-17.2
	c-37.8,10.8-76.5,19.7-115.4,24.7c-57.3,7.3-109.9-14-161.7-35.5c-37.1-15.6-73.7-31.6-111.3-46c-24.3-9.4-47.2-6-69.9,8.9
	c-8.2,5.5-23.6,6.4-33.2,2.7c-37.1-14.7-74-16.9-111.3-3.2c-54.7,20.2-109,41.9-164.2,61.4c-76.7,27-155.3,41-236.8,28.6
	c-16-2.5-31.6-7.8-46.9-12.6c-37.8-11.5-74.7-8.2-113.1,0.5c-55.7,12.8-107,33.7-154.4,64.8c-16.9,11.2-36,15.1-56.3,13.7
	c-22.9-1.6-38.2-12.4-41-34.6c-3.4-30.2,1.6-58.6,17.6-85.7c39.6-66.2,82.9-130.1,109-203.6c14.7-41.5,14.7-84.1,12.1-126.9
	c-2.1-33-9.2-65.7-11-98.7c-3-49.7-3.2-99.9-4.6-149.6c-2.1-79.9,12.1-157.8,30-235c13.3-57.5,16.9-115.4,15.1-174.1
	c-0.2-8.7-4.8-17.2-8-25.7c-2.5-7.1-6-14.2-9.6-20.8c-35.5-64.8-1.4-83.1,52-91.8c21.3-3.7,44.7-8.9,62.1-20.8
	c34.4-23.1,27.5-85.2-10.1-115.9c-19-15.3-38.7-29.8-56.8-46.3c-8-7.3-15.3-15.8-21.3-25c-23.8-37.1-14.9-64.4,16.5-79.7
	c28.4-14,57.9-19.7,90-13.5c15.3,3,29.8,2.3,43.1-0.9c51.5-12.1,85.9-60.9,82.9-113.6C454.9,352.9,454.7,349.3,455.4,346.5
	L455.4,346.5z"/>
<g>
	<g>
		<path class="st1" d="M716,719.7c0-1.3,1-2.2,2.5-2.2h6.2v-54l-6.2-0.7c-1.6-0.2-2.5-1.1-2.5-2.3c0-1.3,1-2.2,2.5-2.2h26.5
			c10.4,0,19.1,5.5,19.1,15.2c0,9.2-6.1,12.6-8.5,13.6l-2.4,1l2.4,0.6c2.5,0.6,11.5,4.4,11.5,15.3c0,10.4-8.8,17.8-18.6,17.8h-30
			C717,721.9,716,721,716,719.7z M745.9,686.2c3.3,0,9.7-4.2,9.7-12.6c0-8.2-6.2-10.9-9.7-10.9h-12.4v23.5H745.9z M745.9,717.5
			c9.1,0,12.6-6.6,12.6-13.5c0-8.8-5.6-13.5-12.6-13.5h-12.4v27H745.9z"/>
		<path class="st1" d="M777.8,690.1c0-20,11.7-32.2,24.5-32.2c12.9,0,24.4,12,24.4,32.2s-11.5,32.2-24.4,32.2
			C789.3,722.3,777.8,710.3,777.8,690.1z M817.1,690.1c0-15-5-27.9-14.8-27.9c-9.8,0-14.9,12.9-14.9,27.9c0,15.1,5,27.9,14.9,27.9
			C812,718,817.1,705.2,817.1,690.1z"/>
		<path class="st1" d="M838.9,658.4h19.6c1.3,0,2.3,0.9,2.3,2.2s-1,2.2-2.3,2.2h-3.3l9.7,23.5l11-23.5h-6.1c-1.3,0-2.3-0.9-2.3-2.2
			s1-2.2,2.3-2.2h18.2c1.6,0,2.4,1,2.4,2.2c0,1.3-0.9,2.2-2.4,2.2h-6l-14.8,30.2v24.6h10.4c1.4,0,2.4,0.9,2.4,2.2s-1,2.2-2.4,2.2
			h-30.3c-1.5,0-2.4-0.9-2.4-2.2s0.9-2.2,2.4-2.2h10.4v-24.8l-13.2-30h-5.4c-1.3,0-2.3-0.9-2.3-2.2S837.6,658.4,838.9,658.4z"/>
		<path class="st1" d="M988.5,677.3l6.8,22.4l7-37h-1.7c-1.3,0-2.4-1-2.4-2.2c0-1.2,1-2.2,2.4-2.2h8.9c1.3,0,2.4,1,2.4,2.2
			c0,1.2-1,2.2-2.4,2.2h-2.6l-11.3,58.7c-0.1,0.5-0.8,1-1.5,1c-1,0-1.5-0.5-1.6-1l-7.1-25.5l-6.4,25.5c-0.1,0.5-0.6,1-1.6,1
			c-0.7,0-1.4-0.5-1.5-1L963,662.7h-2.6c-1.3,0-2.4-1-2.4-2.2c0-1.2,1-2.2,2.4-2.2h13.1c1.3,0,2.3,1,2.3,2.2c0,1.2-1,2.2-2.3,2.2
			h-1.7l8.2,37l5.6-22.4c0.2-0.5,0.8-1,1.5-1C987.9,676.3,988.4,676.8,988.5,677.3z"/>
		<path class="st1" d="M1055.7,717.5c8.4-0.2,9.6-7.7,10.1-11.3l0.3-4.9c0.1-1.6,0.7-2.6,2.3-2.6c1.6,0,2.4,1,2.3,2.6l-1.4,17.8
			c-0.1,1.5-0.8,2.7-2.4,2.7h-44.1c-1.6,0-2.5-0.9-2.5-2.2s1-2.2,2.5-2.2h7.7v-54l-7.7-0.7c-1.7-0.2-2.5-1.1-2.5-2.3
			c0-1.3,1-2.2,2.5-2.2h44.1c1.6,0,2.3,1.2,2.4,2.7l1.4,17.8c0.1,1.6-0.7,2.6-2.3,2.6c-1.6,0-2.2-1-2.3-2.6l-0.3-4.9
			c-0.5-3.6-1.7-11.3-10.1-11.3h-16.5v24h7.2c4.6,0,5.7-1.7,6.4-5l0.4-2.5c0.3-1.5,0.7-2.5,2.2-2.5s2.2,1,2.2,2.5v20.4
			c0,1.5-0.7,2.5-2.2,2.5s-1.9-1-2.2-2.5l-0.4-2.5c-0.6-3.4-1.7-5.9-6.4-5.9h-7.2v26.5H1055.7z"/>
		<path class="st1" d="M1109.1,684.8c10.7,4.4,20.5,6.6,20.5,20.3c0,13.8-10.9,17.7-19.7,17.7c-9.2,0-16.3-4.8-19-9.5v6.2
			c0,1.6-1,2.4-2.2,2.4c-1.2,0-2.2-0.9-2.2-2.4v-20.4c0-1.4,0.7-2.5,2.2-2.5c1.5,0,2,1.1,2.2,2.5l0.6,4c1.3,8.9,10.3,15.3,18.2,15.3
			c5.9,0,13.5-3,13.5-11.2c0-7.7-10-11.3-18.5-14.4c-10.2-3.7-17.8-7.6-17.8-18.4c0-9.3,7.5-16.1,17.8-16.1c7,0,13.9,2.9,18.7,8.8
			l0.5-6.8c0.1-1.7,1.1-2.5,2.3-2.5c1.3,0,2.2,1,2.2,2.5v17.1c0,1.6-0.7,2.4-2.1,2.4c-1.5,0-1.7-1.3-2.3-2.5
			c-3.1-7.3-11.3-14.7-19.3-14.7c-7,0-10.2,3.2-10.2,9.2C1094.6,679.3,1102,681.9,1109.1,684.8z"/>
		<path class="st1" d="M1158.5,662.7c-8.4,0-8.4,5.1-9.2,13.9l-0.3,4c-0.1,1.5-0.6,2.6-2.2,2.6c-1.6,0-2.4-1.1-2.4-2.6l0.5-19.6
			c0-1.5,0.8-2.7,2.4-2.7h41.1c1.6,0,2.4,1.2,2.4,2.7l0.5,19.6c0,1.5-0.8,2.6-2.4,2.6c-1.6,0-2.1-1.1-2.2-2.6l-0.3-4
			c-0.8-8.8-0.8-13.9-9.2-13.9h-5v54.8h10.3c1.6,0,2.4,1,2.4,2.2c0,1.2-0.9,2.2-2.4,2.2h-29.2c-1.6,0-2.4-1-2.4-2.2
			c0-1.2,0.9-2.2,2.4-2.2h10.3v-54.8H1158.5z"/>
	</g>
</g>
<g>
	<g>
		<path class="st1" d="M1243.1,864.8l0.3-3.3c0.1-1.2,0.8-1.9,1.7-1.9c1,0,1.6,0.8,1.6,1.9v14.3c0,1.2-0.8,1.9-1.9,1.9
			c-1.3,0-1.6-0.8-1.9-1.9c-2.4-7.5-4.4-13-11.4-13c-7.1,0-10.5,9.2-10.5,20.2c0,11.1,3.4,20.2,11.1,20.2c4.4,0,7.7-3.9,10.1-9.7
			l1.3-3.1c0.4-1,1-2.2,2.3-1.9c1.1,0.2,2,1,1.4,3c-2.2,8-6.5,14.9-15.1,14.9c-9.6,0-18.1-7.2-18.1-23.4c0-16.2,8.6-23.4,18.1-23.4
			C1237.1,859.6,1240.6,862.2,1243.1,864.8z"/>
		<path class="st1" d="M1257.8,883c0-14.8,8.6-23.7,18-23.7c9.5,0,18,8.9,18,23.7c0,14.9-8.5,23.7-18,23.7
			C1266.3,906.8,1257.8,897.9,1257.8,883z M1286.8,883c0-11-3.7-20.5-10.9-20.5c-7.2,0-11,9.5-11,20.5c0,11.1,3.7,20.5,11,20.5
			C1283.1,903.6,1286.8,894.1,1286.8,883z"/>
		<path class="st1" d="M1323.3,873.6l5,16.5l5.2-27.3h-1.3c-1,0-1.7-0.7-1.7-1.6c0-0.9,0.8-1.6,1.7-1.6h6.5c1,0,1.7,0.7,1.7,1.6
			c0,0.9-0.8,1.6-1.7,1.6h-1.9l-8.3,43.2c-0.1,0.4-0.6,0.8-1.1,0.8c-0.7,0-1.1-0.4-1.2-0.8l-5.3-18.8l-4.7,18.8
			c-0.1,0.4-0.4,0.8-1.2,0.8c-0.5,0-1-0.4-1.1-0.8l-9.5-43.2h-1.9c-1,0-1.7-0.7-1.7-1.6c0-0.9,0.8-1.6,1.7-1.6h9.6
			c1,0,1.7,0.7,1.7,1.6c0,0.9-0.8,1.6-1.7,1.6h-1.3l6,27.3l4.1-16.5c0.1-0.4,0.6-0.8,1.1-0.8
			C1322.9,872.8,1323.3,873.2,1323.3,873.6z"/>
		<path class="st1" d="M1347,904.8c0-1,0.7-1.6,1.9-1.6h4.6v-39.8l-4.6-0.5c-1.2-0.1-1.9-0.8-1.9-1.7c0-1,0.8-1.6,1.9-1.6h19.6
			c7.7,0,14.1,4,14.1,11.2c0,6.8-4.5,9.3-6.3,10l-1.8,0.7l1.8,0.4c1.9,0.4,8.5,3.3,8.5,11.3c0,7.6-6.5,13.1-13.7,13.1h-22.1
			C1347.7,906.4,1347,905.8,1347,904.8z M1369,880.2c2.4,0,7.1-3.1,7.1-9.3c0-6-4.6-8-7.1-8h-9.2v17.3H1369z M1369,903.2
			c6.7,0,9.3-4.9,9.3-9.9c0-6.5-4.1-9.9-9.3-9.9h-9.2v19.9H1369z"/>
		<path class="st1" d="M1392.5,883c0-14.8,8.6-23.7,18-23.7c9.5,0,18,8.9,18,23.7c0,14.9-8.5,23.7-18,23.7
			C1401,906.8,1392.5,897.9,1392.5,883z M1421.4,883c0-11-3.7-20.5-10.9-20.5c-7.2,0-11,9.5-11,20.5c0,11.1,3.7,20.5,11,20.5
			C1417.7,903.6,1421.4,894.1,1421.4,883z"/>
		<path class="st1" d="M1437.5,859.6h14.4c1,0,1.7,0.6,1.7,1.6c0,1-0.7,1.6-1.7,1.6h-2.4l7.1,17.3l8.1-17.3h-4.5
			c-1,0-1.7-0.6-1.7-1.6c0-1,0.7-1.6,1.7-1.6h13.4c1.2,0,1.8,0.7,1.8,1.6c0,1-0.6,1.6-1.8,1.6h-4.4l-10.9,22.3v18.1h7.6
			c1,0,1.7,0.6,1.7,1.6c0,1-0.7,1.6-1.7,1.6h-22.3c-1.1,0-1.7-0.6-1.7-1.6c0-1,0.6-1.6,1.7-1.6h7.6V885l-9.7-22.1h-4
			c-1,0-1.7-0.6-1.7-1.6C1435.9,860.3,1436.6,859.6,1437.5,859.6z"/>
		<path class="st1" d="M1188.7,950.6l5,16.5l5.2-27.3h-1.3c-1,0-1.7-0.7-1.7-1.6c0-0.9,0.8-1.6,1.7-1.6h6.5c1,0,1.7,0.7,1.7,1.6
			c0,0.9-0.8,1.6-1.7,1.6h-1.9l-8.3,43.2c-0.1,0.4-0.6,0.8-1.1,0.8c-0.7,0-1.1-0.4-1.2-0.8l-5.3-18.8l-4.7,18.8
			c-0.1,0.4-0.4,0.8-1.2,0.8c-0.5,0-1-0.4-1.1-0.8l-9.5-43.2h-1.9c-1,0-1.7-0.7-1.7-1.6c0-0.9,0.8-1.6,1.7-1.6h9.6
			c1,0,1.7,0.7,1.7,1.6c0,0.9-0.8,1.6-1.7,1.6h-1.3l6,27.3l4.1-16.5c0.1-0.4,0.6-0.8,1.1-0.8
			C1188.2,949.8,1188.6,950.2,1188.7,950.6z"/>
		<path class="st1" d="M1243.2,980.2c1.2,0,1.9,0.6,1.9,1.6c0,1-0.7,1.6-1.9,1.6h-24.4c-1.2,0-1.9-0.6-1.9-1.6c0-1,0.7-1.6,1.9-1.6
			h9v-40.4h-9.1c-1.2,0-1.9-0.6-1.9-1.6c0-1,0.7-1.6,1.9-1.6h24.4c1.2,0,1.9,0.6,1.9,1.6c0,1-0.7,1.6-1.9,1.6h-8.9v40.4H1243.2z"/>
		<path class="st1" d="M1259.4,980.2h4.9v-40.4h-4.9c-1.2,0-1.9-0.6-1.9-1.6c0-1,0.7-1.6,1.9-1.6h16.2c1.2,0,1.9,0.6,1.9,1.6
			c0,1-0.7,1.6-1.9,1.6h-4.9v40.4h13c6.2,0,7.1-5.7,7.4-8.3l0.3-3c0.1-1.1,0.6-1.9,1.7-1.9s1.7,0.8,1.6,1.9l-1,12.5
			c-0.1,1.1-0.6,2-2.4,2h-31.9c-1.2,0-1.9-0.6-1.9-1.6C1257.5,980.8,1258.2,980.2,1259.4,980.2z"/>
		<path class="st1" d="M1302.5,936.6h20.4c7.1,0,17.5,6.5,17.5,23.6c0,18.7-10.6,23.2-17.4,23.2h-20.5c-1.2,0-1.9-0.6-1.9-1.6
			c0-1,0.7-1.6,1.9-1.6h5.8v-40.4h-5.8c-1.2,0-1.9-0.6-1.9-1.6C1300.7,937.2,1301.4,936.6,1302.5,936.6z M1314.7,980.2h8.3
			c6.5,0,11-8.7,11-20c0-11-4.2-20.4-11.1-20.4h-8.1L1314.7,980.2z"/>
		<path class="st1" d="M1368.2,950.6l5,16.5l5.2-27.3h-1.3c-1,0-1.7-0.7-1.7-1.6c0-0.9,0.8-1.6,1.7-1.6h6.5c1,0,1.7,0.7,1.7,1.6
			c0,0.9-0.8,1.6-1.7,1.6h-1.9l-8.3,43.2c-0.1,0.4-0.6,0.8-1.1,0.8c-0.7,0-1.1-0.4-1.2-0.8l-5.3-18.8l-4.7,18.8
			c-0.1,0.4-0.4,0.8-1.2,0.8c-0.5,0-1-0.4-1.1-0.8l-9.5-43.2h-1.9c-1,0-1.7-0.7-1.7-1.6c0-0.9,0.8-1.6,1.7-1.6h9.6
			c1,0,1.7,0.7,1.7,1.6c0,0.9-0.8,1.6-1.7,1.6h-1.3l6,27.3l4.1-16.5c0.1-0.4,0.6-0.8,1.1-0.8
			C1367.8,949.8,1368.1,950.2,1368.2,950.6z"/>
		<path class="st1" d="M1417.7,980.2c6.2-0.1,7.1-5.7,7.4-8.3l0.3-3.6c0.1-1.2,0.5-1.9,1.7-1.9c1.2,0,1.7,0.8,1.7,1.9l-1,13.1
			c-0.1,1.1-0.6,2-1.7,2h-32.5c-1.2,0-1.9-0.6-1.9-1.6c0-1,0.7-1.6,1.9-1.6h5.6v-39.8l-5.6-0.5c-1.2-0.1-1.9-0.8-1.9-1.7
			c0-1,0.8-1.6,1.9-1.6h32.5c1.2,0,1.7,0.9,1.7,2l1,13.1c0.1,1.2-0.5,1.9-1.7,1.9c-1.2,0-1.6-0.8-1.7-1.9l-0.3-3.6
			c-0.4-2.6-1.2-8.3-7.4-8.3h-12.2v17.7h5.3c3.4,0,4.2-1.2,4.7-3.7l0.3-1.9c0.2-1.1,0.5-1.9,1.6-1.9s1.6,0.8,1.6,1.9v15
			c0,1.1-0.5,1.9-1.6,1.9s-1.4-0.8-1.6-1.9l-0.3-1.9c-0.4-2.5-1.3-4.4-4.7-4.4h-5.3v19.5H1417.7z"/>
		<path class="st1" d="M1457,956.1c7.9,3.2,15.1,4.9,15.1,14.9c0,10.2-8,13-14.5,13c-6.8,0-12-3.5-14-7v4.6c0,1.2-0.7,1.8-1.6,1.8
			s-1.6-0.6-1.6-1.8v-15c0-1,0.5-1.9,1.6-1.9s1.5,0.8,1.6,1.9l0.4,3c1,6.5,7.6,11.3,13.4,11.3c4.4,0,9.9-2.2,9.9-8.3
			c0-5.7-7.4-8.3-13.6-10.6c-7.5-2.7-13.1-5.6-13.1-13.5c0-6.9,5.5-11.9,13.1-11.9c5.1,0,10.3,2.1,13.8,6.5l0.4-5
			c0.1-1.2,0.8-1.9,1.7-1.9c1,0,1.6,0.7,1.6,1.9v12.6c0,1.2-0.5,1.8-1.5,1.8c-1.1,0-1.3-1-1.7-1.9c-2.3-5.4-8.3-10.8-14.2-10.8
			c-5.1,0-7.5,2.4-7.5,6.8C1446.4,952,1451.8,954,1457,956.1z"/>
		<path class="st1" d="M1493.4,939.8c-6.2,0-6.2,3.8-6.8,10.3l-0.3,3c-0.1,1.1-0.4,1.9-1.6,1.9c-1.2,0-1.7-0.8-1.7-1.9l0.4-14.4
			c0-1.1,0.6-2,1.7-2h30.3c1.2,0,1.7,0.9,1.7,2l0.4,14.4c0,1.1-0.6,1.9-1.7,1.9s-1.5-0.8-1.6-1.9l-0.3-3c-0.6-6.5-0.6-10.3-6.8-10.3
			h-3.7v40.4h7.6c1.2,0,1.8,0.7,1.8,1.6c0,0.9-0.6,1.6-1.8,1.6h-21.5c-1.2,0-1.8-0.7-1.8-1.6c0-0.9,0.6-1.6,1.8-1.6h7.6v-40.4
			H1493.4z"/>
	</g>
</g>
<g>
	<g>
		<path class="st1" d="M988.7,1286.5c4.4,0,8.5,2.6,11,5.2l0.3-3.3c0.1-1.2,0.8-1.9,1.7-1.9c1,0,1.6,0.8,1.6,1.9v14.3
			c0,1.2-0.8,1.9-1.9,1.9c-1.3,0-1.6-0.8-1.9-1.9c-2.4-7.5-5.1-13-11.4-13c-7.2,0-10.5,9.2-10.5,20.2c0,11.1,3.2,20.2,10.5,20.2
			c6.1,0,10.9-6.7,11-15.9h-4.6c-1.2,0-1.9-0.5-1.9-1.6s0.7-1.6,1.9-1.6h13.1c1.2,0,1.9,0.8,1.9,1.6c0,1-0.7,1.6-1.9,1.6h-4
			l0.1,17.2c0,1.1-0.6,2-1.7,2s-1.7-0.9-1.7-2l0.1-4.9c-2.3,3.9-6.7,6.8-12.2,6.8c-9.6,0-17.5-7.2-17.5-23.4
			C970.6,1293.8,978.5,1286.5,988.7,1286.5z"/>
		<path class="st1" d="M1015.6,1310c0-14.8,8.6-23.7,18-23.7c9.5,0,18,8.9,18,23.7s-8.5,23.7-18,23.7
			C1024,1333.7,1015.6,1324.8,1015.6,1310z M1044.5,1310c0-11-3.7-20.5-10.9-20.5c-7.2,0-11,9.5-11,20.5c0,11.1,3.7,20.5,11,20.5
			C1040.8,1330.5,1044.5,1321,1044.5,1310z"/>
		<path class="st1" d="M1125.7,1334l3.1,4.4c1.3,1.5,1.2,2.4,0.5,3.1c-1,1-2.2,0.4-4.7-2c-6.5-6.3-13.5-15.4-13.5-29.6
			c0-14.3,6.8-23,13.5-29.6c1.9-1.9,3.5-3.2,4.7-2c0.6,0.6,0.7,1.7-0.5,3.1l-3.1,4.4c-4.4,6.2-8.1,13.8-8.1,24
			C1117.5,1320.2,1121.4,1327.9,1125.7,1334z"/>
		<path class="st1" d="M1161.4,1289.8c-6.2,0-6.2,3.8-6.8,10.3l-0.3,3c-0.1,1.1-0.4,1.9-1.6,1.9c-1.2,0-1.7-0.8-1.7-1.9l0.4-14.4
			c0-1.1,0.6-2,1.7-2h30.3c1.2,0,1.7,0.9,1.7,2l0.4,14.4c0,1.1-0.6,1.9-1.7,1.9s-1.5-0.8-1.6-1.9l-0.3-3c-0.6-6.5-0.6-10.3-6.8-10.3
			h-3.7v40.4h7.6c1.2,0,1.8,0.7,1.8,1.6c0,0.9-0.6,1.6-1.8,1.6h-21.5c-1.2,0-1.8-0.7-1.8-1.6c0-0.9,0.6-1.6,1.8-1.6h7.6v-40.4
			H1161.4z"/>
		<path class="st1" d="M1215.8,1288.5l13.2,41.6h3.2c1.2,0,1.9,0.6,1.9,1.6s-0.7,1.6-1.9,1.6h-14.4c-1.2,0-1.9-0.6-1.9-1.6
			s0.7-1.6,1.9-1.6h4.3l-2.9-9.9h-14.4l-2.8,9.9h3.7c1.2,0,1.9,0.6,1.9,1.6s-0.7,1.6-1.9,1.6H1194c-1.2,0-1.9-0.6-1.9-1.6
			s0.7-1.6,1.9-1.6h3.8l12.7-41.6c0.4-1.2,1.2-2,2.6-2C1214.7,1286.5,1215.4,1287.3,1215.8,1288.5z M1218.3,1317l-6.2-20.8
			l-6.3,20.8H1218.3z"/>
		<path class="st1" d="M1239.7,1333.4c-1.1,0-1.8-0.6-1.8-1.6s0.7-1.6,1.8-1.6h4v-40.4h-3.9c-1.2,0-1.9-0.6-1.9-1.6s0.7-1.6,1.9-1.6
			h13.7c1.2,0,1.9,0.6,1.9,1.6s-0.7,1.6-1.9,1.6h-3.3v20l15.7-20h-4.8c-1.1,0-1.8-0.6-1.8-1.6s0.7-1.6,1.8-1.6h13.8
			c1.1,0,1.8,0.6,1.8,1.6s-0.7,1.6-1.8,1.6h-3.8l-13.4,17l14.9,23.4h3.6c1.2,0,1.9,0.6,1.9,1.6s-0.7,1.6-1.9,1.6h-14.4
			c-1.1,0-1.8-0.6-1.8-1.6s0.7-1.6,1.8-1.6h3.2l-11.6-18.1l-3.2,4.1v14h3.4c1.1,0,1.8,0.6,1.8,1.6s-0.7,1.6-1.8,1.6H1239.7z"/>
		<path class="st1" d="M1310.1,1330.2c6.2-0.1,7.1-5.7,7.4-8.3l0.3-3.6c0.1-1.2,0.5-1.9,1.7-1.9c1.2,0,1.7,0.8,1.7,1.9l-1,13.1
			c-0.1,1.1-0.6,2-1.7,2h-32.5c-1.2,0-1.9-0.6-1.9-1.6s0.7-1.6,1.9-1.6h5.6v-39.8l-5.6-0.5c-1.2-0.1-1.9-0.8-1.9-1.7
			c0-1,0.8-1.6,1.9-1.6h32.5c1.2,0,1.7,0.9,1.7,2l1,13.1c0.1,1.2-0.5,1.9-1.7,1.9c-1.2,0-1.6-0.8-1.7-1.9l-0.3-3.6
			c-0.4-2.6-1.2-8.3-7.4-8.3h-12.2v17.7h5.3c3.4,0,4.2-1.2,4.7-3.7l0.3-1.9c0.2-1.1,0.5-1.9,1.6-1.9s1.6,0.8,1.6,1.9v15
			c0,1.1-0.5,1.9-1.6,1.9s-1.4-0.8-1.6-1.9l-0.3-1.9c-0.4-2.5-1.3-4.4-4.7-4.4h-5.3v19.5H1310.1z"/>
		<path class="st1" d="M1395.3,1288.5l13.2,41.6h3.2c1.2,0,1.9,0.6,1.9,1.6s-0.7,1.6-1.9,1.6h-14.4c-1.2,0-1.9-0.6-1.9-1.6
			s0.7-1.6,1.9-1.6h4.3l-2.9-9.9h-14.4l-2.8,9.9h3.7c1.2,0,1.9,0.6,1.9,1.6s-0.7,1.6-1.9,1.6h-11.7c-1.2,0-1.9-0.6-1.9-1.6
			s0.7-1.6,1.9-1.6h3.8l12.7-41.6c0.4-1.2,1.2-2,2.6-2C1394.2,1286.5,1394.9,1287.3,1395.3,1288.5z M1397.8,1317l-6.2-20.8
			l-6.3,20.8H1397.8z"/>
		<path class="st1" d="M1435.1,1285.9l-3.1-4.4c-1.2-1.4-1.2-2.4-0.5-3.1c1.2-1.2,2.8,0.1,4.7,2c6.7,6.5,13.5,15.3,13.5,29.6
			c0,14.2-7,23.2-13.5,29.6c-2.6,2.4-3.7,3-4.7,2c-0.6-0.6-0.8-1.6,0.5-3.1l3.1-4.4c4.3-6.1,8.2-13.8,8.1-24
			C1443.2,1299.7,1439.5,1292.1,1435.1,1285.9z"/>
		<path class="st1" d="M1148.4,1377.5l5,16.5l5.2-27.3h-1.3c-1,0-1.7-0.7-1.7-1.6c0-0.9,0.8-1.6,1.7-1.6h6.5c1,0,1.7,0.7,1.7,1.6
			c0,0.9-0.8,1.6-1.7,1.6h-1.9l-8.3,43.2c-0.1,0.4-0.6,0.8-1.1,0.8c-0.7,0-1.1-0.4-1.2-0.8l-5.3-18.8l-4.7,18.8
			c-0.1,0.4-0.4,0.8-1.2,0.8c-0.5,0-1-0.4-1.1-0.8l-9.5-43.2h-1.9c-1,0-1.7-0.7-1.7-1.6c0-0.9,0.8-1.6,1.7-1.6h9.6
			c1,0,1.7,0.7,1.7,1.6c0,0.9-0.8,1.6-1.7,1.6h-1.3l6,27.3l4.1-16.5c0.1-0.4,0.6-0.8,1.1-0.8
			C1147.9,1376.7,1148.3,1377.1,1148.4,1377.5z"/>
		<path class="st1" d="M1193.3,1365.5l13.2,41.6h3.2c1.2,0,1.9,0.6,1.9,1.6s-0.7,1.6-1.9,1.6h-14.4c-1.2,0-1.9-0.6-1.9-1.6
			s0.7-1.6,1.9-1.6h4.3l-2.9-9.9h-14.4l-2.8,9.9h3.7c1.2,0,1.9,0.6,1.9,1.6s-0.7,1.6-1.9,1.6h-11.7c-1.2,0-1.9-0.6-1.9-1.6
			s0.7-1.6,1.9-1.6h3.8l12.7-41.6c0.4-1.2,1.2-2,2.6-2C1192.2,1363.5,1193,1364.2,1193.3,1365.5z M1195.8,1394l-6.2-20.8l-6.3,20.8
			H1195.8z"/>
		<path class="st1" d="M1219.1,1407.1h4.9v-40.4h-4.9c-1.2,0-1.9-0.6-1.9-1.6s0.7-1.6,1.9-1.6h16.2c1.2,0,1.9,0.6,1.9,1.6
			s-0.7,1.6-1.9,1.6h-4.9v40.4h13c6.2,0,7.1-5.7,7.4-8.3l0.3-3c0.1-1.1,0.6-1.9,1.7-1.9s1.7,0.8,1.6,1.9l-1,12.5
			c-0.1,1.1-0.6,2-2.4,2h-31.9c-1.2,0-1.9-0.6-1.9-1.6S1218,1407.1,1219.1,1407.1z"/>
		<path class="st1" d="M1262.1,1410.3c-1.1,0-1.8-0.6-1.8-1.6s0.7-1.6,1.8-1.6h4v-40.4h-3.9c-1.2,0-1.9-0.6-1.9-1.6s0.7-1.6,1.9-1.6
			h13.7c1.2,0,1.9,0.6,1.9,1.6s-0.7,1.6-1.9,1.6h-3.3v20l15.7-20h-4.8c-1.1,0-1.8-0.6-1.8-1.6s0.7-1.6,1.8-1.6h13.8
			c1.1,0,1.8,0.6,1.8,1.6s-0.7,1.6-1.8,1.6h-3.8l-13.4,17l14.9,23.4h3.6c1.2,0,1.9,0.6,1.9,1.6s-0.7,1.6-1.9,1.6h-14.4
			c-1.1,0-1.8-0.6-1.8-1.6s0.7-1.6,1.8-1.6h3.2l-11.6-18.1l-3.2,4.1v14h3.4c1.1,0,1.8,0.6,1.8,1.6s-0.7,1.6-1.8,1.6H1262.1z"/>
	</g>
</g>
<g>
	<g>
		<path class="st1" d="M400.7,1060.3c4.4,0,8.5,2.6,11,5.2l0.3-3.3c0.1-1.2,0.8-1.9,1.7-1.9c1,0,1.6,0.8,1.6,1.9v14.3
			c0,1.2-0.8,1.9-1.9,1.9c-1.3,0-1.6-0.8-1.9-1.9c-2.4-7.5-5.1-13-11.4-13c-7.2,0-10.5,9.2-10.5,20.2c0,11.1,3.2,20.2,10.5,20.2
			c6.1,0,10.9-6.7,11-15.9h-4.6c-1.2,0-1.9-0.5-1.9-1.6s0.7-1.6,1.9-1.6h13.1c1.2,0,1.9,0.8,1.9,1.6c0,1-0.7,1.6-1.9,1.6h-4
			l0.1,17.2c0,1.1-0.6,2-1.7,2s-1.7-0.9-1.7-2l0.1-4.9c-2.3,3.9-6.7,6.8-12.2,6.8c-9.6,0-17.5-7.2-17.5-23.4
			C382.5,1067.6,390.5,1060.3,400.7,1060.3z"/>
		<path class="st1" d="M427.5,1083.7c0-14.8,8.6-23.7,18-23.7c9.5,0,18,8.9,18,23.7c0,14.9-8.5,23.7-18,23.7
			C436,1107.5,427.5,1098.6,427.5,1083.7z M456.4,1083.7c0-11-3.7-20.5-10.9-20.5c-7.2,0-11,9.5-11,20.5c0,11.1,3.7,20.5,11,20.5
			C452.7,1104.3,456.4,1094.8,456.4,1083.7z"/>
		<path class="st1" d="M489.5,1060.3c6.6,0,12.8,3.4,12.8,9.7c0,6.6-4.4,8.3-8.9,12.4c-2.3,2.1-2.4,3.8-2.4,9v1.2
			c0,1.2-0.7,1.8-1.6,1.8s-1.6-0.6-1.6-1.7v-5.1c0-3.5,1.3-4.7,4-7.6c3.3-3.6,4-6.2,4-9.9c0-4-2.6-6.5-7-6.5c-4.7,0-6.3,2.4-6.3,2.4
			c-0.1-0.4,0.9,3.5,1.2,4.7c0.3,1.2-0.3,3.8-2.8,4.4c-2.3,0.5-4.7-0.1-5.6-3.3C474.3,1067.2,479.6,1060.3,489.5,1060.3z
			 M489.4,1099.6c-2.2,0-4,1.6-4,3.8c0,2.2,1.8,3.8,4,3.8s4-1.6,4-3.8C493.4,1101.2,491.6,1099.6,489.4,1099.6z"/>
		<path class="st1" d="M537.9,1074.3l5,16.5l5.2-27.3h-1.3c-1,0-1.7-0.7-1.7-1.6c0-0.9,0.8-1.6,1.7-1.6h6.5c1,0,1.7,0.7,1.7,1.6
			c0,0.9-0.8,1.6-1.7,1.6h-1.9l-8.3,43.2c-0.1,0.4-0.6,0.8-1.1,0.8c-0.7,0-1.1-0.4-1.2-0.8l-5.3-18.8l-4.7,18.8
			c-0.1,0.4-0.4,0.8-1.2,0.8c-0.5,0-1-0.4-1.1-0.8l-9.5-43.2h-1.9c-1,0-1.7-0.7-1.7-1.6c0-0.9,0.8-1.6,1.7-1.6h9.6
			c1,0,1.7,0.7,1.7,1.6c0,0.9-0.8,1.6-1.7,1.6h-1.3l6,27.3l4.1-16.5c0.1-0.4,0.6-0.8,1.1-0.8
			C537.4,1073.5,537.8,1073.9,537.9,1074.3z"/>
		<path class="st1" d="M587.4,1103.9c6.2-0.1,7.1-5.7,7.4-8.3l0.3-3.6c0.1-1.2,0.5-1.9,1.7-1.9c1.2,0,1.7,0.8,1.7,1.9l-1,13.1
			c-0.1,1.1-0.6,2-1.7,2h-32.5c-1.2,0-1.9-0.6-1.9-1.6s0.7-1.6,1.9-1.6h5.6v-39.8l-5.6-0.5c-1.2-0.1-1.9-0.8-1.9-1.7
			c0-1,0.8-1.6,1.9-1.6h32.5c1.2,0,1.7,0.9,1.7,2l1,13.1c0.1,1.2-0.5,1.9-1.7,1.9c-1.2,0-1.6-0.8-1.7-1.9l-0.3-3.6
			c-0.4-2.6-1.2-8.3-7.4-8.3h-12.2v17.7h5.3c3.4,0,4.2-1.2,4.7-3.7l0.3-1.9c0.2-1.1,0.5-1.9,1.6-1.9s1.6,0.8,1.6,1.9v15
			c0,1.1-0.5,1.9-1.6,1.9s-1.4-0.8-1.6-1.9l-0.3-1.9c-0.4-2.5-1.3-4.4-4.7-4.4h-5.3v19.5H587.4z"/>
		<path class="st1" d="M626.7,1079.8c7.9,3.2,15.1,4.9,15.1,14.9c0,10.2-8,13-14.5,13c-6.8,0-12-3.5-14-7v4.6c0,1.2-0.7,1.8-1.6,1.8
			s-1.6-0.6-1.6-1.8v-15c0-1,0.5-1.9,1.6-1.9s1.5,0.8,1.6,1.9l0.4,3c1,6.5,7.6,11.3,13.4,11.3c4.4,0,9.9-2.2,9.9-8.3
			c0-5.7-7.4-8.3-13.6-10.6c-7.5-2.7-13.1-5.6-13.1-13.5c0-6.9,5.5-11.9,13.1-11.9c5.1,0,10.3,2.1,13.8,6.5l0.4-5
			c0.1-1.2,0.8-1.9,1.7-1.9c1,0,1.6,0.7,1.6,1.9v12.6c0,1.2-0.5,1.8-1.5,1.8c-1.1,0-1.3-1-1.7-1.9c-2.3-5.4-8.3-10.8-14.2-10.8
			c-5.1,0-7.5,2.4-7.5,6.8C616.1,1075.8,621.5,1077.7,626.7,1079.8z"/>
		<path class="st1" d="M663.1,1063.5c-6.2,0-6.2,3.8-6.8,10.3l-0.3,3c-0.1,1.1-0.4,1.9-1.6,1.9c-1.2,0-1.7-0.8-1.7-1.9l0.4-14.4
			c0-1.1,0.6-2,1.7-2h30.3c1.2,0,1.7,0.9,1.7,2l0.4,14.4c0,1.1-0.6,1.9-1.7,1.9s-1.5-0.8-1.6-1.9l-0.3-3c-0.6-6.5-0.6-10.3-6.8-10.3
			h-3.7v40.4h7.6c1.2,0,1.8,0.7,1.8,1.6c0,0.9-0.6,1.6-1.8,1.6h-21.5c-1.2,0-1.8-0.7-1.8-1.6c0-0.9,0.6-1.6,1.8-1.6h7.6v-40.4H663.1
			z"/>
	</g>
</g>
<g>
	<g>
		<path class="st1" d="M492.6,1540.8l5,16.5l5.2-27.3h-1.3c-1,0-1.7-0.7-1.7-1.6c0-0.9,0.8-1.6,1.7-1.6h6.5c1,0,1.7,0.7,1.7,1.6
			c0,0.9-0.8,1.6-1.7,1.6h-1.9l-8.3,43.2c-0.1,0.4-0.6,0.8-1.1,0.8c-0.7,0-1.1-0.4-1.2-0.8l-5.3-18.8l-4.7,18.8
			c-0.1,0.4-0.4,0.8-1.2,0.8c-0.5,0-1-0.4-1.1-0.8l-9.5-43.2h-1.9c-1,0-1.7-0.7-1.7-1.6c0-0.9,0.8-1.6,1.7-1.6h9.6
			c1,0,1.7,0.7,1.7,1.6c0,0.9-0.8,1.6-1.7,1.6h-1.3l6,27.3l4.1-16.5c0.1-0.4,0.6-0.8,1.1-0.8C492.1,1540,492.5,1540.4,492.6,1540.8z
			"/>
		<path class="st1" d="M537.5,1528.8l13.2,41.6h3.2c1.2,0,1.9,0.6,1.9,1.6s-0.7,1.6-1.9,1.6h-14.4c-1.2,0-1.9-0.6-1.9-1.6
			s0.7-1.6,1.9-1.6h4.3l-2.9-9.9h-14.4l-2.8,9.9h3.7c1.2,0,1.9,0.6,1.9,1.6s-0.7,1.6-1.9,1.6h-11.7c-1.2,0-1.9-0.6-1.9-1.6
			s0.7-1.6,1.9-1.6h3.8l12.7-41.6c0.4-1.2,1.2-2,2.6-2C536.4,1526.8,537.1,1527.5,537.5,1528.8z M540,1557.3l-6.2-20.8l-6.3,20.8
			H540z"/>
		<path class="st1" d="M563.3,1570.4h4.9V1530h-4.9c-1.2,0-1.9-0.6-1.9-1.6s0.7-1.6,1.9-1.6h16.2c1.2,0,1.9,0.6,1.9,1.6
			s-0.7,1.6-1.9,1.6h-4.9v40.4h13c6.2,0,7.1-5.7,7.4-8.3l0.3-3c0.1-1.1,0.6-1.9,1.7-1.9s1.7,0.8,1.6,1.9l-1,12.5
			c-0.1,1.1-0.6,2-2.4,2h-31.9c-1.2,0-1.9-0.6-1.9-1.6S562.1,1570.4,563.3,1570.4z"/>
		<path class="st1" d="M606.3,1573.7c-1.1,0-1.8-0.6-1.8-1.6s0.7-1.6,1.8-1.6h4V1530h-3.9c-1.2,0-1.9-0.6-1.9-1.6s0.7-1.6,1.9-1.6
			h13.7c1.2,0,1.9,0.6,1.9,1.6s-0.7,1.6-1.9,1.6h-3.3v20l15.7-20h-4.8c-1.1,0-1.8-0.6-1.8-1.6s0.7-1.6,1.8-1.6h13.8
			c1.1,0,1.8,0.6,1.8,1.6s-0.7,1.6-1.8,1.6h-3.8l-13.4,17l14.9,23.4h3.6c1.2,0,1.9,0.6,1.9,1.6s-0.7,1.6-1.9,1.6h-14.4
			c-1.1,0-1.8-0.6-1.8-1.6s0.7-1.6,1.8-1.6h3.2l-11.6-18.1l-3.2,4.1v14h3.4c1.1,0,1.8,0.6,1.8,1.6s-0.7,1.6-1.8,1.6H606.3z"/>
		<path class="st1" d="M717.1,1528.8l13.2,41.6h3.2c1.2,0,1.9,0.6,1.9,1.6s-0.7,1.6-1.9,1.6h-14.4c-1.2,0-1.9-0.6-1.9-1.6
			s0.7-1.6,1.9-1.6h4.3l-2.9-9.9h-14.4l-2.8,9.9h3.7c1.2,0,1.9,0.6,1.9,1.6s-0.7,1.6-1.9,1.6h-11.7c-1.2,0-1.9-0.6-1.9-1.6
			s0.7-1.6,1.9-1.6h3.8l12.7-41.6c0.4-1.2,1.2-2,2.6-2C716,1526.8,716.7,1527.5,717.1,1528.8z M719.6,1557.3l-6.2-20.8l-6.3,20.8
			H719.6z"/>
		<path class="st1" d="M761.9,1540.8l5,16.5l5.2-27.3h-1.3c-1,0-1.7-0.7-1.7-1.6c0-0.9,0.8-1.6,1.7-1.6h6.5c1,0,1.7,0.7,1.7,1.6
			c0,0.9-0.8,1.6-1.7,1.6h-1.9l-8.3,43.2c-0.1,0.4-0.6,0.8-1.1,0.8c-0.7,0-1.1-0.4-1.2-0.8l-5.3-18.8l-4.7,18.8
			c-0.1,0.4-0.4,0.8-1.2,0.8c-0.5,0-1-0.4-1.1-0.8l-9.5-43.2h-1.9c-1,0-1.7-0.7-1.7-1.6c0-0.9,0.8-1.6,1.7-1.6h9.6
			c1,0,1.7,0.7,1.7,1.6c0,0.9-0.8,1.6-1.7,1.6h-1.3l6,27.3l4.1-16.5c0.1-0.4,0.6-0.8,1.1-0.8C761.5,1540,761.8,1540.4,761.9,1540.8z
			"/>
		<path class="st1" d="M806.9,1528.8l13.2,41.6h3.2c1.2,0,1.9,0.6,1.9,1.6s-0.7,1.6-1.9,1.6h-14.4c-1.2,0-1.9-0.6-1.9-1.6
			s0.7-1.6,1.9-1.6h4.3l-2.9-9.9h-14.4l-2.8,9.9h3.7c1.2,0,1.9,0.6,1.9,1.6s-0.7,1.6-1.9,1.6H785c-1.2,0-1.9-0.6-1.9-1.6
			s0.7-1.6,1.9-1.6h3.8l12.7-41.6c0.4-1.2,1.2-2,2.6-2C805.8,1526.8,806.5,1527.5,806.9,1528.8z M809.4,1557.3l-6.2-20.8l-6.3,20.8
			H809.4z"/>
		<path class="st1" d="M831.2,1526.8h14.4c1,0,1.7,0.6,1.7,1.6s-0.7,1.6-1.7,1.6h-2.4l7.1,17.3l8.1-17.3h-4.5c-1,0-1.7-0.6-1.7-1.6
			s0.7-1.6,1.7-1.6h13.4c1.2,0,1.8,0.7,1.8,1.6c0,1-0.6,1.6-1.8,1.6h-4.4l-10.9,22.3v18.1h7.6c1,0,1.7,0.6,1.7,1.6s-0.7,1.6-1.7,1.6
			h-22.3c-1.1,0-1.7-0.6-1.7-1.6s0.6-1.6,1.7-1.6h7.6v-18.3l-9.7-22.1h-4c-1,0-1.7-0.6-1.7-1.6S830.3,1526.8,831.2,1526.8z"/>
		<path class="st1" d="M895.6,1546.3c7.9,3.2,15.1,4.9,15.1,14.9c0,10.2-8,13-14.5,13c-6.8,0-12-3.5-14-7v4.6c0,1.2-0.7,1.8-1.6,1.8
			s-1.6-0.6-1.6-1.8v-15c0-1,0.5-1.9,1.6-1.9s1.5,0.8,1.6,1.9l0.4,3c1,6.5,7.6,11.3,13.4,11.3c4.4,0,9.9-2.2,9.9-8.3
			c0-5.7-7.4-8.3-13.6-10.6c-7.5-2.7-13.1-5.6-13.1-13.5c0-6.9,5.5-11.9,13.1-11.9c5.1,0,10.3,2.1,13.8,6.5l0.4-5
			c0.1-1.2,0.8-1.9,1.7-1.9c1,0,1.6,0.7,1.6,1.9v12.6c0,1.2-0.5,1.8-1.5,1.8c-1.1,0-1.3-1-1.7-1.9c-2.3-5.4-8.3-10.8-14.2-10.8
			c-5.1,0-7.5,2.4-7.5,6.8C885,1542.3,890.4,1544.2,895.6,1546.3z"/>
		<path class="st1" d="M447.7,1617.8l5,16.5l5.2-27.3h-1.3c-1,0-1.7-0.7-1.7-1.6c0-0.9,0.8-1.6,1.7-1.6h6.5c1,0,1.7,0.7,1.7,1.6
			c0,0.9-0.8,1.6-1.7,1.6h-1.9l-8.3,43.2c-0.1,0.4-0.6,0.8-1.1,0.8c-0.7,0-1.1-0.4-1.2-0.8l-5.3-18.8l-4.7,18.8
			c-0.1,0.4-0.4,0.8-1.2,0.8c-0.5,0-1-0.4-1.1-0.8l-9.5-43.2H427c-1,0-1.7-0.7-1.7-1.6c0-0.9,0.8-1.6,1.7-1.6h9.6
			c1,0,1.7,0.7,1.7,1.6c0,0.9-0.8,1.6-1.7,1.6h-1.3l6,27.3l4.1-16.5c0.1-0.4,0.6-0.8,1.1-0.8C447.2,1617,447.6,1617.4,447.7,1617.8z
			"/>
		<path class="st1" d="M506.7,1595.4c1.4,0.6,1,1.9,0.4,3.1l-27.8,59.2c-0.6,1.4-1.5,2.2-2.6,1.8c-1.4-0.6-1-1.9-0.4-3.1l27.8-59.2
			C504.7,1595.8,505.5,1594.9,506.7,1595.4z"/>
		<path class="st1" d="M528,1607c-6.2,0-6.2,3.8-6.8,10.3l-0.3,3c-0.1,1.1-0.4,1.9-1.6,1.9c-1.2,0-1.7-0.8-1.7-1.9l0.4-14.4
			c0-1.1,0.6-2,1.7-2H550c1.2,0,1.7,0.9,1.7,2l0.4,14.4c0,1.1-0.6,1.9-1.7,1.9s-1.5-0.8-1.6-1.9l-0.3-3c-0.6-6.5-0.6-10.3-6.8-10.3
			h-3.7v40.4h7.6c1.2,0,1.8,0.7,1.8,1.6c0,0.9-0.6,1.6-1.8,1.6h-21.5c-1.2,0-1.8-0.7-1.8-1.6c0-0.9,0.6-1.6,1.8-1.6h7.6V1607H528z"
			/>
		<path class="st1" d="M582.4,1605.8l13.2,41.6h3.2c1.2,0,1.9,0.6,1.9,1.6s-0.7,1.6-1.9,1.6h-14.4c-1.2,0-1.9-0.6-1.9-1.6
			s0.7-1.6,1.9-1.6h4.3l-2.9-9.9h-14.4l-2.8,9.9h3.7c1.2,0,1.9,0.6,1.9,1.6s-0.7,1.6-1.9,1.6h-11.7c-1.2,0-1.9-0.6-1.9-1.6
			s0.7-1.6,1.9-1.6h3.8l12.7-41.6c0.4-1.2,1.2-2,2.6-2C581.3,1603.8,582,1604.5,582.4,1605.8z M584.9,1634.2l-6.2-20.8l-6.3,20.8
			H584.9z"/>
		<path class="st1" d="M606.3,1650.6c-1.1,0-1.8-0.6-1.8-1.6s0.7-1.6,1.8-1.6h4V1607h-3.9c-1.2,0-1.9-0.6-1.9-1.6s0.7-1.6,1.9-1.6
			h13.7c1.2,0,1.9,0.6,1.9,1.6s-0.7,1.6-1.9,1.6h-3.3v20l15.7-20h-4.8c-1.1,0-1.8-0.6-1.8-1.6s0.7-1.6,1.8-1.6h13.8
			c1.1,0,1.8,0.6,1.8,1.6s-0.7,1.6-1.8,1.6h-3.8l-13.4,17l14.9,23.4h3.6c1.2,0,1.9,0.6,1.9,1.6s-0.7,1.6-1.9,1.6h-14.4
			c-1.1,0-1.8-0.6-1.8-1.6s0.7-1.6,1.8-1.6h3.2l-11.6-18.1l-3.2,4.1v14h3.4c1.1,0,1.8,0.6,1.8,1.6s-0.7,1.6-1.8,1.6H606.3z"/>
		<path class="st1" d="M676.7,1647.4c6.2-0.1,7.1-5.7,7.4-8.3l0.3-3.6c0.1-1.2,0.5-1.9,1.7-1.9c1.2,0,1.7,0.8,1.7,1.9l-1,13.1
			c-0.1,1.1-0.6,2-1.7,2h-32.5c-1.2,0-1.9-0.6-1.9-1.6s0.7-1.6,1.9-1.6h5.6v-39.8l-5.6-0.5c-1.2-0.1-1.9-0.8-1.9-1.7
			c0-1,0.8-1.6,1.9-1.6H685c1.2,0,1.7,0.9,1.7,2l1,13.1c0.1,1.2-0.5,1.9-1.7,1.9c-1.2,0-1.6-0.8-1.7-1.9l-0.3-3.6
			c-0.4-2.6-1.2-8.3-7.4-8.3h-12.2v17.7h5.3c3.4,0,4.2-1.2,4.7-3.7l0.3-1.9c0.2-1.1,0.5-1.9,1.6-1.9s1.6,0.8,1.6,1.9v15
			c0,1.1-0.5,1.9-1.6,1.9s-1.4-0.8-1.6-1.9l-0.3-1.9c-0.4-2.5-1.3-4.4-4.7-4.4h-5.3v19.5H676.7z"/>
		<path class="st1" d="M762,1605.8l13.2,41.6h3.2c1.2,0,1.9,0.6,1.9,1.6s-0.7,1.6-1.9,1.6H764c-1.2,0-1.9-0.6-1.9-1.6
			s0.7-1.6,1.9-1.6h4.3l-2.9-9.9H751l-2.8,9.9h3.7c1.2,0,1.9,0.6,1.9,1.6s-0.7,1.6-1.9,1.6h-11.7c-1.2,0-1.9-0.6-1.9-1.6
			s0.7-1.6,1.9-1.6h3.8l12.7-41.6c0.4-1.2,1.2-2,2.6-2C760.9,1603.8,761.6,1604.5,762,1605.8z M764.5,1634.2l-6.2-20.8l-6.3,20.8
			H764.5z"/>
		<path class="st1" d="M806.8,1617.8l5,16.5l5.2-27.3h-1.3c-1,0-1.7-0.7-1.7-1.6c0-0.9,0.8-1.6,1.7-1.6h6.5c1,0,1.7,0.7,1.7,1.6
			c0,0.9-0.8,1.6-1.7,1.6h-1.9l-8.3,43.2c-0.1,0.4-0.6,0.8-1.1,0.8c-0.7,0-1.1-0.4-1.2-0.8l-5.3-18.8l-4.7,18.8
			c-0.1,0.4-0.4,0.8-1.2,0.8c-0.5,0-1-0.4-1.1-0.8L788,1607h-1.9c-1,0-1.7-0.7-1.7-1.6c0-0.9,0.8-1.6,1.7-1.6h9.6
			c1,0,1.7,0.7,1.7,1.6c0,0.9-0.8,1.6-1.7,1.6h-1.3l6,27.3l4.1-16.5c0.1-0.4,0.6-0.8,1.1-0.8C806.3,1617,806.7,1617.4,806.8,1617.8z
			"/>
		<path class="st1" d="M851.7,1605.8l13.2,41.6h3.2c1.2,0,1.9,0.6,1.9,1.6s-0.7,1.6-1.9,1.6h-14.4c-1.2,0-1.9-0.6-1.9-1.6
			s0.7-1.6,1.9-1.6h4.3l-2.9-9.9h-14.4l-2.8,9.9h3.7c1.2,0,1.9,0.6,1.9,1.6s-0.7,1.6-1.9,1.6h-11.7c-1.2,0-1.9-0.6-1.9-1.6
			s0.7-1.6,1.9-1.6h3.8l12.7-41.6c0.4-1.2,1.2-2,2.6-2C850.7,1603.8,851.4,1604.5,851.7,1605.8z M854.2,1634.2l-6.2-20.8l-6.3,20.8
			H854.2z"/>
		<path class="st1" d="M876.1,1603.8h14.4c1,0,1.7,0.6,1.7,1.6s-0.7,1.6-1.7,1.6h-2.4l7.1,17.3l8.1-17.3h-4.5c-1,0-1.7-0.6-1.7-1.6
			s0.7-1.6,1.7-1.6h13.4c1.2,0,1.8,0.7,1.8,1.6c0,1-0.6,1.6-1.8,1.6h-4.4l-10.9,22.3v18.1h7.6c1,0,1.7,0.6,1.7,1.6s-0.7,1.6-1.7,1.6
			h-22.3c-1.1,0-1.7-0.6-1.7-1.6s0.6-1.6,1.7-1.6h7.6v-18.3l-9.7-22.1h-4c-1,0-1.7-0.6-1.7-1.6S875.1,1603.8,876.1,1603.8z"/>
		<path class="st1" d="M940.5,1623.3c7.9,3.2,15.1,4.9,15.1,14.9c0,10.2-8,13-14.5,13c-6.8,0-12-3.5-14-7v4.6c0,1.2-0.7,1.8-1.6,1.8
			s-1.6-0.6-1.6-1.8v-15c0-1,0.5-1.9,1.6-1.9s1.5,0.8,1.6,1.9l0.4,3c1,6.5,7.6,11.3,13.4,11.3c4.4,0,9.9-2.2,9.9-8.3
			c0-5.7-7.4-8.3-13.6-10.6c-7.5-2.7-13.1-5.6-13.1-13.5c0-6.9,5.5-11.9,13.1-11.9c5.1,0,10.3,2.1,13.8,6.5l0.4-5
			c0.1-1.2,0.8-1.9,1.7-1.9c1,0,1.6,0.7,1.6,1.9v12.6c0,1.2-0.5,1.8-1.5,1.8c-1.1,0-1.3-1-1.7-1.9c-2.3-5.4-8.3-10.8-14.2-10.8
			c-5.1,0-7.5,2.4-7.5,6.8C929.8,1619.2,935.3,1621.2,940.5,1623.3z"/>
	</g>
</g>
</svg>
