<?xml version="1.0" encoding="utf-8"?>
<!-- Generator: Adobe Illustrator 26.5.0, SVG Export Plug-In . SVG Version: 6.00 Build 0)  -->
<svg version="1.1" id="a" xmlns="http://www.w3.org/2000/svg" xmlns:xlink="http://www.w3.org/1999/xlink" x="0px" y="0px"
	 width="826.5px" height="883.9px" viewBox="0 0 826.5 883.9" style="enable-background:new 0 0 826.5 883.9;" xml:space="preserve"
	>
<style type="text/css">
	.st0{fill:none;stroke:#FFFFFF;stroke-width:1.9999;stroke-miterlimit:9.9997;}
</style>
<path class="st0" d="M191.5,146c2.7-15.4,13.5-22.1,28-24.1c24-3.5,40-15.5,47.4-39.8c5.9-19.2,14.4-37.7,22.3-56.2
	c1.9-4.5,5.9-8.3,9.6-11.6c14.4-13,30.5-10.1,38.3,7.4c5.1,11.6,7.8,24.3,12.6,36c3.8,9.3,7.8,19,14.1,26.6
	c12.3,15.1,23.1,17.1,41.4,10.4c4.7-1.8,9.3-4.1,13.9-6.1c4.2-1.9,9.8-3.8,16.7-0.5c28,13.3,43.5,3.7,56.7-18.9
	c6-10.3,11.9-20.6,19-30.1c9.3-12.4,22.1-15.7,36.7-10.5c13.2,4.7,18.8,15.1,21.2,28.4c3.1,17.2,7,34.3,11.2,51.3
	c3.2,13.1,13.6,20.9,24,27.9c6.6,4.4,14.1,7.7,21.6,10.7c24.2,9.6,33.7,27.1,27.2,52c-1,3.8-4.3,7-6.6,10.4c-4.9,7-3.6,12.1,3.4,17
	c4.6,3.2,8.4,7.6,12.6,11.3c5.3,4.7,11,6.6,18.6,6.9c13.3,0.7,26.9,2.5,39.7,6.3c24.4,7.3,27.4,20.5,9.9,39.4
	c-7.7,8.3-16,16.1-23.9,24.2c-2.3,2.3-4.8,4.7-6.5,7.4c-9.2,15-13.3,26.5,7.2,37.8c5,2.7,9.7,6.1,14.9,8.3
	c13.9,5.9,19.3,16.2,17.6,30.8c-0.2,1.5-0.1,3.1-0.6,4.4c-14.6,36.4-5.2,72.5,0.4,108.9c6.2,39.6,5.9,79.5,0.6,119.2
	c-3.7,28.2-10.1,56.1-12.5,84.4c-1.1,12.5,2.8,26.3,7.6,38.1c7,17.1,17.6,32.6,25.2,49.5c4.5,9.9,7.9,20.8,8.9,31.6
	c1.3,15.3-12.6,23.9-26.9,17.7c-11-4.8-21.9-9.8-32.3-15.8c-25.6-14.9-51.9-15.5-79.7-7.5c-16.5,4.7-33.4,8.6-50.4,10.8
	c-25,3.2-48-6.1-70.6-15.5c-16.2-6.8-32.2-13.8-48.6-20.1c-10.6-4.1-20.6-2.6-30.5,3.9c-3.6,2.4-10.3,2.8-14.5,1.2
	c-16.2-6.4-32.3-7.4-48.6-1.4c-23.9,8.8-47.6,18.3-71.7,26.8c-33.5,11.8-67.8,17.9-103.4,12.5c-7-1.1-13.8-3.4-20.5-5.5
	c-16.5-5-32.6-3.6-49.4,0.2c-24.3,5.6-46.7,14.7-67.4,28.3c-7.4,4.9-15.7,6.6-24.6,6c-10-0.7-16.7-5.4-17.9-15.1
	c-1.5-13.2,0.7-25.6,7.7-37.4C37.9,795,56.8,767.1,68.2,735c6.4-18.1,6.4-36.7,5.3-55.4c-0.9-14.4-4-28.7-4.8-43.1
	c-1.3-21.7-1.4-43.6-2-65.3c-0.9-34.9,5.3-68.9,13.1-102.6c5.8-25.1,7.4-50.4,6.6-76c-0.1-3.8-2.1-7.5-3.5-11.2
	c-1.1-3.1-2.6-6.2-4.2-9.1c-15.5-28.3-0.6-36.3,22.7-40.1c9.3-1.6,19.5-3.9,27.1-9.1c15-10.1,12-37.2-4.4-50.6
	c-8.3-6.7-16.9-13-24.8-20.2c-3.5-3.2-6.7-6.9-9.3-10.9c-10.4-16.2-6.5-28.1,7.2-34.8c12.4-6.1,25.3-8.6,39.3-5.9
	c6.7,1.3,13,1,18.8-0.4c22.5-5.3,37.5-26.6,36.2-49.6C191.3,148.8,191.2,147.2,191.5,146L191.5,146z"/>
</svg>
