<?xml version="1.0" encoding="UTF-8"?>
<svg id="a" data-name="Layer 1" xmlns="http://www.w3.org/2000/svg" width="20.288in" height="10.184in" viewBox="0 0 1460.71 733.268">
  <path d="M904.326,224.951c38.142-22.166,156.513-111.754,318.035-118.923,95.051-4.219,187.068,23.827,227.883,52.367,6.735,4.709,5.218,11.943-2.467,14.976-10.632,4.195-29.951,2.733-48.078,2.223-73.442-2.42-139.067,54.562-164.181,80.578-53.514,55.438-85.526,113.932-133.734,144.8-52.334,33.51-118.424,35.354-183.676,22.15-23.471-4.749-47.267-13.959-69.801-22.188-.664-.219-.954-.24-.954-.24,0,0,38.336,15.071,73.751,38.769,9.425,6.307,64.037,50.492,67.735,143.828-.525,26.606-1.309,33.269-5.058,79.747-.589,7.305-1.717,14.571-2.39,21.874-.13,1.411,.291,3.311,1.2,4.311,5.01,5.513,15.215,16.871,21.884,24.476,2.796,3.188,1.104,8.21-3.053,9.046-1.882,.379-9.529-.946-11.336-.619-4.405,.796,1.366,1.342-7.305,4.614-4.159,1.945-11.098,1.415-15.272-.855-8.86-4.818-16.974-11.155-24.912-17.474-7.867-6.262-16.544-8.838-26.382-8.188-3.395,.224-6.812,.36-10.164,.887-1.364,.214-3.355,1.128-3.66,2.145-.341,1.134,.612,2.998,1.538,4.09,1.37,1.615,2.974,3.169,4.834,4.237,28.852,16.573,6.025,17.984,3.055,17.969-4.382-.021-7.981,.337-12.097-.938-5.353-1.658-10.065-5.281-15.281-7.527-3.304-1.423-12.33-2.461-17.715-3.643-8.623-1.893-12.306-6.45-12.819-13.698-1.4-19.764-6.778-38.63-12.191-57.514-4.076-14.22-8.017-28.479-12.238-42.656-.9-3.024-2.292-6.13-4.236-8.581-36.716-46.289-61.723-98.818-82.28-153.732-1.863-4.977-5.462-14.229-7.562-18.868-.62-1.37-2.435-1.659-3.465-.563-2.071,2.205-4.117,4.38-6.149,6.568-13.724,14.782-27.528,29.491-41.133,44.383-10.888,11.918-19.411,25.162-22.052,41.519-4.262,26.391-4.478,52.962-3.337,79.587,.185,4.32,.529,8.633,1.001,12.931,1.828,16.633,1.366,32.994-1.721,49.274-6.475,34.144-45.669,70.971-103.711,75.781-23.658,1.96-46.759,2.259-68.996-8.17-25.405-11.915-48.558-43.737-54.635-53.512-10.362-16.671-19.759-33.962-29.104-51.24-9.937-18.373-19.251-37.081-29.004-55.555-8.592-16.275-17.177-32.561-26.193-48.601-11.18-19.888-22.437-39.752-34.442-59.144-3.861-6.237-14.025-15.269-15.598-16.117-1.02-.551-2.496-.321-3.286,.595-1.819,2.108-2.641,4.713-3.79,8.651-5.805,20.864-16.243,34.591-31.003,49.836-21.105,21.799-43.148,42.701-65.038,63.728-14.956,14.367-30.401,28.225-45.426,42.522-1.516,1.443-2.42,4.429-2.22,6.569,.327,3.496,1.844,6.873,2.772,10.323,1.852,6.885,3.624,13.792,5.469,20.679,2.708,10.109-7.292,27.713-18.677,30.326-10.608,2.434-20.785,6.696-31.247,9.833-7.59,2.275-12.309,7.405-16.128,13.976-3.833,6.594-7.658,13.275-12.279,19.312-8.921,11.655-22.242,12.659-35.432,13.01-7.154,.191-14.351-1.137-21.516-1.475-.125-.006-.246-.024-.367-.054-4.741-1.188-10.974-1.538-11.487-7.774-.486-5.899,4.59-8.693,9.323-10.989,.207-.101,.434-.163,.663-.189,15.606-1.788,20.761-12.778,23.774-25.951,4.061-17.751,11.679-33.779,21.758-49.098,13.239-20.121,25.77-40.826,36.997-62.127,21.618-41.015,41.753-82.809,63.235-123.897,8.838-16.905,19.92-32.622,29.352-49.236,12.18-21.453,23.674-43.294,35.581-64.904,4.396-7.979,8.727-16.043,13.804-23.588,6.155-9.146,14.279-15.948,25.746-17.746,12.941-2.029,31.371,.745,43.791,6.553,18.489,8.645,33.083,20.832,43.965,31.816,16.59,16.745,32.391,34.295,48.077,51.904,9.251,10.386,17.555,21.609,26.424,32.34,9.793,11.849,19.934,23.414,29.576,35.382,9.63,11.952,18.737,24.323,28.249,36.371,7.981,10.108,16.21,20.019,24.351,30h0c1.128,1.374,3.348,.802,3.671-.947,.903-4.899,1.74-9.289,2.437-13.701,5.013-31.734,12.12-62.815,26.818-91.764,3.209-6.319,5.29-13.297,7.228-20.158,6.535-23.138,19.553-41.967,37.676-57.42,5.133-4.377,7.381-9.319,5.98-16.068-.905-4.359-1.093-8.865-1.65-13.299-3.31-26.358,18.065-47.363,38.585-52.643,16.87-4.342,34.616-5.162,51.822-8.36,12.265-2.279,24.325-5.742,36.36-9.093,2.323-.647,4.778-2.837,6.02-4.982,4.564-7.886,8.931-15.917,12.805-24.16,2.583-5.496,.989-9.643-6.27-11.855-9.28-2.829-10.007-9.41-10.331-16.945-.424-9.857,1.172-19.848-1.527-29.54-.935-3.358-2.62-6.563-4.325-9.637-2.384-4.3-2.217-7.78,2.23-10.551,12.167-7.582,18.211-19.462,20.168-32.816,2.685-18.317,11.065-33.535,20.77-48.83,6.933-10.927,51.61-49.461,105.977-33.777,22.556,6.507,50.653,17.748,64.641,64.592,15.911,53.28-37.88,105.497-41.733,135.103-3.273,25.148,15.105,15.571,15.105,15.571Zm-6.969,437.867"/>
  <path d="M897.466,648.93c5.231,3.252,10.463,6.504,15.694,9.756-5.545,3.227-10.454-.409-14.892-2.645-1.227-.618-2.489-2.895-3.349-4.743-.737-1.586,1.02-3.297,2.514-2.389,.011,.007,.022,.013,.033,.02Z" fill="#fff"/>
</svg>