<?xml version="1.0" encoding="utf-8"?>
<!-- Generator: Adobe Illustrator 26.5.0, SVG Export Plug-In . SVG Version: 6.00 Build 0)  -->
<svg version="1.1" id="a" xmlns="http://www.w3.org/2000/svg" xmlns:xlink="http://www.w3.org/1999/xlink" x="0px" y="0px"
	 width="726.2px" height="416.5px" viewBox="0 0 726.2 416.5" style="enable-background:new 0 0 726.2 416.5;" xml:space="preserve"
	>
<style type="text/css">
	.st0{fill:#FFFFFF;}
</style>
<path class="st0" d="M188.9,153.4c-17.4,0.8-32.6-0.5-47.5-3.9c-10.6-2.4-20.8-5.9-30.1-11.5c-10.5-6.3-19.3-14.4-25.3-25.1
	C75.6,94.5,61,79.8,44.4,67.1c-9.3-7.1-19-13.6-28.2-20.9C11,42,5.4,37.8,3.3,30.8c-2.1-7.2,1-12.4,5.9-16.9
	c8.2-7.5,18.1-9.1,28.9-8.1c21.4,2,39.5,12.1,57,23.4c16.3,10.5,30.7,23.4,43.1,38.3c6.8,8.1,12.9,16.7,19.8,24.6
	c11.3,12.9,23.4,24.7,37.9,34c5,3.2,11.1,3.9,16.6,5.9c4.1,1.5,8.3,3.2,12.7,3.9c2.2,0.3,16.6,3.8,18.3,4.7c2.1,1.1,2.2,3.3,1.9,5.4
	c-0.2,1.9-1.8,2-3.3,2.3c-11.6,1.7-23.1,3.7-34.7,5C200.7,154,193.7,153.4,188.9,153.4L188.9,153.4z M223.1,143.5
	c-0.7-0.4-0.9-0.6-1.1-0.7c-1.1-0.3-2.2-0.5-3.3-0.8c-12.9-3-25.2-7.5-35.8-15.9c-15.2-12.1-28.5-26-40.3-41.4
	c-10.4-13.6-21.5-26.4-34.7-37.3C94.5,36.4,80,27.1,64.1,20.2c-10.8-4.7-21.9-8-34-7.4c-5.5,0.3-10.2,1.8-14.6,4.9
	c-5.6,4-7.2,8.9-4.2,13.3c1.3,1.9,3,3.7,4.7,5.3c4.7,4.3,9.8,8,14.9,11.8c9.9,7.2,19.8,14.5,29.1,22.5c12.6,11,23.3,23.5,31.7,38
	c6.4,11,15.4,19.3,26.6,25.1c18,9.3,37.5,11.9,57.3,12.8c8.7,0.4,17.5,0.3,26.2-0.7C208.9,145,215.8,144.9,223.1,143.5L223.1,143.5z
	"/>
<path class="st0" d="M623.2,412.3c-7.7,0.3-15.5-2.5-23.4-5.1c-12.1-4-347.8-117-359.6-122.7c-11.7-5.7-17.8-15.2-20.8-28
	c-1.8-7.7-21.7-100.4-22.8-115.5c-0.9-12.6,5.1-22.6,14.6-30.7c12.9-10.9,80.4-69,83.7-71.7c9.1-7.5,19.5-9.6,31-7.6
	c10.7,1.9,356.7,120.1,369.8,124.6c10.9,3.7,19.6,10.3,24.7,20.6c3.8,7.6,3.4,20.3,0.2,29.3c-7.9,22.4-57.4,178.2-61,185.1
	C652.5,404.7,641,411.5,623.2,412.3L623.2,412.3z M236.9,147.8c-0.3,8.6,4.3,16.4,16.1,16.4c12.1,0,16.4-7.1,16.6-16.9
	c0.1-8-6.1-16.4-17.3-15.8C241.6,132.2,237.2,139.2,236.9,147.8L236.9,147.8z"/>
<path d="M348.9,112.3c-0.5,0.8-2.1,3.9-3.5,8.1c-0.2,0.6-0.7,2.8-3.4,10.7c-0.2,0.6-0.1,1,0.2,1.1c0.2,0.1,0.3,0,1.2-0.6
	c10-5.6,21.1-9.1,30-14.9c0.8-0.5,1-0.6,1.4-0.4c2.1,0.7,2.4,1.5,3.3,1.8c0.2,0.1,1.4,2.1,0.8,3.9c-0.1,0.2-0.2,0.3-0.7,0.7
	c-12.8,9.9-21.8,22.1-31.3,43.7c-0.7,1.7-0.8,1.7-1.2,1.6c-0.6-0.2-0.9-1-1.6-1.2c-0.5-0.2-0.5,0.2-1,0c-1-0.3-2.2-1.8-2.7-2.6
	c-0.4-0.7-0.4-0.8-0.3-1.2c0.2-0.6,8.3-15.9,9.6-18.1c1.3-2.4,5.6-8.4,8.7-12.4c0.1-0.3,0-0.3-0.2-0.4c-0.2-0.1-0.3,0-0.5,0.1
	c-5.2,2.6-13.7,7.3-15.2,8.2c-1,0.6-1.1,0.5-1.3,0.4c-0.2-0.1-1-0.8-2.6-1.7c-1.3-0.7-2.6-1.4-3-3.1c-0.3-1.2-0.2-4.3,0.8-7.8
	l2.6-7.7c0.1-0.2,0.1-0.4-0.1-0.5s-0.4,0.1-1.4,1c-4,3.8-7,7.4-10.8,12.2c-6.4,8.1-10.1,13.8-11.2,17.1c-0.2,0.6-1.5,1-2,0.8
	c-1.2-0.4-1.5,0.4-2.1,0.2s-2-2.1-2.5-2.3c-0.6-0.2-1.1-2.1-0.6-3.5c1-2.9,4.1-4.7,5.1-6.4c9.3-14.3,23.6-26.4,33.5-38
	c0.9-1,1.1-1.3,1.4-1.2c0.8,0.3,0.7,0.5,2,1.1c1.2,0.6,2.6,1.3,3.2,2.5c0.2,0.4,0.3,0.8,0.2,1C353.2,106.2,350.4,110.1,348.9,112.3
	L348.9,112.3z"/>
<path d="M402.1,120.8c-0.1,0.3-0.8,1.4-1.2,1.9c-7.8,11.3-16.7,20.5-21.2,32c-0.4,1.1-0.9,2.5-1.4,4.4c-0.2,1-0.1,1.3,0.1,1.3
	c0.7,0.2,2,0.1,3.6-0.9c18.5-11.5,30.2-22,35.9-27.8c1.2-1.3,0.8-1.3,2.8-3.3c0.7-0.7,2.5-1.9,2.9-1.8c0.3,0.1,1.1,0.6,2.6,1
	c0.3,0.1,0.6,0.5,0.7,0.9l0.7,2.1c0.1,0.5,0.3,0.9,0.2,1.3c-0.1,0.3-0.4,0.8-1,1.7c-2.1,3.1-5.3,5.7-7.4,8.9
	c-6.5,9.8-10.8,19.8-13.4,31c-0.4,1.8-0.4,2.2-0.5,2.5c-0.1,0.6-0.7,0.7-1.3,0.5c-1.2-0.3-0.9-0.6-1.7-1c-0.8-0.4-1.5-1.2-2.5-2.2
	c-0.6-0.6-1.4-0.8-1.1-1.9c0.1-0.5,0.3-1.1,0.8-1.6c0.3-0.3,0.5-0.6,0.7-1.2c2-5.5,3.3-11,5.7-15.5c0.3-0.6,0.5-0.9,0.5-1.2
	c0.1-0.2-0.1-0.4-0.3-0.5c-0.2,0-0.4,0.1-0.7,0.3c-7.2,5.3-16.1,11.7-23.7,15.8c-0.9,0.5-2.7,0.8-4.1,0.4c-1-0.2-2.5-1.1-3.1-2
	c-1.2-1.9-3.3-1.4-3.9-3.6c-0.1-0.5,0.3-2.9,0.8-5.2c1.2-5.1,3.5-9.5,5.2-12.4c5.2-8.8,11.6-17.1,17.2-25.7c0.5-0.8,1-1.2,1.3-1.6
	c0.8-0.9,1.7-1.9,3-1.6c0.4,0.1,0.6,0.5,2.1,1.5c0.6,0.4,1.4,0.9,1.6,1.7C402.3,119.1,402.2,120.2,402.1,120.8L402.1,120.8z"/>
<path d="M459.2,154.8c-0.2,1-0.2,2.2-0.4,2.7c-0.2,0.6-1.1,0.8-2,0.5c-0.3-0.1-0.8-0.3-1.3-0.7c-1.4-0.9-2.2-3-2.6-3.9
	c-0.5-1.5,0.9-4.8-1-7c-0.4-0.5-0.9-0.8-1.6-1.1c-0.6-0.2-2.7,1.7-4,5.6c-0.3,0.9-1.1,3.6-1.5,8.2c-0.5,5.5-0.8,17.6-1.8,24.2
	c-0.5,3.1-0.7,4-1.2,5.4c-1.1,3.3-4,5.3-7.3,5.4c-0.7,0-1.3-0.2-3.2-0.8c-7.1-2.4-12.7-8.8-15.6-16.8c-0.7-1.9-2.6-4.5-1.8-9.3
	c0.1-0.9,0.4-1.6,0.6-2.4c0.2-0.7,1.7-2,2.5-1.7c1.3,0.5,2.9,1.5,3.7,2.5c1.2,1.5,2,3.3,1.8,3.7c-0.4,1.2-1,1.2-1.6,3
	c-0.1,0.3,0,0.9,0,1.4c0.8,4.4,4.2,9.8,8.2,12.8c0.6,0.5,1.3,0.8,2,1c1.3,0.4,3.1-0.4,3.7-2c0.7-2.1,1.4-4.6,1.7-6.2
	c1.6-9.3,0.9-17.4,2.2-27c0.1-0.9,0.8-4.8,1.3-6.4c0.3-0.8,0.5-1.3,0.7-1.7c1.4-2.4,3.3-6.9,7.4-5.5c4.2,1.4,8.1,3.6,10.4,8.6
	C459.6,149.8,459.5,152.7,459.2,154.8L459.2,154.8z"/>
<path d="M504.5,179.6c0.3,0.3,0.5,0.4,0.7,0.5c1,0.3,1.6,1.7,1.7,2.7c0.2,1,0.5,0.9,0.1,2.2c-0.3,0.9-0.7,1-1,0.9
	c-5.2-1.8-10.1-1.9-14.8-2.6c-0.9-0.1-1.2,0.1-1.5,0.4c-2.3,2-3.8,4.9-5.8,7.4c-3.6,4.8-6,10.1-8.4,15.2c-0.3,0.6-1.4,0.7-2.2,0.4
	c-1-0.3-2.2-1.1-2.9-1.7c-0.8-0.7-0.8-2.2-0.6-3.4c0.1-0.4,0.1-0.8,0.2-1.2c0.2-0.6,0.4-1.2,1.1-2.1c2.8-4,5.8-9.5,8.6-13.4
	c0.3-0.4,0.8-1.2,0.9-1.7c0.2-0.6,0-1-0.6-1.2l-11.9-1.5c-0.8-0.1-1.1,0-1.4,0.3c-2.7,2.3-5.4,8.2-6.5,9.3c-0.3,0.3-0.6,0.8-1,1.9
	c-0.5,1.4-0.5,2.8-0.8,3.6c-0.5,1.4-0.9,2.2-2.4,1.8c-0.7-0.2-1.8-0.8-2.1-1.2c-0.7-1.1-1.2-1-1.8-2c-0.4-0.7-0.4-1.1-0.8-1.2
	c-0.4-0.1-0.4-0.4-0.2-1c0.1-0.4,0.8-2,1.3-2.8l0.7-1.2c1-1.9,3.9-6.6,4.2-7.6c0.1-0.3,0.1-0.4-0.2-0.5c-0.6-0.2-2.6-0.4-4.2-0.9
	c-1.8-0.6-3.5-1.5-4.3-3.6c-0.3-0.7,0.2-3.4,0.3-3.8c0.2-0.6,0.8-0.9,1.6-0.7c0.9,0.3,2.1,1.5,3.2,1.9c0.7,0.2,5.2,1,7.4,1.2
	c0.6,0,0.7-0.1,1-0.4c2.3-2.4,3.9-5.7,6.3-8.4c5.5-6.3,11.5-12.8,17.6-18.5c0.6-0.6,1.3-0.6,2.7-0.2c0.8,0.3,1,1,2.7,2.3
	c0.6,0.5,0.9,1.3,0.7,1.7c-0.1,0.3-0.3,0.8-0.6,1.1c-7.9,5.8-11.7,12.6-19.5,20.4c-0.8,0.8-1,1.3-1.1,1.7s-0.1,0.8,0.2,1
	c4.3,0.7,8.8,1.3,13,1.5c0.6,0,0.9-0.1,1.5-0.7c4.7-4.9,8.8-10.7,13-16.2c0.3-0.4,0.5-0.5,0.8-0.6c0.7-0.2,1.3-0.7,2.4-0.3
	c0.8,0.3,1.4,0.7,2.6,1.1c1,0.3,2.1,1.5,1.7,2.6c-0.3,1-0.8,1.9-2,3.5c-3.1,3.9-6.4,7-9.5,11c-0.1,0.4-0.1,0.7,0.3,0.8
	c1.2,0.4,5.4,0.1,6.8,0.6C503.1,178.5,503.8,178.9,504.5,179.6L504.5,179.6z"/>
<path d="M544.2,184c-1.3,3.9-4.8,8.4-10.8,11.6c-4.2,2.3-8.6,2.2-14.9,1.9c-0.6,0-0.8,0-1,0.5c0.2,3,1.6,7.2,2.4,10.8
	c0.1,0.5,0.2,0.8,0.4,1.4c1.2,2.9,2.1,4.7,2.9,6.2c1.8,3.3,3.1,4.1,4.8,5.1c1,0.6,1.5,3.6,0.9,5.2c-0.3,0.8-1.7,0.8-2.9,0.4
	c-1.9-0.6-3.9-2.4-5.9-4.9c-6.5-7.9-7.2-16.3-9.1-25.6c-0.1-0.7-0.3-0.7-0.5-0.8c-0.4-0.1-0.6,0.1-1,0.6c-4.4,6.1-8.4,13.8-9.3,16.5
	c-0.3,0.8-1.6,1.1-3.7,0.3c-1-0.3-0.7-0.4-1.7-1.5c-0.4-0.4-1.5-1.3-1.2-2.3c5-10.2,11.6-19.4,18.6-28.5c0.9-1.2,1.1-1.3,1.7-1.8
	c1-0.7,2.4-3,3.5-4c0.1-0.3-0.1-0.4-0.2-0.4c-0.7-0.2-2-3.6-1.7-4.4c0.2-0.6,0.6-0.8,0.9-0.8c4.1-1.3,11.4-2.4,18.5-0.1
	c2.4,0.8,4.9,2.1,6.1,3c1.7,1.3,1.6,1.5,1.8,1.9c1.6,2.2,1.7,2.7,1.8,4C545.2,179.2,545.1,181.4,544.2,184L544.2,184z M535.5,174.4
	c-1.7-0.6-3.5-0.7-5.3-0.7c-0.5,0-0.9,0-1.3,0.4c-5.1,4.4-8.8,8.4-13.9,15.2c-0.1,0.2-0.1,0.4,0.1,0.6c0.4,0.6,1.2,1,1.9,1.2
	c1,0.3,1.6,0.4,2.9,0.3c1.5,0,1.6,0.5,4.2-0.1c5.8-1.4,12-5.3,14.4-12.3c0.4-1.3,0.4-2,0.2-2.4C538.2,175.8,536.9,174.9,535.5,174.4
	L535.5,174.4z"/>
<path d="M579,197.7c-0.6,1.7-0.9,2.5-2.7,5.4c-5.5,8.7-11.5,16.8-19,21.6c-3.6,2.3-8.3,2.6-12.7,1.1c-1.7-0.6-2.9-1.1-4.5-2.3
	c-1.1-0.8-2.6-3.2-3.2-5.3c-0.9-3.3-0.9-5.9,0.5-9.9c3.7-11,10.2-18,18.9-24.6c4.3-3.2,8.1-5.6,12.5-6.6c1.2-0.3,1.8-0.4,2.4-0.2
	c0.5,0.2,1,0.5,1.6,1.1c0.7,0.7,2.8,2.4,3.7,2.7c0.6,0.2,1.1,0.5,1.5,1.2C580.1,185.7,581.3,191,579,197.7L579,197.7z M571,183.5
	c-0.2-0.1-1.1-0.3-4.1,1.3c-6.9,3.6-13.5,9.1-18.2,15.7c-0.7,0.9-1.8,2.3-2.6,4.6c-0.2,0.6-1.6,3.6-2.2,5.3c-1.1,3.4-1,6.3,0.1,8.5
	c0.2,0.4,1.4,1.3,2.4,1.6c2,0.7,4.8,0.2,6.5-1.1c12.6-9.8,18.8-23,19.5-25.3c0.5-1.6,0.7-2,0.8-2.6c0.4-2.6,0.1-4.9-1.6-6.2
	c-0.2-0.2-0.4-0.4-0.3-0.8C571.4,184,571.2,183.6,571,183.5L571,183.5z"/>
<path d="M612.3,217.5c-0.6,1.5-0.9,2.3-2.7,5c-5.5,7.9-11.6,15.3-19,19.7c-3.6,2.1-8.3,2.4-12.7,1c-1.7-0.5-2.9-1-4.5-2.1
	c-1.1-0.8-2.6-2.9-3.2-4.9c-0.9-3-0.9-5.3,0.5-9c3.7-10,10.2-16.4,18.9-22.4c4.3-3,8.1-5.1,12.5-6c1.2-0.3,1.8-0.3,2.4-0.2
	c0.5,0.1,1,0.5,1.6,1c0.7,0.6,2.8,2.1,3.7,2.4c0.6,0.2,1.1,0.4,1.5,1.1C613.4,206.5,614.5,211.3,612.3,217.5L612.3,217.5z
	 M604.2,204.6c-0.2-0.1-1.1-0.2-4.1,1.2c-6.9,3.3-13.5,8.3-18.2,14.3c-0.7,0.8-1.8,2.1-2.6,4.2c-0.2,0.5-1.6,3.3-2.2,4.9
	c-1.1,3.1-1,5.7,0.1,7.8c0.2,0.4,1.4,1.2,2.4,1.4c2,0.6,4.8,0.2,6.5-1c12.6-8.9,18.8-21,19.5-23.1c0.5-1.4,0.7-1.8,0.8-2.4
	c0.4-2.4,0.1-4.5-1.6-5.6c-0.2-0.1-0.4-0.4-0.3-0.7C604.7,205,604.5,204.6,604.2,204.6L604.2,204.6z"/>
<path d="M636.6,213.3c-0.4,0.7-1.7,3.6-2.9,7.4c-0.2,0.6-0.6,2.5-2.8,9.8c-0.2,0.6-0.1,0.9,0.1,1c0.1,0,0.2,0,1-0.5
	c8.1-5.1,17.2-8.3,24.4-13.7c0.6-0.5,0.8-0.5,1.1-0.4c1.7,0.6,2,1.4,2.7,1.7c0.2,0.1,1.2,1.9,0.7,3.6c-0.1,0.2-0.2,0.3-0.5,0.6
	c-10.4,9.1-17.8,20.3-25.5,40.2c-0.6,1.6-0.7,1.6-1,1.5c-0.5-0.2-0.7-0.9-1.3-1.1c-0.4-0.1-0.4,0.2-0.8,0c-0.8-0.3-1.8-1.7-2.2-2.4
	c-0.3-0.6-0.4-0.7-0.3-1.1c0.2-0.5,6.8-14.6,7.8-16.7c1.1-2.2,4.6-7.7,7.1-11.4c0.1-0.3,0-0.3-0.2-0.4c-0.1,0-0.2,0-0.4,0.1
	c-4.2,2.4-11.1,6.7-12.4,7.6c-0.8,0.5-0.9,0.5-1.1,0.4c-0.2-0.1-0.8-0.7-2.1-1.5c-1-0.6-2.1-1.3-2.5-2.8c-0.3-1.1-0.2-4,0.6-7.2
	l2.1-7.1c0.1-0.2,0-0.4-0.1-0.4c-0.2-0.1-0.3,0-1.1,0.9c-3.3,3.5-5.7,6.8-8.8,11.2c-5.2,7.4-8.2,12.6-9.1,15.7
	c-0.2,0.5-1.2,0.9-1.6,0.8c-1-0.4-1.2,0.4-1.7,0.2s-1.7-1.9-2-2.1c-0.5-0.2-0.9-1.9-0.5-3.2c0.8-2.7,3.3-4.4,4.2-5.9
	c7.6-13.1,19.2-24.2,27.3-35c0.7-0.9,0.9-1.2,1.1-1.1c0.6,0.2,0.6,0.5,1.6,1s2.2,1.2,2.6,2.3c0.2,0.4,0.2,0.7,0.2,0.9
	C640.1,207.6,637.8,211.2,636.6,213.3L636.6,213.3z"/>
<path d="M324,191.9c-0.1,0.2-0.2,0.4-0.7,0.6c-2.1,0.8-4.1,2.8-6.3,5.4c-1.2,1.4-2,2-3.6,3.7c-6.9,7.3-13.5,15.2-19.9,23.5
	c-0.3,0.3-0.7,0.9-0.9,1.6c-0.2,0.7,0,1.7,0.7,1.9c0.4,0.1,1.1,0.3,3.5,0.5c6,0.4,12.2,0.2,17.8-0.1c0.4,0,0.8,0.1,1.5,0.3
	c0.9,0.3,2.8,1.8,3.6,3.5c0.2,0.3,0.4,0.7,0.2,1.1c-0.1,0.3,0.3,0.7,0,1.5c-0.1,0.3-0.2,0.7-0.6,1c-0.5,0.4-1.2,0.5-3.6-0.3
	c-0.7-0.2-0.9-0.3-1.6-0.3c-8.8-0.7-16.7,1.1-25.4-1.8c-3.1-1-4.3-4.6-5-6.8c-0.1-0.4-0.1-0.7,0.1-1.2c0.3-1,1.2-2.1,2.8-4
	c0.9-1,0.4-1.2,2.4-3.9c9.3-12.2,20.6-22.9,30.9-34c0.7-0.7,2.3-0.2,2.8,0c0.7,0.2,0.4,0.8,1.9,1.8c0.9,0.6,2,1.8,1.7,2.4
	C325.8,190.3,324.4,190.8,324,191.9L324,191.9z"/>
<path d="M387.4,211.6c-0.8-0.2-1.5,0.1-2.3-0.2c-0.7-0.2-1.2-1.2-2.8-1.7c-8-2.4-16-2.9-22.8-2.9c-0.6,0-0.9,0.1-1.4,0.6
	c-2.9,3.3-5.7,6.1-8.7,9.4c-0.1,0.2,0,0.3,0.2,0.4c4.3-0.1,9.4-0.5,13.6,0.8c2,0.6,4,1.7,5.8,3.5c0.8,0.7,0.5,2,0.2,2.8
	c-0.3,0.9-4,0.5-4.6,0.3c-1-0.3-2-0.8-2.7-1.1c-5.3-1.6-11.1-0.6-15.8-0.9c-0.7-0.1-2.4-0.1-3,0.5c-6.4,6.2-11.3,11-12.8,15
	c-0.5,1.2,0.2,3,1.2,3.2c1.5,0.5,4.7,0.8,7.4,0.6c2.9-0.2,5-0.3,6.6-0.4c5.2-0.4,10.7-2.9,15.8-1.4c0.3,0.1,0.7,0.2,0.8,0.5
	c0.2,0.6,2.1,2.2,1.8,3.2c-0.2,0.5-0.5,0.9-0.9,0.8c-0.7,0-1.4,0.1-2.2,0.4c-1.2,0.5-2.3,0.8-2.9,0.8c-9.1,1.4-18.9,2.9-30.4-0.6
	c-0.6-0.2-4.6-2.5-5.4-5.1c-0.3-0.9,0.4-3.1,0.8-4.1c2.3-6.3,7.5-10.8,11.8-15.7c-0.2-0.3-0.7-1.4-0.2-2.7c0.1-0.3,0.3-0.7,0.5-0.9
	c0.4-0.3,0.8-0.3,2.8-0.2c0.7,0.1,0.9,0,1.7-0.7c4.1-4,6.3-6.2,7.8-8.4c0.1-0.3,0.1-0.4-0.2-0.5c-0.5-0.2-2.2,0-3.4-0.3
	c-0.5-0.2-1.1-0.4-1.5-0.8c-1-0.9-1.1-3.6-0.8-4.5c0.1-0.4,0.3-0.4,0.7-0.4c5.9,0.4,11.5,0.1,17.2-0.1c3.8-0.1,16,0.5,24.5,3.1
	c0.8,0.3,2.3,0.9,2.7,1.3c1.7,1.5,3.2,3.7,2.7,5.1C388.8,211.7,388.4,211.9,387.4,211.6L387.4,211.6z"/>
<path d="M388.5,272.3c-0.5,0.2-0.7,0.1-1,0c-1.3-0.4-2.9-1.4-3.6-2.8s0.6-6.7,1.9-10.6c1.2-3.6,2.7-6.9,3.9-10.5
	c0.1-0.2,0-0.4-0.4-0.5c-5.1,0.1-14.5,0-17.7-0.6c-0.6-0.1-0.9,0-1.6,0.7c-1.7,1.8-2.6,3.6-3.1,5.1c-1.2,3.5-1,3.9-1.3,4.5
	c-0.1,0.2-0.3,0.3-0.6,0.3c-1.3,0.4-2.5,1.1-3.6,0.7c-0.2-0.1-0.9-0.7-1.3-1.2c-1.4-1.7-1.5-2.8-0.4-6.1c1-3.1,3.3-6.3,3.3-6.6
	c0.1-0.2,0-0.4-0.3-0.7c-1.6-1.7-2.1-2.3-1.7-3.3c0.6-1.7,2.4-3.9,2.7-4c0.4-0.1,0.7-0.1,1,0c1.3,0.4,1.9,2.1,3,2.5
	c0.2,0.1,0.4,0.1,1.3-0.8c10.1-9.4,20.5-18.4,33.6-28.6c1.9-1.5,2.1-1.5,2.4-1.4c0.9,0.3,3.6,0.1,5.4,0.8c1,0.3,2.4,1.2,2.5,1.6
	c0,0.9,0.4,0.8,0.2,1.5c-0.2,0.7-3.6,6.7-3.7,7.1c-0.3,0.8-0.6,1.6-1.1,2.5c-3,5.7-8.2,18.5-8.3,18.9c-0.1,0.2-0.2,0.5,0.3,0.6
	c0.6,0.2,1.9,0.3,4.2,1.1c2.1,0.7,3.9,1.9,4.3,3.1c0.2,0.6,0.3,0.8,0.2,1c-0.1,0.2-0.3,0.6-0.7,0.9c-1.5,1.3-3.4,1.2-6.4,0.1
	c-1.3-0.4-2.7-0.6-3.8-0.4c-0.9,0.2-1,0.3-1.4,1.3l-3.1,7.8c-0.4,1-1.4,3.8-1.8,5c-2.2,6.4-1.2,8.8-1.3,9.2
	C390.4,271.8,389.3,272.1,388.5,272.3L388.5,272.3z M401.3,220.7c0.4-1.2,0.3-1.3,0.2-1.4c-0.2-0.1-0.3-0.1-0.9,0.4
	c-9.3,7.7-16,13.5-22.5,19.7c-1.3,1.2-1.6,1.6-1.6,1.7c-0.1,0.2,0.1,0.4,0.4,0.5c0.9,0.3,5.8,0.5,8.7,0.4c3.3-0.1,5.6-0.1,6-0.1
	s0.6-0.1,0.8-0.7C397.4,230.7,400.1,224.3,401.3,220.7L401.3,220.7z"/>
<path d="M459.8,236.5c-0.5,0-1.4,0.5-2.7,0.1c-0.6-0.2-0.3-0.7-1.3-1.6c-1.2-1-1.4-1.4-2.2-1.7c-4.4-1.5-8.7-2.3-12.2-2.8
	c0.3,0.5,0.3,0.9,0.2,1.1c-0.1,0.2-0.2,0.3-0.3,0.4c-10.6,9.2-19,18.9-26,31.5c-0.7,1.2-1,1.6-1.3,2.6c-0.2,0.6-0.3,1.3-0.6,1.9
	c-0.5,1.4-1.2,2.4-3,1.8c-1.2-0.4-2.5-1.7-3.5-2.9c-0.3-0.4-0.6-1.7-0.4-2.3c0.2-0.5,1.1-2.5,1.5-3.2c7.4-11.7,15.2-22.4,24.8-32.1
	c0.1-0.2,0-0.3-0.4-0.5c-1.1-0.3-3.9-0.9-5.9-1.5c-1.7-0.6-3.5-1.7-4-2.8c-0.1-0.2,0-0.4,0.6-2.4c0.6-1.9,2.1-2.4,2.7-2.2
	c0.7,0.2,0.7,0.8,5.9,2.6c7.6,2.6,15.9,2.5,24,5.2c2.9,1,6.3,5.5,6,6.4C461.1,236.1,460.5,236.5,459.8,236.5L459.8,236.5z"/>
<path d="M486.5,266.9c0.2,0.3,0.4,0.5,0.7,0.6c0.9,0.4,1.4,1.8,1.5,2.9c0.1,1,0.4,0.9-0.2,2.2c-0.4,0.8-0.8,0.9-1.1,0.8
	c-5.2-2.3-10.1-2.9-14.9-4.1c-0.9-0.2-1.2-0.1-1.6,0.2c-2.5,1.7-4.4,4.5-6.6,6.8c-4.1,4.4-7.2,9.4-10.2,14.2
	c-0.4,0.6-1.5,0.5-2.3,0.2c-1-0.5-2.1-1.3-2.8-2c-0.8-0.8-0.6-2.3-0.3-3.4c0.1-0.4,0.2-0.8,0.4-1.2c0.3-0.6,0.5-1.1,1.3-2
	c3.3-3.7,6.9-8.9,10.2-12.4c0.4-0.4,0.9-1.2,1.1-1.6c0.2-0.5,0.1-1-0.5-1.2l-12-2.7c-0.9-0.2-1.1-0.1-1.5,0.2
	c-3,2.1-6.4,7.6-7.6,8.6c-0.3,0.2-0.7,0.7-1.2,1.8c-0.6,1.4-0.8,2.8-1.2,3.5c-0.6,1.4-1.2,2.1-2.6,1.5c-0.7-0.3-1.7-1-2-1.4
	c-0.6-1.2-1.1-1.1-1.6-2.2c-0.3-0.7-0.3-1.2-0.7-1.3c-0.4-0.2-0.4-0.4-0.1-1c0.2-0.4,1-1.9,1.6-2.7l0.8-1.1c1.2-1.8,4.6-6.1,5.1-7.1
	c0.1-0.3,0.1-0.4-0.1-0.5c-0.5-0.2-2.6-0.6-4.2-1.3c-1.8-0.8-3.4-1.9-4-4c-0.2-0.7,0.5-3.4,0.7-3.7c0.2-0.5,1-0.9,1.8-0.5
	c0.9,0.4,2,1.7,3.1,2.2c0.7,0.3,5.2,1.6,7.4,1.9c0.6,0.1,0.8,0,1.1-0.3c2.6-2.2,4.6-5.2,7.3-7.7c6.3-5.7,13-11.6,19.9-16.6
	c0.7-0.5,1.4-0.5,2.8,0.1c0.8,0.3,0.9,1.1,2.6,2.6c0.6,0.5,0.8,1.4,0.6,1.8c-0.1,0.3-0.4,0.8-0.8,1c-8.7,5-13.3,11.3-22.1,18.3
	c-0.9,0.7-1.1,1.2-1.3,1.5c-0.2,0.4-0.2,0.8,0.1,1c4.4,1.2,8.9,2.2,13.2,2.8c0.6,0.1,0.9,0,1.6-0.5c5.4-4.4,10.1-9.7,14.9-14.8
	c0.4-0.4,0.6-0.5,0.9-0.5c0.7-0.1,1.4-0.6,2.5-0.1c0.8,0.3,1.4,0.9,2.6,1.4c1,0.4,2,1.7,1.5,2.8c-0.4,0.9-1,1.8-2.4,3.2
	c-3.5,3.6-7.3,6.3-10.9,10c-0.2,0.4-0.2,0.6,0.3,0.9c1.2,0.5,5.5,0.7,6.9,1.3C485.2,265.6,485.8,266.1,486.5,266.9L486.5,266.9z"/>
<path d="M538.4,266.5c-0.7-0.2-1.5,0-2.2-0.2c-0.6-0.2-1.1-1.1-2.6-1.6c-7.6-2.2-15.3-2.7-21.7-2.7c-0.5,0-0.8,0.1-1.3,0.6
	c-2.8,3-5.4,5.6-8.3,8.7c-0.1,0.2,0,0.3,0.2,0.4c4.1-0.1,8.9-0.5,13,0.7c1.9,0.6,3.8,1.6,5.5,3.2c0.7,0.7,0.5,1.9,0.2,2.6
	c-0.3,0.8-3.8,0.5-4.4,0.3c-1-0.3-1.9-0.8-2.6-1c-5-1.5-10.6-0.6-15.1-0.9c-0.7,0-2.3-0.1-2.9,0.4c-6.1,5.8-10.8,10.1-12.2,13.9
	c-0.4,1.1,0.2,2.7,1.1,3c1.5,0.4,4.5,0.8,7.1,0.6c2.8-0.2,4.8-0.3,6.3-0.4c4.9-0.4,10.2-2.7,15.1-1.2c0.3,0.1,0.6,0.2,0.7,0.5
	c0.2,0.5,2,2.1,1.7,2.9c-0.2,0.5-0.5,0.8-0.8,0.8c-0.6,0-1.3,0.1-2.1,0.4c-1.2,0.4-2.2,0.7-2.7,0.8c-8.7,1.3-18,2.7-29-0.5
	c-0.6-0.2-4.3-2.3-5.1-4.7c-0.3-0.9,0.4-2.9,0.7-3.8c2.2-5.8,7.2-9.9,11.2-14.5c-0.2-0.3-0.7-1.3-0.2-2.5c0.1-0.3,0.2-0.6,0.5-0.8
	c0.4-0.3,0.7-0.3,2.7-0.2c0.7,0,0.9,0,1.6-0.6c4-3.7,6-5.7,7.5-7.7c0.1-0.3,0.1-0.4-0.2-0.4c-0.5-0.1-2.1,0-3.2-0.3
	c-0.5-0.1-1-0.4-1.4-0.7c-0.9-0.8-1.1-3.3-0.8-4.1c0.1-0.4,0.3-0.4,0.7-0.4c5.6,0.4,11,0.1,16.4-0.1c3.6-0.1,15.2,0.4,23.3,2.8
	c0.8,0.2,2.2,0.9,2.6,1.2c1.6,1.4,3.1,3.4,2.6,4.7C539.8,266.5,539.3,266.7,538.4,266.5L538.4,266.5z"/>
<path d="M570.1,280.3c-1.3,3.9-4.8,8.4-10.8,11.6c-4.2,2.3-8.6,2.2-14.9,1.9c-0.6,0-0.8,0-1,0.5c0.2,3,1.6,7.2,2.4,10.8
	c0.1,0.5,0.2,0.8,0.4,1.4c1.2,2.9,2.1,4.7,2.9,6.2c1.8,3.3,3.1,4.1,4.8,5.1c1,0.6,1.4,3.6,0.9,5.2c-0.3,0.8-1.7,0.8-2.9,0.4
	c-1.9-0.6-3.9-2.4-5.9-4.9c-6.5-7.9-7.2-16.3-9.1-25.6c-0.1-0.7-0.3-0.7-0.4-0.8c-0.4-0.1-0.6,0.1-1,0.6c-4.4,6.1-8.4,13.8-9.3,16.5
	c-0.3,0.8-1.6,1.1-3.7,0.3c-1-0.3-0.7-0.4-1.7-1.5c-0.4-0.4-1.5-1.3-1.2-2.3c5-10.2,11.6-19.4,18.6-28.5c0.9-1.2,1.1-1.3,1.8-1.8
	c1-0.7,2.4-3,3.5-4c0.1-0.3-0.1-0.4-0.2-0.4c-0.7-0.2-2-3.6-1.7-4.4c0.2-0.6,0.6-0.8,0.9-0.8c4.1-1.3,11.4-2.4,18.5-0.1
	c2.4,0.8,4.9,2.1,6.1,3c1.7,1.3,1.6,1.5,1.9,1.9c1.6,2.2,1.7,2.7,1.8,4C571,275.5,571,277.7,570.1,280.3z M561.4,270.7
	c-1.7-0.6-3.5-0.7-5.3-0.7c-0.5,0-0.9,0.1-1.3,0.4c-5.1,4.4-8.8,8.4-13.8,15.2c-0.1,0.2-0.1,0.4,0.1,0.6c0.4,0.6,1.2,1,1.9,1.2
	c1,0.3,1.6,0.4,2.9,0.3c1.5,0,1.6,0.5,4.2-0.1c5.8-1.4,12-5.3,14.4-12.3c0.4-1.3,0.4-2,0.2-2.4C564,272.1,562.8,271.2,561.4,270.7
	L561.4,270.7z"/>
</svg>
