<?xml version="1.0" encoding="UTF-8"?>
<svg id="a" data-name="Layer 1" xmlns="http://www.w3.org/2000/svg" width="10.18in" height="5.852in" viewBox="0 0 732.947 421.369">
  <path d="M192.975,153.412c-17.433,.842-32.56-.488-47.469-3.887-10.557-2.407-20.756-5.873-30.106-11.496-10.499-6.313-19.262-14.448-25.331-25.148-10.442-18.408-24.955-33.078-41.615-45.773-9.291-7.08-19.038-13.575-28.157-20.861-5.231-4.18-10.791-8.387-12.893-15.42-2.14-7.162,1.002-12.445,5.925-16.913C21.543,6.456,31.472,4.776,42.212,5.785c21.405,2.011,39.489,12.123,57.027,23.374,16.338,10.482,30.662,23.397,43.094,38.295,6.751,8.09,12.861,16.696,19.814,24.649,11.258,12.878,23.428,24.702,37.875,33.965,5.017,3.217,11.101,3.888,16.626,5.939,4.124,1.531,8.265,3.225,12.674,3.917,2.156,.339,16.631,3.823,18.35,4.731,2.113,1.116,2.197,3.293,1.934,5.403-.242,1.944-1.815,2.042-3.307,2.26-11.566,1.689-23.092,3.74-34.706,4.961-6.849,.72-13.836,.132-18.618,.132Zm34.239-9.924c-.693-.448-.861-.626-1.06-.674-1.104-.267-2.217-.493-3.323-.751-12.935-3.018-25.207-7.468-35.779-15.876-15.195-12.084-28.523-26.025-40.277-41.376-10.398-13.581-21.506-26.41-34.72-37.285-13.371-11.004-27.88-20.263-43.806-27.182-10.82-4.701-21.896-8.01-33.958-7.414-5.483,.271-10.236,1.847-14.585,4.931-5.586,3.961-7.168,8.883-4.178,13.296,1.315,1.941,3.018,3.666,4.749,5.269,4.658,4.311,9.766,8.046,14.916,11.767,9.931,7.177,19.802,14.453,29.068,22.505,12.608,10.956,23.304,23.524,31.697,37.959,6.412,11.027,15.358,19.292,26.575,25.096,17.965,9.296,37.5,11.933,57.351,12.819,8.728,.39,17.485,.26,26.194-.737,6.859-.785,13.785-.975,21.136-2.348Z" fill="#fff"/>
  <path d="M627.329,412.337c-7.744,.34-15.486-2.529-23.44-5.148-12.077-3.976-347.848-116.993-359.618-122.748-11.692-5.716-17.813-15.193-20.78-28.035-1.783-7.717-21.665-100.387-22.786-115.488-.936-12.615,5.066-22.634,14.635-30.71,12.92-10.904,80.411-69.002,83.729-71.75,9.083-7.522,19.537-9.618,31.01-7.597,10.7,1.884,356.758,120.133,369.87,124.604,10.859,3.703,19.645,10.308,24.74,20.613,3.775,7.636,3.411,20.341,.246,29.324-7.88,22.367-57.442,178.173-61.039,185.158-7.284,14.141-18.781,20.997-36.566,21.777ZM240.991,147.812c-.267,8.615,4.283,16.398,16.092,16.398,12.08,0,16.433-7.141,16.568-16.866,.11-7.969-6.098-16.37-17.299-15.761-10.637,.578-15.096,7.67-15.362,16.228Z" fill="#fff"/>
  <path d="M353.02,112.341c-.531,.792-2.1,3.888-3.511,8.095-.211,.635-.744,2.752-3.409,10.69-.211,.636-.081,1.035,.158,1.114,.156,.053,.264,0,1.247-.553,9.992-5.57,21.143-9.07,29.999-14.934,.792-.528,.981-.553,1.375-.419,2.067,.692,2.408,1.514,3.281,1.808,.239,.078,1.425,2.065,.814,3.891-.081,.239-.186,.292-.664,.661-12.781,9.931-21.804,22.094-31.349,43.71-.747,1.692-.85,1.745-1.167,1.639-.556-.186-.9-1.006-1.614-1.247-.475-.158-.503,.186-.981,.025-1.031-.344-2.22-1.803-2.67-2.572-.394-.664-.447-.769-.314-1.167,.186-.556,8.342-15.923,9.617-18.146,1.331-2.381,5.628-8.356,8.653-12.376,.106-.317,.028-.343-.211-.424-.156-.053-.264,0-.475,.104-5.195,2.586-13.676,7.337-15.212,8.235-.981,.554-1.061,.526-1.3,.447-.236-.079-.978-.771-2.62-1.672-1.267-.692-2.617-1.41-3.039-3.052-.317-1.167-.228-4.316,.756-7.782l2.583-7.699c.081-.239,.053-.426-.106-.479-.236-.079-.369,.054-1.403,1.032-4.009,3.778-6.978,7.373-10.798,12.184-6.425,8.092-10.089,13.751-11.206,17.084-.186,.556-1.486,1.003-1.964,.844-1.189-.4-1.456,.394-2.092,.181-.633-.211-2.031-2.095-2.508-2.253-.556-.186-1.058-2.122-.606-3.472,.986-2.936,4.064-4.731,5.15-6.398,9.292-14.281,23.585-26.354,33.51-38.038,.875-1.031,1.139-1.296,1.378-1.217,.794,.267,.717,.506,2.011,1.117,1.217,.585,2.647,1.328,3.225,2.495,.211,.424,.267,.794,.186,1.033-.453,1.35-3.267,5.261-4.728,7.512Z"/>
  <path d="M406.198,120.773c-.075,.328-.83,1.355-1.205,1.869-7.774,11.261-16.717,20.531-21.174,31.959-.43,1.104-.932,2.534-1.369,4.412-.224,.979-.119,1.259,.126,1.316,.651,.153,1.953,.112,3.559-.891,18.492-11.524,30.197-21.957,35.925-27.762,1.241-1.26,.813-1.272,2.829-3.297,.678-.701,2.507-1.912,2.913-1.817,.328,.075,1.067,.591,2.619,.952,.325,.075,.573,.478,.727,.943l.725,2.058c.15,.464,.301,.93,.226,1.255-.078,.327-.355,.778-.988,1.66-2.104,3.123-5.286,5.736-7.387,8.859-6.495,9.837-10.774,19.763-13.389,31.016-.414,1.795-.429,2.221-.487,2.466-.132,.571-.681,.701-1.332,.549-1.224-.282-.904-.552-1.743-1.005-.759-.432-1.523-1.213-2.494-2.211-.559-.56-1.355-.833-1.11-1.892,.115-.491,.344-1.124,.808-1.618,.335-.35,.475-.576,.71-1.209,1.959-5.476,3.328-11.004,5.668-15.531,.315-.616,.47-.924,.547-1.25,.055-.245-.071-.445-.313-.5-.166-.04-.446,.065-.746,.256-7.244,5.281-16.052,11.745-23.699,15.815-.889,.481-2.668,.755-4.055,.433-.979-.227-2.496-1.095-3.06-2.001-1.19-1.906-3.292-1.365-3.88-3.65-.133-.548,.253-2.949,.785-5.235,1.174-5.055,3.494-9.502,5.192-12.371,5.234-8.842,11.612-17.076,17.237-25.741,.533-.821,.953-1.153,1.313-1.587,.815-.926,1.733-1.919,2.955-1.634,.411,.095,.579,.478,2.059,1.508,.596,.396,1.418,.932,1.593,1.659,.131,.548,.049,1.645-.086,2.216Z"/>
  <path d="M463.277,154.779c-.158,1.006-.217,2.222-.375,2.7-.186,.556-1.139,.767-2.014,.472-.314-.106-.764-.344-1.267-.692-1.375-.9-2.245-3.047-2.561-3.947-.475-1.483,.908-4.817-1.022-6.967-.45-.503-.872-.822-1.583-1.061-.561-.186-2.706,1.742-4.011,5.634-.292,.872-1.12,3.597-1.522,8.231-.514,5.478-.775,17.579-1.845,24.196-.508,3.097-.722,3.997-1.203,5.425-1.092,3.256-3.981,5.289-7.292,5.414-.711,.025-1.347-.186-3.172-.8-7.067-2.37-12.667-8.837-15.565-16.787-.686-1.908-2.561-4.478-1.839-9.27,.136-.925,.375-1.642,.642-2.436,.239-.714,1.725-1.981,2.52-1.717,1.347,.453,2.853,1.489,3.675,2.47,1.189,1.458,1.978,3.314,1.845,3.711-.4,1.189-1.033,1.242-1.62,2.989-.108,.317-.028,.872,.05,1.428,.814,4.425,4.22,9.806,8.159,12.806,.633,.475,1.322,.794,1.956,1.008,1.272,.425,3.125-.367,3.684-2.033,.692-2.064,1.361-4.578,1.653-6.245,1.633-9.345,.908-17.445,2.25-26.977,.133-.925,.828-4.845,1.333-6.353,.267-.794,.453-1.35,.664-1.717,1.433-2.436,3.297-6.931,7.425-5.548,4.209,1.411,8.148,3.614,10.362,8.595,1.111,2.492,1.025,5.378,.675,7.47Z"/>
  <path d="M508.624,179.637c.264,.264,.475,.425,.714,.503,.953,.319,1.558,1.672,1.742,2.706s.506,.875,.053,2.225c-.294,.872-.692,1.003-1.011,.897-5.239-1.758-10.059-1.872-14.768-2.57-.928-.133-1.167,.053-1.539,.367-2.253,1.983-3.847,4.892-5.759,7.431-3.559,4.811-6.028,10.076-8.448,15.184-.289,.608-1.375,.686-2.17,.419-1.031-.347-2.197-1.092-2.886-1.675-.819-.717-.761-2.197-.628-3.389,.053-.425,.108-.847,.242-1.245,.214-.633,.4-1.192,1.064-2.117,2.839-3.992,5.761-9.545,8.628-13.354,.317-.425,.772-1.245,.931-1.72,.186-.556-.025-.981-.581-1.167l-11.862-1.506c-.847-.106-1.056,0-1.431,.317-2.731,2.35-5.417,8.25-6.475,9.309-.264,.264-.611,.764-.983,1.875-.481,1.431-.508,2.834-.775,3.628-.481,1.428-.931,2.25-2.361,1.77-.711-.239-1.772-.772-2.064-1.222-.683-1.114-1.161-1.008-1.795-2.017-.397-.661-.422-1.111-.819-1.245-.394-.133-.394-.397-.208-.953,.133-.397,.772-2.039,1.303-2.831l.664-1.192c.983-1.875,3.878-6.559,4.222-7.592,.108-.317,.053-.422-.183-.5-.556-.186-2.622-.353-4.206-.883-1.828-.614-3.47-1.514-4.284-3.556-.292-.714,.161-3.389,.297-3.786,.186-.556,.847-.95,1.645-.683,.95,.319,2.139,1.514,3.25,1.886,.714,.239,5.214,1.042,7.384,1.153,.608,.025,.744-.108,1.011-.369,2.306-2.408,3.928-5.661,6.339-8.384,5.548-6.264,11.465-12.845,17.587-18.476,.639-.581,1.275-.631,2.703-.153,.794,.267,.981,1.033,2.75,2.333,.633,.478,.897,1.272,.736,1.75-.106,.317-.267,.794-.636,1.111-7.875,5.836-11.726,12.581-19.551,20.379-.792,.792-.953,1.267-1.086,1.667-.133,.394-.108,.844,.208,.953,4.342,.747,8.839,1.286,13.023,1.453,.608,.028,.903-.05,1.458-.661,4.748-4.939,8.784-10.653,12.951-16.232,.317-.425,.533-.528,.822-.608,.689-.208,1.297-.711,2.411-.339,.792,.264,1.428,.744,2.617,1.142,1.033,.347,2.064,1.489,1.692,2.6-.319,.953-.825,1.931-2.045,3.464-3.081,3.914-6.42,7.031-9.526,11.023-.133,.397-.136,.661,.342,.822,1.189,.397,5.428,.142,6.775,.594,1.111,.372,1.772,.772,2.514,1.461Z"/>
  <path d="M548.352,183.984c-1.306,3.889-4.834,8.356-10.77,11.576-4.217,2.295-8.581,2.156-14.937,1.878-.608-.025-.792,0-.953,.475,.153,2.967,1.572,7.153,2.386,10.781,.108,.478,.186,.769,.425,1.378,1.158,2.861,2.058,4.664,2.875,6.175,1.82,3.261,3.114,4.136,4.806,5.145,.956,.583,1.453,3.578,.919,5.164-.267,.794-1.67,.764-2.861,.367-1.903-.639-3.859-2.445-5.867-4.881-6.525-7.931-7.173-16.27-9.062-25.649-.133-.664-.292-.717-.45-.769-.397-.133-.636,.053-.981,.556-4.431,6.109-8.414,13.779-9.32,16.479-.267,.794-1.595,1.056-3.736,.336-.953-.319-.664-.397-1.72-1.458-.397-.4-1.508-1.3-1.161-2.333,4.998-10.156,11.553-19.44,18.559-28.482,.928-1.189,1.061-1.322,1.75-1.797,1.036-.711,2.417-2.986,3.478-4.045,.108-.317-.053-.372-.211-.425-.714-.239-1.981-3.575-1.689-4.45,.214-.633,.614-.767,.903-.844,4.053-1.292,11.417-2.442,18.482-.072,2.383,.797,4.867,2.075,6.139,3.028,1.689,1.275,1.611,1.514,1.85,1.858,1.556,2.2,1.664,2.675,1.847,3.975,.208,1.22,.175,3.417-.703,6.036Zm-8.72-9.551c-1.745-.583-3.545-.747-5.32-.722-.531-.003-.897,.05-1.272,.367-5.095,4.386-8.831,8.431-13.851,15.226-.078,.239-.133,.397,.053,.636,.425,.583,1.242,1.036,1.878,1.247,1.033,.347,1.642,.372,2.886,.35,1.511-.025,1.586,.533,4.184-.097,5.773-1.42,12.031-5.328,14.373-12.312,.428-1.272,.4-1.986,.192-2.411-.475-.953-1.772-1.831-3.122-2.283Z"/>
  <path d="M583.116,197.736c-.558,1.667-.853,2.539-2.711,5.448-5.467,8.678-11.548,16.793-18.998,21.626-3.606,2.322-8.289,2.606-12.656,1.142-1.667-.558-2.884-1.145-4.522-2.311-1.136-.825-2.645-3.184-3.247-5.328-.919-3.311-.864-5.853,.492-9.901,3.675-10.956,10.201-18.04,18.948-24.643,4.27-3.25,8.139-5.573,12.537-6.57,1.247-.292,1.806-.367,2.361-.181,.472,.158,.972,.503,1.583,1.061,.739,.689,2.828,2.361,3.703,2.653,.556,.189,1.083,.453,1.533,1.222,2.108,3.709,3.242,9.034,.978,15.781Zm-8.05-14.179c-.239-.081-1.058-.267-4.056,1.289-6.942,3.589-13.465,9.081-18.246,15.695-.658,.925-1.831,2.297-2.603,4.6-.186,.556-1.645,3.6-2.231,5.345-1.145,3.414-.964,6.3,.144,8.526,.211,.425,1.428,1.275,2.378,1.592,1.986,.667,4.792,.194,6.461-1.097,12.57-9.828,18.762-23.029,19.534-25.332,.531-1.586,.664-1.983,.797-2.645,.431-2.595,.144-4.898-1.631-6.198-.208-.161-.394-.4-.261-.797,.158-.475-.05-.9-.289-.978Z"/>
  <path d="M616.38,217.478c-.558,1.518-.853,2.312-2.708,4.961-5.47,7.901-11.551,15.293-18.998,19.694-3.606,2.115-8.295,2.373-12.662,1.04-1.667-.508-2.881-1.042-4.52-2.105-1.136-.751-2.642-2.899-3.247-4.852-.919-3.018-.867-5.333,.492-9.019,3.675-9.978,10.203-16.429,18.951-22.439,4.27-2.96,8.139-5.075,12.537-5.986,1.247-.263,1.803-.331,2.358-.162,.475,.144,.975,.458,1.586,.966,.739,.627,2.828,2.15,3.7,2.416,.556,.169,1.086,.412,1.533,1.113,2.111,3.377,3.242,8.227,.978,14.372Zm-8.048-12.912c-.242-.073-1.061-.245-4.056,1.174-6.942,3.268-13.467,8.27-18.246,14.293-.661,.842-1.831,2.092-2.603,4.189-.186,.506-1.647,3.276-2.233,4.867-1.145,3.107-.964,5.738,.144,7.764,.211,.385,1.428,1.161,2.381,1.45,1.986,.607,4.792,.177,6.461-.999,12.567-8.95,18.759-20.972,19.532-23.069,.533-1.447,.664-1.806,.8-2.408,.431-2.363,.142-4.46-1.633-5.647-.208-.144-.392-.362-.258-.724,.158-.433-.053-.82-.289-.89Z"/>
  <path d="M640.691,213.278c-.432,.731-1.711,3.577-2.861,7.445-.172,.585-.607,2.532-2.777,9.834-.172,.585-.066,.95,.129,1.025,.127,.049,.215-.003,1.016-.511,8.142-5.123,17.228-8.342,24.444-13.733,.647-.485,.799-.508,1.12-.388,1.684,.636,1.962,1.395,2.673,1.663,.195,.074,1.161,1.901,.663,3.58-.066,.22-.152,.268-.541,.608-10.415,9.134-17.767,20.322-25.544,40.202-.609,1.556-.693,1.605-.951,1.507-.453-.171-.733-.927-1.315-1.147-.387-.148-.41,.169-.799,.023-.84-.319-1.811-1.661-2.175-2.368-.321-.608-.367-.705-.258-1.071,.152-.511,6.8-14.645,7.839-16.689,1.084-2.19,4.586-7.688,7.051-11.382,.086-.291,.023-.317-.172-.391-.127-.049-.215,0-.387,.097-4.233,2.379-11.143,6.748-12.395,7.573-.799,.508-.865,.485-1.059,.411-.192-.074-.797-.708-2.135-1.538-1.032-.636-2.132-1.298-2.476-2.805-.258-1.073-.186-3.97,.616-7.159l2.105-7.082c.066-.22,.045-.391-.086-.439-.192-.074-.301,.049-1.143,.948-3.266,3.475-5.688,6.783-8.798,11.209-5.236,7.44-8.221,12.647-9.131,15.713-.152,.511-1.211,.922-1.6,.774-.969-.365-1.186,.365-1.704,.169-.516-.197-1.655-1.926-2.044-2.075-.453-.171-.862-1.949-.493-3.191,.804-2.701,3.312-4.351,4.197-5.884,7.572-13.135,19.218-24.242,27.305-34.985,.713-.95,.928-1.193,1.123-1.119,.647,.245,.584,.465,1.639,1.025,.991,.539,2.155,1.224,2.628,2.294,.172,.391,.217,.731,.152,.95-.369,1.242-2.664,4.842-3.853,6.909Z"/>
  <path d="M328.085,191.956c-.078,.239-.211,.369-.717,.553-2.12,.792-4.109,2.772-6.309,5.389-1.17,1.378-1.992,1.983-3.636,3.728-6.873,7.323-13.476,15.173-19.901,23.529-.289,.344-.664,.925-.878,1.561-.239,.714-.028,1.667,.689,1.906,.394,.133,1.139,.294,3.547,.483,6.031,.436,12.203,.208,17.793-.125,.447-.028,.844,.106,1.478,.319,.875,.294,2.753,1.806,3.597,3.503,.156,.317,.369,.742,.236,1.139-.106,.317,.292,.714,.025,1.508-.106,.319-.239,.714-.614,1.031-.472,.372-1.217,.475-3.6-.325-.714-.239-.872-.292-1.558-.344-8.767-.731-16.709,1.106-25.363-1.795-3.095-1.039-4.281-4.614-4.964-6.787-.133-.397-.108-.742,.053-1.22,.344-1.031,1.25-2.142,2.839-3.992,.878-1.031,.4-1.192,2.445-3.861,9.289-12.162,20.587-22.946,30.935-34.046,.689-.742,2.275-.208,2.753-.047,.714,.239,.422,.847,1.878,1.778,.872,.556,1.956,1.803,1.742,2.436-.692,2.067-2.095,2.567-2.47,3.678Z"/>
  <path d="M391.542,211.597c-.764-.23-1.532,.051-2.296-.182-.681-.203-1.163-1.202-2.775-1.69-7.99-2.41-16.045-2.884-22.761-2.87-.565,0-.88,.078-1.362,.613-2.927,3.288-5.681,6.116-8.695,9.377-.086,.228-.027,.332,.226,.407,4.28-.07,9.355-.493,13.609,.79,2.041,.616,3.992,1.714,5.806,3.454,.759,.742,.476,2.016,.19,2.782-.342,.918-3.968,.503-4.649,.3-1.02-.308-1.957-.849-2.722-1.079-5.271-1.59-11.11-.629-15.819-.943-.735-.054-2.409-.131-3.004,.455-6.389,6.241-11.28,10.981-12.791,15.035-.455,1.224,.22,2.961,1.16,3.243,1.529,.463,4.7,.825,7.425,.627,2.921-.225,5.018-.273,6.58-.399,5.158-.399,10.723-2.892,15.822-1.352,.339,.104,.681,.206,.764,.487,.17,.56,2.094,2.249,1.752,3.168-.199,.536-.512,.868-.883,.841-.651-.027-1.359,.099-2.24,.428-1.217,.485-2.27,.763-2.865,.838-9.129,1.414-18.859,2.905-30.421-.584-.595-.179-4.557-2.485-5.375-5.114-.309-.945,.402-3.114,.773-4.107,2.338-6.274,7.505-10.758,11.8-15.677-.173-.308-.708-1.406-.223-2.704,.113-.308,.256-.688,.512-.868,.399-.305,.764-.281,2.808-.174,.735,.051,.937,.027,1.672-.688,4.147-4.024,6.276-6.191,7.847-8.357,.113-.305,.054-.41-.202-.485-.506-.155-2.18,.021-3.37-.337-.512-.155-1.08-.41-1.502-.793-.991-.897-1.13-3.577-.788-4.496,.143-.38,.345-.407,.711-.38,5.899,.418,11.512,.07,17.157-.099,3.822-.123,15.985,.485,24.487,3.052,.848,.254,2.296,.948,2.722,1.331,1.696,1.534,3.248,3.706,2.737,5.082-.428,1.146-.878,1.352-1.814,1.068Z"/>
  <path d="M392.562,272.353c-.506,.183-.664,.131-.981,.025-1.27-.425-2.884-1.408-3.57-2.786s.567-6.698,1.872-10.59c1.197-3.572,2.661-6.878,3.886-10.531,.081-.239-.05-.369-.372-.475-5.084,.15-14.481,0-17.734-.561-.583-.106-.878-.031-1.564,.711-1.672,1.822-2.631,3.622-3.136,5.131-1.172,3.492-1.039,3.889-1.253,4.525-.053,.158-.264,.264-.556,.342-1.27,.369-2.489,1.108-3.6,.736-.242-.081-.9-.742-1.272-1.22-1.372-1.697-1.531-2.808-.411-6.145,1.039-3.095,3.27-6.323,3.35-6.561,.078-.236-.025-.447-.292-.714-1.558-1.67-2.061-2.281-1.714-3.311,.586-1.747,2.364-3.889,2.656-3.97,.397-.131,.739-.103,.978-.022,1.27,.425,1.928,2.147,2.959,2.492,.242,.081,.428,.056,1.328-.792,10.053-9.434,20.473-18.39,33.596-28.56,1.911-1.481,2.097-1.506,2.414-1.4,.875,.294,3.575,.142,5.4,.753,1.031,.347,2.436,1.17,2.461,1.62-.031,.872,.419,.847,.208,1.483-.242,.714-3.561,6.664-3.722,7.142-.267,.792-.611,1.561-1.114,2.539-2.975,5.714-8.162,18.546-8.267,18.865-.081,.236-.158,.475,.314,.633,.556,.186,1.933,.297,4.236,1.07,2.145,.719,3.861,1.914,4.334,3.131,.239,.608,.264,.794,.183,1.033-.078,.236-.289,.608-.661,.925-1.486,1.27-3.392,1.161-6.409,.147-1.272-.425-2.697-.642-3.759-.378-.875,.239-.981,.292-1.406,1.295l-3.059,7.806c-.428,1.006-1.358,3.784-1.758,4.975-2.156,6.431-1.181,8.789-1.314,9.187-.319,.95-1.458,1.189-2.253,1.45Zm12.804-51.606c.4-1.192,.347-1.297,.186-1.353-.158-.053-.317-.106-.925,.397-9.284,7.662-16.018,13.526-22.518,19.737-1.3,1.242-1.592,1.586-1.645,1.745-.078,.239,.053,.369,.372,.478,.872,.292,5.82,.539,8.681,.439,3.311-.125,5.589-.069,5.959-.122,.45-.028,.556-.078,.85-.686,5.184-10.715,7.842-17.065,9.039-20.635Z"/>
  <path d="M463.944,236.517c-.528,0-1.403,.5-2.672,.075-.633-.214-.289-.717-1.32-1.592-1.245-1.036-1.375-1.433-2.25-1.725-4.442-1.489-8.678-2.292-12.228-2.775,.264,.531,.317,.9,.236,1.139-.053,.158-.183,.292-.317,.422-10.581,9.167-18.965,18.898-26.029,31.541-.667,1.189-.983,1.614-1.331,2.645-.211,.636-.347,1.297-.561,1.933-.478,1.428-1.167,2.431-2.992,1.82-1.192-.4-2.517-1.725-3.545-2.864-.317-.372-.578-1.697-.392-2.253,.158-.475,1.089-2.461,1.514-3.2,7.381-11.742,15.187-22.374,24.813-32.124,.081-.239,.031-.344-.367-.478-1.139-.294-3.942-.881-5.928-1.547-1.667-.558-3.492-1.7-4.022-2.761-.103-.211-.05-.372,.617-2.356,.639-1.903,2.12-2.378,2.675-2.192,.714,.239,.689,.85,5.928,2.606,7.62,2.556,15.854,2.492,24.032,5.234,2.859,.958,6.292,5.464,5.973,6.42-.533,1.586-1.222,2.061-1.833,2.033Z"/>
  <path d="M490.577,266.875c.238,.292,.443,.475,.677,.577,.944,.416,1.425,1.825,1.512,2.872,.084,1.044,.427,.923-.172,2.219-.386,.838-.809,.926-1.126,.788-5.185-2.291-10.109-2.902-14.864-4.083-.937-.229-1.197-.068-1.61,.206-2.509,1.74-4.434,4.469-6.643,6.798-4.124,4.42-7.185,9.402-10.172,14.232-.363,.575-1.483,.54-2.267,.196-1.023-.452-2.143-1.314-2.784-1.965-.77-.798-.561-2.268-.305-3.437,.097-.417,.193-.835,.37-1.216,.283-.608,.529-1.142,1.305-1.993,3.305-3.679,6.859-8.904,10.174-12.397,.37-.387,.916-1.156,1.126-1.615,.249-.533,.073-.975-.478-1.218l-11.992-2.724c-.857-.193-1.084-.112-1.497,.167-3.032,2.056-6.373,7.649-7.565,8.59-.3,.235-.706,.699-1.198,1.766-.636,1.374-.805,2.767-1.158,3.53-.633,1.371-1.176,2.14-2.593,1.517-.707-.311-1.734-.951-1.988-1.432-.591-1.176-1.091-1.121-1.641-2.19-.338-.699-.318-1.152-.711-1.325-.391-.171-.364-.433-.118-.967,.176-.381,.996-1.949,1.616-2.685l.802-1.114c1.193-1.767,4.627-6.125,5.086-7.117,.14-.304,.099-.414-.137-.519-.55-.243-2.65-.619-4.221-1.311-1.81-.8-3.398-1.867-4.029-3.981-.227-.743,.508-3.355,.685-3.736,.246-.534,.966-.86,1.753-.513,.941,.416,2.041,1.728,3.142,2.213,.707,.311,5.238,1.576,7.448,1.911,.62,.088,.767-.029,1.067-.264,2.603-2.155,4.591-5.224,7.336-7.683,6.307-5.662,13.03-11.598,19.867-16.565,.71-.512,1.366-.499,2.783,.125,.784,.347,.894,1.132,2.576,2.608,.603,.541,.794,1.359,.581,1.815-.14,.307-.35,.763-.763,1.04-8.651,4.993-13.271,11.308-22.064,18.255-.896,.708-1.109,1.164-1.285,1.545s-.193,.832,.123,.97c4.365,1.194,8.919,2.193,13.187,2.791,.62,.091,.93,.044,1.557-.505,5.363-4.426,10.064-9.692,14.894-14.811,.367-.39,.596-.47,.903-.52,.727-.139,1.403-.576,2.503-.088,.784,.344,1.385,.885,2.565,1.406,1.021,.449,1.964,1.692,1.469,2.759-.42,.915-1.036,1.836-2.442,3.235-3.548,3.576-7.277,6.335-10.861,9.985-.176,.381-.2,.644,.27,.851,1.18,.521,5.544,.705,6.881,1.295,1.1,.485,1.735,.949,2.428,1.711Z"/>
  <path d="M542.538,266.475c-.729-.215-1.46,.045-2.189-.168-.649-.19-1.109-1.11-2.646-1.56-7.617-2.228-15.296-2.666-21.699-2.651-.539,0-.839,.069-1.299,.564-2.79,3.037-5.416,5.648-8.289,8.661-.082,.213-.028,.307,.218,.378,4.078-.064,8.916-.458,12.971,.727,1.945,.569,3.806,1.585,5.533,3.193,.726,.683,.457,1.862,.184,2.569-.326,.848-3.783,.465-4.432,.275-.973-.284-1.866-.781-2.595-.994-5.025-1.471-10.591-.584-15.08-.873-.7-.049-2.297-.121-2.864,.42-6.091,5.765-10.753,10.142-12.194,13.889-.434,1.13,.21,2.733,1.106,2.995,1.458,.425,4.48,.762,7.078,.576,2.782-.208,4.784-.252,6.273-.366,4.917-.371,10.22-2.671,15.083-1.249,.323,.094,.649,.188,.729,.45,.162,.517,1.994,2.075,1.667,2.923-.19,.495-.485,.801-.839,.777-.621-.025-1.296,.092-2.135,.398-1.163,.445-2.164,.702-2.731,.772-8.703,1.308-17.979,2.683-29.001-.539-.567-.166-4.344-2.295-5.124-4.724-.295-.873,.383-2.876,.737-3.794,2.229-5.794,7.155-9.937,11.249-14.477-.164-.284-.675-1.298-.213-2.5,.108-.282,.244-.636,.488-.801,.38-.279,.729-.257,2.677-.158,.7,.047,.893,.025,1.594-.636,3.953-3.719,5.983-5.718,7.478-7.721,.108-.282,.054-.376-.19-.448-.488-.141-2.079,.02-3.213-.312-.488-.141-1.029-.378-1.432-.732-.944-.826-1.078-3.302-.751-4.15,.136-.354,.329-.376,.678-.354,5.623,.388,10.974,.064,16.357-.089,3.644-.114,15.239,.448,23.344,2.817,.808,.237,2.189,.875,2.595,1.232,1.616,1.415,3.097,3.42,2.609,4.691-.408,1.061-.839,1.249-1.73,.989Z"/>
  <path d="M574.232,280.298c-1.306,3.892-4.834,8.359-10.773,11.578-4.214,2.295-8.584,2.156-14.937,1.878-.608-.025-.794,0-.956,.475,.156,2.967,1.578,7.153,2.392,10.781,.106,.478,.183,.767,.419,1.378,1.161,2.861,2.058,4.664,2.878,6.175,1.817,3.259,3.114,4.136,4.809,5.145,.953,.583,1.447,3.575,.917,5.164-.267,.794-1.67,.764-2.859,.367-1.906-.639-3.864-2.445-5.87-4.884-6.528-7.928-7.173-16.27-9.064-25.646-.131-.664-.289-.717-.447-.769-.397-.133-.633,.053-.978,.556-4.436,6.109-8.42,13.779-9.326,16.479-.267,.794-1.589,1.056-3.734,.336-.953-.319-.664-.397-1.72-1.461-.397-.397-1.506-1.297-1.161-2.331,5-10.159,11.553-19.44,18.557-28.482,.931-1.189,1.064-1.322,1.753-1.797,1.036-.711,2.417-2.986,3.478-4.045,.106-.317-.053-.372-.211-.425-.714-.239-1.981-3.578-1.686-4.45,.211-.633,.611-.767,.9-.847,4.056-1.289,11.417-2.442,18.482-.072,2.383,.8,4.87,2.078,6.136,3.031,1.695,1.275,1.614,1.514,1.853,1.858,1.556,2.2,1.661,2.675,1.845,3.972,.208,1.222,.181,3.417-.697,6.036Zm-8.723-9.548c-1.747-.583-3.547-.747-5.32-.725-.531,0-.9,.053-1.272,.369-5.092,4.386-8.831,8.431-13.848,15.226-.081,.239-.133,.397,.053,.636,.422,.583,1.242,1.033,1.875,1.247,1.033,.344,1.642,.372,2.886,.35,1.511-.025,1.589,.531,4.186-.1,5.773-1.42,12.028-5.325,14.37-12.312,.425-1.27,.403-1.983,.189-2.408-.475-.956-1.77-1.831-3.12-2.283Z"/>
</svg>